<svg width="24" height="24" fill="none" xmlns="http://www.w3.org/2000/svg"><path d="M15.543 1h.135c.109 1.34-.403 2.341-1.024 3.066-.61.72-1.445 1.418-2.796 1.313-.09-1.321.422-2.248 1.043-2.971.575-.675 1.63-1.275 2.642-1.408zm4.089 13.947v.037a11.053 11.053 0 01-1.582 3.05c-.603.83-1.342 1.947-2.662 1.947-1.14 0-1.898-.733-3.067-.754-1.236-.02-1.916.614-3.047.773h-.385c-.83-.12-1.5-.777-1.989-1.37-1.439-1.75-2.551-4.011-2.758-6.905v-.85c.088-2.07 1.094-3.754 2.431-4.57C7.28 5.87 8.25 5.5 9.33 5.666c.463.072.936.23 1.35.388.394.15.885.418 1.35.404.316-.009.63-.173.948-.29.93-.336 1.843-.721 3.046-.54 1.446.219 2.473.861 3.107 1.852-1.223.779-2.19 1.952-2.025 3.955.147 1.82 1.204 2.884 2.526 3.512z" fill="#fff"/></svg>