<svg width="205" height="37" fill="none" xmlns="http://www.w3.org/2000/svg"><path fill-rule="evenodd" clip-rule="evenodd" d="M29.547 10.39a8.844 8.844 0 016.175 8.43 8.813 8.813 0 01-2.339 5.99 7.395 7.395 0 01-7.237 6.685 10.707 10.707 0 01-5.212 1.345 10.75 10.75 0 01-9.203-5.185H8.819C3.948 27.655 0 23.691 0 18.821c0-4.708 3.69-8.57 8.336-8.822a8.821 8.821 0 018.338-5.943h4.41a8.822 8.822 0 018.463 6.335z" fill="#D4704B"/><path fill-rule="evenodd" clip-rule="evenodd" d="M25.159 16.708c0-7 5.675-12.676 12.675-12.676h7.49C52.325 4.032 58 9.707 58 16.708c0 7-5.675 12.676-12.675 12.676 0 0-6.174.051-6.368.113-.194.062-.528.354-.805.516L27.758 36.07c-1.153.671-2.599-.16-2.599-1.494V22.462c0-.617.31-1.127.757-1.43a12.65 12.65 0 01-.757-4.324z" fill="#080748"/><circle cx="28.904" cy="14.692" r="14.692" fill="#F5D1C4"/><path d="M24.583 16.9s1.391 2.497 4.539 2.497c3.148 0 4.295-2.497 4.295-2.497" stroke="#D4704B" stroke-width="1.344" stroke-linecap="round"/><path d="M74.816 26.308v-1.056l.192-.192h.768c.24 0 .456-.096.648-.288.208-.208.312-.432.312-.672v-12c0-.24-.104-.456-.312-.648-.192-.208-.408-.312-.648-.312h-.768l-.192-.192V9.892l.192-.192h6.864l.192.192v1.056l-.192.192h-.768c-.24 0-.464.104-.672.312a.895.895 0 00-.288.648v12c0 .24.096.464.288.672.208.192.432.288.672.288h.768l.192.192v1.056l-.192.192h-6.864l-.192-.192zm8.883 0v-1.056l.192-.192h.288c.24 0 .456-.096.648-.288.208-.208.312-.432.312-.672v-6.048c0-.24-.104-.456-.312-.648-.192-.208-.408-.312-.648-.312h-.288l-.192-.192v-.648l.144-.192 3.504-1.416h.768l.192.192-.24 1.608a4.907 4.907 0 011.728-1.56c.704-.384 1.504-.576 2.4-.576 1.296 0 2.32.352 3.072 1.056.768.688 1.152 1.704 1.152 3.048V24.1c0 .24.096.464.288.672.208.192.432.288.672.288h.288l.192.192v1.056l-.192.192h-5.664l-.192-.192v-1.056l.192-.192h.288c.24 0 .456-.096.648-.288.208-.208.312-.432.312-.672v-5.568c0-.768-.208-1.344-.624-1.728-.4-.384-.944-.576-1.632-.576-.784 0-1.432.288-1.944.864-.496.56-.744 1.32-.744 2.28V24.1c0 .24.096.464.288.672.208.192.432.288.672.288h.288l.192.192v1.056l-.192.192H83.89l-.192-.192zm15.656 0v-1.056l.192-.192h.288c.24 0 .456-.096.648-.288.208-.208.312-.432.312-.672v-6.048c0-.24-.104-.456-.312-.648-.192-.208-.408-.312-.648-.312h-.288l-.192-.192v-.648l.144-.192 3.504-1.416h.768l.192.192-.24 1.608a4.907 4.907 0 011.728-1.56c.704-.384 1.504-.576 2.4-.576 1.296 0 2.32.352 3.072 1.056.768.688 1.152 1.704 1.152 3.048V24.1c0 .24.096.464.288.672.208.192.432.288.672.288h.288l.192.192v1.056l-.192.192h-5.664l-.192-.192v-1.056l.192-.192h.288c.24 0 .456-.096.648-.288.208-.208.312-.432.312-.672v-5.568c0-.768-.208-1.344-.624-1.728-.4-.384-.944-.576-1.632-.576-.784 0-1.432.288-1.944.864-.496.56-.744 1.32-.744 2.28V24.1c0 .24.096.464.288.672.208.192.432.288.672.288h.288l.192.192v1.056l-.192.192h-5.664l-.192-.192zm21.992.528c-1.232 0-2.328-.28-3.288-.84a6.051 6.051 0 01-2.256-2.28c-.528-.976-.792-2.056-.792-3.24 0-1.152.272-2.2.816-3.144a5.976 5.976 0 012.256-2.208c.96-.544 2.024-.816 3.192-.816 1.28 0 2.36.288 3.24.864a5.297 5.297 0 011.968 2.304c.432.944.648 2 .648 3.168l-.192.192h-8.928c0 .704.168 1.344.504 1.92.336.56.808 1.008 1.416 1.344.608.32 1.312.48 2.112.48 1.968 0 3.48-.8 4.536-2.4l.192-.096.36.144.072.192c-.384 1.36-1.096 2.44-2.136 3.24-1.04.784-2.28 1.176-3.72 1.176zm1.68-7.536c.336 0 .576-.08.72-.24a.928.928 0 00.24-.648c0-.784-.248-1.408-.744-1.872-.496-.464-1.144-.696-1.944-.696-.928 0-1.696.32-2.304.96-.592.624-.92 1.392-.984 2.304l.192.192h4.824zm5.812 7.008v-1.056l.192-.192h.288c.24 0 .456-.096.648-.288.208-.208.312-.432.312-.672v-6.048c0-.24-.104-.456-.312-.648-.192-.208-.408-.312-.648-.312h-.288l-.192-.192v-.648l.144-.192 3.504-1.416h.768l.192.192-.24 1.824a4.233 4.233 0 011.368-1.704 3.334 3.334 0 012.016-.648c.576 0 1.048.176 1.416.528.384.336.576.768.576 1.296 0 .496-.176.92-.528 1.272-.336.336-.76.504-1.272.504-.496 0-.912-.16-1.248-.48a1.85 1.85 0 01-.552-1.224c-.464.288-.84.76-1.128 1.416-.272.64-.408 1.376-.408 2.208V24.1c0 .24.096.464.288.672.208.192.432.288.672.288h.288l.192.192v1.056l-.192.192h-5.664l-.192-.192zm15.893.528a8.6 8.6 0 01-2.688-.408c-.816-.272-1.512-.632-2.088-1.08l-.168-.312.192-3.36.24-.24h.96l.24.24c.112 1.2.464 2.12 1.056 2.76.592.64 1.296.96 2.112.96.752 0 1.336-.256 1.752-.768a2.865 2.865 0 00.624-1.824c0-.656-.112-1.2-.336-1.632a3.31 3.31 0 00-.96-1.152c-.416-.32-.984-.656-1.704-1.008-1.312-.656-2.304-1.384-2.976-2.184-.672-.816-1.008-1.768-1.008-2.856 0-.944.24-1.768.72-2.472a4.596 4.596 0 011.944-1.584 6.016 6.016 0 012.544-.552c1.616 0 2.904.384 3.864 1.152l.144.24.12 3.216-.24.24h-.864l-.24-.24c-.112-1.056-.392-1.848-.84-2.376-.432-.528-1.024-.792-1.776-.792-.672 0-1.216.216-1.632.648-.4.432-.6.976-.6 1.632 0 .656.224 1.232.672 1.728.448.48 1.2.976 2.256 1.488 1.44.72 2.496 1.496 3.168 2.328.672.816 1.008 1.88 1.008 3.192 0 .88-.224 1.704-.672 2.472-.448.768-1.088 1.384-1.92 1.848-.832.464-1.8.696-2.904.696zm13.459 0c-1.232 0-2.328-.28-3.288-.84a6.051 6.051 0 01-2.256-2.28c-.528-.976-.792-2.056-.792-3.24 0-1.152.272-2.2.816-3.144a5.976 5.976 0 012.256-2.208c.96-.544 2.024-.816 3.192-.816 1.28 0 2.36.288 3.24.864a5.297 5.297 0 011.968 2.304c.432.944.648 2 .648 3.168l-.192.192h-8.928c0 .704.168 1.344.504 1.92.336.56.808 1.008 1.416 1.344.608.32 1.312.48 2.112.48 1.968 0 3.48-.8 4.536-2.4l.192-.096.36.144.072.192c-.384 1.36-1.096 2.44-2.136 3.24-1.04.784-2.28 1.176-3.72 1.176zm1.68-7.536c.336 0 .576-.08.72-.24a.928.928 0 00.24-.648c0-.784-.248-1.408-.744-1.872-.496-.464-1.144-.696-1.944-.696-.928 0-1.696.32-2.304.96-.592.624-.92 1.392-.984 2.304l.192.192h4.824zm5.812 7.008v-1.056l.192-.192h.288c.24 0 .456-.096.648-.288.208-.208.312-.432.312-.672v-6.048c0-.24-.104-.456-.312-.648-.192-.208-.408-.312-.648-.312h-.288l-.192-.192v-.648l.144-.192 3.504-1.416h.768l.192.192-.24 1.608a4.907 4.907 0 011.728-1.56c.704-.384 1.504-.576 2.4-.576 1.296 0 2.32.352 3.072 1.056.768.688 1.152 1.704 1.152 3.048V24.1c0 .24.096.464.288.672.208.192.432.288.672.288h.288l.192.192v1.056l-.192.192h-5.664l-.192-.192v-1.056l.192-.192h.288c.24 0 .456-.096.648-.288.208-.208.312-.432.312-.672v-5.568c0-.768-.208-1.344-.624-1.728-.4-.384-.944-.576-1.632-.576-.784 0-1.432.288-1.944.864-.496.56-.744 1.32-.744 2.28V24.1c0 .24.096.464.288.672.208.192.432.288.672.288h.288l.192.192v1.056l-.192.192h-5.664l-.192-.192zm20 .528c-.832 0-1.6-.096-2.304-.288-.688-.192-1.28-.448-1.776-.768l-.12-.24.648-2.64.192-.192h.816l.192.192c0 .816.192 1.464.576 1.944.4.464.944.696 1.632.696.592 0 1.024-.168 1.296-.504.288-.336.432-.736.432-1.2 0-.56-.144-.992-.432-1.296-.288-.304-.792-.592-1.512-.864-1.2-.464-2.088-.992-2.664-1.584a2.968 2.968 0 01-.84-2.112c0-1.104.408-1.992 1.224-2.664.832-.672 1.88-1.008 3.144-1.008 1.12 0 2.104.224 2.952.672l.168.24.12 2.688-.192.192h-.912l-.192-.192c-.144-1.52-.8-2.28-1.968-2.28-.432 0-.8.136-1.104.408-.304.256-.456.608-.456 1.056 0 .48.2.904.6 1.272.4.352 1.048.712 1.944 1.08.976.4 1.728.856 2.256 1.368.528.512.792 1.232.792 2.16 0 1.248-.44 2.208-1.32 2.88-.864.656-1.928.984-3.192.984zm12.469 0c-1.232 0-2.328-.28-3.288-.84a6.051 6.051 0 01-2.256-2.28c-.528-.976-.792-2.056-.792-3.24 0-1.152.272-2.2.816-3.144a5.976 5.976 0 012.256-2.208c.96-.544 2.024-.816 3.192-.816 1.28 0 2.36.288 3.24.864a5.297 5.297 0 011.968 2.304c.432.944.648 2 .648 3.168l-.192.192h-8.928c0 .704.168 1.344.504 1.92.336.56.808 1.008 1.416 1.344.608.32 1.312.48 2.112.48 1.968 0 3.48-.8 4.536-2.4l.192-.096.36.144.072.192c-.384 1.36-1.096 2.44-2.136 3.24-1.04.784-2.28 1.176-3.72 1.176zm1.68-7.536c.336 0 .576-.08.72-.24a.928.928 0 00.24-.648c0-.784-.248-1.408-.744-1.872-.496-.464-1.144-.696-1.944-.696-.928 0-1.696.32-2.304.96-.592.624-.92 1.392-.984 2.304l.192.192h4.824z" fill="#0C0748"/></svg>