<svg width="58" height="37" fill="none" xmlns="http://www.w3.org/2000/svg"><path fill-rule="evenodd" clip-rule="evenodd" d="M29.547 10.39a8.844 8.844 0 016.175 8.43 8.813 8.813 0 01-2.339 5.99 7.395 7.395 0 01-7.237 6.685 10.706 10.706 0 01-5.212 1.345 10.75 10.75 0 01-9.203-5.185H8.819C3.948 27.655 0 23.691 0 18.821c0-4.708 3.69-8.57 8.336-8.822a8.821 8.821 0 018.338-5.943h4.41a8.822 8.822 0 018.463 6.335z" fill="#D4704B"/><path fill-rule="evenodd" clip-rule="evenodd" d="M25.159 16.708c0-7 5.675-12.676 12.675-12.676h7.49C52.325 4.032 58 9.707 58 16.708c0 7-5.675 12.676-12.675 12.676 0 0-6.174.051-6.368.113-.194.062-.528.354-.805.516L27.758 36.07c-1.153.671-2.599-.16-2.599-1.494V22.462c0-.617.31-1.127.757-1.43a12.65 12.65 0 01-.757-4.324z" fill="#080748"/><circle cx="28.904" cy="14.692" r="14.692" fill="#F5D1C4"/><path d="M24.583 16.9s1.391 2.497 4.539 2.497c3.148 0 4.295-2.497 4.295-2.497" stroke="#D4704B" stroke-width="1.344" stroke-linecap="round"/></svg>