<svg width="418" height="348" viewBox="0 0 418 348" fill="none" xmlns="http://www.w3.org/2000/svg">
<g filter="url(#filter0_dd_412_2857)">
<g clip-path="url(#clip0_412_2857)">
<rect x="24" y="22" width="370" height="300" rx="23.68" fill="white"/>
<path d="M42.8786 206.051H50.4977L50.7108 205.838V204.666L50.4977 204.452H49.6452C49.1124 204.452 48.5796 203.92 48.5796 203.387V190.067C48.5796 189.534 49.1124 189.001 49.6452 189.001H50.4977L50.7108 188.788V187.616L50.4977 187.403H42.8786L42.6655 187.616V188.788L42.8786 189.001H43.7311C44.2639 189.001 44.7967 189.534 44.7967 190.067V203.387C44.7967 203.92 44.2639 204.452 43.7311 204.452H42.8786L42.6655 204.666V205.838L42.8786 206.051ZM57.8268 206.424C60.2244 206.424 61.1568 204.879 61.583 203.573L61.4765 203.36L60.9437 203.147L60.7306 203.227C60.3576 203.946 59.8248 204.399 58.999 204.399C58.1465 204.399 57.4805 203.866 57.4805 202.774V194.596H60.8371L61.0502 194.382V193.104L60.8371 192.891H57.4805V189.427L57.2674 189.214H56.8145L51.7795 193.796V194.382L51.9926 194.596H53.964V202.534C53.964 205.305 55.8022 206.424 57.8268 206.424ZM64.0753 193.663H65.8869L66.1533 193.397L66.6861 187.669L66.4197 187.403H63.5425L63.2761 187.669L63.8089 193.397L64.0753 193.663ZM73.0607 206.424C75.6714 206.424 78.069 205.038 78.069 202.135C78.069 199.87 76.4973 198.965 74.6858 198.219C72.7677 197.419 71.8619 196.727 71.8619 195.608C71.8619 194.569 72.6878 193.983 73.5935 193.983C75.0587 193.983 75.6448 195.075 75.778 196.514L75.9911 196.727H77.0034L77.2166 196.514L77.0834 193.53L76.8969 193.264C75.9911 192.784 74.9522 192.518 73.6202 192.518C70.8762 192.518 68.7717 194.116 68.7717 196.594C68.7717 198.432 69.9971 199.684 72.6611 200.696C74.1796 201.282 74.819 201.815 74.819 203.094C74.819 204 74.3128 204.985 72.9009 204.985C71.3558 204.985 70.45 203.866 70.45 202.055L70.2369 201.842H69.3311L69.118 202.055L68.3987 204.985L68.5319 205.252C69.5442 205.891 71.0894 206.424 73.0607 206.424ZM94.8323 206.424C97.7893 206.424 101.066 204.346 101.066 199.471C101.066 195.102 97.9491 192.518 94.7257 192.518C92.8076 192.518 91.3957 193.423 90.7297 194.276V189.587L90.9961 187.083L90.783 186.87H89.9305L85.8279 188.442L85.6148 188.655V189.374L85.8279 189.587H86.1476C86.6804 189.587 87.2132 190.12 87.2132 190.653V203.387C87.2132 203.92 86.6804 204.452 86.1476 204.452H85.8279L85.6148 204.666V205.838L85.8279 206.051H90.6764L90.8895 205.838V204.799C91.8486 205.758 93.1273 206.424 94.8323 206.424ZM94.0597 204.666C91.6887 204.666 90.7297 202.321 90.7297 199.471C90.7297 196.62 91.6887 194.276 94.0597 194.276C96.4307 194.276 97.3897 196.62 97.3897 199.471C97.3897 202.321 96.4307 204.666 94.0597 204.666ZM109.899 206.424C113.122 206.424 115.546 204.506 116.399 201.522L116.319 201.309L115.919 201.149L115.706 201.256C114.561 202.987 112.909 203.92 110.671 203.92C107.954 203.92 106.196 202.108 106.196 199.764H116.106L116.319 199.551C116.319 195.821 114.268 192.518 109.819 192.518C105.903 192.518 102.866 195.448 102.866 199.364C102.866 203.36 105.743 206.424 109.899 206.424ZM106.409 198.059L106.196 197.846C106.329 195.874 107.741 194.223 109.845 194.223C111.63 194.223 112.829 195.342 112.829 197.073C112.829 197.553 112.589 198.059 111.763 198.059H106.409ZM125.248 206.424C128.471 206.424 130.896 204.506 131.748 201.522L131.668 201.309L131.269 201.149L131.055 201.256C129.91 202.987 128.258 203.92 126.02 203.92C123.303 203.92 121.545 202.108 121.545 199.764H131.455L131.668 199.551C131.668 195.821 129.617 192.518 125.168 192.518C121.252 192.518 118.215 195.448 118.215 199.364C118.215 203.36 121.092 206.424 125.248 206.424ZM121.758 198.059L121.545 197.846C121.678 195.874 123.09 194.223 125.195 194.223C126.979 194.223 128.178 195.342 128.178 197.073C128.178 197.553 127.939 198.059 127.113 198.059H121.758ZM133.777 206.051H140.064L140.277 205.838V204.666L140.064 204.452H139.745C139.212 204.452 138.679 203.92 138.679 203.387V198.139C138.679 195.954 139.984 194.649 141.663 194.649C143.101 194.649 144.167 195.448 144.167 197.206V203.387C144.167 203.92 143.634 204.452 143.101 204.452H142.782L142.568 204.666V205.838L142.782 206.051H149.069L149.282 205.838V204.666L149.069 204.452H148.749C148.216 204.452 147.683 203.92 147.683 203.387V197.073C147.683 194.01 145.765 192.518 142.995 192.518C140.943 192.518 139.372 193.477 138.413 194.889L138.679 193.104L138.466 192.891H137.613L133.724 194.462L133.564 194.676V195.395L133.777 195.608H134.097C134.63 195.608 135.163 196.141 135.163 196.674V203.387C135.163 203.92 134.63 204.452 134.097 204.452H133.777L133.564 204.666V205.838L133.777 206.051ZM163.083 206.424C165.054 206.424 166.307 205.598 167.292 204.319V206.104L167.505 206.317H168.358L172.034 204.745L172.247 204.532V203.813L172.034 203.6H171.714C171.182 203.6 170.649 203.067 170.649 202.534V193.104L170.436 192.891H169.344L168.038 194.596H167.905C167.159 193.69 165.88 192.518 163.509 192.518C160.073 192.518 156.796 195.022 156.796 199.604C156.796 203.893 159.62 206.424 163.083 206.424ZM163.776 204.666C161.405 204.666 160.419 202.321 160.419 199.471C160.419 196.62 161.405 194.276 163.776 194.276C166.147 194.276 167.132 196.62 167.132 199.471C167.132 202.321 166.147 204.666 163.776 204.666ZM192.741 194.462V193.13L192.501 192.891H187.999C187.306 192.651 186.56 192.518 185.681 192.518C182.378 192.518 179.954 194.729 179.954 197.499C179.954 199.204 180.886 200.59 182.165 201.442L179.634 204.586V206.051L179.847 206.211H181.552C180.38 206.903 179.847 207.969 179.847 208.955C179.847 210.873 181.525 212.444 185.282 212.444C189.065 212.444 192.581 210.446 192.581 207.303C192.581 205.065 191.249 203.493 187.919 203.493H182.884L183.87 202.215C184.429 202.401 184.882 202.481 185.681 202.481C188.958 202.481 191.409 200.243 191.409 197.499C191.409 196.434 191.036 195.501 190.45 194.702H192.501L192.741 194.462ZM185.681 200.829C184.189 200.829 183.23 199.577 183.23 197.499C183.23 195.421 184.189 194.169 185.681 194.169C187.147 194.169 188.106 195.421 188.106 197.499C188.106 199.577 187.147 200.829 185.681 200.829ZM183.87 206.211H186.853C188.638 206.211 189.251 207.116 189.251 208.129C189.251 209.407 188.026 210.713 185.815 210.713C183.737 210.713 182.564 209.78 182.564 208.395C182.564 207.463 183.097 206.61 183.87 206.211ZM194.394 206.051H200.681L200.894 205.838V204.666L200.681 204.452H200.361C199.828 204.452 199.295 203.92 199.295 203.387V198.645C199.295 196.78 199.961 195.262 201 194.622C201.054 195.688 201.906 196.514 202.998 196.514C204.144 196.514 204.996 195.635 204.996 194.542C204.996 193.397 204.091 192.518 202.785 192.518C201.054 192.518 199.722 193.637 199.029 195.128L199.295 193.104L199.082 192.891H198.23L194.34 194.462L194.181 194.676V195.395L194.394 195.608H194.713C195.246 195.608 195.779 196.141 195.779 196.674V203.387C195.779 203.92 195.246 204.452 194.713 204.452H194.394L194.181 204.666V205.838L194.394 206.051ZM212.738 206.424C215.962 206.424 218.386 204.506 219.239 201.522L219.159 201.309L218.759 201.149L218.546 201.256C217.4 202.987 215.749 203.92 213.511 203.92C210.794 203.92 209.035 202.108 209.035 199.764H218.946L219.159 199.551C219.159 195.821 217.107 192.518 212.658 192.518C208.742 192.518 205.705 195.448 205.705 199.364C205.705 203.36 208.583 206.424 212.738 206.424ZM209.249 198.059L209.035 197.846C209.169 195.874 210.581 194.223 212.685 194.223C214.47 194.223 215.669 195.342 215.669 197.073C215.669 197.553 215.429 198.059 214.603 198.059H209.249ZM227.342 206.424C229.313 206.424 230.565 205.598 231.551 204.319V206.104L231.764 206.317H232.616L236.293 204.745L236.506 204.532V203.813L236.293 203.6H235.973C235.44 203.6 234.907 203.067 234.907 202.534V193.104L234.694 192.891H233.602L232.297 194.596H232.164C231.418 193.69 230.139 192.518 227.768 192.518C224.331 192.518 221.055 195.022 221.055 199.604C221.055 203.893 223.878 206.424 227.342 206.424ZM228.034 204.666C225.663 204.666 224.678 202.321 224.678 199.471C224.678 196.62 225.663 194.276 228.034 194.276C230.405 194.276 231.391 196.62 231.391 199.471C231.391 202.321 230.405 204.666 228.034 204.666ZM243.188 206.424C245.586 206.424 246.518 204.879 246.944 203.573L246.838 203.36L246.305 203.147L246.092 203.227C245.719 203.946 245.186 204.399 244.36 204.399C243.508 204.399 242.842 203.866 242.842 202.774V194.596H246.198L246.412 194.382V193.104L246.198 192.891H242.842V189.427L242.629 189.214H242.176L237.141 193.796V194.382L237.354 194.596H239.325V202.534C239.325 205.305 241.163 206.424 243.188 206.424ZM48.8194 238.051H49.3788L49.6718 237.784L52.9219 230.059L56.172 237.784L56.4384 238.051H56.9712L57.2376 237.784L61.8996 227.288C62.0861 226.835 62.4324 226.489 62.9652 226.489H63.6845L63.8976 226.276V225.104L63.6845 224.891H58.6762L58.463 225.104V226.276L58.6762 226.489H59.5286C59.9815 226.489 60.1946 226.755 60.1946 227.128C60.1946 227.262 60.168 227.395 60.1147 227.555L57.7171 232.936L55.4527 227.555C55.3994 227.448 55.3728 227.342 55.3728 227.235C55.3728 226.835 55.6925 226.489 56.1187 226.489H56.6515L56.8646 226.276V225.104L56.6515 224.891H51.1104L51.0038 225.104V226.276L51.1104 226.489H51.6432C52.0694 226.489 52.3625 226.835 52.3625 227.235C52.3625 227.342 52.3625 227.448 52.3092 227.555L50.1514 232.696L47.9669 227.555C47.887 227.395 47.887 227.235 47.887 227.102C47.887 226.729 48.1001 226.489 48.5796 226.489H49.4321L49.6452 226.276V225.104L49.4321 224.891H42.2926L42.0794 225.104V226.276L42.2926 226.489H42.8786C43.3049 226.489 43.6512 226.649 43.9442 227.288L48.5796 237.784L48.8194 238.051ZM71.2394 238.424C74.4629 238.424 76.8871 236.506 77.7396 233.522L77.6597 233.309L77.2601 233.149L77.0469 233.256C75.9014 234.987 74.2497 235.92 72.012 235.92C69.2947 235.92 67.5365 234.108 67.5365 231.764H77.4465L77.6597 231.551C77.6597 227.821 75.6084 224.518 71.1595 224.518C67.2434 224.518 64.2065 227.448 64.2065 231.364C64.2065 235.36 67.0836 238.424 71.2394 238.424ZM67.7496 230.059L67.5365 229.846C67.6697 227.874 69.0816 226.223 71.1861 226.223C72.971 226.223 74.1698 227.342 74.1698 229.073C74.1698 229.553 73.9301 230.059 73.1042 230.059H67.7496ZM86.5886 238.424C89.8121 238.424 92.2363 236.506 93.0888 233.522L93.0089 233.309L92.6093 233.149L92.3962 233.256C91.2506 234.987 89.599 235.92 87.3612 235.92C84.6439 235.92 82.8857 234.108 82.8857 231.764H92.7958L93.0089 231.551C93.0089 227.821 90.9576 224.518 86.5087 224.518C82.5926 224.518 79.5557 227.448 79.5557 231.364C79.5557 235.36 82.4328 238.424 86.5886 238.424ZM83.0988 230.059L82.8857 229.846C83.0189 227.874 84.4308 226.223 86.5354 226.223C88.3202 226.223 89.519 227.342 89.519 229.073C89.519 229.553 89.2793 230.059 88.4534 230.059H83.0988ZM94.5952 238.051H100.882L101.095 237.838V236.666L100.882 236.452H100.563C100.03 236.452 99.497 235.92 99.497 235.387V233.602L100.696 232.456L104.132 237.838L104.479 238.051H108.794L109.007 237.838V236.666L108.794 236.452H108.022C107.622 236.452 107.356 236.293 107.063 235.84L103.227 230.059L106.317 227.288C106.93 226.729 107.143 226.489 107.675 226.489H108.155L108.368 226.276V225.104L108.155 224.891H103.28L103.067 225.104V226.276L103.28 226.489H103.813C104.132 226.489 104.266 226.649 104.266 226.835C104.266 226.995 104.186 227.155 104.026 227.288L99.497 231.364V221.587L99.7634 219.083L99.5502 218.87H98.6978L94.5419 220.442L94.3821 220.655V221.374L94.5952 221.587H94.9149C95.4477 221.587 95.9805 222.12 95.9805 222.653V235.387C95.9805 235.92 95.4477 236.452 94.9149 236.452H94.5952L94.3821 236.666V237.838L94.5952 238.051ZM111.9 232.19H113.392L113.658 231.924L114.617 219.669L114.351 219.403H110.941L110.675 219.669L111.634 231.924L111.9 232.19ZM112.619 238.424C113.765 238.424 114.697 237.518 114.697 236.399C114.697 235.254 113.765 234.321 112.619 234.321C111.501 234.321 110.595 235.254 110.595 236.399C110.595 237.518 111.501 238.424 112.619 238.424Z" fill="#0C0748"/>
<path d="M43.3568 276.944H44.7227L49.3621 267.723V266.516H42.4607V267.679H48.0396V267.781L43.3568 276.944ZM54.4152 277.19C56.7566 277.19 58.1007 275.209 58.1007 271.748C58.1007 268.294 56.7349 266.27 54.4152 266.27C52.081 266.27 50.7152 268.286 50.7152 271.726C50.7152 275.195 52.0665 277.19 54.4152 277.19ZM54.4152 276.055C52.8759 276.055 52.0232 274.516 52.0232 271.726C52.0232 268.973 52.8903 267.412 54.4152 267.412C55.94 267.412 56.7927 268.958 56.7927 271.726C56.7927 274.523 55.9544 276.055 54.4152 276.055ZM61.5639 271.235C62.9731 271.235 63.8258 270.317 63.8258 268.778C63.8258 267.26 62.9659 266.328 61.5639 266.328C60.1619 266.328 59.2948 267.26 59.2948 268.778C59.2948 270.31 60.1475 271.235 61.5639 271.235ZM62.0336 276.944L69.2385 266.516H68.0606L60.8557 276.944H62.0336ZM61.5639 270.288C60.834 270.288 60.4149 269.739 60.4149 268.785C60.4149 267.838 60.834 267.282 61.5639 267.282C62.2866 267.282 62.7057 267.838 62.7057 268.785C62.7057 269.732 62.2938 270.288 61.5639 270.288ZM68.5375 277.045C69.9467 277.045 70.7994 276.127 70.7994 274.588C70.7994 273.07 69.9395 272.138 68.5375 272.138C67.1356 272.138 66.2684 273.07 66.2684 274.588C66.2684 276.12 67.1284 277.045 68.5375 277.045ZM68.5375 276.098C67.8076 276.098 67.3957 275.549 67.3957 274.595C67.3957 273.649 67.8076 273.092 68.5375 273.092C69.2674 273.092 69.6793 273.649 69.6793 274.595C69.6793 275.542 69.2674 276.098 68.5375 276.098ZM79.3374 277.081C81.5559 277.081 82.929 275.549 82.929 273.049C82.929 270.541 81.5559 269.016 79.3374 269.016C77.1188 269.016 75.7458 270.541 75.7458 273.049C75.7458 275.549 77.1188 277.081 79.3374 277.081ZM79.3374 275.961C77.8631 275.961 77.0321 274.892 77.0321 273.049C77.0321 271.199 77.8631 270.136 79.3374 270.136C80.8116 270.136 81.6426 271.199 81.6426 273.049C81.6426 274.892 80.8116 275.961 79.3374 275.961ZM85.1637 276.944H86.4066V270.194H88.1916V269.154H86.4066V268.323C86.4066 267.47 86.7824 267.036 87.6785 267.036C87.9025 267.036 88.1121 267.043 88.2638 267.072V266.061C88.0037 266.01 87.7291 265.988 87.4256 265.988C85.9441 265.988 85.1637 266.733 85.1637 268.286V269.154H83.8701V270.194H85.1637V276.944ZM94.2291 267.137V269.154H92.9717V270.194H94.2291V274.92C94.2291 276.409 94.8723 277.002 96.4766 277.002C96.7223 277.002 96.9608 276.973 97.2065 276.929V275.882C96.9752 275.903 96.8524 275.91 96.6283 275.91C95.819 275.91 95.4721 275.52 95.4721 274.602V270.194H97.2065V269.154H95.4721V267.137H94.2291ZM98.9208 276.944H100.164V272.333C100.164 271.018 100.93 270.136 102.325 270.136C103.502 270.136 104.124 270.823 104.124 272.203V276.944H105.367V271.9C105.367 270.071 104.326 269.016 102.679 269.016C101.486 269.016 100.67 269.522 100.279 270.382H100.164V266.061H98.9208V276.944ZM112.559 274.928C112.234 275.614 111.555 275.983 110.55 275.983C109.228 275.983 108.368 275.007 108.303 273.468V273.41H113.903V272.933C113.903 270.512 112.624 269.016 110.521 269.016C108.382 269.016 107.009 270.606 107.009 273.056C107.009 275.52 108.36 277.081 110.521 277.081C112.227 277.081 113.441 276.257 113.802 274.928H112.559ZM110.507 270.115C111.742 270.115 112.566 271.025 112.595 272.406H108.303C108.397 271.025 109.264 270.115 110.507 270.115ZM124.717 274.928C124.392 275.614 123.713 275.983 122.708 275.983C121.386 275.983 120.526 275.007 120.461 273.468V273.41H126.062V272.933C126.062 270.512 124.783 269.016 122.68 269.016C120.541 269.016 119.167 270.606 119.167 273.056C119.167 275.52 120.519 277.081 122.68 277.081C124.385 277.081 125.599 276.257 125.96 274.928H124.717ZM122.665 270.115C123.901 270.115 124.725 271.025 124.754 272.406H120.461C120.555 271.025 121.422 270.115 122.665 270.115ZM127.776 276.944H129.019V272.117C129.019 271.018 129.807 270.136 130.826 270.136C131.808 270.136 132.452 270.729 132.452 271.654V276.944H133.695V271.936C133.695 270.946 134.417 270.136 135.501 270.136C136.6 270.136 137.142 270.7 137.142 271.849V276.944H138.385V271.56C138.385 269.927 137.496 269.016 135.906 269.016C134.829 269.016 133.94 269.558 133.521 270.382H133.405C133.044 269.573 132.307 269.016 131.252 269.016C130.211 269.016 129.431 269.515 129.077 270.382H128.961V269.154H127.776V276.944ZM143.618 277.081C145.837 277.081 147.21 275.549 147.21 273.049C147.21 270.541 145.837 269.016 143.618 269.016C141.4 269.016 140.027 270.541 140.027 273.049C140.027 275.549 141.4 277.081 143.618 277.081ZM143.618 275.961C142.144 275.961 141.313 274.892 141.313 273.049C141.313 271.199 142.144 270.136 143.618 270.136C145.092 270.136 145.924 271.199 145.924 273.049C145.924 274.892 145.092 275.961 143.618 275.961ZM149.445 267.137V269.154H148.187V270.194H149.445V274.92C149.445 276.409 150.088 277.002 151.692 277.002C151.938 277.002 152.176 276.973 152.422 276.929V275.882C152.191 275.903 152.068 275.91 151.844 275.91C151.034 275.91 150.688 275.52 150.688 274.602V270.194H152.422V269.154H150.688V267.137H149.445ZM154.714 267.65C155.191 267.65 155.582 267.26 155.582 266.783C155.582 266.306 155.191 265.916 154.714 265.916C154.237 265.916 153.847 266.306 153.847 266.783C153.847 267.26 154.237 267.65 154.714 267.65ZM154.093 276.944H155.336V269.154H154.093V276.944ZM160.671 277.081C162.889 277.081 164.262 275.549 164.262 273.049C164.262 270.541 162.889 269.016 160.671 269.016C158.452 269.016 157.079 270.541 157.079 273.049C157.079 275.549 158.452 277.081 160.671 277.081ZM160.671 275.961C159.197 275.961 158.365 274.892 158.365 273.049C158.365 271.199 159.197 270.136 160.671 270.136C162.145 270.136 162.976 271.199 162.976 273.049C162.976 274.892 162.145 275.961 160.671 275.961ZM165.977 276.944H167.22V272.333C167.22 270.967 168.022 270.136 169.265 270.136C170.508 270.136 171.1 270.801 171.1 272.203V276.944H172.343V271.9C172.343 270.05 171.368 269.016 169.619 269.016C168.427 269.016 167.668 269.522 167.278 270.382H167.162V269.154H165.977V276.944ZM174.202 271.285C174.202 272.413 174.867 273.042 176.327 273.396L177.664 273.721C178.495 273.923 178.9 274.284 178.9 274.819C178.9 275.535 178.148 276.033 177.1 276.033C176.103 276.033 175.481 275.614 175.272 274.957H173.993C174.13 276.25 175.322 277.081 177.057 277.081C178.827 277.081 180.179 276.12 180.179 274.725C180.179 273.605 179.47 272.969 178.003 272.615L176.804 272.326C175.886 272.102 175.452 271.77 175.452 271.235C175.452 270.541 176.175 270.071 177.1 270.071C178.04 270.071 178.647 270.483 178.813 271.105H180.041C179.875 269.826 178.741 269.016 177.107 269.016C175.452 269.016 174.202 269.992 174.202 271.285ZM186.498 279.762C187.878 279.762 188.5 279.227 189.165 277.421L192.207 269.154H190.884L188.753 275.564H188.637L186.498 269.154H185.154L188.037 276.951L187.893 277.414C187.568 278.353 187.177 278.693 186.462 278.693C186.288 278.693 186.093 278.685 185.942 278.657V279.719C186.115 279.748 186.332 279.762 186.498 279.762ZM196.545 277.081C198.763 277.081 200.136 275.549 200.136 273.049C200.136 270.541 198.763 269.016 196.545 269.016C194.326 269.016 192.953 270.541 192.953 273.049C192.953 275.549 194.326 277.081 196.545 277.081ZM196.545 275.961C195.07 275.961 194.239 274.892 194.239 273.049C194.239 271.199 195.07 270.136 196.545 270.136C198.019 270.136 198.85 271.199 198.85 273.049C198.85 274.892 198.019 275.961 196.545 275.961ZM208.152 269.154H206.909V273.764C206.909 275.13 206.158 275.947 204.785 275.947C203.542 275.947 203.021 275.296 203.021 273.894V269.154H201.778V274.198C201.778 276.041 202.689 277.081 204.438 277.081C205.63 277.081 206.461 276.59 206.851 275.723H206.967V276.944H208.152V269.154ZM214.717 267.137V269.154H213.46V270.194H214.717V274.92C214.717 276.409 215.36 277.002 216.965 277.002C217.21 277.002 217.449 276.973 217.695 276.929V275.882C217.463 275.903 217.34 275.91 217.116 275.91C216.307 275.91 215.96 275.52 215.96 274.602V270.194H217.695V269.154H215.96V267.137H214.717ZM219.337 276.944H220.58V272.117C220.58 271.018 221.44 270.223 222.625 270.223C222.87 270.223 223.318 270.267 223.42 270.295V269.052C223.261 269.031 223 269.016 222.798 269.016C221.765 269.016 220.869 269.551 220.637 270.31H220.522V269.154H219.337V276.944ZM226.905 277.081C227.945 277.081 228.798 276.626 229.304 275.795H229.419V276.944H230.605V271.611C230.605 269.992 229.542 269.016 227.642 269.016C225.98 269.016 224.751 269.84 224.585 271.09H225.842C226.016 270.476 226.666 270.122 227.598 270.122C228.762 270.122 229.362 270.65 229.362 271.611V272.319L227.114 272.456C225.3 272.565 224.274 273.367 224.274 274.761C224.274 276.185 225.394 277.081 226.905 277.081ZM227.136 275.99C226.232 275.99 225.56 275.527 225.56 274.733C225.56 273.952 226.081 273.54 227.266 273.461L229.362 273.323V274.039C229.362 275.152 228.415 275.99 227.136 275.99ZM239.112 271.538C238.895 270.151 237.739 269.016 235.845 269.016C233.663 269.016 232.276 270.592 232.276 273.02C232.276 275.499 233.67 277.081 235.853 277.081C237.724 277.081 238.888 276.026 239.112 274.595H237.854C237.623 275.477 236.893 275.961 235.845 275.961C234.458 275.961 233.562 274.819 233.562 273.02C233.562 271.257 234.444 270.136 235.845 270.136C236.966 270.136 237.652 270.765 237.854 271.538H239.112ZM242.141 272.557H242.026V266.061H240.783V276.944H242.026V273.988L242.77 273.294L245.69 276.944H247.272L243.695 272.492L247.048 269.154H245.523L242.141 272.557ZM253.308 274.928C252.983 275.614 252.304 275.983 251.299 275.983C249.977 275.983 249.117 275.007 249.052 273.468V273.41H254.652V272.933C254.652 270.512 253.373 269.016 251.27 269.016C249.131 269.016 247.758 270.606 247.758 273.056C247.758 275.52 249.11 277.081 251.27 277.081C252.976 277.081 254.19 276.257 254.551 274.928H253.308ZM251.256 270.115C252.492 270.115 253.315 271.025 253.344 272.406H249.052C249.146 271.025 250.013 270.115 251.256 270.115ZM259.25 277.081C260.327 277.081 261.252 276.568 261.743 275.701H261.859V276.944H263.044V266.061H261.801V270.382H261.693C261.252 269.529 260.334 269.016 259.25 269.016C257.27 269.016 255.976 270.606 255.976 273.049C255.976 275.499 257.256 277.081 259.25 277.081ZM259.539 270.136C260.948 270.136 261.83 271.264 261.83 273.049C261.83 274.848 260.956 275.961 259.539 275.961C258.116 275.961 257.263 274.87 257.263 273.049C257.263 271.235 258.123 270.136 259.539 270.136ZM278.96 269.154H277.71L276.178 275.383H276.062L274.321 269.154H273.128L271.387 275.383H271.271L269.739 269.154H268.482L270.664 276.944H271.922L273.656 270.917H273.772L275.513 276.944H276.778L278.96 269.154ZM285.256 274.928C284.931 275.614 284.252 275.983 283.247 275.983C281.925 275.983 281.065 275.007 281 273.468V273.41H286.6V272.933C286.6 270.512 285.321 269.016 283.218 269.016C281.079 269.016 279.706 270.606 279.706 273.056C279.706 275.52 281.058 277.081 283.218 277.081C284.924 277.081 286.138 276.257 286.499 274.928H285.256ZM283.204 270.115C284.44 270.115 285.264 271.025 285.292 272.406H281C281.094 271.025 281.961 270.115 283.204 270.115ZM288.315 276.944H289.558V272.117C289.558 271.018 290.418 270.223 291.603 270.223C291.849 270.223 292.297 270.267 292.398 270.295V269.052C292.239 269.031 291.979 269.016 291.776 269.016C290.743 269.016 289.847 269.551 289.616 270.31H289.5V269.154H288.315V276.944ZM298.658 274.928C298.332 275.614 297.653 275.983 296.649 275.983C295.326 275.983 294.466 275.007 294.401 273.468V273.41H300.002V272.933C300.002 270.512 298.723 269.016 296.62 269.016C294.481 269.016 293.108 270.606 293.108 273.056C293.108 275.52 294.459 277.081 296.62 277.081C298.325 277.081 299.539 276.257 299.901 274.928H298.658ZM296.605 270.115C297.841 270.115 298.665 271.025 298.694 272.406H294.401C294.495 271.025 295.362 270.115 296.605 270.115ZM309.45 269.016C308.388 269.016 307.456 269.558 306.957 270.454H306.842V269.154H305.656V279.545H306.899V275.773H307.015C307.441 276.597 308.337 277.081 309.45 277.081C311.43 277.081 312.724 275.484 312.724 273.049C312.724 270.599 311.438 269.016 309.45 269.016ZM309.154 275.961C307.752 275.961 306.863 274.834 306.863 273.049C306.863 271.257 307.752 270.136 309.161 270.136C310.585 270.136 311.438 271.228 311.438 273.049C311.438 274.87 310.585 275.961 309.154 275.961ZM317.64 277.081C319.858 277.081 321.231 275.549 321.231 273.049C321.231 270.541 319.858 269.016 317.64 269.016C315.421 269.016 314.048 270.541 314.048 273.049C314.048 275.549 315.421 277.081 317.64 277.081ZM317.64 275.961C316.165 275.961 315.334 274.892 315.334 273.049C315.334 271.199 316.165 270.136 317.64 270.136C319.114 270.136 319.945 271.199 319.945 273.049C319.945 274.892 319.114 275.961 317.64 275.961ZM322.765 271.285C322.765 272.413 323.43 273.042 324.89 273.396L326.226 273.721C327.058 273.923 327.462 274.284 327.462 274.819C327.462 275.535 326.711 276.033 325.663 276.033C324.666 276.033 324.044 275.614 323.835 274.957H322.555C322.693 276.25 323.885 277.081 325.619 277.081C327.39 277.081 328.741 276.12 328.741 274.725C328.741 273.605 328.033 272.969 326.566 272.615L325.367 272.326C324.449 272.102 324.015 271.77 324.015 271.235C324.015 270.541 324.738 270.071 325.663 270.071C326.602 270.071 327.209 270.483 327.376 271.105H328.604C328.438 269.826 327.303 269.016 325.67 269.016C324.015 269.016 322.765 269.992 322.765 271.285ZM331.106 267.65C331.583 267.65 331.973 267.26 331.973 266.783C331.973 266.306 331.583 265.916 331.106 265.916C330.629 265.916 330.239 266.306 330.239 266.783C330.239 267.26 330.629 267.65 331.106 267.65ZM330.485 276.944H331.728V269.154H330.485V276.944ZM334.381 267.137V269.154H333.124V270.194H334.381V274.92C334.381 276.409 335.025 277.002 336.629 277.002C336.875 277.002 337.113 276.973 337.359 276.929V275.882C337.128 275.903 337.005 275.91 336.781 275.91C335.971 275.91 335.624 275.52 335.624 274.602V270.194H337.359V269.154H335.624V267.137H334.381ZM339.651 267.65C340.128 267.65 340.518 267.26 340.518 266.783C340.518 266.306 340.128 265.916 339.651 265.916C339.174 265.916 338.784 266.306 338.784 266.783C338.784 267.26 339.174 267.65 339.651 267.65ZM339.03 276.944H340.273V269.154H339.03V276.944ZM348.766 269.154H347.436L345.304 275.571H345.188L343.057 269.154H341.727L344.61 276.944H345.882L348.766 269.154ZM355.062 274.928C354.736 275.614 354.057 275.983 353.053 275.983C351.73 275.983 350.87 275.007 350.805 273.468V273.41H356.406V272.933C356.406 270.512 355.127 269.016 353.024 269.016C350.885 269.016 349.512 270.606 349.512 273.056C349.512 275.52 350.863 277.081 353.024 277.081C354.729 277.081 355.943 276.257 356.305 274.928H355.062ZM353.009 270.115C354.245 270.115 355.069 271.025 355.098 272.406H350.805C350.899 271.025 351.766 270.115 353.009 270.115Z" fill="#0C0748"/>
<rect x="41.7598" y="124.813" width="236.6" height="32.76" rx="16.38" fill="#E5DFF4"/>
<path d="M62.9016 143.578H58.901V140.982H62.6877V139.907H58.901V137.467H62.9016V136.351H57.606V144.694H62.9016V143.578ZM64.6302 144.694H65.8732V140.838C65.8732 140.017 66.4455 139.375 67.2029 139.375C67.9429 139.375 68.4169 139.82 68.4169 140.537V144.694H69.6368V140.722C69.6368 139.965 70.1629 139.375 70.9664 139.375C71.7816 139.375 72.1863 139.797 72.1863 140.664V144.694H73.4293V140.363C73.4293 139.057 72.6893 138.294 71.4174 138.294C70.5444 138.294 69.8218 138.739 69.5038 139.415H69.4055C69.128 138.739 68.5325 138.294 67.6711 138.294C66.8329 138.294 66.1969 138.71 65.9194 139.415H65.8269V138.415H64.6302V144.694ZM77.8346 144.815C79.673 144.815 80.8004 143.584 80.8004 141.554C80.8004 139.525 79.6672 138.294 77.8346 138.294C75.9961 138.294 74.863 139.531 74.863 141.554C74.863 143.584 75.9904 144.815 77.8346 144.815ZM77.8346 143.757C76.7535 143.757 76.1464 142.953 76.1464 141.554C76.1464 140.155 76.7535 139.346 77.8346 139.346C78.9099 139.346 79.5227 140.155 79.5227 141.554C79.5227 142.948 78.9099 143.757 77.8346 143.757ZM82.7371 136.831V138.433H81.7369V139.427H82.7371V143.04C82.7371 144.248 83.2863 144.734 84.668 144.734C84.9108 144.734 85.1421 144.705 85.3444 144.67V143.682C85.171 143.699 85.0611 143.711 84.8704 143.711C84.2518 143.711 83.98 143.416 83.98 142.74V139.427H85.3444V138.433H83.98V136.831H82.7371ZM87.4488 137.294C87.8824 137.294 88.235 136.941 88.235 136.513C88.235 136.08 87.8824 135.727 87.4488 135.727C87.0152 135.727 86.6625 136.08 86.6625 136.513C86.6625 136.941 87.0152 137.294 87.4488 137.294ZM86.8302 144.694H88.0674V138.415H86.8302V144.694ZM92.5536 144.815C94.3921 144.815 95.5194 143.584 95.5194 141.554C95.5194 139.525 94.3863 138.294 92.5536 138.294C90.7152 138.294 89.5821 139.531 89.5821 141.554C89.5821 143.584 90.7094 144.815 92.5536 144.815ZM92.5536 143.757C91.4725 143.757 90.8655 142.953 90.8655 141.554C90.8655 140.155 91.4725 139.346 92.5536 139.346C93.6289 139.346 94.2418 140.155 94.2418 141.554C94.2418 142.948 93.6289 143.757 92.5536 143.757ZM97.0168 144.694H98.2597V141.011C98.2597 139.999 98.8436 139.375 99.7629 139.375C100.682 139.375 101.121 139.884 101.121 140.924V144.694H102.364V140.629C102.364 139.132 101.59 138.294 100.185 138.294C99.2368 138.294 98.6124 138.716 98.306 139.41H98.2135V138.415H97.0168V144.694ZM105.856 144.798C106.683 144.798 107.371 144.439 107.747 143.803H107.845V144.694H109.042V140.398C109.042 139.08 108.151 138.294 106.573 138.294C105.145 138.294 104.128 138.982 104.001 140.04H105.203C105.342 139.583 105.822 139.323 106.515 139.323C107.365 139.323 107.805 139.71 107.805 140.398V140.947L106.099 141.051C104.602 141.144 103.758 141.797 103.758 142.925C103.758 144.069 104.642 144.798 105.856 144.798ZM106.174 143.798C105.498 143.798 105.006 143.456 105.006 142.873C105.006 142.3 105.4 141.994 106.267 141.936L107.805 141.832V142.375C107.805 143.185 107.111 143.798 106.174 143.798ZM110.869 144.694H112.112V135.952H110.869V144.694ZM125.414 138.415H124.171L123.05 143.26H122.951L121.656 138.415H120.466L119.171 143.26H119.078L117.951 138.415H116.69L118.425 144.694H119.702L120.997 140.011H121.096L122.396 144.694H123.686L125.414 138.415ZM127.339 137.294C127.773 137.294 128.126 136.941 128.126 136.513C128.126 136.08 127.773 135.727 127.339 135.727C126.906 135.727 126.553 136.08 126.553 136.513C126.553 136.941 126.906 137.294 127.339 137.294ZM126.721 144.694H127.958V138.415H126.721V144.694ZM129.785 144.694H131.028V141.011C131.028 139.999 131.612 139.375 132.531 139.375C133.45 139.375 133.89 139.884 133.89 140.924V144.694H135.133V140.629C135.133 139.132 134.358 138.294 132.953 138.294C132.005 138.294 131.381 138.716 131.074 139.41H130.982V138.415H129.785V144.694ZM139.185 144.798C140.052 144.798 140.787 144.387 141.162 143.699H141.261V144.694H142.452V135.952H141.209V139.41H141.116C140.775 138.722 140.047 138.305 139.185 138.305C137.595 138.305 136.572 139.571 136.572 141.549C136.572 143.537 137.584 144.798 139.185 144.798ZM139.538 139.369C140.578 139.369 141.232 140.213 141.232 141.554C141.232 142.907 140.584 143.734 139.538 143.734C138.486 143.734 137.856 142.919 137.856 141.554C137.856 140.196 138.491 139.369 139.538 139.369ZM146.978 144.815C148.817 144.815 149.944 143.584 149.944 141.554C149.944 139.525 148.811 138.294 146.978 138.294C145.14 138.294 144.007 139.531 144.007 141.554C144.007 143.584 145.134 144.815 146.978 144.815ZM146.978 143.757C145.897 143.757 145.29 142.953 145.29 141.554C145.29 140.155 145.897 139.346 146.978 139.346C148.054 139.346 148.666 140.155 148.666 141.554C148.666 142.948 148.054 143.757 146.978 143.757ZM159.396 138.415H158.153L157.032 143.26H156.934L155.639 138.415H154.448L153.153 143.26H153.06L151.933 138.415H150.673L152.407 144.694H153.685L154.98 140.011H155.078L156.379 144.694H157.668L159.396 138.415ZM160.362 140.173C160.362 141.103 160.917 141.635 162.114 141.913L163.212 142.173C163.842 142.323 164.137 142.578 164.137 142.971C164.137 143.485 163.588 143.844 162.813 143.844C162.062 143.844 161.599 143.537 161.443 143.046H160.2C160.31 144.139 161.287 144.815 162.784 144.815C164.287 144.815 165.392 144.023 165.392 142.855C165.392 141.942 164.831 141.427 163.634 141.15L162.588 140.907C161.906 140.745 161.588 140.502 161.588 140.115C161.588 139.606 162.114 139.265 162.807 139.265C163.513 139.265 163.964 139.571 164.079 140.04H165.27C165.149 138.953 164.224 138.294 162.807 138.294C161.385 138.294 160.362 139.08 160.362 140.173ZM167.687 146.862L168.646 143.468H167.346L166.808 146.862H167.687ZM182.059 138.415H180.816L179.694 143.26H179.596L178.301 138.415H177.11L175.815 143.26H175.723L174.595 138.415H173.335L175.069 144.694H176.347L177.642 140.011H177.74L179.041 144.694H180.33L182.059 138.415ZM187.227 143.011C186.996 143.52 186.482 143.798 185.73 143.798C184.736 143.798 184.094 143.081 184.053 141.942V141.884H188.499V141.456C188.499 139.49 187.441 138.294 185.69 138.294C183.915 138.294 182.787 139.571 182.787 141.566C182.787 143.572 183.892 144.815 185.695 144.815C187.135 144.815 188.152 144.121 188.424 143.011H187.227ZM185.684 139.305C186.603 139.305 187.204 139.97 187.233 140.988H184.053C184.123 139.976 184.765 139.305 185.684 139.305ZM194.119 143.011C193.887 143.52 193.373 143.798 192.621 143.798C191.627 143.798 190.985 143.081 190.945 141.942V141.884H195.391V141.456C195.391 139.49 194.333 138.294 192.581 138.294C190.806 138.294 189.679 139.571 189.679 141.566C189.679 143.572 190.783 144.815 192.587 144.815C194.026 144.815 195.044 144.121 195.315 143.011H194.119ZM192.575 139.305C193.494 139.305 194.096 139.97 194.124 140.988H190.945C191.014 139.976 191.656 139.305 192.575 139.305ZM198.281 141.063H198.183V135.952H196.94V144.694H198.183V142.41L198.732 141.884L200.894 144.694H202.421L199.657 141.103L202.247 138.415H200.779L198.281 141.063ZM216.567 140.323C217.764 140.323 218.683 139.531 218.683 138.276C218.683 137.022 217.764 136.236 216.567 136.236C215.394 136.236 214.492 137.022 214.492 138.276C214.492 139.531 215.394 140.323 216.567 140.323ZM208.208 144.694V138.606H208.3L212.411 144.694H213.578V136.351H212.318V142.445H212.226L208.115 136.351H206.947V144.694H208.208ZM216.567 139.462C215.949 139.462 215.544 138.993 215.544 138.276C215.544 137.542 215.949 137.091 216.567 137.091C217.221 137.091 217.625 137.542 217.625 138.276C217.625 138.993 217.203 139.462 216.567 139.462ZM218.51 142.023V140.942H214.683V142.023H218.51ZM221.95 144.694H223.245V136.351H221.955L219.758 137.912V139.184L221.851 137.687H221.95V144.694ZM230.35 141.485H232.177L233.876 144.694H235.374L233.501 141.283C234.518 140.942 235.119 140.028 235.119 138.901C235.119 137.346 234.038 136.351 232.356 136.351H229.055V144.694H230.35V141.485ZM230.35 137.438H232.177C233.177 137.438 233.79 137.999 233.79 138.93C233.79 139.884 233.211 140.421 232.211 140.421H230.35V137.438ZM240.762 143.011C240.531 143.52 240.016 143.798 239.264 143.798C238.27 143.798 237.628 143.081 237.588 141.942V141.884H242.034V141.456C242.034 139.49 240.976 138.294 239.224 138.294C237.449 138.294 236.322 139.571 236.322 141.566C236.322 143.572 237.426 144.815 239.23 144.815C240.669 144.815 241.687 144.121 241.958 143.011H240.762ZM239.218 139.305C240.137 139.305 240.739 139.97 240.768 140.988H237.588C237.657 139.976 238.299 139.305 239.218 139.305ZM248.856 140.433C248.694 139.213 247.74 138.294 246.161 138.294C244.329 138.294 243.213 139.537 243.213 141.531C243.213 143.566 244.335 144.815 246.167 144.815C247.722 144.815 248.694 143.942 248.856 142.705H247.647C247.485 143.387 246.948 143.757 246.161 143.757C245.127 143.757 244.485 142.919 244.485 141.531C244.485 140.173 245.121 139.352 246.161 139.352C246.994 139.352 247.503 139.82 247.647 140.433H248.856ZM252.018 144.798C252.845 144.798 253.533 144.439 253.908 143.803H254.007V144.694H255.203V140.398C255.203 139.08 254.313 138.294 252.735 138.294C251.307 138.294 250.289 138.982 250.162 140.04H251.365C251.503 139.583 251.983 139.323 252.677 139.323C253.527 139.323 253.966 139.71 253.966 140.398V140.947L252.261 141.051C250.763 141.144 249.919 141.797 249.919 142.925C249.919 144.069 250.804 144.798 252.018 144.798ZM252.336 143.798C251.659 143.798 251.168 143.456 251.168 142.873C251.168 142.3 251.561 141.994 252.428 141.936L253.966 141.832V142.375C253.966 143.185 253.272 143.798 252.336 143.798ZM260.239 138.305C259.383 138.305 258.643 138.739 258.262 139.456H258.169V138.415H256.972V146.786H258.215V143.745H258.314C258.643 144.41 259.354 144.798 260.25 144.798C261.84 144.798 262.852 143.537 262.852 141.554C262.852 139.56 261.84 138.305 260.239 138.305ZM259.886 143.734C258.846 143.734 258.192 142.896 258.192 141.554C258.192 140.207 258.846 139.369 259.892 139.369C260.944 139.369 261.574 140.19 261.574 141.554C261.574 142.919 260.944 143.734 259.886 143.734Z" fill="#0C0748"/>
<rect x="41.7598" y="50.8135" width="50.8133" height="2.96" rx="1.48" fill="#8377D1"/>
<rect x="98.4932" y="50.8132" width="50.8133" height="2.96" rx="1.48" fill="#8377D1"/>
<rect x="155.227" y="50.8132" width="50.8133" height="2.96" rx="1.48" fill="#8377D1"/>
<rect x="211.959" y="50.8132" width="50.8133" height="2.96" rx="1.48" fill="black" fill-opacity="0.1"/>
<rect x="268.693" y="50.8132" width="50.8133" height="2.96" rx="1.48" fill="black" fill-opacity="0.1"/>
<rect x="325.426" y="50.8132" width="50.8133" height="2.96" rx="1.48" fill="black" fill-opacity="0.1"/>
<path fill-rule="evenodd" clip-rule="evenodd" d="M367.36 86.3328L356.506 75.4795L367.36 86.3328Z" stroke="#0C0748" stroke-width="1.97333" stroke-linecap="round" stroke-linejoin="round"/>
<path d="M367.36 75.4795L356.506 86.3328" stroke="#0C0748" stroke-width="1.97333" stroke-linecap="round" stroke-linejoin="round"/>
</g>
</g>
<defs>
<filter id="filter0_dd_412_2857" x="0" y="0" width="418" height="348" filterUnits="userSpaceOnUse" color-interpolation-filters="sRGB">
<feFlood flood-opacity="0" result="BackgroundImageFix"/>
<feColorMatrix in="SourceAlpha" type="matrix" values="0 0 0 0 0 0 0 0 0 0 0 0 0 0 0 0 0 0 127 0" result="hardAlpha"/>
<feOffset dy="2"/>
<feGaussianBlur stdDeviation="12"/>
<feColorMatrix type="matrix" values="0 0 0 0 0 0 0 0 0 0 0 0 0 0 0 0 0 0 0.08 0"/>
<feBlend mode="normal" in2="BackgroundImageFix" result="effect1_dropShadow_412_2857"/>
<feColorMatrix in="SourceAlpha" type="matrix" values="0 0 0 0 0 0 0 0 0 0 0 0 0 0 0 0 0 0 127 0" result="hardAlpha"/>
<feOffset/>
<feGaussianBlur stdDeviation="1"/>
<feColorMatrix type="matrix" values="0 0 0 0 0 0 0 0 0 0 0 0 0 0 0 0 0 0 0.08 0"/>
<feBlend mode="normal" in2="effect1_dropShadow_412_2857" result="effect2_dropShadow_412_2857"/>
<feBlend mode="normal" in="SourceGraphic" in2="effect2_dropShadow_412_2857" result="shape"/>
</filter>
<clipPath id="clip0_412_2857">
<rect x="24" y="22" width="370" height="300" rx="23.68" fill="white"/>
</clipPath>
</defs>
</svg>
