<svg width="394" height="260" viewBox="0 0 394 260" fill="none" xmlns="http://www.w3.org/2000/svg">
<g filter="url(#filter0_d_32_1297)">
<rect x="15" y="6" width="370" height="236" rx="24" fill="white" shape-rendering="crispEdges"/>
<path d="M73.0221 49.832V48.908L73.1901 48.74H73.8621C74.0721 48.74 74.2611 48.656 74.4291 48.488C74.6111 48.306 74.7021 48.11 74.7021 47.9V37.4C74.7021 37.19 74.6111 37.001 74.4291 36.833C74.2611 36.651 74.0721 36.56 73.8621 36.56H73.1901L73.0221 36.392V35.468L73.1901 35.3H79.1961L79.3641 35.468V36.392L79.1961 36.56H78.5241C78.3141 36.56 78.1181 36.651 77.9361 36.833C77.7681 37.001 77.6841 37.19 77.6841 37.4V47.9C77.6841 48.11 77.7681 48.306 77.9361 48.488C78.1181 48.656 78.3141 48.74 78.5241 48.74H79.1961L79.3641 48.908V49.832L79.1961 50H73.1901L73.0221 49.832ZM84.9736 50.294C84.1056 50.294 83.3776 50.042 82.7896 49.538C82.2156 49.02 81.9286 48.25 81.9286 47.228V40.97H80.3746L80.2066 40.802V40.34L84.1756 36.728H84.5326L84.7006 36.896V39.626H87.3466L87.5146 39.794V40.802L87.3466 40.97H84.7006V47.417C84.7006 47.837 84.8126 48.159 85.0366 48.383C85.2606 48.593 85.5476 48.698 85.8976 48.698C86.4856 48.698 86.9406 48.39 87.2626 47.774L87.4306 47.711L87.8506 47.879L87.9346 48.047C87.4446 49.545 86.4576 50.294 84.9736 50.294ZM89.6892 40.025L89.2692 35.51L89.4792 35.3H91.7472L91.9572 35.51L91.5372 40.025L91.3272 40.235H89.8992L89.6892 40.025ZM96.9823 50.294C96.2543 50.294 95.5823 50.21 94.9663 50.042C94.3643 49.874 93.8463 49.65 93.4123 49.37L93.3073 49.16L93.8743 46.85L94.0423 46.682H94.7563L94.9243 46.85C94.9243 47.564 95.0923 48.131 95.4283 48.551C95.7783 48.957 96.2543 49.16 96.8563 49.16C97.3743 49.16 97.7523 49.013 97.9903 48.719C98.2423 48.425 98.3683 48.075 98.3683 47.669C98.3683 47.179 98.2423 46.801 97.9903 46.535C97.7383 46.269 97.2973 46.017 96.6673 45.779C95.6173 45.373 94.8403 44.911 94.3363 44.393C93.8463 43.875 93.6013 43.259 93.6013 42.545C93.6013 41.579 93.9583 40.802 94.6723 40.214C95.4003 39.626 96.3173 39.332 97.4233 39.332C98.4033 39.332 99.2643 39.528 100.006 39.92L100.153 40.13L100.258 42.482L100.09 42.65H99.2923L99.1243 42.482C98.9983 41.152 98.4243 40.487 97.4023 40.487C97.0243 40.487 96.7023 40.606 96.4363 40.844C96.1703 41.068 96.0373 41.376 96.0373 41.768C96.0373 42.188 96.2123 42.559 96.5623 42.881C96.9123 43.189 97.4793 43.504 98.2633 43.826C99.1173 44.176 99.7753 44.575 100.237 45.023C100.699 45.471 100.93 46.101 100.93 46.913C100.93 48.005 100.545 48.845 99.7753 49.433C99.0193 50.007 98.0883 50.294 96.9823 50.294ZM111.142 50.294C110.274 50.294 109.546 50.042 108.958 49.538C108.384 49.02 108.097 48.25 108.097 47.228V40.97H106.543L106.375 40.802V40.34L110.344 36.728H110.701L110.869 36.896V39.626H113.515L113.683 39.794V40.802L113.515 40.97H110.869V47.417C110.869 47.837 110.981 48.159 111.205 48.383C111.429 48.593 111.716 48.698 112.066 48.698C112.654 48.698 113.109 48.39 113.431 47.774L113.599 47.711L114.019 47.879L114.103 48.047C113.613 49.545 112.626 50.294 111.142 50.294ZM117.894 38.198C117.418 38.198 117.005 38.03 116.655 37.694C116.319 37.344 116.151 36.931 116.151 36.455C116.151 35.965 116.319 35.552 116.655 35.216C117.005 34.88 117.418 34.712 117.894 34.712C118.384 34.712 118.797 34.88 119.133 35.216C119.469 35.552 119.637 35.965 119.637 36.455C119.637 36.931 119.469 37.344 119.133 37.694C118.797 38.03 118.384 38.198 117.894 38.198ZM115.227 49.832V48.908L115.395 48.74H115.647C115.857 48.74 116.046 48.656 116.214 48.488C116.396 48.306 116.487 48.11 116.487 47.9V42.608C116.487 42.398 116.396 42.209 116.214 42.041C116.046 41.859 115.857 41.768 115.647 41.768H115.395L115.227 41.6V41.033L115.353 40.865L118.629 39.626H119.259L119.469 39.836L119.259 41.768V47.9C119.259 48.11 119.343 48.306 119.511 48.488C119.693 48.656 119.889 48.74 120.099 48.74H120.351L120.519 48.908V49.832L120.351 50H115.395L115.227 49.832ZM121.954 49.832V48.908L122.122 48.74H122.374C122.584 48.74 122.773 48.656 122.941 48.488C123.123 48.306 123.214 48.11 123.214 47.9V42.608C123.214 42.398 123.123 42.209 122.941 42.041C122.773 41.859 122.584 41.768 122.374 41.768H122.122L121.954 41.6V41.033L122.08 40.865L125.146 39.626H125.818L125.986 39.794L125.776 41.201C126.126 40.641 126.623 40.193 127.267 39.857C127.911 39.507 128.576 39.332 129.262 39.332C130.018 39.332 130.683 39.479 131.257 39.773C131.831 40.053 132.23 40.494 132.454 41.096C133.238 39.92 134.379 39.332 135.877 39.332C136.885 39.332 137.69 39.626 138.292 40.214C138.908 40.802 139.216 41.607 139.216 42.629V47.9C139.216 48.11 139.3 48.306 139.468 48.488C139.65 48.656 139.846 48.74 140.056 48.74H140.308L140.476 48.908V49.832L140.308 50H135.352L135.184 49.832V48.908L135.352 48.74H135.604C135.814 48.74 136.003 48.656 136.171 48.488C136.353 48.306 136.444 48.11 136.444 47.9V43.028C136.444 42.37 136.304 41.866 136.024 41.516C135.758 41.166 135.352 40.991 134.806 40.991C134.176 40.991 133.651 41.243 133.231 41.747C132.811 42.237 132.601 42.902 132.601 43.742V47.9C132.601 48.11 132.685 48.306 132.853 48.488C133.035 48.656 133.231 48.74 133.441 48.74H133.693L133.861 48.908V49.832L133.693 50H128.737L128.569 49.832V48.908L128.737 48.74H128.989C129.199 48.74 129.388 48.656 129.556 48.488C129.738 48.306 129.829 48.11 129.829 47.9V43.028C129.829 41.67 129.29 40.991 128.212 40.991C127.582 40.991 127.05 41.243 126.616 41.747C126.196 42.237 125.986 42.902 125.986 43.742V47.9C125.986 48.11 126.07 48.306 126.238 48.488C126.42 48.656 126.616 48.74 126.826 48.74H127.078L127.246 48.908V49.832L127.078 50H122.122L121.954 49.832ZM147.329 50.294C146.251 50.294 145.292 50.049 144.452 49.559C143.612 49.069 142.954 48.404 142.478 47.564C142.016 46.71 141.785 45.765 141.785 44.729C141.785 43.721 142.023 42.804 142.499 41.978C142.989 41.152 143.647 40.508 144.473 40.046C145.313 39.57 146.244 39.332 147.266 39.332C148.386 39.332 149.331 39.584 150.101 40.088C150.871 40.592 151.445 41.264 151.823 42.104C152.201 42.93 152.39 43.854 152.39 44.876L152.222 45.044H144.41C144.41 45.66 144.557 46.22 144.851 46.724C145.145 47.214 145.558 47.606 146.09 47.9C146.622 48.18 147.238 48.32 147.938 48.32C149.66 48.32 150.983 47.62 151.907 46.22L152.075 46.136L152.39 46.262L152.453 46.43C152.117 47.62 151.494 48.565 150.584 49.265C149.674 49.951 148.589 50.294 147.329 50.294ZM148.799 43.7C149.093 43.7 149.303 43.63 149.429 43.49C149.569 43.336 149.639 43.147 149.639 42.923C149.639 42.237 149.422 41.691 148.988 41.285C148.554 40.879 147.987 40.676 147.287 40.676C146.475 40.676 145.803 40.956 145.271 41.516C144.753 42.062 144.466 42.734 144.41 43.532L144.578 43.7H148.799ZM162.678 50.294C161.81 50.294 161.082 50.042 160.494 49.538C159.92 49.02 159.633 48.25 159.633 47.228V40.97H158.079L157.911 40.802V40.34L161.88 36.728H162.237L162.405 36.896V39.626H165.051L165.219 39.794V40.802L165.051 40.97H162.405V47.417C162.405 47.837 162.517 48.159 162.741 48.383C162.965 48.593 163.252 48.698 163.602 48.698C164.19 48.698 164.645 48.39 164.967 47.774L165.135 47.711L165.555 47.879L165.639 48.047C165.149 49.545 164.162 50.294 162.678 50.294ZM172.249 50.294C171.185 50.294 170.219 50.063 169.351 49.601C168.483 49.125 167.797 48.474 167.293 47.648C166.803 46.808 166.558 45.863 166.558 44.813C166.558 43.763 166.803 42.825 167.293 41.999C167.797 41.159 168.483 40.508 169.351 40.046C170.219 39.57 171.185 39.332 172.249 39.332C173.313 39.332 174.279 39.57 175.147 40.046C176.015 40.508 176.694 41.159 177.184 41.999C177.688 42.825 177.94 43.763 177.94 44.813C177.94 45.863 177.688 46.808 177.184 47.648C176.694 48.474 176.015 49.125 175.147 49.601C174.279 50.063 173.313 50.294 172.249 50.294ZM172.249 48.95C173.173 48.95 173.866 48.572 174.328 47.816C174.804 47.046 175.042 46.045 175.042 44.813C175.042 43.581 174.804 42.587 174.328 41.831C173.866 41.061 173.173 40.676 172.249 40.676C171.325 40.676 170.625 41.061 170.149 41.831C169.687 42.587 169.456 43.581 169.456 44.813C169.456 46.045 169.687 47.046 170.149 47.816C170.625 48.572 171.325 48.95 172.249 48.95ZM189.261 50.294C188.323 50.294 187.448 50.077 186.636 49.643C185.838 49.195 185.194 48.572 184.704 47.774C184.228 46.962 183.99 46.031 183.99 44.981C183.99 43.819 184.256 42.811 184.788 41.957C185.334 41.103 186.048 40.452 186.93 40.004C187.812 39.556 188.764 39.332 189.786 39.332C191.046 39.332 192.11 39.577 192.978 40.067L193.125 40.277L193.23 43.028L193.062 43.196H192.033L191.865 43.028V42.65C191.865 42.034 191.676 41.544 191.298 41.18C190.92 40.816 190.409 40.634 189.765 40.634C188.813 40.634 188.085 41.019 187.581 41.789C187.091 42.545 186.846 43.462 186.846 44.54C186.846 45.254 186.979 45.912 187.245 46.514C187.511 47.102 187.889 47.571 188.379 47.921C188.869 48.271 189.436 48.446 190.08 48.446C191.424 48.446 192.439 47.809 193.125 46.535L193.314 46.451L193.629 46.556L193.713 46.724C193.405 47.774 192.887 48.635 192.159 49.307C191.445 49.965 190.479 50.294 189.261 50.294ZM200.796 50.294C199.732 50.294 198.766 50.063 197.898 49.601C197.03 49.125 196.344 48.474 195.84 47.648C195.35 46.808 195.105 45.863 195.105 44.813C195.105 43.763 195.35 42.825 195.84 41.999C196.344 41.159 197.03 40.508 197.898 40.046C198.766 39.57 199.732 39.332 200.796 39.332C201.86 39.332 202.826 39.57 203.694 40.046C204.562 40.508 205.241 41.159 205.731 41.999C206.235 42.825 206.487 43.763 206.487 44.813C206.487 45.863 206.235 46.808 205.731 47.648C205.241 48.474 204.562 49.125 203.694 49.601C202.826 50.063 201.86 50.294 200.796 50.294ZM200.796 48.95C201.72 48.95 202.413 48.572 202.875 47.816C203.351 47.046 203.589 46.045 203.589 44.813C203.589 43.581 203.351 42.587 202.875 41.831C202.413 41.061 201.72 40.676 200.796 40.676C199.872 40.676 199.172 41.061 198.696 41.831C198.234 42.587 198.003 43.581 198.003 44.813C198.003 46.045 198.234 47.046 198.696 47.816C199.172 48.572 199.872 48.95 200.796 48.95ZM207.922 49.832V48.908L208.09 48.74H208.342C208.552 48.74 208.741 48.656 208.909 48.488C209.091 48.306 209.182 48.11 209.182 47.9V42.608C209.182 42.398 209.091 42.209 208.909 42.041C208.741 41.859 208.552 41.768 208.342 41.768H208.09L207.922 41.6V41.033L208.048 40.865L211.114 39.626H211.786L211.954 39.794L211.744 41.201C212.136 40.627 212.64 40.172 213.256 39.836C213.872 39.5 214.572 39.332 215.356 39.332C216.49 39.332 217.386 39.64 218.044 40.256C218.716 40.858 219.052 41.747 219.052 42.923V47.9C219.052 48.11 219.136 48.306 219.304 48.488C219.486 48.656 219.682 48.74 219.892 48.74H220.144L220.312 48.908V49.832L220.144 50H215.188L215.02 49.832V48.908L215.188 48.74H215.44C215.65 48.74 215.839 48.656 216.007 48.488C216.189 48.306 216.28 48.11 216.28 47.9V43.028C216.28 42.356 216.098 41.852 215.734 41.516C215.384 41.18 214.908 41.012 214.306 41.012C213.62 41.012 213.053 41.264 212.605 41.768C212.171 42.258 211.954 42.923 211.954 43.763V47.9C211.954 48.11 212.038 48.306 212.206 48.488C212.388 48.656 212.584 48.74 212.794 48.74H213.046L213.214 48.908V49.832L213.046 50H208.09L207.922 49.832ZM221.538 49.832V48.908L221.706 48.74H221.958C222.168 48.74 222.357 48.656 222.525 48.488C222.707 48.306 222.798 48.11 222.798 47.9V41.726C222.798 41.502 222.714 41.306 222.546 41.138C222.378 40.97 222.182 40.886 221.958 40.886H221.706L221.538 40.718V39.794L221.706 39.626H222.798V38.639C222.798 37.799 222.966 37.113 223.302 36.581C223.638 36.035 224.058 35.636 224.562 35.384C225.066 35.132 225.584 35.006 226.116 35.006C226.662 35.006 227.11 35.16 227.46 35.468C227.824 35.762 228.006 36.154 228.006 36.644C228.006 37.092 227.859 37.47 227.565 37.778C227.271 38.086 226.886 38.24 226.41 38.24C225.948 38.24 225.57 38.079 225.276 37.757C224.996 37.435 224.856 37.029 224.856 36.539C224.31 36.847 224.037 37.449 224.037 38.345L224.205 38.576L225.402 39.059L225.57 39.248V39.626H227.082L227.25 39.794V40.718L227.082 40.886H225.57V47.9C225.57 48.11 225.654 48.306 225.822 48.488C226.004 48.656 226.2 48.74 226.41 48.74H226.662L226.83 48.908V49.832L226.662 50H221.706L221.538 49.832ZM228.676 49.832V48.908L228.844 48.74H229.096C229.306 48.74 229.495 48.656 229.663 48.488C229.845 48.306 229.936 48.11 229.936 47.9V42.608C229.936 42.398 229.845 42.209 229.663 42.041C229.495 41.859 229.306 41.768 229.096 41.768H228.844L228.676 41.6V41.033L228.802 40.865L231.868 39.626H232.54L232.708 39.794L232.498 41.39C232.778 40.774 233.177 40.277 233.695 39.899C234.213 39.521 234.801 39.332 235.459 39.332C235.963 39.332 236.376 39.486 236.698 39.794C237.034 40.088 237.202 40.466 237.202 40.928C237.202 41.362 237.048 41.733 236.74 42.041C236.446 42.335 236.075 42.482 235.627 42.482C235.193 42.482 234.829 42.342 234.535 42.062C234.241 41.768 234.08 41.411 234.052 40.991C233.646 41.243 233.317 41.656 233.065 42.23C232.827 42.79 232.708 43.434 232.708 44.162V47.9C232.708 48.11 232.792 48.306 232.96 48.488C233.142 48.656 233.338 48.74 233.548 48.74H233.8L233.968 48.908V49.832L233.8 50H228.844L228.676 49.832ZM243.452 50.294C242.388 50.294 241.422 50.063 240.554 49.601C239.686 49.125 239 48.474 238.496 47.648C238.006 46.808 237.761 45.863 237.761 44.813C237.761 43.763 238.006 42.825 238.496 41.999C239 41.159 239.686 40.508 240.554 40.046C241.422 39.57 242.388 39.332 243.452 39.332C244.516 39.332 245.482 39.57 246.35 40.046C247.218 40.508 247.897 41.159 248.387 41.999C248.891 42.825 249.143 43.763 249.143 44.813C249.143 45.863 248.891 46.808 248.387 47.648C247.897 48.474 247.218 49.125 246.35 49.601C245.482 50.063 244.516 50.294 243.452 50.294ZM243.452 48.95C244.376 48.95 245.069 48.572 245.531 47.816C246.007 47.046 246.245 46.045 246.245 44.813C246.245 43.581 246.007 42.587 245.531 41.831C245.069 41.061 244.376 40.676 243.452 40.676C242.528 40.676 241.828 41.061 241.352 41.831C240.89 42.587 240.659 43.581 240.659 44.813C240.659 46.045 240.89 47.046 241.352 47.816C241.828 48.572 242.528 48.95 243.452 48.95ZM250.579 49.832V48.908L250.747 48.74H250.999C251.209 48.74 251.398 48.656 251.566 48.488C251.748 48.306 251.839 48.11 251.839 47.9V42.608C251.839 42.398 251.748 42.209 251.566 42.041C251.398 41.859 251.209 41.768 250.999 41.768H250.747L250.579 41.6V41.033L250.705 40.865L253.771 39.626H254.443L254.611 39.794L254.401 41.201C254.793 40.627 255.297 40.172 255.913 39.836C256.529 39.5 257.229 39.332 258.013 39.332C259.147 39.332 260.043 39.64 260.701 40.256C261.373 40.858 261.709 41.747 261.709 42.923V47.9C261.709 48.11 261.793 48.306 261.961 48.488C262.143 48.656 262.339 48.74 262.549 48.74H262.801L262.969 48.908V49.832L262.801 50H257.845L257.677 49.832V48.908L257.845 48.74H258.097C258.307 48.74 258.496 48.656 258.664 48.488C258.846 48.306 258.937 48.11 258.937 47.9V43.028C258.937 42.356 258.755 41.852 258.391 41.516C258.041 41.18 257.565 41.012 256.963 41.012C256.277 41.012 255.71 41.264 255.262 41.768C254.828 42.258 254.611 42.923 254.611 43.763V47.9C254.611 48.11 254.695 48.306 254.863 48.488C255.045 48.656 255.241 48.74 255.451 48.74H255.703L255.871 48.908V49.832L255.703 50H250.747L250.579 49.832ZM268.088 50.294C267.22 50.294 266.492 50.042 265.904 49.538C265.33 49.02 265.043 48.25 265.043 47.228V40.97H263.489L263.321 40.802V40.34L267.29 36.728H267.647L267.815 36.896V39.626H270.461L270.629 39.794V40.802L270.461 40.97H267.815V47.417C267.815 47.837 267.927 48.159 268.151 48.383C268.375 48.593 268.662 48.698 269.012 48.698C269.6 48.698 270.055 48.39 270.377 47.774L270.545 47.711L270.965 47.879L271.049 48.047C270.559 49.545 269.572 50.294 268.088 50.294ZM278.867 54.536L278.426 53.822V53.57L281.471 49.223L277.586 41.306C277.516 41.166 277.432 41.061 277.334 40.991C277.25 40.921 277.131 40.886 276.977 40.886H276.494L276.326 40.718V39.794L276.494 39.626H281.723L281.891 39.794V40.718L281.723 40.886H281.303C280.981 40.886 280.82 41.026 280.82 41.306C280.82 41.446 280.862 41.6 280.946 41.768L283.025 46.136L285.125 41.768C285.209 41.6 285.251 41.446 285.251 41.306C285.251 41.18 285.209 41.082 285.125 41.012C285.041 40.928 284.922 40.886 284.768 40.886H284.348L284.18 40.718V39.794L284.348 39.626H287.792L287.96 39.794V40.718L287.792 40.886H287.435C287.253 40.886 287.106 40.935 286.994 41.033C286.882 41.117 286.777 41.25 286.679 41.432L280.484 54.494L280.232 54.746L279.35 54.767L278.867 54.536ZM293.943 50.294C292.879 50.294 291.913 50.063 291.045 49.601C290.177 49.125 289.491 48.474 288.987 47.648C288.497 46.808 288.252 45.863 288.252 44.813C288.252 43.763 288.497 42.825 288.987 41.999C289.491 41.159 290.177 40.508 291.045 40.046C291.913 39.57 292.879 39.332 293.943 39.332C295.007 39.332 295.973 39.57 296.841 40.046C297.709 40.508 298.388 41.159 298.878 41.999C299.382 42.825 299.634 43.763 299.634 44.813C299.634 45.863 299.382 46.808 298.878 47.648C298.388 48.474 297.709 49.125 296.841 49.601C295.973 50.063 295.007 50.294 293.943 50.294ZM293.943 48.95C294.867 48.95 295.56 48.572 296.022 47.816C296.498 47.046 296.736 46.045 296.736 44.813C296.736 43.581 296.498 42.587 296.022 41.831C295.56 41.061 294.867 40.676 293.943 40.676C293.019 40.676 292.319 41.061 291.843 41.831C291.381 42.587 291.15 43.581 291.15 44.813C291.15 46.045 291.381 47.046 291.843 47.816C292.319 48.572 293.019 48.95 293.943 48.95ZM305.692 50.294C304.558 50.294 303.655 49.993 302.983 49.391C302.325 48.775 301.996 47.879 301.996 46.703V42.398C301.996 42.188 301.905 41.999 301.723 41.831C301.555 41.649 301.366 41.558 301.156 41.558H300.904L300.736 41.39V40.823L300.862 40.655L304.138 39.5H304.81L304.978 39.668L304.768 41.642V46.619C304.768 47.291 304.943 47.795 305.293 48.131C305.657 48.467 306.14 48.635 306.742 48.635C307.428 48.635 307.988 48.39 308.422 47.9C308.87 47.396 309.094 46.724 309.094 45.884V42.398C309.094 42.188 309.003 41.999 308.821 41.831C308.653 41.649 308.464 41.558 308.254 41.558H308.002L307.834 41.39V40.823L307.96 40.655L311.236 39.5H311.908L312.076 39.668L311.866 41.642V47.228C311.866 47.438 311.95 47.634 312.118 47.816C312.3 47.984 312.496 48.068 312.706 48.068H312.958L313.126 48.236V48.803L312.958 48.971L309.934 50.21H309.262L309.094 50.042V48.719C308.716 49.195 308.219 49.58 307.603 49.874C307.001 50.154 306.364 50.294 305.692 50.294ZM314.338 49.832V48.908L314.506 48.74H314.758C314.968 48.74 315.157 48.656 315.325 48.488C315.507 48.306 315.598 48.11 315.598 47.9V42.608C315.598 42.398 315.507 42.209 315.325 42.041C315.157 41.859 314.968 41.768 314.758 41.768H314.506L314.338 41.6V41.033L314.464 40.865L317.53 39.626H318.202L318.37 39.794L318.16 41.39C318.44 40.774 318.839 40.277 319.357 39.899C319.875 39.521 320.463 39.332 321.121 39.332C321.625 39.332 322.038 39.486 322.36 39.794C322.696 40.088 322.864 40.466 322.864 40.928C322.864 41.362 322.71 41.733 322.402 42.041C322.108 42.335 321.737 42.482 321.289 42.482C320.855 42.482 320.491 42.342 320.197 42.062C319.903 41.768 319.742 41.411 319.714 40.991C319.308 41.243 318.979 41.656 318.727 42.23C318.489 42.79 318.37 43.434 318.37 44.162V47.9C318.37 48.11 318.454 48.306 318.622 48.488C318.804 48.656 319 48.74 319.21 48.74H319.462L319.63 48.908V49.832L319.462 50H314.506L314.338 49.832ZM122.539 63.198C122.063 63.198 121.65 63.03 121.3 62.694C120.964 62.344 120.796 61.931 120.796 61.455C120.796 60.965 120.964 60.552 121.3 60.216C121.65 59.88 122.063 59.712 122.539 59.712C123.029 59.712 123.442 59.88 123.778 60.216C124.114 60.552 124.282 60.965 124.282 61.455C124.282 61.931 124.114 62.344 123.778 62.694C123.442 63.03 123.029 63.198 122.539 63.198ZM119.872 74.832V73.908L120.04 73.74H120.292C120.502 73.74 120.691 73.656 120.859 73.488C121.041 73.306 121.132 73.11 121.132 72.9V67.608C121.132 67.398 121.041 67.209 120.859 67.041C120.691 66.859 120.502 66.768 120.292 66.768H120.04L119.872 66.6V66.033L119.998 65.865L123.274 64.626H123.904L124.114 64.836L123.904 66.768V72.9C123.904 73.11 123.988 73.306 124.156 73.488C124.338 73.656 124.534 73.74 124.744 73.74H124.996L125.164 73.908V74.832L124.996 75H120.04L119.872 74.832ZM126.599 74.832V73.908L126.767 73.74H127.019C127.229 73.74 127.418 73.656 127.586 73.488C127.768 73.306 127.859 73.11 127.859 72.9V67.608C127.859 67.398 127.768 67.209 127.586 67.041C127.418 66.859 127.229 66.768 127.019 66.768H126.767L126.599 66.6V66.033L126.725 65.865L129.791 64.626H130.463L130.631 64.794L130.421 66.39C130.701 65.774 131.1 65.277 131.618 64.899C132.136 64.521 132.724 64.332 133.382 64.332C133.886 64.332 134.299 64.486 134.621 64.794C134.957 65.088 135.125 65.466 135.125 65.928C135.125 66.362 134.971 66.733 134.663 67.041C134.369 67.335 133.998 67.482 133.55 67.482C133.116 67.482 132.752 67.342 132.458 67.062C132.164 66.768 132.003 66.411 131.975 65.991C131.569 66.243 131.24 66.656 130.988 67.23C130.75 67.79 130.631 68.434 130.631 69.162V72.9C130.631 73.11 130.715 73.306 130.883 73.488C131.065 73.656 131.261 73.74 131.471 73.74H131.723L131.891 73.908V74.832L131.723 75H126.767L126.599 74.832ZM136.053 74.832V73.908L136.221 73.74H136.473C136.683 73.74 136.872 73.656 137.04 73.488C137.222 73.306 137.313 73.11 137.313 72.9V67.608C137.313 67.398 137.222 67.209 137.04 67.041C136.872 66.859 136.683 66.768 136.473 66.768H136.221L136.053 66.6V66.033L136.179 65.865L139.245 64.626H139.917L140.085 64.794L139.875 66.39C140.155 65.774 140.554 65.277 141.072 64.899C141.59 64.521 142.178 64.332 142.836 64.332C143.34 64.332 143.753 64.486 144.075 64.794C144.411 65.088 144.579 65.466 144.579 65.928C144.579 66.362 144.425 66.733 144.117 67.041C143.823 67.335 143.452 67.482 143.004 67.482C142.57 67.482 142.206 67.342 141.912 67.062C141.618 66.768 141.457 66.411 141.429 65.991C141.023 66.243 140.694 66.656 140.442 67.23C140.204 67.79 140.085 68.434 140.085 69.162V72.9C140.085 73.11 140.169 73.306 140.337 73.488C140.519 73.656 140.715 73.74 140.925 73.74H141.177L141.345 73.908V74.832L141.177 75H136.221L136.053 74.832ZM150.094 75.294C149.17 75.294 148.33 75.077 147.574 74.643C146.832 74.209 146.237 73.586 145.789 72.774C145.355 71.962 145.138 71.01 145.138 69.918C145.138 68.756 145.383 67.755 145.873 66.915C146.363 66.075 147.014 65.438 147.826 65.004C148.638 64.556 149.506 64.332 150.43 64.332C151.844 64.332 152.999 64.878 153.895 65.97H154L155.029 64.626H155.89L156.058 64.794V72.228C156.058 72.438 156.142 72.634 156.31 72.816C156.492 72.984 156.688 73.068 156.898 73.068H157.15L157.318 73.236V73.803L157.15 73.971L154.252 75.21H153.58L153.412 75.042V73.635C152.992 74.167 152.516 74.58 151.984 74.874C151.466 75.154 150.836 75.294 150.094 75.294ZM150.64 73.908C151.522 73.908 152.18 73.53 152.614 72.774C153.062 72.004 153.286 71.017 153.286 69.813C153.286 68.609 153.062 67.629 152.614 66.873C152.18 66.103 151.522 65.718 150.64 65.718C149.758 65.718 149.093 66.103 148.645 66.873C148.211 67.629 147.994 68.609 147.994 69.813C147.994 71.017 148.211 72.004 148.645 72.774C149.093 73.53 149.758 73.908 150.64 73.908ZM162.585 75.294C161.717 75.294 160.989 75.042 160.401 74.538C159.827 74.02 159.54 73.25 159.54 72.228V65.97H157.986L157.818 65.802V65.34L161.787 61.728H162.144L162.312 61.896V64.626H164.958L165.126 64.794V65.802L164.958 65.97H162.312V72.417C162.312 72.837 162.424 73.159 162.648 73.383C162.872 73.593 163.159 73.698 163.509 73.698C164.097 73.698 164.552 73.39 164.874 72.774L165.042 72.711L165.462 72.879L165.546 73.047C165.056 74.545 164.069 75.294 162.585 75.294ZM169.338 63.198C168.862 63.198 168.449 63.03 168.099 62.694C167.763 62.344 167.595 61.931 167.595 61.455C167.595 60.965 167.763 60.552 168.099 60.216C168.449 59.88 168.862 59.712 169.338 59.712C169.828 59.712 170.241 59.88 170.577 60.216C170.913 60.552 171.081 60.965 171.081 61.455C171.081 61.931 170.913 62.344 170.577 62.694C170.241 63.03 169.828 63.198 169.338 63.198ZM166.671 74.832V73.908L166.839 73.74H167.091C167.301 73.74 167.49 73.656 167.658 73.488C167.84 73.306 167.931 73.11 167.931 72.9V67.608C167.931 67.398 167.84 67.209 167.658 67.041C167.49 66.859 167.301 66.768 167.091 66.768H166.839L166.671 66.6V66.033L166.797 65.865L170.073 64.626H170.703L170.913 64.836L170.703 66.768V72.9C170.703 73.11 170.787 73.306 170.955 73.488C171.137 73.656 171.333 73.74 171.543 73.74H171.795L171.963 73.908V74.832L171.795 75H166.839L166.671 74.832ZM178.843 75.294C177.779 75.294 176.813 75.063 175.945 74.601C175.077 74.125 174.391 73.474 173.887 72.648C173.397 71.808 173.152 70.863 173.152 69.813C173.152 68.763 173.397 67.825 173.887 66.999C174.391 66.159 175.077 65.508 175.945 65.046C176.813 64.57 177.779 64.332 178.843 64.332C179.907 64.332 180.873 64.57 181.741 65.046C182.609 65.508 183.288 66.159 183.778 66.999C184.282 67.825 184.534 68.763 184.534 69.813C184.534 70.863 184.282 71.808 183.778 72.648C183.288 73.474 182.609 74.125 181.741 74.601C180.873 75.063 179.907 75.294 178.843 75.294ZM178.843 73.95C179.767 73.95 180.46 73.572 180.922 72.816C181.398 72.046 181.636 71.045 181.636 69.813C181.636 68.581 181.398 67.587 180.922 66.831C180.46 66.061 179.767 65.676 178.843 65.676C177.919 65.676 177.219 66.061 176.743 66.831C176.281 67.587 176.05 68.581 176.05 69.813C176.05 71.045 176.281 72.046 176.743 72.816C177.219 73.572 177.919 73.95 178.843 73.95ZM185.969 74.832V73.908L186.137 73.74H186.389C186.599 73.74 186.788 73.656 186.956 73.488C187.138 73.306 187.229 73.11 187.229 72.9V67.608C187.229 67.398 187.138 67.209 186.956 67.041C186.788 66.859 186.599 66.768 186.389 66.768H186.137L185.969 66.6V66.033L186.095 65.865L189.161 64.626H189.833L190.001 64.794L189.791 66.201C190.183 65.627 190.687 65.172 191.303 64.836C191.919 64.5 192.619 64.332 193.403 64.332C194.537 64.332 195.433 64.64 196.091 65.256C196.763 65.858 197.099 66.747 197.099 67.923V72.9C197.099 73.11 197.183 73.306 197.351 73.488C197.533 73.656 197.729 73.74 197.939 73.74H198.191L198.359 73.908V74.832L198.191 75H193.235L193.067 74.832V73.908L193.235 73.74H193.487C193.697 73.74 193.886 73.656 194.054 73.488C194.236 73.306 194.327 73.11 194.327 72.9V68.028C194.327 67.356 194.145 66.852 193.781 66.516C193.431 66.18 192.955 66.012 192.353 66.012C191.667 66.012 191.1 66.264 190.652 66.768C190.218 67.258 190.001 67.923 190.001 68.763V72.9C190.001 73.11 190.085 73.306 190.253 73.488C190.435 73.656 190.631 73.74 190.841 73.74H191.093L191.261 73.908V74.832L191.093 75H186.137L185.969 74.832ZM204.624 75.294C203.7 75.294 202.86 75.077 202.104 74.643C201.362 74.209 200.767 73.586 200.319 72.774C199.885 71.962 199.668 71.01 199.668 69.918C199.668 68.756 199.913 67.755 200.403 66.915C200.893 66.075 201.544 65.438 202.356 65.004C203.168 64.556 204.036 64.332 204.96 64.332C206.374 64.332 207.529 64.878 208.425 65.97H208.53L209.559 64.626H210.42L210.588 64.794V72.228C210.588 72.438 210.672 72.634 210.84 72.816C211.022 72.984 211.218 73.068 211.428 73.068H211.68L211.848 73.236V73.803L211.68 73.971L208.782 75.21H208.11L207.942 75.042V73.635C207.522 74.167 207.046 74.58 206.514 74.874C205.996 75.154 205.366 75.294 204.624 75.294ZM205.17 73.908C206.052 73.908 206.71 73.53 207.144 72.774C207.592 72.004 207.816 71.017 207.816 69.813C207.816 68.609 207.592 67.629 207.144 66.873C206.71 66.103 206.052 65.718 205.17 65.718C204.288 65.718 203.623 66.103 203.175 66.873C202.741 67.629 202.524 68.609 202.524 69.813C202.524 71.017 202.741 72.004 203.175 72.774C203.623 73.53 204.288 73.908 205.17 73.908ZM213.099 74.832V73.908L213.267 73.74H213.519C213.729 73.74 213.918 73.656 214.086 73.488C214.268 73.306 214.359 73.11 214.359 72.9V62.862C214.359 62.652 214.268 62.463 214.086 62.295C213.918 62.113 213.729 62.022 213.519 62.022H213.267L213.099 61.854V61.287L213.225 61.119L216.501 59.88H217.173L217.341 60.048L217.131 62.022V72.9C217.131 73.11 217.215 73.306 217.383 73.488C217.565 73.656 217.761 73.74 217.971 73.74H218.223L218.391 73.908V74.832L218.223 75H213.267L213.099 74.832ZM231.398 75.294C230.18 75.294 229.144 74.867 228.29 74.013V74.832L228.122 75H224.3L224.132 74.832V73.908L224.3 73.74H224.552C224.762 73.74 224.951 73.656 225.119 73.488C225.301 73.306 225.392 73.11 225.392 72.9V62.862C225.392 62.652 225.301 62.463 225.119 62.295C224.951 62.113 224.762 62.022 224.552 62.022H224.3L224.132 61.854V61.287L224.3 61.119L227.534 59.88H228.206L228.374 60.048L228.164 62.022V65.718C228.458 65.34 228.878 65.018 229.424 64.752C229.984 64.472 230.614 64.332 231.314 64.332C232.182 64.332 232.994 64.556 233.75 65.004C234.52 65.438 235.136 66.075 235.598 66.915C236.074 67.741 236.312 68.707 236.312 69.813C236.312 71.031 236.074 72.053 235.598 72.879C235.122 73.691 234.506 74.3 233.75 74.706C233.008 75.098 232.224 75.294 231.398 75.294ZM230.789 73.908C231.671 73.908 232.329 73.53 232.763 72.774C233.197 72.004 233.414 71.017 233.414 69.813C233.414 68.609 233.197 67.629 232.763 66.873C232.329 66.103 231.671 65.718 230.789 65.718C229.907 65.718 229.249 66.103 228.815 66.873C228.381 67.629 228.164 68.609 228.164 69.813C228.164 71.017 228.381 72.004 228.815 72.774C229.249 73.53 229.907 73.908 230.789 73.908ZM243.275 75.294C242.197 75.294 241.238 75.049 240.398 74.559C239.558 74.069 238.9 73.404 238.424 72.564C237.962 71.71 237.731 70.765 237.731 69.729C237.731 68.721 237.969 67.804 238.445 66.978C238.935 66.152 239.593 65.508 240.419 65.046C241.259 64.57 242.19 64.332 243.212 64.332C244.332 64.332 245.277 64.584 246.047 65.088C246.817 65.592 247.391 66.264 247.769 67.104C248.147 67.93 248.336 68.854 248.336 69.876L248.168 70.044H240.356C240.356 70.66 240.503 71.22 240.797 71.724C241.091 72.214 241.504 72.606 242.036 72.9C242.568 73.18 243.184 73.32 243.884 73.32C245.606 73.32 246.929 72.62 247.853 71.22L248.021 71.136L248.336 71.262L248.399 71.43C248.063 72.62 247.44 73.565 246.53 74.265C245.62 74.951 244.535 75.294 243.275 75.294ZM244.745 68.7C245.039 68.7 245.249 68.63 245.375 68.49C245.515 68.336 245.585 68.147 245.585 67.923C245.585 67.237 245.368 66.691 244.934 66.285C244.5 65.879 243.933 65.676 243.233 65.676C242.421 65.676 241.749 65.956 241.217 66.516C240.699 67.062 240.412 67.734 240.356 68.532L240.524 68.7H244.745ZM249.418 74.832V73.908L249.586 73.74H249.838C250.048 73.74 250.237 73.656 250.405 73.488C250.587 73.306 250.678 73.11 250.678 72.9V62.862C250.678 62.652 250.587 62.463 250.405 62.295C250.237 62.113 250.048 62.022 249.838 62.022H249.586L249.418 61.854V61.287L249.544 61.119L252.82 59.88H253.492L253.66 60.048L253.45 62.022V72.9C253.45 73.11 253.534 73.306 253.702 73.488C253.884 73.656 254.08 73.74 254.29 73.74H254.542L254.71 73.908V74.832L254.542 75H249.586L249.418 74.832ZM258.588 63.198C258.112 63.198 257.699 63.03 257.349 62.694C257.013 62.344 256.845 61.931 256.845 61.455C256.845 60.965 257.013 60.552 257.349 60.216C257.699 59.88 258.112 59.712 258.588 59.712C259.078 59.712 259.491 59.88 259.827 60.216C260.163 60.552 260.331 60.965 260.331 61.455C260.331 61.931 260.163 62.344 259.827 62.694C259.491 63.03 259.078 63.198 258.588 63.198ZM255.921 74.832V73.908L256.089 73.74H256.341C256.551 73.74 256.74 73.656 256.908 73.488C257.09 73.306 257.181 73.11 257.181 72.9V67.608C257.181 67.398 257.09 67.209 256.908 67.041C256.74 66.859 256.551 66.768 256.341 66.768H256.089L255.921 66.6V66.033L256.047 65.865L259.323 64.626H259.953L260.163 64.836L259.953 66.768V72.9C259.953 73.11 260.037 73.306 260.205 73.488C260.387 73.656 260.583 73.74 260.793 73.74H261.045L261.213 73.908V74.832L261.045 75H256.089L255.921 74.832ZM267.946 75.294C266.868 75.294 265.909 75.049 265.069 74.559C264.229 74.069 263.571 73.404 263.095 72.564C262.633 71.71 262.402 70.765 262.402 69.729C262.402 68.721 262.64 67.804 263.116 66.978C263.606 66.152 264.264 65.508 265.09 65.046C265.93 64.57 266.861 64.332 267.883 64.332C269.003 64.332 269.948 64.584 270.718 65.088C271.488 65.592 272.062 66.264 272.44 67.104C272.818 67.93 273.007 68.854 273.007 69.876L272.839 70.044H265.027C265.027 70.66 265.174 71.22 265.468 71.724C265.762 72.214 266.175 72.606 266.707 72.9C267.239 73.18 267.855 73.32 268.555 73.32C270.277 73.32 271.6 72.62 272.524 71.22L272.692 71.136L273.007 71.262L273.07 71.43C272.734 72.62 272.111 73.565 271.201 74.265C270.291 74.951 269.206 75.294 267.946 75.294ZM269.416 68.7C269.71 68.7 269.92 68.63 270.046 68.49C270.186 68.336 270.256 68.147 270.256 67.923C270.256 67.237 270.039 66.691 269.605 66.285C269.171 65.879 268.604 65.676 267.904 65.676C267.092 65.676 266.42 65.956 265.888 66.516C265.37 67.062 265.083 67.734 265.027 68.532L265.195 68.7H269.416ZM274.417 74.832V73.908L274.585 73.74H274.837C275.047 73.74 275.236 73.656 275.404 73.488C275.586 73.306 275.677 73.11 275.677 72.9V66.726C275.677 66.502 275.593 66.306 275.425 66.138C275.257 65.97 275.061 65.886 274.837 65.886H274.585L274.417 65.718V64.794L274.585 64.626H275.677V63.639C275.677 62.799 275.845 62.113 276.181 61.581C276.517 61.035 276.937 60.636 277.441 60.384C277.945 60.132 278.463 60.006 278.995 60.006C279.541 60.006 279.989 60.16 280.339 60.468C280.703 60.762 280.885 61.154 280.885 61.644C280.885 62.092 280.738 62.47 280.444 62.778C280.15 63.086 279.765 63.24 279.289 63.24C278.827 63.24 278.449 63.079 278.155 62.757C277.875 62.435 277.735 62.029 277.735 61.539C277.189 61.847 276.916 62.449 276.916 63.345L277.084 63.576L278.281 64.059L278.449 64.248V64.626H279.961L280.129 64.794V65.718L279.961 65.886H278.449V72.9C278.449 73.11 278.533 73.306 278.701 73.488C278.883 73.656 279.079 73.74 279.289 73.74H279.541L279.709 73.908V74.832L279.541 75H274.585L274.417 74.832Z" fill="#0C0748"/>
<g clip-path="url(#clip0_32_1297)">
<rect x="33.5" y="104" width="333" height="114" rx="16" fill="#F3F3F3" fill-opacity="0.6"/>
<rect width="333" height="114" transform="translate(33 104)" fill="#FFF2ED"/>
<path d="M85.6987 146H84.3803V135.431H85.6987V146ZM91.9862 146V138.104H93.1874V139.35H93.3046C93.4853 138.91 93.766 138.571 94.1469 138.332C94.5277 138.087 94.9818 137.965 95.5092 137.965C96.0268 137.965 96.4711 138.09 96.8422 138.339C97.2182 138.588 97.5014 138.925 97.6918 139.35H97.809C98.0238 138.925 98.3461 138.588 98.7758 138.339C99.2055 138.09 99.6889 137.965 100.226 137.965C101.032 137.965 101.652 138.19 102.086 138.639C102.521 139.083 102.738 139.718 102.738 140.543V146H101.478V140.836C101.478 139.679 100.924 139.101 99.8158 139.101C99.2787 139.101 98.8393 139.276 98.4975 139.628C98.1557 139.979 97.9848 140.412 97.9848 140.924V146H96.725V140.639C96.725 140.17 96.5736 139.796 96.2709 139.518C95.973 139.24 95.5751 139.101 95.0771 139.101C94.5644 139.101 94.1298 139.296 93.7733 139.687C93.4218 140.077 93.246 140.551 93.246 141.107V146H91.9862ZM111.185 138.104V146H109.984V144.762H109.866C109.666 145.207 109.359 145.548 108.943 145.788C108.528 146.022 108.021 146.139 107.42 146.139C106.541 146.139 105.872 145.888 105.413 145.385C104.954 144.882 104.725 144.159 104.725 143.217V138.104H105.985V142.909C105.985 143.627 106.126 144.154 106.409 144.491C106.693 144.823 107.147 144.989 107.772 144.989C108.46 144.989 108.99 144.796 109.361 144.411C109.737 144.02 109.925 143.476 109.925 142.777V138.104H111.185ZM113.135 140.265C113.135 139.611 113.415 139.064 113.977 138.625C114.538 138.185 115.239 137.965 116.079 137.965C116.904 137.965 117.585 138.156 118.122 138.537C118.66 138.917 118.97 139.433 119.053 140.082H117.808C117.72 139.76 117.524 139.506 117.222 139.32C116.924 139.13 116.54 139.035 116.072 139.035C115.598 139.035 115.2 139.145 114.878 139.364C114.56 139.584 114.402 139.867 114.402 140.214C114.402 140.482 114.512 140.707 114.731 140.888C114.956 141.063 115.303 141.208 115.771 141.32L116.987 141.613C117.739 141.793 118.293 142.055 118.65 142.396C119.011 142.738 119.192 143.19 119.192 143.751C119.192 144.45 118.891 145.023 118.291 145.473C117.69 145.917 116.936 146.139 116.028 146.139C115.149 146.139 114.429 145.944 113.867 145.553C113.306 145.163 112.991 144.64 112.922 143.986H114.219C114.326 144.328 114.538 144.596 114.856 144.792C115.173 144.982 115.578 145.077 116.072 145.077C116.604 145.077 117.041 144.962 117.383 144.733C117.724 144.503 117.895 144.208 117.895 143.847C117.895 143.31 117.478 142.938 116.643 142.733L115.288 142.404C114.541 142.223 113.994 141.964 113.647 141.627C113.306 141.286 113.135 140.832 113.135 140.265ZM121.383 136.061H122.643V138.104H124.401V139.159H122.643V143.627C122.643 144.091 122.736 144.428 122.922 144.638C123.107 144.848 123.405 144.953 123.815 144.953C123.996 144.953 124.191 144.943 124.401 144.923V145.985C124.123 146.034 123.876 146.059 123.661 146.059C122.846 146.059 122.262 145.895 121.911 145.568C121.559 145.241 121.383 144.701 121.383 143.949V139.159H120.109V138.104H121.383V136.061ZM133.984 146.139C133.438 146.139 132.94 146.017 132.49 145.773C132.046 145.524 131.699 145.18 131.45 144.74H131.333V146H130.132V134.97H131.392V139.35H131.509C131.724 138.925 132.053 138.588 132.498 138.339C132.947 138.09 133.442 137.965 133.984 137.965C134.99 137.965 135.794 138.336 136.394 139.079C136.995 139.821 137.295 140.812 137.295 142.052C137.295 143.288 136.992 144.279 136.387 145.026C135.786 145.768 134.985 146.139 133.984 146.139ZM133.692 139.101C132.974 139.101 132.405 139.364 131.985 139.892C131.57 140.419 131.362 141.139 131.362 142.052C131.362 142.965 131.57 143.686 131.985 144.213C132.405 144.74 132.974 145.004 133.692 145.004C134.414 145.004 134.978 144.743 135.383 144.22C135.789 143.698 135.991 142.975 135.991 142.052C135.991 141.129 135.789 140.407 135.383 139.884C134.978 139.362 134.414 139.101 133.692 139.101ZM142.182 139.079C141.552 139.079 141.035 139.291 140.629 139.716C140.224 140.141 139.997 140.702 139.948 141.4H144.299C144.284 140.702 144.084 140.141 143.698 139.716C143.312 139.291 142.807 139.079 142.182 139.079ZM144.262 143.957H145.522C145.331 144.64 144.943 145.175 144.357 145.561C143.776 145.946 143.056 146.139 142.197 146.139C141.103 146.139 140.236 145.773 139.597 145.041C138.957 144.303 138.637 143.31 138.637 142.06C138.637 140.814 138.959 139.821 139.604 139.079C140.248 138.336 141.113 137.965 142.197 137.965C143.261 137.965 144.098 138.319 144.709 139.027C145.319 139.735 145.624 140.705 145.624 141.935V142.418H139.948V142.477C139.982 143.258 140.202 143.878 140.607 144.337C141.017 144.796 141.557 145.026 142.226 145.026C143.246 145.026 143.925 144.669 144.262 143.957ZM157.888 140.521H156.614C156.507 140.106 156.275 139.767 155.918 139.503C155.567 139.235 155.12 139.101 154.578 139.101C153.87 139.101 153.306 139.364 152.886 139.892C152.471 140.419 152.263 141.129 152.263 142.023C152.263 142.931 152.473 143.656 152.893 144.198C153.313 144.735 153.875 145.004 154.578 145.004C155.11 145.004 155.552 144.884 155.904 144.645C156.26 144.406 156.497 144.064 156.614 143.62H157.888C157.771 144.367 157.422 144.975 156.841 145.443C156.26 145.907 155.508 146.139 154.585 146.139C153.477 146.139 152.596 145.768 151.941 145.026C151.287 144.279 150.96 143.278 150.96 142.023C150.96 140.792 151.287 139.809 151.941 139.071C152.596 138.334 153.474 137.965 154.578 137.965C155.501 137.965 156.253 138.207 156.834 138.69C157.42 139.174 157.771 139.784 157.888 140.521ZM165.412 145.048C164.763 145.775 163.877 146.139 162.753 146.139C161.63 146.139 160.742 145.775 160.087 145.048C159.438 144.315 159.113 143.317 159.113 142.052C159.113 140.783 159.438 139.784 160.087 139.057C160.737 138.329 161.626 137.965 162.753 137.965C163.881 137.965 164.77 138.329 165.419 139.057C166.069 139.784 166.394 140.783 166.394 142.052C166.394 143.317 166.066 144.315 165.412 145.048ZM161.025 144.235C161.43 144.748 162.006 145.004 162.753 145.004C163.501 145.004 164.077 144.748 164.482 144.235C164.887 143.717 165.09 142.99 165.09 142.052C165.09 141.115 164.887 140.39 164.482 139.877C164.077 139.359 163.501 139.101 162.753 139.101C162.006 139.101 161.43 139.359 161.025 139.877C160.62 140.39 160.417 141.115 160.417 142.052C160.417 142.99 160.62 143.717 161.025 144.235ZM168.131 146V138.104H169.332V139.35H169.45C169.63 138.91 169.911 138.571 170.292 138.332C170.673 138.087 171.127 137.965 171.654 137.965C172.172 137.965 172.616 138.09 172.987 138.339C173.363 138.588 173.646 138.925 173.837 139.35H173.954C174.169 138.925 174.491 138.588 174.921 138.339C175.35 138.09 175.834 137.965 176.371 137.965C177.177 137.965 177.797 138.19 178.231 138.639C178.666 139.083 178.883 139.718 178.883 140.543V146H177.623V140.836C177.623 139.679 177.069 139.101 175.961 139.101C175.424 139.101 174.984 139.276 174.642 139.628C174.301 139.979 174.13 140.412 174.13 140.924V146H172.87V140.639C172.87 140.17 172.719 139.796 172.416 139.518C172.118 139.24 171.72 139.101 171.222 139.101C170.709 139.101 170.275 139.296 169.918 139.687C169.567 140.077 169.391 140.551 169.391 141.107V146H168.131ZM184.788 137.965C185.794 137.965 186.597 138.336 187.198 139.079C187.803 139.821 188.106 140.812 188.106 142.052C188.106 143.288 187.803 144.279 187.198 145.026C186.592 145.768 185.789 146.139 184.788 146.139C184.227 146.139 183.729 146.024 183.294 145.795C182.859 145.561 182.535 145.233 182.32 144.813H182.203V148.637H180.943V138.104H182.144V139.423H182.261C182.515 138.969 182.864 138.612 183.309 138.354C183.758 138.095 184.251 137.965 184.788 137.965ZM184.488 145.004C185.21 145.004 185.777 144.743 186.187 144.22C186.597 143.698 186.802 142.975 186.802 142.052C186.802 141.129 186.597 140.407 186.187 139.884C185.782 139.362 185.218 139.101 184.495 139.101C183.782 139.101 183.216 139.367 182.796 139.899C182.376 140.426 182.166 141.144 182.166 142.052C182.166 142.956 182.374 143.673 182.789 144.206C183.209 144.738 183.775 145.004 184.488 145.004ZM192.993 139.079C192.363 139.079 191.845 139.291 191.44 139.716C191.035 140.141 190.808 140.702 190.759 141.4H195.11C195.095 140.702 194.895 140.141 194.509 139.716C194.123 139.291 193.618 139.079 192.993 139.079ZM195.073 143.957H196.333C196.142 144.64 195.754 145.175 195.168 145.561C194.587 145.946 193.867 146.139 193.008 146.139C191.914 146.139 191.047 145.773 190.408 145.041C189.768 144.303 189.448 143.31 189.448 142.06C189.448 140.814 189.77 139.821 190.415 139.079C191.059 138.336 191.924 137.965 193.008 137.965C194.072 137.965 194.909 138.319 195.52 139.027C196.13 139.735 196.435 140.705 196.435 141.935V142.418H190.759V142.477C190.793 143.258 191.013 143.878 191.418 144.337C191.828 144.796 192.368 145.026 193.037 145.026C194.057 145.026 194.736 144.669 195.073 143.957ZM198.7 136.061H199.96V138.104H201.718V139.159H199.96V143.627C199.96 144.091 200.053 144.428 200.238 144.638C200.424 144.848 200.722 144.953 201.132 144.953C201.313 144.953 201.508 144.943 201.718 144.923V145.985C201.439 146.034 201.193 146.059 200.978 146.059C200.163 146.059 199.579 145.895 199.228 145.568C198.876 145.241 198.7 144.701 198.7 143.949V139.159H197.426V138.104H198.7V136.061ZM206.414 139.079C205.784 139.079 205.267 139.291 204.862 139.716C204.456 140.141 204.229 140.702 204.18 141.4H208.531C208.516 140.702 208.316 140.141 207.93 139.716C207.545 139.291 207.039 139.079 206.414 139.079ZM208.494 143.957H209.754C209.564 144.64 209.176 145.175 208.59 145.561C208.009 145.946 207.288 146.139 206.429 146.139C205.335 146.139 204.469 145.773 203.829 145.041C203.189 144.303 202.869 143.31 202.869 142.06C202.869 140.814 203.192 139.821 203.836 139.079C204.481 138.336 205.345 137.965 206.429 137.965C207.493 137.965 208.331 138.319 208.941 139.027C209.552 139.735 209.857 140.705 209.857 141.935V142.418H204.18V142.477C204.215 143.258 204.434 143.878 204.84 144.337C205.25 144.796 205.789 145.026 206.458 145.026C207.479 145.026 208.157 144.669 208.494 143.957ZM211.594 146V138.104H212.795V139.35H212.913C213.333 138.427 214.124 137.965 215.286 137.965C216.169 137.965 216.851 138.219 217.329 138.727C217.808 139.23 218.047 139.95 218.047 140.888V146H216.787V141.195C216.787 140.487 216.633 139.962 216.326 139.621C216.023 139.274 215.557 139.101 214.927 139.101C214.292 139.101 213.787 139.301 213.411 139.701C213.04 140.097 212.854 140.639 212.854 141.327V146H211.594ZM220.641 136.061H221.901V138.104H223.659V139.159H221.901V143.627C221.901 144.091 221.994 144.428 222.179 144.638C222.365 144.848 222.663 144.953 223.073 144.953C223.254 144.953 223.449 144.943 223.659 144.923V145.985C223.381 146.034 223.134 146.059 222.919 146.059C222.104 146.059 221.52 145.895 221.169 145.568C220.817 145.241 220.641 144.701 220.641 143.949V139.159H219.367V138.104H220.641V136.061ZM226.122 148.688H225.177L225.873 144.521H227.271L226.122 148.688ZM233.53 146V138.104H234.731V139.276H234.848C234.965 138.891 235.229 138.576 235.639 138.332C236.049 138.087 236.516 137.965 237.038 137.965C237.277 137.965 237.487 137.978 237.668 138.002V139.262C237.497 139.213 237.228 139.188 236.862 139.188C236.262 139.188 235.766 139.369 235.375 139.73C234.985 140.092 234.79 140.551 234.79 141.107V146H233.53ZM241.434 145.033C242.084 145.033 242.621 144.845 243.046 144.469C243.475 144.093 243.69 143.622 243.69 143.056V142.331L241.566 142.47C240.97 142.509 240.533 142.633 240.255 142.843C239.977 143.053 239.838 143.358 239.838 143.759C239.838 144.154 239.987 144.467 240.284 144.696C240.582 144.921 240.966 145.033 241.434 145.033ZM241.2 146.139C240.424 146.139 239.784 145.927 239.281 145.502C238.783 145.072 238.534 144.501 238.534 143.788C238.534 143.085 238.783 142.533 239.281 142.133C239.779 141.732 240.489 141.505 241.412 141.452L243.69 141.312V140.595C243.69 140.106 243.539 139.733 243.236 139.474C242.933 139.215 242.489 139.086 241.903 139.086C241.429 139.086 241.036 139.171 240.724 139.342C240.411 139.513 240.211 139.755 240.123 140.067H238.849C238.932 139.438 239.257 138.93 239.823 138.544C240.394 138.158 241.102 137.965 241.947 137.965C242.904 137.965 243.644 138.197 244.166 138.661C244.689 139.125 244.95 139.77 244.95 140.595V146H243.749V144.835H243.632C243.378 145.255 243.041 145.578 242.621 145.802C242.201 146.027 241.727 146.139 241.2 146.139ZM247.566 136.061H248.826V138.104H250.584V139.159H248.826V143.627C248.826 144.091 248.919 144.428 249.104 144.638C249.29 144.848 249.588 144.953 249.998 144.953C250.179 144.953 250.374 144.943 250.584 144.923V145.985C250.306 146.034 250.059 146.059 249.844 146.059C249.029 146.059 248.445 145.895 248.094 145.568C247.742 145.241 247.566 144.701 247.566 143.949V139.159H246.292V138.104H247.566V136.061ZM252.278 146V138.104H253.537V146H252.278ZM253.53 136.244C253.359 136.415 253.152 136.5 252.907 136.5C252.663 136.5 252.456 136.415 252.285 136.244C252.114 136.068 252.029 135.861 252.029 135.622C252.029 135.382 252.114 135.177 252.285 135.006C252.456 134.831 252.663 134.743 252.907 134.743C253.152 134.743 253.359 134.831 253.53 135.006C253.701 135.177 253.786 135.382 253.786 135.622C253.786 135.861 253.701 136.068 253.53 136.244ZM261.603 145.048C260.954 145.775 260.067 146.139 258.944 146.139C257.821 146.139 256.933 145.775 256.278 145.048C255.629 144.315 255.304 143.317 255.304 142.052C255.304 140.783 255.629 139.784 256.278 139.057C256.928 138.329 257.816 137.965 258.944 137.965C260.072 137.965 260.961 138.329 261.61 139.057C262.26 139.784 262.584 140.783 262.584 142.052C262.584 143.317 262.257 144.315 261.603 145.048ZM257.216 144.235C257.621 144.748 258.197 145.004 258.944 145.004C259.691 145.004 260.268 144.748 260.673 144.235C261.078 143.717 261.281 142.99 261.281 142.052C261.281 141.115 261.078 140.39 260.673 139.877C260.268 139.359 259.691 139.101 258.944 139.101C258.197 139.101 257.621 139.359 257.216 139.877C256.81 140.39 256.608 141.115 256.608 142.052C256.608 142.99 256.81 143.717 257.216 144.235ZM264.322 146V138.104H265.523V139.35H265.64C266.06 138.427 266.851 137.965 268.013 137.965C268.897 137.965 269.578 138.219 270.057 138.727C270.535 139.23 270.775 139.95 270.775 140.888V146H269.515V141.195C269.515 140.487 269.361 139.962 269.053 139.621C268.751 139.274 268.284 139.101 267.654 139.101C267.02 139.101 266.514 139.301 266.138 139.701C265.767 140.097 265.582 140.639 265.582 141.327V146H264.322ZM275.273 145.033C275.923 145.033 276.46 144.845 276.885 144.469C277.314 144.093 277.529 143.622 277.529 143.056V142.331L275.405 142.47C274.809 142.509 274.372 142.633 274.094 142.843C273.816 143.053 273.677 143.358 273.677 143.759C273.677 144.154 273.826 144.467 274.123 144.696C274.421 144.921 274.805 145.033 275.273 145.033ZM275.039 146.139C274.263 146.139 273.623 145.927 273.12 145.502C272.622 145.072 272.373 144.501 272.373 143.788C272.373 143.085 272.622 142.533 273.12 142.133C273.618 141.732 274.329 141.505 275.251 141.452L277.529 141.312V140.595C277.529 140.106 277.378 139.733 277.075 139.474C276.772 139.215 276.328 139.086 275.742 139.086C275.268 139.086 274.875 139.171 274.563 139.342C274.25 139.513 274.05 139.755 273.962 140.067H272.688C272.771 139.438 273.096 138.93 273.662 138.544C274.233 138.158 274.941 137.965 275.786 137.965C276.743 137.965 277.483 138.197 278.005 138.661C278.528 139.125 278.789 139.77 278.789 140.595V146H277.588V144.835H277.471C277.217 145.255 276.88 145.578 276.46 145.802C276.04 146.027 275.566 146.139 275.039 146.139ZM280.951 146V134.97H282.211V146H280.951ZM285.216 148.688H284.271L284.967 144.521H286.366L285.216 148.688ZM295.056 145.033C295.705 145.033 296.242 144.845 296.667 144.469C297.097 144.093 297.311 143.622 297.311 143.056V142.331L295.187 142.47C294.592 142.509 294.155 142.633 293.876 142.843C293.598 143.053 293.459 143.358 293.459 143.759C293.459 144.154 293.608 144.467 293.906 144.696C294.203 144.921 294.587 145.033 295.056 145.033ZM294.821 146.139C294.045 146.139 293.405 145.927 292.902 145.502C292.404 145.072 292.155 144.501 292.155 143.788C292.155 143.085 292.404 142.533 292.902 142.133C293.4 141.732 294.111 141.505 295.034 141.452L297.311 141.312V140.595C297.311 140.106 297.16 139.733 296.857 139.474C296.555 139.215 296.11 139.086 295.524 139.086C295.051 139.086 294.658 139.171 294.345 139.342C294.033 139.513 293.832 139.755 293.744 140.067H292.47C292.553 139.438 292.878 138.93 293.444 138.544C294.015 138.158 294.723 137.965 295.568 137.965C296.525 137.965 297.265 138.197 297.787 138.661C298.31 139.125 298.571 139.77 298.571 140.595V146H297.37V144.835H297.253C296.999 145.255 296.662 145.578 296.242 145.802C295.822 146.027 295.348 146.139 294.821 146.139ZM300.66 146V138.104H301.861V139.35H301.979C302.399 138.427 303.19 137.965 304.352 137.965C305.235 137.965 305.917 138.219 306.395 138.727C306.874 139.23 307.113 139.95 307.113 140.888V146H305.853V141.195C305.853 140.487 305.699 139.962 305.392 139.621C305.089 139.274 304.623 139.101 303.993 139.101C303.358 139.101 302.853 139.301 302.477 139.701C302.106 140.097 301.92 140.639 301.92 141.327V146H300.66ZM312.102 146.139C311.092 146.139 310.286 145.768 309.685 145.026C309.085 144.284 308.785 143.292 308.785 142.052C308.785 140.817 309.085 139.828 309.685 139.086C310.291 138.339 311.097 137.965 312.102 137.965C312.654 137.965 313.147 138.09 313.582 138.339C314.021 138.583 314.353 138.92 314.578 139.35H314.688V134.97H315.948V146H314.746V144.74H314.629C314.38 145.18 314.034 145.524 313.589 145.773C313.145 146.017 312.649 146.139 312.102 146.139ZM312.395 139.101C311.678 139.101 311.114 139.364 310.703 139.892C310.293 140.414 310.088 141.134 310.088 142.052C310.088 142.975 310.291 143.698 310.696 144.22C311.106 144.743 311.673 145.004 312.395 145.004C313.113 145.004 313.68 144.74 314.095 144.213C314.51 143.686 314.717 142.965 314.717 142.052C314.717 141.149 314.507 140.431 314.087 139.899C313.672 139.367 313.108 139.101 312.395 139.101ZM82.6619 160.265C82.6619 159.611 82.9427 159.064 83.5042 158.625C84.0657 158.185 84.7664 157.965 85.6062 157.965C86.4314 157.965 87.1126 158.156 87.6497 158.537C88.1868 158.917 88.4969 159.433 88.5799 160.082H87.3348C87.2469 159.76 87.0516 159.506 86.7488 159.32C86.451 159.13 86.0677 159.035 85.5989 159.035C85.1253 159.035 84.7273 159.145 84.4051 159.364C84.0877 159.584 83.929 159.867 83.929 160.214C83.929 160.482 84.0389 160.707 84.2586 160.888C84.4832 161.063 84.8299 161.208 85.2986 161.32L86.5145 161.613C87.2664 161.793 87.8206 162.055 88.177 162.396C88.5384 162.738 88.719 163.19 88.719 163.751C88.719 164.45 88.4187 165.023 87.8182 165.473C87.2176 165.917 86.4632 166.139 85.555 166.139C84.6761 166.139 83.9559 165.944 83.3943 165.553C82.8328 165.163 82.5179 164.64 82.4495 163.986H83.7459C83.8533 164.328 84.0657 164.596 84.3831 164.792C84.7005 164.982 85.1058 165.077 85.5989 165.077C86.1311 165.077 86.5682 164.962 86.91 164.733C87.2518 164.503 87.4227 164.208 87.4227 163.847C87.4227 163.31 87.0052 162.938 86.1702 162.733L84.8152 162.404C84.0682 162.223 83.5213 161.964 83.1746 161.627C82.8328 161.286 82.6619 160.832 82.6619 160.265ZM96.8433 158.104V166H95.6421V164.762H95.5249C95.3247 165.207 95.0171 165.548 94.6021 165.788C94.187 166.022 93.6792 166.139 93.0787 166.139C92.1997 166.139 91.5308 165.888 91.0718 165.385C90.6128 164.882 90.3833 164.159 90.3833 163.217V158.104H91.6431V162.909C91.6431 163.627 91.7847 164.154 92.0679 164.491C92.3511 164.823 92.8052 164.989 93.4302 164.989C94.1187 164.989 94.6485 164.796 95.0196 164.411C95.3955 164.02 95.5835 163.476 95.5835 162.777V158.104H96.8433ZM105.51 160.521H104.235C104.128 160.106 103.896 159.767 103.539 159.503C103.188 159.235 102.741 159.101 102.199 159.101C101.491 159.101 100.927 159.364 100.507 159.892C100.092 160.419 99.8845 161.129 99.8845 162.023C99.8845 162.931 100.095 163.656 100.514 164.198C100.934 164.735 101.496 165.004 102.199 165.004C102.731 165.004 103.173 164.884 103.525 164.645C103.881 164.406 104.118 164.064 104.235 163.62H105.51C105.392 164.367 105.043 164.975 104.462 165.443C103.881 165.907 103.129 166.139 102.206 166.139C101.098 166.139 100.217 165.768 99.5623 165.026C98.908 164.279 98.5808 163.278 98.5808 162.023C98.5808 160.792 98.908 159.809 99.5623 159.071C100.217 158.334 101.095 157.965 102.199 157.965C103.122 157.965 103.874 158.207 104.455 158.69C105.041 159.174 105.392 159.784 105.51 160.521ZM113.663 160.521H112.389C112.281 160.106 112.049 159.767 111.693 159.503C111.341 159.235 110.895 159.101 110.353 159.101C109.645 159.101 109.081 159.364 108.661 159.892C108.246 160.419 108.038 161.129 108.038 162.023C108.038 162.931 108.248 163.656 108.668 164.198C109.088 164.735 109.649 165.004 110.353 165.004C110.885 165.004 111.327 164.884 111.678 164.645C112.035 164.406 112.271 164.064 112.389 163.62H113.663C113.546 164.367 113.197 164.975 112.616 165.443C112.035 165.907 111.283 166.139 110.36 166.139C109.251 166.139 108.37 165.768 107.716 165.026C107.062 164.279 106.734 163.278 106.734 162.023C106.734 160.792 107.062 159.809 107.716 159.071C108.37 158.334 109.249 157.965 110.353 157.965C111.275 157.965 112.027 158.207 112.608 158.69C113.194 159.174 113.546 159.784 113.663 160.521ZM118.433 159.079C117.803 159.079 117.285 159.291 116.88 159.716C116.475 160.141 116.248 160.702 116.199 161.4H120.55C120.535 160.702 120.335 160.141 119.949 159.716C119.563 159.291 119.058 159.079 118.433 159.079ZM120.513 163.957H121.773C121.582 164.64 121.194 165.175 120.608 165.561C120.027 165.946 119.307 166.139 118.448 166.139C117.354 166.139 116.487 165.773 115.847 165.041C115.208 164.303 114.888 163.31 114.888 162.06C114.888 160.814 115.21 159.821 115.855 159.079C116.499 158.336 117.364 157.965 118.448 157.965C119.512 157.965 120.349 158.319 120.96 159.027C121.57 159.735 121.875 160.705 121.875 161.935V162.418H116.199V162.477C116.233 163.258 116.453 163.878 116.858 164.337C117.268 164.796 117.808 165.026 118.477 165.026C119.497 165.026 120.176 164.669 120.513 163.957ZM123.43 160.265C123.43 159.611 123.71 159.064 124.272 158.625C124.833 158.185 125.534 157.965 126.374 157.965C127.199 157.965 127.88 158.156 128.417 158.537C128.955 158.917 129.265 159.433 129.348 160.082H128.103C128.015 159.76 127.819 159.506 127.517 159.32C127.219 159.13 126.835 159.035 126.367 159.035C125.893 159.035 125.495 159.145 125.173 159.364C124.855 159.584 124.697 159.867 124.697 160.214C124.697 160.482 124.807 160.707 125.026 160.888C125.251 161.063 125.598 161.208 126.066 161.32L127.282 161.613C128.034 161.793 128.588 162.055 128.945 162.396C129.306 162.738 129.487 163.19 129.487 163.751C129.487 164.45 129.187 165.023 128.586 165.473C127.985 165.917 127.231 166.139 126.323 166.139C125.444 166.139 124.724 165.944 124.162 165.553C123.601 165.163 123.286 164.64 123.217 163.986H124.514C124.621 164.328 124.833 164.596 125.151 164.792C125.468 164.982 125.874 165.077 126.367 165.077C126.899 165.077 127.336 164.962 127.678 164.733C128.02 164.503 128.19 164.208 128.19 163.847C128.19 163.31 127.773 162.938 126.938 162.733L125.583 162.404C124.836 162.223 124.289 161.964 123.942 161.627C123.601 161.286 123.43 160.832 123.43 160.265ZM130.895 160.265C130.895 159.611 131.176 159.064 131.737 158.625C132.299 158.185 132.999 157.965 133.839 157.965C134.664 157.965 135.345 158.156 135.883 158.537C136.42 158.917 136.73 159.433 136.813 160.082H135.568C135.48 159.76 135.284 159.506 134.982 159.32C134.684 159.13 134.301 159.035 133.832 159.035C133.358 159.035 132.96 159.145 132.638 159.364C132.321 159.584 132.162 159.867 132.162 160.214C132.162 160.482 132.272 160.707 132.491 160.888C132.716 161.063 133.063 161.208 133.531 161.32L134.747 161.613C135.499 161.793 136.053 162.055 136.41 162.396C136.771 162.738 136.952 163.19 136.952 163.751C136.952 164.45 136.652 165.023 136.051 165.473C135.45 165.917 134.696 166.139 133.788 166.139C132.909 166.139 132.189 165.944 131.627 165.553C131.066 165.163 130.751 164.64 130.682 163.986H131.979C132.086 164.328 132.299 164.596 132.616 164.792C132.933 164.982 133.339 165.077 133.832 165.077C134.364 165.077 134.801 164.962 135.143 164.733C135.485 164.503 135.656 164.208 135.656 163.847C135.656 163.31 135.238 162.938 134.403 162.733L133.048 162.404C132.301 162.223 131.754 161.964 131.407 161.627C131.066 161.286 130.895 160.832 130.895 160.265ZM139.217 166V159.159H137.906V158.104H139.217V157.226C139.217 155.673 139.981 154.896 141.509 154.896C141.827 154.896 142.11 154.921 142.359 154.97V155.995C142.232 155.971 142.034 155.958 141.766 155.958C141.316 155.958 140.989 156.066 140.784 156.281C140.579 156.496 140.477 156.823 140.477 157.262V158.104H142.286V159.159H140.477V166H139.217ZM150.271 158.104V166H149.07V164.762H148.952C148.752 165.207 148.445 165.548 148.03 165.788C147.614 166.022 147.107 166.139 146.506 166.139C145.627 166.139 144.958 165.888 144.499 165.385C144.04 164.882 143.811 164.159 143.811 163.217V158.104H145.071V162.909C145.071 163.627 145.212 164.154 145.495 164.491C145.779 164.823 146.233 164.989 146.858 164.989C147.546 164.989 148.076 164.796 148.447 164.411C148.823 164.02 149.011 163.476 149.011 162.777V158.104H150.271ZM152.477 166V154.97H153.737V166H152.477ZM159.966 166V158.104H161.226V166H159.966ZM161.218 156.244C161.047 156.415 160.84 156.5 160.596 156.5C160.352 156.5 160.144 156.415 159.973 156.244C159.802 156.068 159.717 155.861 159.717 155.622C159.717 155.382 159.802 155.177 159.973 155.006C160.144 154.831 160.352 154.743 160.596 154.743C160.84 154.743 161.047 154.831 161.218 155.006C161.389 155.177 161.475 155.382 161.475 155.622C161.475 155.861 161.389 156.068 161.218 156.244ZM163.388 166V158.104H164.589V159.35H164.706C165.126 158.427 165.917 157.965 167.079 157.965C167.963 157.965 168.644 158.219 169.123 158.727C169.601 159.23 169.841 159.95 169.841 160.888V166H168.581V161.195C168.581 160.487 168.427 159.962 168.119 159.621C167.817 159.274 167.35 159.101 166.72 159.101C166.086 159.101 165.58 159.301 165.204 159.701C164.833 160.097 164.648 160.639 164.648 161.327V166H163.388ZM178.333 165.033C178.982 165.033 179.519 164.845 179.944 164.469C180.374 164.093 180.589 163.622 180.589 163.056V162.331L178.465 162.47C177.869 162.509 177.432 162.633 177.153 162.843C176.875 163.053 176.736 163.358 176.736 163.759C176.736 164.154 176.885 164.467 177.183 164.696C177.481 164.921 177.864 165.033 178.333 165.033ZM178.098 166.139C177.322 166.139 176.682 165.927 176.179 165.502C175.681 165.072 175.432 164.501 175.432 163.788C175.432 163.085 175.681 162.533 176.179 162.133C176.677 161.732 177.388 161.505 178.311 161.452L180.589 161.312V160.595C180.589 160.106 180.437 159.733 180.134 159.474C179.832 159.215 179.387 159.086 178.801 159.086C178.328 159.086 177.935 159.171 177.622 159.342C177.31 159.513 177.11 159.755 177.022 160.067H175.747C175.83 159.438 176.155 158.93 176.721 158.544C177.293 158.158 178.001 157.965 178.845 157.965C179.802 157.965 180.542 158.197 181.065 158.661C181.587 159.125 181.848 159.77 181.848 160.595V166H180.647V164.835H180.53C180.276 165.255 179.939 165.578 179.519 165.802C179.099 166.027 178.626 166.139 178.098 166.139ZM184.011 166V154.97H185.27V166H184.011ZM187.55 166V154.97H188.81V166H187.55ZM198.855 157.965C199.86 157.965 200.664 158.336 201.264 159.079C201.87 159.821 202.172 160.812 202.172 162.052C202.172 163.288 201.87 164.279 201.264 165.026C200.659 165.768 199.856 166.139 198.855 166.139C198.293 166.139 197.795 166.024 197.36 165.795C196.926 165.561 196.601 165.233 196.386 164.813H196.269V168.637H195.009V158.104H196.211V159.423H196.328C196.582 158.969 196.931 158.612 197.375 158.354C197.824 158.095 198.318 157.965 198.855 157.965ZM198.554 165.004C199.277 165.004 199.843 164.743 200.254 164.22C200.664 163.698 200.869 162.975 200.869 162.052C200.869 161.129 200.664 160.407 200.254 159.884C199.848 159.362 199.284 159.101 198.562 159.101C197.849 159.101 197.282 159.367 196.862 159.899C196.443 160.426 196.233 161.144 196.233 162.052C196.233 162.956 196.44 163.673 196.855 164.206C197.275 164.738 197.841 165.004 198.554 165.004ZM209.813 165.048C209.164 165.775 208.278 166.139 207.155 166.139C206.032 166.139 205.143 165.775 204.489 165.048C203.839 164.315 203.515 163.317 203.515 162.052C203.515 160.783 203.839 159.784 204.489 159.057C205.138 158.329 206.027 157.965 207.155 157.965C208.283 157.965 209.171 158.329 209.821 159.057C210.47 159.784 210.795 160.783 210.795 162.052C210.795 163.317 210.468 164.315 209.813 165.048ZM205.426 164.235C205.831 164.748 206.408 165.004 207.155 165.004C207.902 165.004 208.478 164.748 208.883 164.235C209.288 163.717 209.491 162.99 209.491 162.052C209.491 161.115 209.288 160.39 208.883 159.877C208.478 159.359 207.902 159.101 207.155 159.101C206.408 159.101 205.831 159.359 205.426 159.877C205.021 160.39 204.818 161.115 204.818 162.052C204.818 162.99 205.021 163.717 205.426 164.235ZM212.349 160.265C212.349 159.611 212.63 159.064 213.191 158.625C213.753 158.185 214.454 157.965 215.294 157.965C216.119 157.965 216.8 158.156 217.337 158.537C217.874 158.917 218.184 159.433 218.267 160.082H217.022C216.934 159.76 216.739 159.506 216.436 159.32C216.138 159.13 215.755 159.035 215.286 159.035C214.813 159.035 214.415 159.145 214.092 159.364C213.775 159.584 213.616 159.867 213.616 160.214C213.616 160.482 213.726 160.707 213.946 160.888C214.171 161.063 214.517 161.208 214.986 161.32L216.202 161.613C216.954 161.793 217.508 162.055 217.864 162.396C218.226 162.738 218.406 163.19 218.406 163.751C218.406 164.45 218.106 165.023 217.505 165.473C216.905 165.917 216.15 166.139 215.242 166.139C214.363 166.139 213.643 165.944 213.082 165.553C212.52 165.163 212.205 164.64 212.137 163.986H213.433C213.541 164.328 213.753 164.596 214.07 164.792C214.388 164.982 214.793 165.077 215.286 165.077C215.818 165.077 216.255 164.962 216.597 164.733C216.939 164.503 217.11 164.208 217.11 163.847C217.11 163.31 216.692 162.938 215.858 162.733L214.503 162.404C213.755 162.223 213.209 161.964 212.862 161.627C212.52 161.286 212.349 160.832 212.349 160.265ZM219.814 160.265C219.814 159.611 220.095 159.064 220.657 158.625C221.218 158.185 221.919 157.965 222.759 157.965C223.584 157.965 224.265 158.156 224.802 158.537C225.339 158.917 225.649 159.433 225.732 160.082H224.487C224.399 159.76 224.204 159.506 223.901 159.32C223.603 159.13 223.22 159.035 222.751 159.035C222.278 159.035 221.88 159.145 221.557 159.364C221.24 159.584 221.081 159.867 221.081 160.214C221.081 160.482 221.191 160.707 221.411 160.888C221.636 161.063 221.982 161.208 222.451 161.32L223.667 161.613C224.419 161.793 224.973 162.055 225.329 162.396C225.691 162.738 225.871 163.19 225.871 163.751C225.871 164.45 225.571 165.023 224.971 165.473C224.37 165.917 223.616 166.139 222.707 166.139C221.828 166.139 221.108 165.944 220.547 165.553C219.985 165.163 219.67 164.64 219.602 163.986H220.898C221.006 164.328 221.218 164.596 221.535 164.792C221.853 164.982 222.258 165.077 222.751 165.077C223.284 165.077 223.721 164.962 224.062 164.733C224.404 164.503 224.575 164.208 224.575 163.847C224.575 163.31 224.158 162.938 223.323 162.733L221.968 162.404C221.221 162.223 220.674 161.964 220.327 161.627C219.985 161.286 219.814 160.832 219.814 160.265ZM227.638 166V158.104H228.898V166H227.638ZM228.891 156.244C228.72 156.415 228.512 156.5 228.268 156.5C228.024 156.5 227.816 156.415 227.646 156.244C227.475 156.068 227.389 155.861 227.389 155.622C227.389 155.382 227.475 155.177 227.646 155.006C227.816 154.831 228.024 154.743 228.268 154.743C228.512 154.743 228.72 154.831 228.891 155.006C229.062 155.177 229.147 155.382 229.147 155.622C229.147 155.861 229.062 156.068 228.891 156.244ZM234.986 166.139C234.439 166.139 233.941 166.017 233.492 165.773C233.048 165.524 232.701 165.18 232.452 164.74H232.335V166H231.134V154.97H232.393V159.35H232.511C232.725 158.925 233.055 158.588 233.499 158.339C233.949 158.09 234.444 157.965 234.986 157.965C235.992 157.965 236.795 158.336 237.396 159.079C237.996 159.821 238.297 160.812 238.297 162.052C238.297 163.288 237.994 164.279 237.388 165.026C236.788 165.768 235.987 166.139 234.986 166.139ZM234.693 159.101C233.975 159.101 233.407 159.364 232.987 159.892C232.572 160.419 232.364 161.139 232.364 162.052C232.364 162.965 232.572 163.686 232.987 164.213C233.407 164.74 233.975 165.004 234.693 165.004C235.416 165.004 235.98 164.743 236.385 164.22C236.79 163.698 236.993 162.975 236.993 162.052C236.993 161.129 236.79 160.407 236.385 159.884C235.98 159.362 235.416 159.101 234.693 159.101ZM240.107 166V154.97H241.367V166H240.107ZM246.723 159.079C246.093 159.079 245.575 159.291 245.17 159.716C244.765 160.141 244.538 160.702 244.489 161.4H248.84C248.825 160.702 248.625 160.141 248.239 159.716C247.853 159.291 247.348 159.079 246.723 159.079ZM248.803 163.957H250.063C249.872 164.64 249.484 165.175 248.898 165.561C248.317 165.946 247.597 166.139 246.738 166.139C245.644 166.139 244.777 165.773 244.137 165.041C243.498 164.303 243.178 163.31 243.178 162.06C243.178 160.814 243.5 159.821 244.145 159.079C244.789 158.336 245.654 157.965 246.738 157.965C247.802 157.965 248.639 158.319 249.25 159.027C249.86 159.735 250.165 160.705 250.165 161.935V162.418H244.489V162.477C244.523 163.258 244.743 163.878 245.148 164.337C245.558 164.796 246.098 165.026 246.767 165.026C247.787 165.026 248.466 164.669 248.803 163.957ZM255.896 166V158.104H257.097V159.276H257.215C257.332 158.891 257.595 158.576 258.006 158.332C258.416 158.087 258.882 157.965 259.405 157.965C259.644 157.965 259.854 157.978 260.034 158.002V159.262C259.864 159.213 259.595 159.188 259.229 159.188C258.628 159.188 258.133 159.369 257.742 159.73C257.351 160.092 257.156 160.551 257.156 161.107V166H255.896ZM264.299 159.079C263.669 159.079 263.151 159.291 262.746 159.716C262.341 160.141 262.114 160.702 262.065 161.4H266.416C266.401 160.702 266.201 160.141 265.815 159.716C265.429 159.291 264.924 159.079 264.299 159.079ZM266.379 163.957H267.639C267.448 164.64 267.06 165.175 266.474 165.561C265.893 165.946 265.173 166.139 264.313 166.139C263.22 166.139 262.353 165.773 261.713 165.041C261.074 164.303 260.754 163.31 260.754 162.06C260.754 160.814 261.076 159.821 261.721 159.079C262.365 158.336 263.23 157.965 264.313 157.965C265.378 157.965 266.215 158.319 266.826 159.027C267.436 159.735 267.741 160.705 267.741 161.935V162.418H262.065V162.477C262.099 163.258 262.319 163.878 262.724 164.337C263.134 164.796 263.674 165.026 264.343 165.026C265.363 165.026 266.042 164.669 266.379 163.957ZM269.296 160.265C269.296 159.611 269.576 159.064 270.138 158.625C270.699 158.185 271.4 157.965 272.24 157.965C273.065 157.965 273.746 158.156 274.283 158.537C274.821 158.917 275.131 159.433 275.214 160.082H273.969C273.881 159.76 273.685 159.506 273.383 159.32C273.085 159.13 272.701 159.035 272.233 159.035C271.759 159.035 271.361 159.145 271.039 159.364C270.721 159.584 270.563 159.867 270.563 160.214C270.563 160.482 270.673 160.707 270.892 160.888C271.117 161.063 271.464 161.208 271.932 161.32L273.148 161.613C273.9 161.793 274.454 162.055 274.811 162.396C275.172 162.738 275.353 163.19 275.353 163.751C275.353 164.45 275.052 165.023 274.452 165.473C273.851 165.917 273.097 166.139 272.189 166.139C271.31 166.139 270.59 165.944 270.028 165.553C269.467 165.163 269.152 164.64 269.083 163.986H270.38C270.487 164.328 270.699 164.596 271.017 164.792C271.334 164.982 271.74 165.077 272.233 165.077C272.765 165.077 273.202 164.962 273.544 164.733C273.885 164.503 274.056 164.208 274.056 163.847C274.056 163.31 273.639 162.938 272.804 162.733L271.449 162.404C270.702 162.223 270.155 161.964 269.808 161.627C269.467 161.286 269.296 160.832 269.296 160.265ZM280.936 157.965C281.941 157.965 282.745 158.336 283.345 159.079C283.951 159.821 284.253 160.812 284.253 162.052C284.253 163.288 283.951 164.279 283.345 165.026C282.74 165.768 281.937 166.139 280.936 166.139C280.374 166.139 279.876 166.024 279.441 165.795C279.007 165.561 278.682 165.233 278.467 164.813H278.35V168.637H277.09V158.104H278.292V159.423H278.409C278.663 158.969 279.012 158.612 279.456 158.354C279.905 158.095 280.398 157.965 280.936 157.965ZM280.635 165.004C281.358 165.004 281.924 164.743 282.334 164.22C282.745 163.698 282.95 162.975 282.95 162.052C282.95 161.129 282.745 160.407 282.334 159.884C281.929 159.362 281.365 159.101 280.643 159.101C279.93 159.101 279.363 159.367 278.943 159.899C278.523 160.426 278.313 161.144 278.313 162.052C278.313 162.956 278.521 163.673 278.936 164.206C279.356 164.738 279.922 165.004 280.635 165.004ZM289.14 159.079C288.51 159.079 287.993 159.291 287.588 159.716C287.182 160.141 286.955 160.702 286.906 161.4H291.257C291.242 160.702 291.042 160.141 290.656 159.716C290.271 159.291 289.765 159.079 289.14 159.079ZM291.22 163.957H292.48C292.29 164.64 291.902 165.175 291.316 165.561C290.735 165.946 290.014 166.139 289.155 166.139C288.061 166.139 287.195 165.773 286.555 165.041C285.915 164.303 285.595 163.31 285.595 162.06C285.595 160.814 285.918 159.821 286.562 159.079C287.207 158.336 288.071 157.965 289.155 157.965C290.219 157.965 291.057 158.319 291.667 159.027C292.278 159.735 292.583 160.705 292.583 161.935V162.418H286.906V162.477C286.941 163.258 287.16 163.878 287.566 164.337C287.976 164.796 288.515 165.026 289.184 165.026C290.205 165.026 290.884 164.669 291.22 163.957ZM300.854 160.521H299.579C299.472 160.106 299.24 159.767 298.883 159.503C298.532 159.235 298.085 159.101 297.543 159.101C296.835 159.101 296.271 159.364 295.851 159.892C295.436 160.419 295.229 161.129 295.229 162.023C295.229 162.931 295.438 163.656 295.858 164.198C296.278 164.735 296.84 165.004 297.543 165.004C298.075 165.004 298.517 164.884 298.869 164.645C299.225 164.406 299.462 164.064 299.579 163.62H300.854C300.736 164.367 300.387 164.975 299.806 165.443C299.225 165.907 298.473 166.139 297.55 166.139C296.442 166.139 295.561 165.768 294.906 165.026C294.252 164.279 293.925 163.278 293.925 162.023C293.925 160.792 294.252 159.809 294.906 159.071C295.561 158.334 296.439 157.965 297.543 157.965C298.466 157.965 299.218 158.207 299.799 158.69C300.385 159.174 300.736 159.784 300.854 160.521ZM303.148 156.061H304.407V158.104H306.165V159.159H304.407V163.627C304.407 164.091 304.5 164.428 304.686 164.638C304.871 164.848 305.169 164.953 305.579 164.953C305.76 164.953 305.955 164.943 306.165 164.923V165.985C305.887 166.034 305.64 166.059 305.426 166.059C304.61 166.059 304.027 165.895 303.675 165.568C303.323 165.241 303.148 164.701 303.148 163.949V159.159H301.873V158.104H303.148V156.061ZM307.5 160.265C307.5 159.611 307.781 159.064 308.342 158.625C308.904 158.185 309.604 157.965 310.444 157.965C311.269 157.965 311.951 158.156 312.488 158.537C313.025 158.917 313.335 159.433 313.418 160.082H312.173C312.085 159.76 311.89 159.506 311.587 159.32C311.289 159.13 310.906 159.035 310.437 159.035C309.963 159.035 309.565 159.145 309.243 159.364C308.926 159.584 308.767 159.867 308.767 160.214C308.767 160.482 308.877 160.707 309.097 160.888C309.321 161.063 309.668 161.208 310.137 161.32L311.352 161.613C312.104 161.793 312.659 162.055 313.015 162.396C313.376 162.738 313.557 163.19 313.557 163.751C313.557 164.45 313.257 165.023 312.656 165.473C312.056 165.917 311.301 166.139 310.393 166.139C309.514 166.139 308.794 165.944 308.232 165.553C307.671 165.163 307.356 164.64 307.288 163.986H308.584C308.691 164.328 308.904 164.596 309.221 164.792C309.539 164.982 309.944 165.077 310.437 165.077C310.969 165.077 311.406 164.962 311.748 164.733C312.09 164.503 312.261 164.208 312.261 163.847C312.261 163.31 311.843 162.938 311.008 162.733L309.653 162.404C308.906 162.223 308.359 161.964 308.013 161.627C307.671 161.286 307.5 160.832 307.5 160.265ZM111.63 176.061H112.89V178.104H114.648V179.159H112.89V183.627C112.89 184.091 112.983 184.428 113.168 184.638C113.354 184.848 113.652 184.953 114.062 184.953C114.243 184.953 114.438 184.943 114.648 184.923V185.985C114.37 186.034 114.123 186.059 113.908 186.059C113.093 186.059 112.509 185.895 112.158 185.568C111.806 185.241 111.63 184.701 111.63 183.949V179.159H110.356V178.104H111.63V176.061ZM122.098 185.048C121.449 185.775 120.563 186.139 119.44 186.139C118.317 186.139 117.428 185.775 116.774 185.048C116.124 184.315 115.8 183.317 115.8 182.052C115.8 180.783 116.124 179.784 116.774 179.057C117.423 178.329 118.312 177.965 119.44 177.965C120.568 177.965 121.456 178.329 122.106 179.057C122.755 179.784 123.08 180.783 123.08 182.052C123.08 183.317 122.753 184.315 122.098 185.048ZM117.711 184.235C118.116 184.748 118.693 185.004 119.44 185.004C120.187 185.004 120.763 184.748 121.168 184.235C121.573 183.717 121.776 182.99 121.776 182.052C121.776 181.115 121.573 180.39 121.168 179.877C120.763 179.359 120.187 179.101 119.44 179.101C118.693 179.101 118.116 179.359 117.711 179.877C117.306 180.39 117.103 181.115 117.103 182.052C117.103 182.99 117.306 183.717 117.711 184.235ZM135.344 180.521H134.07C133.962 180.106 133.73 179.767 133.374 179.503C133.022 179.235 132.575 179.101 132.033 179.101C131.325 179.101 130.761 179.364 130.342 179.892C129.926 180.419 129.719 181.129 129.719 182.023C129.719 182.931 129.929 183.656 130.349 184.198C130.769 184.735 131.33 185.004 132.033 185.004C132.566 185.004 133.008 184.884 133.359 184.645C133.716 184.406 133.952 184.064 134.07 183.62H135.344C135.227 184.367 134.878 184.975 134.297 185.443C133.716 185.907 132.964 186.139 132.041 186.139C130.932 186.139 130.051 185.768 129.397 185.026C128.742 184.279 128.415 183.278 128.415 182.023C128.415 180.792 128.742 179.809 129.397 179.071C130.051 178.334 130.93 177.965 132.033 177.965C132.956 177.965 133.708 178.207 134.289 178.69C134.875 179.174 135.227 179.784 135.344 180.521ZM142.868 185.048C142.218 185.775 141.332 186.139 140.209 186.139C139.086 186.139 138.197 185.775 137.543 185.048C136.894 184.315 136.569 183.317 136.569 182.052C136.569 180.783 136.894 179.784 137.543 179.057C138.192 178.329 139.081 177.965 140.209 177.965C141.337 177.965 142.226 178.329 142.875 179.057C143.524 179.784 143.849 180.783 143.849 182.052C143.849 183.317 143.522 184.315 142.868 185.048ZM138.48 184.235C138.886 184.748 139.462 185.004 140.209 185.004C140.956 185.004 141.532 184.748 141.937 184.235C142.343 183.717 142.545 182.99 142.545 182.052C142.545 181.115 142.343 180.39 141.937 179.877C141.532 179.359 140.956 179.101 140.209 179.101C139.462 179.101 138.886 179.359 138.48 179.877C138.075 180.39 137.873 181.115 137.873 182.052C137.873 182.99 138.075 183.717 138.48 184.235ZM145.587 186V178.104H146.788V179.35H146.905C147.325 178.427 148.116 177.965 149.278 177.965C150.162 177.965 150.843 178.219 151.321 178.727C151.8 179.23 152.039 179.95 152.039 180.888V186H150.779V181.195C150.779 180.487 150.626 179.962 150.318 179.621C150.015 179.274 149.549 179.101 148.919 179.101C148.284 179.101 147.779 179.301 147.403 179.701C147.032 180.097 146.846 180.639 146.846 181.327V186H145.587ZM153.923 180.265C153.923 179.611 154.204 179.064 154.766 178.625C155.327 178.185 156.028 177.965 156.868 177.965C157.693 177.965 158.374 178.156 158.911 178.537C159.448 178.917 159.758 179.433 159.841 180.082H158.596C158.508 179.76 158.313 179.506 158.01 179.32C157.712 179.13 157.329 179.035 156.86 179.035C156.387 179.035 155.989 179.145 155.666 179.364C155.349 179.584 155.19 179.867 155.19 180.214C155.19 180.482 155.3 180.707 155.52 180.888C155.745 181.063 156.091 181.208 156.56 181.32L157.776 181.613C158.528 181.793 159.082 182.055 159.438 182.396C159.8 182.738 159.98 183.19 159.98 183.751C159.98 184.45 159.68 185.023 159.08 185.473C158.479 185.917 157.725 186.139 156.816 186.139C155.937 186.139 155.217 185.944 154.656 185.553C154.094 185.163 153.779 184.64 153.711 183.986H155.007C155.115 184.328 155.327 184.596 155.644 184.792C155.962 184.982 156.367 185.077 156.86 185.077C157.393 185.077 157.83 184.962 158.171 184.733C158.513 184.503 158.684 184.208 158.684 183.847C158.684 183.31 158.267 182.938 157.432 182.733L156.077 182.404C155.33 182.223 154.783 181.964 154.436 181.627C154.094 181.286 153.923 180.832 153.923 180.265ZM161.747 186V178.104H163.007V186H161.747ZM163 176.244C162.829 176.415 162.621 176.5 162.377 176.5C162.133 176.5 161.925 176.415 161.755 176.244C161.584 176.068 161.498 175.861 161.498 175.622C161.498 175.382 161.584 175.177 161.755 175.006C161.925 174.831 162.133 174.743 162.377 174.743C162.621 174.743 162.829 174.831 163 175.006C163.171 175.177 163.256 175.382 163.256 175.622C163.256 175.861 163.171 176.068 163 176.244ZM168.092 186.139C167.081 186.139 166.275 185.768 165.675 185.026C165.074 184.284 164.774 183.292 164.774 182.052C164.774 180.817 165.074 179.828 165.675 179.086C166.28 178.339 167.086 177.965 168.092 177.965C168.643 177.965 169.137 178.09 169.571 178.339C170.011 178.583 170.343 178.92 170.567 179.35H170.677V174.97H171.937V186H170.736V184.74H170.619C170.37 185.18 170.023 185.524 169.579 185.773C169.134 186.017 168.639 186.139 168.092 186.139ZM168.385 179.101C167.667 179.101 167.103 179.364 166.693 179.892C166.283 180.414 166.078 181.134 166.078 182.052C166.078 182.975 166.28 183.698 166.685 184.22C167.096 184.743 167.662 185.004 168.385 185.004C169.102 185.004 169.669 184.74 170.084 184.213C170.499 183.686 170.706 182.965 170.706 182.052C170.706 181.149 170.497 180.431 170.077 179.899C169.662 179.367 169.098 179.101 168.385 179.101ZM177.293 179.079C176.663 179.079 176.145 179.291 175.74 179.716C175.335 180.141 175.108 180.702 175.059 181.4H179.409C179.395 180.702 179.194 180.141 178.809 179.716C178.423 179.291 177.918 179.079 177.293 179.079ZM179.373 183.957H180.632C180.442 184.64 180.054 185.175 179.468 185.561C178.887 185.946 178.167 186.139 177.307 186.139C176.214 186.139 175.347 185.773 174.707 185.041C174.068 184.303 173.748 183.31 173.748 182.06C173.748 180.814 174.07 179.821 174.715 179.079C175.359 178.336 176.223 177.965 177.307 177.965C178.372 177.965 179.209 178.319 179.819 179.027C180.43 179.735 180.735 180.705 180.735 181.935V182.418H175.059V182.477C175.093 183.258 175.313 183.878 175.718 184.337C176.128 184.796 176.668 185.026 177.337 185.026C178.357 185.026 179.036 184.669 179.373 183.957ZM182.473 186V178.104H183.674V179.276H183.791C183.908 178.891 184.172 178.576 184.582 178.332C184.992 178.087 185.458 177.965 185.981 177.965C186.22 177.965 186.43 177.978 186.611 178.002V179.262C186.44 179.213 186.171 179.188 185.805 179.188C185.204 179.188 184.709 179.369 184.318 179.73C183.928 180.092 183.732 180.551 183.732 181.107V186H182.473ZM191.939 186V178.104H193.14V179.35H193.257C193.438 178.91 193.719 178.571 194.099 178.332C194.48 178.087 194.934 177.965 195.462 177.965C195.979 177.965 196.424 178.09 196.795 178.339C197.171 178.588 197.454 178.925 197.644 179.35H197.762C197.976 178.925 198.299 178.588 198.728 178.339C199.158 178.09 199.641 177.965 200.179 177.965C200.984 177.965 201.604 178.19 202.039 178.639C202.474 179.083 202.691 179.718 202.691 180.543V186H201.431V180.836C201.431 179.679 200.877 179.101 199.768 179.101C199.231 179.101 198.792 179.276 198.45 179.628C198.108 179.979 197.937 180.412 197.937 180.924V186H196.678V180.639C196.678 180.17 196.526 179.796 196.224 179.518C195.926 179.24 195.528 179.101 195.03 179.101C194.517 179.101 194.082 179.296 193.726 179.687C193.374 180.077 193.199 180.551 193.199 181.107V186H191.939ZM205.131 188.856C204.931 188.856 204.743 188.842 204.568 188.812V187.736C204.694 187.76 204.87 187.772 205.095 187.772C205.461 187.772 205.752 187.675 205.966 187.479C206.186 187.284 206.379 186.95 206.545 186.476L206.692 186.007L203.769 178.104H205.131L207.299 184.601H207.417L209.577 178.104H210.918L207.834 186.483C207.497 187.396 207.138 188.019 206.757 188.351C206.377 188.688 205.835 188.856 205.131 188.856ZM211.959 180.265C211.959 179.611 212.24 179.064 212.802 178.625C213.363 178.185 214.064 177.965 214.904 177.965C215.729 177.965 216.41 178.156 216.947 178.537C217.484 178.917 217.794 179.433 217.877 180.082H216.632C216.544 179.76 216.349 179.506 216.046 179.32C215.748 179.13 215.365 179.035 214.896 179.035C214.423 179.035 214.025 179.145 213.702 179.364C213.385 179.584 213.226 179.867 213.226 180.214C213.226 180.482 213.336 180.707 213.556 180.888C213.781 181.063 214.127 181.208 214.596 181.32L215.812 181.613C216.564 181.793 217.118 182.055 217.474 182.396C217.836 182.738 218.016 183.19 218.016 183.751C218.016 184.45 217.716 185.023 217.116 185.473C216.515 185.917 215.761 186.139 214.852 186.139C213.973 186.139 213.253 185.944 212.692 185.553C212.13 185.163 211.815 184.64 211.747 183.986H213.043C213.151 184.328 213.363 184.596 213.681 184.792C213.998 184.982 214.403 185.077 214.896 185.077C215.429 185.077 215.866 184.962 216.207 184.733C216.549 184.503 216.72 184.208 216.72 183.847C216.72 183.31 216.303 182.938 215.468 182.733L214.113 182.404C213.366 182.223 212.819 181.964 212.472 181.627C212.13 181.286 211.959 180.832 211.959 180.265ZM222.903 179.079C222.274 179.079 221.756 179.291 221.351 179.716C220.945 180.141 220.718 180.702 220.67 181.4H225.02C225.005 180.702 224.805 180.141 224.42 179.716C224.034 179.291 223.528 179.079 222.903 179.079ZM224.983 183.957H226.243C226.053 184.64 225.665 185.175 225.079 185.561C224.498 185.946 223.777 186.139 222.918 186.139C221.824 186.139 220.958 185.773 220.318 185.041C219.678 184.303 219.358 183.31 219.358 182.06C219.358 180.814 219.681 179.821 220.325 179.079C220.97 178.336 221.834 177.965 222.918 177.965C223.983 177.965 224.82 178.319 225.43 179.027C226.041 179.735 226.346 180.705 226.346 181.935V182.418H220.67V182.477C220.704 183.258 220.923 183.878 221.329 184.337C221.739 184.796 222.278 185.026 222.947 185.026C223.968 185.026 224.647 184.669 224.983 183.957ZM228.157 186V174.97H229.416V186H228.157ZM232.15 186V179.159H230.839V178.104H232.15V177.226C232.15 175.673 232.914 174.896 234.442 174.896C234.76 174.896 235.043 174.921 235.292 174.97V175.995C235.165 175.971 234.967 175.958 234.699 175.958C234.25 175.958 233.922 176.066 233.717 176.281C233.512 176.496 233.41 176.823 233.41 177.262V178.104H235.219V179.159H233.41V186H232.15ZM250.742 178.104L248.53 186H247.249L245.483 179.892H245.366L243.608 186H242.334L240.122 178.104H241.397L242.949 184.418H243.066L244.832 178.104H246.04L247.805 184.418H247.922L249.475 178.104H250.742ZM257.797 185.048C257.148 185.775 256.262 186.139 255.138 186.139C254.015 186.139 253.127 185.775 252.472 185.048C251.823 184.315 251.498 183.317 251.498 182.052C251.498 180.783 251.823 179.784 252.472 179.057C253.122 178.329 254.011 177.965 255.138 177.965C256.266 177.965 257.155 178.329 257.804 179.057C258.454 179.784 258.779 180.783 258.779 182.052C258.779 183.317 258.451 184.315 257.797 185.048ZM253.41 184.235C253.815 184.748 254.391 185.004 255.138 185.004C255.886 185.004 256.462 184.748 256.867 184.235C257.272 183.717 257.475 182.99 257.475 182.052C257.475 181.115 257.272 180.39 256.867 179.877C256.462 179.359 255.886 179.101 255.138 179.101C254.391 179.101 253.815 179.359 253.41 179.877C253.005 180.39 252.802 181.115 252.802 182.052C252.802 182.99 253.005 183.717 253.41 184.235ZM260.516 186V178.104H261.717V179.276H261.835C261.952 178.891 262.215 178.576 262.626 178.332C263.036 178.087 263.502 177.965 264.024 177.965C264.264 177.965 264.474 177.978 264.654 178.002V179.262C264.483 179.213 264.215 179.188 263.849 179.188C263.248 179.188 262.752 179.369 262.362 179.73C261.971 180.092 261.776 180.551 261.776 181.107V186H260.516ZM266.956 176.061H268.216V178.104H269.973V179.159H268.216V183.627C268.216 184.091 268.308 184.428 268.494 184.638C268.679 184.848 268.977 184.953 269.387 184.953C269.568 184.953 269.763 184.943 269.973 184.923V185.985C269.695 186.034 269.449 186.059 269.234 186.059C268.418 186.059 267.835 185.895 267.483 185.568C267.132 185.241 266.956 184.701 266.956 183.949V179.159H265.681V178.104H266.956V176.061ZM271.711 186V174.97H272.971V179.35H273.088C273.288 178.905 273.593 178.563 274.003 178.324C274.418 178.085 274.924 177.965 275.52 177.965C276.359 177.965 277.023 178.224 277.512 178.742C278 179.254 278.244 179.97 278.244 180.888V186H276.984V181.195C276.984 179.799 276.376 179.101 275.161 179.101C274.467 179.101 273.928 179.303 273.542 179.708C273.161 180.109 272.971 180.648 272.971 181.327V186H271.711ZM280.685 188.856C280.485 188.856 280.297 188.842 280.121 188.812V187.736C280.248 187.76 280.424 187.772 280.648 187.772C281.014 187.772 281.305 187.675 281.52 187.479C281.74 187.284 281.932 186.95 282.098 186.476L282.245 186.007L279.323 178.104H280.685L282.853 184.601H282.97L285.131 178.104H286.471L283.387 186.483C283.051 187.396 282.692 188.019 282.311 188.351C281.93 188.688 281.388 188.856 280.685 188.856ZM287.857 186.073C287.598 186.073 287.374 185.98 287.183 185.795C286.998 185.604 286.905 185.38 286.905 185.121C286.905 184.857 286.998 184.633 287.183 184.447C287.374 184.262 287.598 184.169 287.857 184.169C288.121 184.169 288.345 184.262 288.531 184.447C288.716 184.633 288.809 184.857 288.809 185.121C288.809 185.38 288.716 185.604 288.531 185.795C288.345 185.98 288.121 186.073 287.857 186.073Z" fill="#0C0748"/>
</g>
</g>
<defs>
<filter id="filter0_d_32_1297" x="0" y="0" width="394" height="260" filterUnits="userSpaceOnUse" color-interpolation-filters="sRGB">
<feFlood flood-opacity="0" result="BackgroundImageFix"/>
<feColorMatrix in="SourceAlpha" type="matrix" values="0 0 0 0 0 0 0 0 0 0 0 0 0 0 0 0 0 0 127 0" result="hardAlpha"/>
<feOffset dx="-3" dy="6"/>
<feGaussianBlur stdDeviation="6"/>
<feComposite in2="hardAlpha" operator="out"/>
<feColorMatrix type="matrix" values="0 0 0 0 0 0 0 0 0 0 0 0 0 0 0 0 0 0 0.04 0"/>
<feBlend mode="normal" in2="BackgroundImageFix" result="effect1_dropShadow_32_1297"/>
<feBlend mode="normal" in="SourceGraphic" in2="effect1_dropShadow_32_1297" result="shape"/>
</filter>
<clipPath id="clip0_32_1297">
<rect x="33.5" y="104" width="333" height="114" rx="16" fill="white"/>
</clipPath>
</defs>
</svg>
