<svg width="322" height="132" viewBox="0 0 322 132" fill="none" xmlns="http://www.w3.org/2000/svg">
<g filter="url(#filter0_d_405_1519)">
<rect x="24" y="22" width="274" height="84" rx="16" fill="white"/>
<path d="M48.6813 59.856V59.064L48.8253 58.92H49.4013C49.5813 58.92 49.7433 58.848 49.8873 58.704C50.0433 58.548 50.1213 58.38 50.1213 58.2V49.2C50.1213 49.02 50.0433 48.858 49.8873 48.714C49.7433 48.558 49.5813 48.48 49.4013 48.48H48.8253L48.6813 48.336V47.544L48.8253 47.4H53.9733L54.1173 47.544V48.336L53.9733 48.48H53.3973C53.2173 48.48 53.0493 48.558 52.8933 48.714C52.7493 48.858 52.6773 49.02 52.6773 49.2V58.2C52.6773 58.38 52.7493 58.548 52.8933 58.704C53.0493 58.848 53.2173 58.92 53.3973 58.92H53.9733L54.1173 59.064V59.856L53.9733 60H48.8253L48.6813 59.856ZM58.6014 60.252C57.9774 60.252 57.4014 60.18 56.8734 60.036C56.3574 59.892 55.9134 59.7 55.5414 59.46L55.4514 59.28L55.9374 57.3L56.0814 57.156H56.6934L56.8374 57.3C56.8374 57.912 56.9814 58.398 57.2694 58.758C57.5694 59.106 57.9774 59.28 58.4934 59.28C58.9374 59.28 59.2614 59.154 59.4654 58.902C59.6814 58.65 59.7894 58.35 59.7894 58.002C59.7894 57.582 59.6814 57.258 59.4654 57.03C59.2494 56.802 58.8714 56.586 58.3314 56.382C57.4314 56.034 56.7654 55.638 56.3334 55.194C55.9134 54.75 55.7034 54.222 55.7034 53.61C55.7034 52.782 56.0094 52.116 56.6214 51.612C57.2454 51.108 58.0314 50.856 58.9794 50.856C59.8194 50.856 60.5574 51.024 61.1934 51.36L61.3194 51.54L61.4094 53.556L61.2654 53.7H60.5814L60.4374 53.556C60.3294 52.416 59.8374 51.846 58.9614 51.846C58.6374 51.846 58.3614 51.948 58.1334 52.152C57.9054 52.344 57.7914 52.608 57.7914 52.944C57.7914 53.304 57.9414 53.622 58.2414 53.898C58.5414 54.162 59.0274 54.432 59.6994 54.708C60.4314 55.008 60.9954 55.35 61.3914 55.734C61.7874 56.118 61.9854 56.658 61.9854 57.354C61.9854 58.29 61.6554 59.01 60.9954 59.514C60.3474 60.006 59.5494 60.252 58.6014 60.252ZM70.7379 60.252C69.9939 60.252 69.3699 60.036 68.8659 59.604C68.3739 59.16 68.1279 58.5 68.1279 57.624V52.26H66.7959L66.6519 52.116V51.72L70.0539 48.624H70.3599L70.5039 48.768V51.108H72.7719L72.9159 51.252V52.116L72.7719 52.26H70.5039V57.786C70.5039 58.146 70.5999 58.422 70.7919 58.614C70.9839 58.794 71.2299 58.884 71.5299 58.884C72.0339 58.884 72.4239 58.62 72.6999 58.092L72.8439 58.038L73.2039 58.182L73.2759 58.326C72.8559 59.61 72.0099 60.252 70.7379 60.252ZM74.1679 59.856V59.064L74.3119 58.92H74.5279C74.7079 58.92 74.8699 58.848 75.0139 58.704C75.1699 58.548 75.2479 58.38 75.2479 58.2V49.596C75.2479 49.416 75.1699 49.254 75.0139 49.11C74.8699 48.954 74.7079 48.876 74.5279 48.876H74.3119L74.1679 48.732V48.246L74.2759 48.102L77.0839 47.04H77.6599L77.8039 47.184L77.6239 48.876V52.224C77.9719 51.792 78.3919 51.456 78.8839 51.216C79.3759 50.976 79.9279 50.856 80.5399 50.856C81.5119 50.856 82.2799 51.12 82.8439 51.648C83.4199 52.164 83.7079 52.926 83.7079 53.934V58.2C83.7079 58.38 83.7799 58.548 83.9239 58.704C84.0799 58.848 84.2479 58.92 84.4279 58.92H84.6439L84.7879 59.064V59.856L84.6439 60H80.3959L80.2519 59.856V59.064L80.3959 58.92H80.6119C80.7919 58.92 80.9539 58.848 81.0979 58.704C81.2539 58.548 81.3319 58.38 81.3319 58.2V54.006C81.3319 53.43 81.1759 52.998 80.8639 52.71C80.5639 52.422 80.1559 52.278 79.6399 52.278C79.0519 52.278 78.5659 52.494 78.1819 52.926C77.8099 53.346 77.6239 53.916 77.6239 54.636V58.2C77.6239 58.38 77.6959 58.548 77.8399 58.704C77.9959 58.848 78.1639 58.92 78.3439 58.92H78.5599L78.7039 59.064V59.856L78.5599 60H74.3119L74.1679 59.856ZM90.6638 60.252C89.7398 60.252 88.9178 60.042 88.1978 59.622C87.4778 59.202 86.9138 58.632 86.5058 57.912C86.1098 57.18 85.9118 56.37 85.9118 55.482C85.9118 54.618 86.1158 53.832 86.5238 53.124C86.9438 52.416 87.5078 51.864 88.2158 51.468C88.9358 51.06 89.7338 50.856 90.6098 50.856C91.5698 50.856 92.3798 51.072 93.0398 51.504C93.6998 51.936 94.1918 52.512 94.5158 53.232C94.8398 53.94 95.0018 54.732 95.0018 55.608L94.8578 55.752H88.1618C88.1618 56.28 88.2878 56.76 88.5398 57.192C88.7918 57.612 89.1458 57.948 89.6018 58.2C90.0578 58.44 90.5858 58.56 91.1858 58.56C92.6618 58.56 93.7958 57.96 94.5878 56.76L94.7318 56.688L95.0018 56.796L95.0558 56.94C94.7678 57.96 94.2338 58.77 93.4538 59.37C92.6738 59.958 91.7438 60.252 90.6638 60.252ZM91.9238 54.6C92.1758 54.6 92.3558 54.54 92.4638 54.42C92.5838 54.288 92.6438 54.126 92.6438 53.934C92.6438 53.346 92.4578 52.878 92.0858 52.53C91.7138 52.182 91.2278 52.008 90.6278 52.008C89.9318 52.008 89.3558 52.248 88.8998 52.728C88.4558 53.196 88.2098 53.772 88.1618 54.456L88.3058 54.6H91.9238ZM96.2829 59.856V59.064L96.4269 58.92H96.6429C96.8229 58.92 96.9849 58.848 97.1289 58.704C97.2849 58.548 97.3629 58.38 97.3629 58.2V53.664C97.3629 53.484 97.2849 53.322 97.1289 53.178C96.9849 53.022 96.8229 52.944 96.6429 52.944H96.4269L96.2829 52.8V52.314L96.3909 52.17L99.0189 51.108H99.5949L99.7389 51.252L99.5589 52.62C99.7989 52.092 100.141 51.666 100.585 51.342C101.029 51.018 101.533 50.856 102.097 50.856C102.529 50.856 102.883 50.988 103.159 51.252C103.447 51.504 103.591 51.828 103.591 52.224C103.591 52.596 103.459 52.914 103.195 53.178C102.943 53.43 102.625 53.556 102.241 53.556C101.869 53.556 101.557 53.436 101.305 53.196C101.053 52.944 100.915 52.638 100.891 52.278C100.543 52.494 100.261 52.848 100.045 53.34C99.8409 53.82 99.7389 54.372 99.7389 54.996V58.2C99.7389 58.38 99.8109 58.548 99.9549 58.704C100.111 58.848 100.279 58.92 100.459 58.92H100.675L100.819 59.064V59.856L100.675 60H96.4269L96.2829 59.856ZM108.822 60.252C107.898 60.252 107.076 60.042 106.356 59.622C105.636 59.202 105.072 58.632 104.664 57.912C104.268 57.18 104.07 56.37 104.07 55.482C104.07 54.618 104.274 53.832 104.682 53.124C105.102 52.416 105.666 51.864 106.374 51.468C107.094 51.06 107.892 50.856 108.768 50.856C109.728 50.856 110.538 51.072 111.198 51.504C111.858 51.936 112.35 52.512 112.674 53.232C112.998 53.94 113.16 54.732 113.16 55.608L113.016 55.752H106.32C106.32 56.28 106.446 56.76 106.698 57.192C106.95 57.612 107.304 57.948 107.76 58.2C108.216 58.44 108.744 58.56 109.344 58.56C110.82 58.56 111.954 57.96 112.746 56.76L112.89 56.688L113.16 56.796L113.214 56.94C112.926 57.96 112.392 58.77 111.612 59.37C110.832 59.958 109.902 60.252 108.822 60.252ZM110.082 54.6C110.334 54.6 110.514 54.54 110.622 54.42C110.742 54.288 110.802 54.126 110.802 53.934C110.802 53.346 110.616 52.878 110.244 52.53C109.872 52.182 109.386 52.008 108.786 52.008C108.09 52.008 107.514 52.248 107.058 52.728C106.614 53.196 106.368 53.772 106.32 54.456L106.464 54.6H110.082ZM122.644 60.252C121.852 60.252 121.132 60.066 120.484 59.694C119.848 59.322 119.338 58.788 118.954 58.092C118.582 57.396 118.396 56.58 118.396 55.644C118.396 54.648 118.606 53.79 119.026 53.07C119.446 52.35 120.004 51.804 120.7 51.432C121.396 51.048 122.14 50.856 122.932 50.856C124.144 50.856 125.134 51.324 125.902 52.26H125.992L126.874 51.108H127.612L127.756 51.252V57.624C127.756 57.804 127.828 57.972 127.972 58.128C128.128 58.272 128.296 58.344 128.476 58.344H128.692L128.836 58.488V58.974L128.692 59.118L126.208 60.18H125.632L125.488 60.036V58.83C125.128 59.286 124.72 59.64 124.264 59.892C123.82 60.132 123.28 60.252 122.644 60.252ZM123.112 59.064C123.868 59.064 124.432 58.74 124.804 58.092C125.188 57.432 125.38 56.586 125.38 55.554C125.38 54.522 125.188 53.682 124.804 53.034C124.432 52.374 123.868 52.044 123.112 52.044C122.356 52.044 121.786 52.374 121.402 53.034C121.03 53.682 120.844 54.522 120.844 55.554C120.844 56.586 121.03 57.432 121.402 58.092C121.786 58.74 122.356 59.064 123.112 59.064ZM129.98 59.856V59.064L130.124 58.92H130.34C130.52 58.92 130.682 58.848 130.826 58.704C130.982 58.548 131.06 58.38 131.06 58.2V53.664C131.06 53.484 130.982 53.322 130.826 53.178C130.682 53.022 130.52 52.944 130.34 52.944H130.124L129.98 52.8V52.314L130.088 52.17L132.716 51.108H133.292L133.436 51.252L133.256 52.458C133.592 51.966 134.024 51.576 134.552 51.288C135.08 51 135.68 50.856 136.352 50.856C137.324 50.856 138.092 51.12 138.656 51.648C139.232 52.164 139.52 52.926 139.52 53.934V58.2C139.52 58.38 139.592 58.548 139.736 58.704C139.892 58.848 140.06 58.92 140.24 58.92H140.456L140.6 59.064V59.856L140.456 60H136.208L136.064 59.856V59.064L136.208 58.92H136.424C136.604 58.92 136.766 58.848 136.91 58.704C137.066 58.548 137.144 58.38 137.144 58.2V54.024C137.144 53.448 136.988 53.016 136.676 52.728C136.376 52.44 135.968 52.296 135.452 52.296C134.864 52.296 134.378 52.512 133.994 52.944C133.622 53.364 133.436 53.934 133.436 54.654V58.2C133.436 58.38 133.508 58.548 133.652 58.704C133.808 58.848 133.976 58.92 134.156 58.92H134.372L134.516 59.064V59.856L134.372 60H130.124L129.98 59.856ZM142.959 63.888L142.581 63.276V63.06L145.191 59.334L141.861 52.548C141.801 52.428 141.729 52.338 141.645 52.278C141.573 52.218 141.471 52.188 141.339 52.188H140.925L140.781 52.044V51.252L140.925 51.108H145.407L145.551 51.252V52.044L145.407 52.188H145.047C144.771 52.188 144.633 52.308 144.633 52.548C144.633 52.668 144.669 52.8 144.741 52.944L146.523 56.688L148.323 52.944C148.395 52.8 148.431 52.668 148.431 52.548C148.431 52.44 148.395 52.356 148.323 52.296C148.251 52.224 148.149 52.188 148.017 52.188H147.657L147.513 52.044V51.252L147.657 51.108H150.609L150.753 51.252V52.044L150.609 52.188H150.303C150.147 52.188 150.021 52.23 149.925 52.314C149.829 52.386 149.739 52.5 149.655 52.656L144.345 63.852L144.129 64.068L143.373 64.086L142.959 63.888ZM155.323 63.924V63.132L155.467 62.988H155.683C155.863 62.988 156.025 62.91 156.169 62.754C156.325 62.61 156.403 62.448 156.403 62.268V53.664C156.403 53.484 156.325 53.322 156.169 53.178C156.025 53.022 155.863 52.944 155.683 52.944H155.467L155.323 52.8V52.314L155.467 52.17L158.239 51.108H158.815L158.959 51.252L158.869 52.098C159.145 51.726 159.517 51.426 159.985 51.198C160.465 50.97 160.981 50.856 161.533 50.856C162.265 50.856 162.955 51.048 163.603 51.432C164.251 51.804 164.773 52.35 165.169 53.07C165.565 53.778 165.763 54.606 165.763 55.554C165.763 56.598 165.559 57.474 165.151 58.182C164.743 58.878 164.221 59.4 163.585 59.748C162.949 60.084 162.283 60.252 161.587 60.252C160.951 60.252 160.393 60.138 159.913 59.91C159.445 59.682 159.067 59.364 158.779 58.956V62.268C158.779 62.448 158.851 62.61 158.995 62.754C159.151 62.91 159.319 62.988 159.499 62.988H159.715L159.859 63.132V63.924L159.715 64.068H155.467L155.323 63.924ZM161.029 59.064C161.785 59.064 162.349 58.74 162.721 58.092C163.093 57.432 163.279 56.586 163.279 55.554C163.279 54.522 163.093 53.682 162.721 53.034C162.349 52.374 161.785 52.044 161.029 52.044C160.273 52.044 159.709 52.374 159.337 53.034C158.965 53.682 158.779 54.522 158.779 55.554C158.779 56.586 158.965 57.432 159.337 58.092C159.709 58.74 160.273 59.064 161.029 59.064ZM166.982 59.856V59.064L167.126 58.92H167.342C167.522 58.92 167.684 58.848 167.828 58.704C167.984 58.548 168.062 58.38 168.062 58.2V53.664C168.062 53.484 167.984 53.322 167.828 53.178C167.684 53.022 167.522 52.944 167.342 52.944H167.126L166.982 52.8V52.314L167.09 52.17L169.718 51.108H170.294L170.438 51.252L170.258 52.62C170.498 52.092 170.84 51.666 171.284 51.342C171.728 51.018 172.232 50.856 172.796 50.856C173.228 50.856 173.582 50.988 173.858 51.252C174.146 51.504 174.29 51.828 174.29 52.224C174.29 52.596 174.158 52.914 173.894 53.178C173.642 53.43 173.324 53.556 172.94 53.556C172.568 53.556 172.256 53.436 172.004 53.196C171.752 52.944 171.614 52.638 171.59 52.278C171.242 52.494 170.96 52.848 170.744 53.34C170.54 53.82 170.438 54.372 170.438 54.996V58.2C170.438 58.38 170.51 58.548 170.654 58.704C170.81 58.848 170.978 58.92 171.158 58.92H171.374L171.518 59.064V59.856L171.374 60H167.126L166.982 59.856ZM179.647 60.252C178.735 60.252 177.907 60.054 177.163 59.658C176.419 59.25 175.831 58.692 175.399 57.984C174.979 57.264 174.769 56.454 174.769 55.554C174.769 54.654 174.979 53.85 175.399 53.142C175.831 52.422 176.419 51.864 177.163 51.468C177.907 51.06 178.735 50.856 179.647 50.856C180.559 50.856 181.387 51.06 182.131 51.468C182.875 51.864 183.457 52.422 183.877 53.142C184.309 53.85 184.525 54.654 184.525 55.554C184.525 56.454 184.309 57.264 183.877 57.984C183.457 58.692 182.875 59.25 182.131 59.658C181.387 60.054 180.559 60.252 179.647 60.252ZM179.647 59.1C180.439 59.1 181.033 58.776 181.429 58.128C181.837 57.468 182.041 56.61 182.041 55.554C182.041 54.498 181.837 53.646 181.429 52.998C181.033 52.338 180.439 52.008 179.647 52.008C178.855 52.008 178.255 52.338 177.847 52.998C177.451 53.646 177.253 54.498 177.253 55.554C177.253 56.61 177.451 57.468 177.847 58.128C178.255 58.776 178.855 59.1 179.647 59.1ZM190.634 60.252C189.722 60.252 188.894 60.054 188.15 59.658C187.406 59.25 186.818 58.692 186.386 57.984C185.966 57.264 185.756 56.454 185.756 55.554C185.756 54.654 185.966 53.85 186.386 53.142C186.818 52.422 187.406 51.864 188.15 51.468C188.894 51.06 189.722 50.856 190.634 50.856C191.546 50.856 192.374 51.06 193.118 51.468C193.862 51.864 194.444 52.422 194.864 53.142C195.296 53.85 195.512 54.654 195.512 55.554C195.512 56.454 195.296 57.264 194.864 57.984C194.444 58.692 193.862 59.25 193.118 59.658C192.374 60.054 191.546 60.252 190.634 60.252ZM190.634 59.1C191.426 59.1 192.02 58.776 192.416 58.128C192.824 57.468 193.028 56.61 193.028 55.554C193.028 54.498 192.824 53.646 192.416 52.998C192.02 52.338 191.426 52.008 190.634 52.008C189.842 52.008 189.242 52.338 188.834 52.998C188.438 53.646 188.24 54.498 188.24 55.554C188.24 56.61 188.438 57.468 188.834 58.128C189.242 58.776 189.842 59.1 190.634 59.1ZM196.441 59.856V59.064L196.585 58.92H196.801C196.981 58.92 197.143 58.848 197.287 58.704C197.443 58.548 197.521 58.38 197.521 58.2V52.908C197.521 52.716 197.449 52.548 197.305 52.404C197.161 52.26 196.993 52.188 196.801 52.188H196.585L196.441 52.044V51.252L196.585 51.108H197.521V50.262C197.521 49.542 197.665 48.954 197.953 48.498C198.241 48.03 198.601 47.688 199.033 47.472C199.465 47.256 199.909 47.148 200.365 47.148C200.833 47.148 201.217 47.28 201.517 47.544C201.829 47.796 201.985 48.132 201.985 48.552C201.985 48.936 201.859 49.26 201.607 49.524C201.355 49.788 201.025 49.92 200.617 49.92C200.221 49.92 199.897 49.782 199.645 49.506C199.405 49.23 199.285 48.882 199.285 48.462C198.817 48.726 198.583 49.242 198.583 50.01L198.727 50.208L199.753 50.622L199.897 50.784V51.108H201.193L201.337 51.252V52.044L201.193 52.188H199.897V58.2C199.897 58.38 199.969 58.548 200.113 58.704C200.269 58.848 200.437 58.92 200.617 58.92H200.833L200.977 59.064V59.856L200.833 60H196.585L196.441 59.856ZM210.097 60.252C209.353 60.252 208.729 60.036 208.225 59.604C207.733 59.16 207.487 58.5 207.487 57.624V52.26H206.155L206.011 52.116V51.72L209.413 48.624H209.719L209.863 48.768V51.108H212.131L212.275 51.252V52.116L212.131 52.26H209.863V57.786C209.863 58.146 209.959 58.422 210.151 58.614C210.343 58.794 210.589 58.884 210.889 58.884C211.393 58.884 211.783 58.62 212.059 58.092L212.203 58.038L212.563 58.182L212.635 58.326C212.215 59.61 211.369 60.252 210.097 60.252ZM213.527 59.856V59.064L213.671 58.92H213.887C214.067 58.92 214.229 58.848 214.373 58.704C214.529 58.548 214.607 58.38 214.607 58.2V49.596C214.607 49.416 214.529 49.254 214.373 49.11C214.229 48.954 214.067 48.876 213.887 48.876H213.671L213.527 48.732V48.246L213.635 48.102L216.443 47.04H217.019L217.163 47.184L216.983 48.876V52.224C217.331 51.792 217.751 51.456 218.243 51.216C218.735 50.976 219.287 50.856 219.899 50.856C220.871 50.856 221.639 51.12 222.203 51.648C222.779 52.164 223.067 52.926 223.067 53.934V58.2C223.067 58.38 223.139 58.548 223.283 58.704C223.439 58.848 223.607 58.92 223.787 58.92H224.003L224.147 59.064V59.856L224.003 60H219.755L219.611 59.856V59.064L219.755 58.92H219.971C220.151 58.92 220.313 58.848 220.457 58.704C220.613 58.548 220.691 58.38 220.691 58.2V54.006C220.691 53.43 220.535 52.998 220.223 52.71C219.923 52.422 219.515 52.278 218.999 52.278C218.411 52.278 217.925 52.494 217.541 52.926C217.169 53.346 216.983 53.916 216.983 54.636V58.2C216.983 58.38 217.055 58.548 217.199 58.704C217.355 58.848 217.523 58.92 217.703 58.92H217.919L218.063 59.064V59.856L217.919 60H213.671L213.527 59.856ZM229.519 60.252C228.727 60.252 228.007 60.066 227.359 59.694C226.723 59.322 226.213 58.788 225.829 58.092C225.457 57.396 225.271 56.58 225.271 55.644C225.271 54.648 225.481 53.79 225.901 53.07C226.321 52.35 226.879 51.804 227.575 51.432C228.271 51.048 229.015 50.856 229.807 50.856C231.019 50.856 232.009 51.324 232.777 52.26H232.867L233.749 51.108H234.487L234.631 51.252V57.624C234.631 57.804 234.703 57.972 234.847 58.128C235.003 58.272 235.171 58.344 235.351 58.344H235.567L235.711 58.488V58.974L235.567 59.118L233.083 60.18H232.507L232.363 60.036V58.83C232.003 59.286 231.595 59.64 231.139 59.892C230.695 60.132 230.155 60.252 229.519 60.252ZM229.987 59.064C230.743 59.064 231.307 58.74 231.679 58.092C232.063 57.432 232.255 56.586 232.255 55.554C232.255 54.522 232.063 53.682 231.679 53.034C231.307 52.374 230.743 52.044 229.987 52.044C229.231 52.044 228.661 52.374 228.277 53.034C227.905 53.682 227.719 54.522 227.719 55.554C227.719 56.586 227.905 57.432 228.277 58.092C228.661 58.74 229.231 59.064 229.987 59.064ZM240.226 60.252C239.482 60.252 238.858 60.036 238.354 59.604C237.862 59.16 237.616 58.5 237.616 57.624V52.26H236.284L236.14 52.116V51.72L239.542 48.624H239.848L239.992 48.768V51.108H242.26L242.404 51.252V52.116L242.26 52.26H239.992V57.786C239.992 58.146 240.088 58.422 240.28 58.614C240.472 58.794 240.718 58.884 241.018 58.884C241.522 58.884 241.912 58.62 242.188 58.092L242.332 58.038L242.692 58.182L242.764 58.326C242.344 59.61 241.498 60.252 240.226 60.252ZM247.683 59.856V59.064L247.827 58.92H248.043C248.223 58.92 248.385 58.848 248.529 58.704C248.685 58.548 248.763 58.38 248.763 58.2V53.664C248.763 53.484 248.685 53.322 248.529 53.178C248.385 53.022 248.223 52.944 248.043 52.944H247.827L247.683 52.8V52.314L247.791 52.17L250.419 51.108H250.995L251.139 51.252L250.959 52.458C251.259 51.978 251.685 51.594 252.237 51.306C252.789 51.006 253.359 50.856 253.947 50.856C254.595 50.856 255.165 50.982 255.657 51.234C256.149 51.474 256.491 51.852 256.683 52.368C257.355 51.36 258.333 50.856 259.617 50.856C260.481 50.856 261.171 51.108 261.687 51.612C262.215 52.116 262.479 52.806 262.479 53.682V58.2C262.479 58.38 262.551 58.548 262.695 58.704C262.851 58.848 263.019 58.92 263.199 58.92H263.415L263.559 59.064V59.856L263.415 60H259.167L259.023 59.856V59.064L259.167 58.92H259.383C259.563 58.92 259.725 58.848 259.869 58.704C260.025 58.548 260.103 58.38 260.103 58.2V54.024C260.103 53.46 259.983 53.028 259.743 52.728C259.515 52.428 259.167 52.278 258.699 52.278C258.159 52.278 257.709 52.494 257.349 52.926C256.989 53.346 256.809 53.916 256.809 54.636V58.2C256.809 58.38 256.881 58.548 257.025 58.704C257.181 58.848 257.349 58.92 257.529 58.92H257.745L257.889 59.064V59.856L257.745 60H253.497L253.353 59.856V59.064L253.497 58.92H253.713C253.893 58.92 254.055 58.848 254.199 58.704C254.355 58.548 254.433 58.38 254.433 58.2V54.024C254.433 52.86 253.971 52.278 253.047 52.278C252.507 52.278 252.051 52.494 251.679 52.926C251.319 53.346 251.139 53.916 251.139 54.636V58.2C251.139 58.38 251.211 58.548 251.355 58.704C251.511 58.848 251.679 58.92 251.859 58.92H252.075L252.219 59.064V59.856L252.075 60H247.827L247.683 59.856ZM265.918 63.888L265.54 63.276V63.06L268.15 59.334L264.82 52.548C264.76 52.428 264.688 52.338 264.604 52.278C264.532 52.218 264.43 52.188 264.298 52.188H263.884L263.74 52.044V51.252L263.884 51.108H268.366L268.51 51.252V52.044L268.366 52.188H268.006C267.73 52.188 267.592 52.308 267.592 52.548C267.592 52.668 267.628 52.8 267.7 52.944L269.482 56.688L271.282 52.944C271.354 52.8 271.39 52.668 271.39 52.548C271.39 52.44 271.354 52.356 271.282 52.296C271.21 52.224 271.108 52.188 270.976 52.188H270.616L270.472 52.044V51.252L270.616 51.108H273.568L273.712 51.252V52.044L273.568 52.188H273.262C273.106 52.188 272.98 52.23 272.884 52.314C272.788 52.386 272.698 52.5 272.614 52.656L267.304 63.852L267.088 64.068L266.332 64.086L265.918 63.888ZM96.4096 82.252C95.3656 82.252 94.4776 81.886 93.7456 81.154V81.856L93.6016 82H90.3256L90.1816 81.856V81.064L90.3256 80.92H90.5416C90.7216 80.92 90.8836 80.848 91.0276 80.704C91.1836 80.548 91.2616 80.38 91.2616 80.2V71.596C91.2616 71.416 91.1836 71.254 91.0276 71.11C90.8836 70.954 90.7216 70.876 90.5416 70.876H90.3256L90.1816 70.732V70.246L90.3256 70.102L93.0976 69.04H93.6736L93.8176 69.184L93.6376 70.876V74.044C93.8896 73.72 94.2496 73.444 94.7176 73.216C95.1976 72.976 95.7376 72.856 96.3376 72.856C97.0816 72.856 97.7776 73.048 98.4256 73.432C99.0856 73.804 99.6136 74.35 100.01 75.07C100.418 75.778 100.622 76.606 100.622 77.554C100.622 78.598 100.418 79.474 100.01 80.182C99.6016 80.878 99.0736 81.4 98.4256 81.748C97.7896 82.084 97.1176 82.252 96.4096 82.252ZM95.8876 81.064C96.6436 81.064 97.2076 80.74 97.5796 80.092C97.9516 79.432 98.1376 78.586 98.1376 77.554C98.1376 76.522 97.9516 75.682 97.5796 75.034C97.2076 74.374 96.6436 74.044 95.8876 74.044C95.1316 74.044 94.5676 74.374 94.1956 75.034C93.8236 75.682 93.6376 76.522 93.6376 77.554C93.6376 78.586 93.8236 79.432 94.1956 80.092C94.5676 80.74 95.1316 81.064 95.8876 81.064ZM106.59 82.252C105.666 82.252 104.844 82.042 104.124 81.622C103.404 81.202 102.84 80.632 102.432 79.912C102.036 79.18 101.838 78.37 101.838 77.482C101.838 76.618 102.042 75.832 102.45 75.124C102.87 74.416 103.434 73.864 104.142 73.468C104.862 73.06 105.66 72.856 106.536 72.856C107.496 72.856 108.306 73.072 108.966 73.504C109.626 73.936 110.118 74.512 110.442 75.232C110.766 75.94 110.928 76.732 110.928 77.608L110.784 77.752H104.088C104.088 78.28 104.214 78.76 104.466 79.192C104.718 79.612 105.072 79.948 105.528 80.2C105.984 80.44 106.512 80.56 107.112 80.56C108.588 80.56 109.722 79.96 110.514 78.76L110.658 78.688L110.928 78.796L110.982 78.94C110.694 79.96 110.16 80.77 109.38 81.37C108.6 81.958 107.67 82.252 106.59 82.252ZM107.85 76.6C108.102 76.6 108.282 76.54 108.39 76.42C108.51 76.288 108.57 76.126 108.57 75.934C108.57 75.346 108.384 74.878 108.012 74.53C107.64 74.182 107.154 74.008 106.554 74.008C105.858 74.008 105.282 74.248 104.826 74.728C104.382 75.196 104.136 75.772 104.088 76.456L104.232 76.6H107.85ZM111.855 81.856V81.064L111.999 80.92H112.215C112.395 80.92 112.557 80.848 112.701 80.704C112.857 80.548 112.935 80.38 112.935 80.2V71.596C112.935 71.416 112.857 71.254 112.701 71.11C112.557 70.954 112.395 70.876 112.215 70.876H111.999L111.855 70.732V70.246L111.963 70.102L114.771 69.04H115.347L115.491 69.184L115.311 70.876V80.2C115.311 80.38 115.383 80.548 115.527 80.704C115.683 80.848 115.851 80.92 116.031 80.92H116.247L116.391 81.064V81.856L116.247 82H111.999L111.855 81.856ZM119.715 71.884C119.307 71.884 118.953 71.74 118.653 71.452C118.365 71.152 118.221 70.798 118.221 70.39C118.221 69.97 118.365 69.616 118.653 69.328C118.953 69.04 119.307 68.896 119.715 68.896C120.135 68.896 120.489 69.04 120.777 69.328C121.065 69.616 121.209 69.97 121.209 70.39C121.209 70.798 121.065 71.152 120.777 71.452C120.489 71.74 120.135 71.884 119.715 71.884ZM117.429 81.856V81.064L117.573 80.92H117.789C117.969 80.92 118.131 80.848 118.275 80.704C118.431 80.548 118.509 80.38 118.509 80.2V75.664C118.509 75.484 118.431 75.322 118.275 75.178C118.131 75.022 117.969 74.944 117.789 74.944H117.573L117.429 74.8V74.314L117.537 74.17L120.345 73.108H120.885L121.065 73.288L120.885 74.944V80.2C120.885 80.38 120.957 80.548 121.101 80.704C121.257 80.848 121.425 80.92 121.605 80.92H121.821L121.965 81.064V81.856L121.821 82H117.573L117.429 81.856ZM127.736 82.252C126.812 82.252 125.99 82.042 125.27 81.622C124.55 81.202 123.986 80.632 123.578 79.912C123.182 79.18 122.984 78.37 122.984 77.482C122.984 76.618 123.188 75.832 123.596 75.124C124.016 74.416 124.58 73.864 125.288 73.468C126.008 73.06 126.806 72.856 127.682 72.856C128.642 72.856 129.452 73.072 130.112 73.504C130.772 73.936 131.264 74.512 131.588 75.232C131.912 75.94 132.074 76.732 132.074 77.608L131.93 77.752H125.234C125.234 78.28 125.36 78.76 125.612 79.192C125.864 79.612 126.218 79.948 126.674 80.2C127.13 80.44 127.658 80.56 128.258 80.56C129.734 80.56 130.868 79.96 131.66 78.76L131.804 78.688L132.074 78.796L132.128 78.94C131.84 79.96 131.306 80.77 130.526 81.37C129.746 81.958 128.816 82.252 127.736 82.252ZM128.996 76.6C129.248 76.6 129.428 76.54 129.536 76.42C129.656 76.288 129.716 76.126 129.716 75.934C129.716 75.346 129.53 74.878 129.158 74.53C128.786 74.182 128.3 74.008 127.7 74.008C127.004 74.008 126.428 74.248 125.972 74.728C125.528 75.196 125.282 75.772 125.234 76.456L125.378 76.6H128.996ZM133.283 81.856V81.064L133.427 80.92H133.643C133.823 80.92 133.985 80.848 134.129 80.704C134.285 80.548 134.363 80.38 134.363 80.2V74.908C134.363 74.716 134.291 74.548 134.147 74.404C134.003 74.26 133.835 74.188 133.643 74.188H133.427L133.283 74.044V73.252L133.427 73.108H134.363V72.262C134.363 71.542 134.507 70.954 134.795 70.498C135.083 70.03 135.443 69.688 135.875 69.472C136.307 69.256 136.751 69.148 137.207 69.148C137.675 69.148 138.059 69.28 138.359 69.544C138.671 69.796 138.827 70.132 138.827 70.552C138.827 70.936 138.701 71.26 138.449 71.524C138.197 71.788 137.867 71.92 137.459 71.92C137.063 71.92 136.739 71.782 136.487 71.506C136.247 71.23 136.127 70.882 136.127 70.462C135.659 70.726 135.425 71.242 135.425 72.01L135.569 72.208L136.595 72.622L136.739 72.784V73.108H138.035L138.179 73.252V74.044L138.035 74.188H136.739V80.2C136.739 80.38 136.811 80.548 136.955 80.704C137.111 80.848 137.279 80.92 137.459 80.92H137.675L137.819 81.064V81.856L137.675 82H133.427L133.283 81.856ZM145.643 71.884C145.235 71.884 144.881 71.74 144.581 71.452C144.293 71.152 144.149 70.798 144.149 70.39C144.149 69.97 144.293 69.616 144.581 69.328C144.881 69.04 145.235 68.896 145.643 68.896C146.063 68.896 146.417 69.04 146.705 69.328C146.993 69.616 147.137 69.97 147.137 70.39C147.137 70.798 146.993 71.152 146.705 71.452C146.417 71.74 146.063 71.884 145.643 71.884ZM143.357 81.856V81.064L143.501 80.92H143.717C143.897 80.92 144.059 80.848 144.203 80.704C144.359 80.548 144.437 80.38 144.437 80.2V75.664C144.437 75.484 144.359 75.322 144.203 75.178C144.059 75.022 143.897 74.944 143.717 74.944H143.501L143.357 74.8V74.314L143.465 74.17L146.273 73.108H146.813L146.993 73.288L146.813 74.944V80.2C146.813 80.38 146.885 80.548 147.029 80.704C147.185 80.848 147.353 80.92 147.533 80.92H147.749L147.893 81.064V81.856L147.749 82H143.501L143.357 81.856ZM152.381 82.252C151.757 82.252 151.181 82.18 150.653 82.036C150.137 81.892 149.693 81.7 149.321 81.46L149.231 81.28L149.717 79.3L149.861 79.156H150.473L150.617 79.3C150.617 79.912 150.761 80.398 151.049 80.758C151.349 81.106 151.757 81.28 152.273 81.28C152.717 81.28 153.041 81.154 153.245 80.902C153.461 80.65 153.569 80.35 153.569 80.002C153.569 79.582 153.461 79.258 153.245 79.03C153.029 78.802 152.651 78.586 152.111 78.382C151.211 78.034 150.545 77.638 150.113 77.194C149.693 76.75 149.483 76.222 149.483 75.61C149.483 74.782 149.789 74.116 150.401 73.612C151.025 73.108 151.811 72.856 152.759 72.856C153.599 72.856 154.337 73.024 154.973 73.36L155.099 73.54L155.189 75.556L155.045 75.7H154.361L154.217 75.556C154.109 74.416 153.617 73.846 152.741 73.846C152.417 73.846 152.141 73.948 151.913 74.152C151.685 74.344 151.571 74.608 151.571 74.944C151.571 75.304 151.721 75.622 152.021 75.898C152.321 76.162 152.807 76.432 153.479 76.708C154.211 77.008 154.775 77.35 155.171 77.734C155.567 78.118 155.765 78.658 155.765 79.354C155.765 80.29 155.435 81.01 154.775 81.514C154.127 82.006 153.329 82.252 152.381 82.252ZM165.453 82.252C164.649 82.252 163.899 82.066 163.203 81.694C162.519 81.31 161.967 80.776 161.547 80.092C161.139 79.396 160.935 78.598 160.935 77.698C160.935 76.702 161.163 75.838 161.619 75.106C162.087 74.374 162.699 73.816 163.455 73.432C164.211 73.048 165.027 72.856 165.903 72.856C166.983 72.856 167.895 73.066 168.639 73.486L168.765 73.666L168.855 76.024L168.711 76.168H167.829L167.685 76.024V75.7C167.685 75.172 167.523 74.752 167.199 74.44C166.875 74.128 166.437 73.972 165.885 73.972C165.069 73.972 164.445 74.302 164.013 74.962C163.593 75.61 163.383 76.396 163.383 77.32C163.383 77.932 163.497 78.496 163.725 79.012C163.953 79.516 164.277 79.918 164.697 80.218C165.117 80.518 165.603 80.668 166.155 80.668C167.307 80.668 168.177 80.122 168.765 79.03L168.927 78.958L169.197 79.048L169.269 79.192C169.005 80.092 168.561 80.83 167.937 81.406C167.325 81.97 166.497 82.252 165.453 82.252ZM175.341 82.252C174.429 82.252 173.601 82.054 172.857 81.658C172.113 81.25 171.525 80.692 171.093 79.984C170.673 79.264 170.463 78.454 170.463 77.554C170.463 76.654 170.673 75.85 171.093 75.142C171.525 74.422 172.113 73.864 172.857 73.468C173.601 73.06 174.429 72.856 175.341 72.856C176.253 72.856 177.081 73.06 177.825 73.468C178.569 73.864 179.151 74.422 179.571 75.142C180.003 75.85 180.219 76.654 180.219 77.554C180.219 78.454 180.003 79.264 179.571 79.984C179.151 80.692 178.569 81.25 177.825 81.658C177.081 82.054 176.253 82.252 175.341 82.252ZM175.341 81.1C176.133 81.1 176.727 80.776 177.123 80.128C177.531 79.468 177.735 78.61 177.735 77.554C177.735 76.498 177.531 75.646 177.123 74.998C176.727 74.338 176.133 74.008 175.341 74.008C174.549 74.008 173.949 74.338 173.541 74.998C173.145 75.646 172.947 76.498 172.947 77.554C172.947 78.61 173.145 79.468 173.541 80.128C173.949 80.776 174.549 81.1 175.341 81.1ZM181.449 81.856V81.064L181.593 80.92H181.809C181.989 80.92 182.151 80.848 182.295 80.704C182.451 80.548 182.529 80.38 182.529 80.2V75.664C182.529 75.484 182.451 75.322 182.295 75.178C182.151 75.022 181.989 74.944 181.809 74.944H181.593L181.449 74.8V74.314L181.557 74.17L184.185 73.108H184.761L184.905 73.252L184.725 74.62C184.965 74.092 185.307 73.666 185.751 73.342C186.195 73.018 186.699 72.856 187.263 72.856C187.695 72.856 188.049 72.988 188.325 73.252C188.613 73.504 188.757 73.828 188.757 74.224C188.757 74.596 188.625 74.914 188.361 75.178C188.109 75.43 187.791 75.556 187.407 75.556C187.035 75.556 186.723 75.436 186.471 75.196C186.219 74.944 186.081 74.638 186.057 74.278C185.709 74.494 185.427 74.848 185.211 75.34C185.007 75.82 184.905 76.372 184.905 76.996V80.2C184.905 80.38 184.977 80.548 185.121 80.704C185.277 80.848 185.445 80.92 185.625 80.92H185.841L185.985 81.064V81.856L185.841 82H181.593L181.449 81.856ZM189.552 81.856V81.064L189.696 80.92H189.912C190.092 80.92 190.254 80.848 190.398 80.704C190.554 80.548 190.632 80.38 190.632 80.2V75.664C190.632 75.484 190.554 75.322 190.398 75.178C190.254 75.022 190.092 74.944 189.912 74.944H189.696L189.552 74.8V74.314L189.66 74.17L192.288 73.108H192.864L193.008 73.252L192.828 74.62C193.068 74.092 193.41 73.666 193.854 73.342C194.298 73.018 194.802 72.856 195.366 72.856C195.798 72.856 196.152 72.988 196.428 73.252C196.716 73.504 196.86 73.828 196.86 74.224C196.86 74.596 196.728 74.914 196.464 75.178C196.212 75.43 195.894 75.556 195.51 75.556C195.138 75.556 194.826 75.436 194.574 75.196C194.322 74.944 194.184 74.638 194.16 74.278C193.812 74.494 193.53 74.848 193.314 75.34C193.11 75.82 193.008 76.372 193.008 76.996V80.2C193.008 80.38 193.08 80.548 193.224 80.704C193.38 80.848 193.548 80.92 193.728 80.92H193.944L194.088 81.064V81.856L193.944 82H189.696L189.552 81.856ZM202.092 82.252C201.168 82.252 200.346 82.042 199.626 81.622C198.906 81.202 198.342 80.632 197.934 79.912C197.538 79.18 197.34 78.37 197.34 77.482C197.34 76.618 197.544 75.832 197.952 75.124C198.372 74.416 198.936 73.864 199.644 73.468C200.364 73.06 201.162 72.856 202.038 72.856C202.998 72.856 203.808 73.072 204.468 73.504C205.128 73.936 205.62 74.512 205.944 75.232C206.268 75.94 206.43 76.732 206.43 77.608L206.286 77.752H199.59C199.59 78.28 199.716 78.76 199.968 79.192C200.22 79.612 200.574 79.948 201.03 80.2C201.486 80.44 202.014 80.56 202.614 80.56C204.09 80.56 205.224 79.96 206.016 78.76L206.16 78.688L206.43 78.796L206.484 78.94C206.196 79.96 205.662 80.77 204.882 81.37C204.102 81.958 203.172 82.252 202.092 82.252ZM203.352 76.6C203.604 76.6 203.784 76.54 203.892 76.42C204.012 76.288 204.072 76.126 204.072 75.934C204.072 75.346 203.886 74.878 203.514 74.53C203.142 74.182 202.656 74.008 202.056 74.008C201.36 74.008 200.784 74.248 200.328 74.728C199.884 75.196 199.638 75.772 199.59 76.456L199.734 76.6H203.352ZM212.229 82.252C211.425 82.252 210.675 82.066 209.979 81.694C209.295 81.31 208.743 80.776 208.323 80.092C207.915 79.396 207.711 78.598 207.711 77.698C207.711 76.702 207.939 75.838 208.395 75.106C208.863 74.374 209.475 73.816 210.231 73.432C210.987 73.048 211.803 72.856 212.679 72.856C213.759 72.856 214.671 73.066 215.415 73.486L215.541 73.666L215.631 76.024L215.487 76.168H214.605L214.461 76.024V75.7C214.461 75.172 214.299 74.752 213.975 74.44C213.651 74.128 213.213 73.972 212.661 73.972C211.845 73.972 211.221 74.302 210.789 74.962C210.369 75.61 210.159 76.396 210.159 77.32C210.159 77.932 210.273 78.496 210.501 79.012C210.729 79.516 211.053 79.918 211.473 80.218C211.893 80.518 212.379 80.668 212.931 80.668C214.083 80.668 214.953 80.122 215.541 79.03L215.703 78.958L215.973 79.048L216.045 79.192C215.781 80.092 215.337 80.83 214.713 81.406C214.101 81.97 213.273 82.252 212.229 82.252ZM220.82 82.252C220.076 82.252 219.452 82.036 218.948 81.604C218.456 81.16 218.21 80.5 218.21 79.624V74.26H216.878L216.734 74.116V73.72L220.136 70.624H220.442L220.586 70.768V73.108H222.854L222.998 73.252V74.116L222.854 74.26H220.586V79.786C220.586 80.146 220.682 80.422 220.874 80.614C221.066 80.794 221.312 80.884 221.612 80.884C222.116 80.884 222.506 80.62 222.782 80.092L222.926 80.038L223.286 80.182L223.358 80.326C222.938 81.61 222.092 82.252 220.82 82.252ZM227.148 77.86V77.59C227.148 76.822 227.244 76.222 227.436 75.79C227.628 75.346 227.91 74.89 228.282 74.422C228.582 74.026 228.804 73.678 228.948 73.378C229.092 73.078 229.164 72.694 229.164 72.226C229.164 71.698 228.99 71.272 228.642 70.948C228.306 70.612 227.862 70.444 227.31 70.444C226.746 70.444 226.248 70.636 225.816 71.02C225.396 71.392 225.102 71.956 224.934 72.712L224.79 72.874H224.484L224.34 72.712C224.424 71.572 224.808 70.696 225.492 70.084C226.176 69.46 227.004 69.148 227.976 69.148C228.636 69.148 229.236 69.268 229.776 69.508C230.316 69.748 230.742 70.102 231.054 70.57C231.378 71.026 231.54 71.584 231.54 72.244C231.54 72.7 231.462 73.096 231.306 73.432C231.162 73.756 230.976 74.032 230.748 74.26C230.532 74.476 230.238 74.734 229.866 75.034C229.506 75.322 229.224 75.574 229.02 75.79C228.816 75.994 228.642 76.246 228.498 76.546C228.366 76.834 228.3 77.182 228.3 77.59V77.86L228.12 78.04H227.328L227.148 77.86ZM227.616 82.252C227.244 82.252 226.92 82.12 226.644 81.856C226.38 81.58 226.248 81.256 226.248 80.884C226.248 80.5 226.38 80.17 226.644 79.894C226.92 79.618 227.244 79.48 227.616 79.48C228 79.48 228.33 79.618 228.606 79.894C228.882 80.17 229.02 80.5 229.02 80.884C229.02 81.256 228.882 81.58 228.606 81.856C228.33 82.12 228 82.252 227.616 82.252Z" fill="#0C0748"/>
</g>
<defs>
<filter id="filter0_d_405_1519" x="0" y="0" width="322" height="132" filterUnits="userSpaceOnUse" color-interpolation-filters="sRGB">
<feFlood flood-opacity="0" result="BackgroundImageFix"/>
<feColorMatrix in="SourceAlpha" type="matrix" values="0 0 0 0 0 0 0 0 0 0 0 0 0 0 0 0 0 0 127 0" result="hardAlpha"/>
<feOffset dy="2"/>
<feGaussianBlur stdDeviation="12"/>
<feColorMatrix type="matrix" values="0 0 0 0 0 0 0 0 0 0 0 0 0 0 0 0 0 0 0.08 0"/>
<feBlend mode="normal" in2="BackgroundImageFix" result="effect1_dropShadow_405_1519"/>
<feBlend mode="normal" in="SourceGraphic" in2="effect1_dropShadow_405_1519" result="shape"/>
</filter>
</defs>
</svg>
