<svg width="313" height="162" viewBox="0 0 313 162" fill="none" xmlns="http://www.w3.org/2000/svg">
<g filter="url(#filter0_dd_31_1213)">
<rect x="24" y="22" width="265" height="52" rx="16" fill="white"/>
<path d="M44.666 48.8179H47.2661L49.5293 53H51.0747L48.6284 48.6128C49.9541 48.1953 50.7524 47.0527 50.7524 45.5806C50.7524 43.6763 49.4194 42.4312 47.3833 42.4312H43.3477V53H44.666V48.8179ZM44.666 43.603H47.2075C48.5698 43.603 49.3901 44.3574 49.3901 45.6245C49.3901 46.9209 48.6211 47.646 47.2661 47.646H44.666V43.603ZM57.7561 50.9565C57.4265 51.6523 56.738 52.0259 55.72 52.0259C54.3796 52.0259 53.508 51.0371 53.4421 49.4771V49.4185H59.1184V48.9351C59.1184 46.4814 57.822 44.9653 55.6907 44.9653C53.5227 44.9653 52.1311 46.5767 52.1311 49.0596C52.1311 51.5571 53.5007 53.1392 55.6907 53.1392C57.4192 53.1392 58.6496 52.3042 59.0159 50.9565H57.7561ZM55.676 46.0786C56.9285 46.0786 57.7634 47.0015 57.7927 48.4004H53.4421C53.5373 47.0015 54.4163 46.0786 55.676 46.0786ZM63.0532 53.1392C64.1079 53.1392 64.9721 52.6777 65.4848 51.8354H65.602V53H66.8032V47.5947C66.8032 45.9541 65.7265 44.9653 63.8003 44.9653C62.1157 44.9653 60.8706 45.8003 60.7021 47.0674H61.9765C62.1523 46.4448 62.8115 46.0859 63.7563 46.0859C64.9355 46.0859 65.5434 46.6206 65.5434 47.5947V48.3125L63.2656 48.4517C61.4272 48.5615 60.3872 49.3745 60.3872 50.7881C60.3872 52.231 61.5224 53.1392 63.0532 53.1392ZM63.2876 52.0332C62.3721 52.0332 61.6909 51.5645 61.6909 50.7588C61.6909 49.9678 62.2182 49.5503 63.4194 49.4697L65.5434 49.3306V50.0557C65.5434 51.1836 64.584 52.0332 63.2876 52.0332ZM71.8147 53.1392C72.906 53.1392 73.8435 52.6191 74.3415 51.7402H74.4587V53H75.6599V41.9697H74.4001V46.3496H74.2903C73.8435 45.4854 72.9133 44.9653 71.8147 44.9653C69.8078 44.9653 68.4968 46.5767 68.4968 49.0522C68.4968 51.5352 69.7932 53.1392 71.8147 53.1392ZM72.1076 46.1006C73.5359 46.1006 74.4294 47.2432 74.4294 49.0522C74.4294 50.876 73.5432 52.0039 72.1076 52.0039C70.6648 52.0039 69.8005 50.8979 69.8005 49.0522C69.8005 47.2139 70.6721 46.1006 72.1076 46.1006ZM84.0715 48.1294H85.3825C86.8693 48.1294 87.7849 48.8911 87.7849 50.1143C87.7849 51.3008 86.7961 52.0991 85.4045 52.0991C84.0422 52.0991 83.09 51.3887 82.9729 50.2754H81.6984C81.7937 52.0698 83.2731 53.249 85.4191 53.249C87.5212 53.249 89.1398 51.9233 89.1398 50.1509C89.1398 48.6787 88.2316 47.7485 86.862 47.5288V47.4116C87.946 47.0967 88.737 46.2544 88.7443 44.98C88.7517 43.5005 87.5505 42.1821 85.4631 42.1821C83.3244 42.1821 82.0134 43.4492 81.8815 45.1704H83.1633C83.2731 43.9839 84.1008 43.332 85.3752 43.332C86.6496 43.332 87.404 44.1377 87.404 45.1265C87.404 46.2251 86.5397 47.0015 85.3239 47.0015H84.0715V48.1294ZM94.5688 53.249C96.9418 53.249 98.3041 51.2422 98.3041 47.7339C98.3041 44.2329 96.9199 42.1821 94.5688 42.1821C92.2031 42.1821 90.8188 44.2256 90.8188 47.7119C90.8188 51.2275 92.1884 53.249 94.5688 53.249ZM94.5688 52.0991C93.0087 52.0991 92.1445 50.5391 92.1445 47.7119C92.1445 44.9214 93.0234 43.3394 94.5688 43.3394C96.1142 43.3394 96.9785 44.9067 96.9785 47.7119C96.9785 50.5464 96.1288 52.0991 94.5688 52.0991ZM108.071 44.9653C106.994 44.9653 106.049 45.5146 105.544 46.4229H105.427V45.1045H104.226V55.6367H105.485V51.8135H105.602C106.035 52.6484 106.943 53.1392 108.071 53.1392C110.078 53.1392 111.389 51.5205 111.389 49.0522C111.389 46.5693 110.085 44.9653 108.071 44.9653ZM107.77 52.0039C106.35 52.0039 105.449 50.8613 105.449 49.0522C105.449 47.2358 106.35 46.1006 107.778 46.1006C109.221 46.1006 110.085 47.2065 110.085 49.0522C110.085 50.8979 109.221 52.0039 107.77 52.0039ZM115.323 53.1392C116.378 53.1392 117.242 52.6777 117.755 51.8354H117.872V53H119.073V47.5947C119.073 45.9541 117.997 44.9653 116.07 44.9653C114.386 44.9653 113.141 45.8003 112.972 47.0674H114.247C114.423 46.4448 115.082 46.0859 116.027 46.0859C117.206 46.0859 117.814 46.6206 117.814 47.5947V48.3125L115.536 48.4517C113.697 48.5615 112.657 49.3745 112.657 50.7881C112.657 52.231 113.793 53.1392 115.323 53.1392ZM115.558 52.0332C114.642 52.0332 113.961 51.5645 113.961 50.7588C113.961 49.9678 114.488 49.5503 115.69 49.4697L117.814 49.3306V50.0557C117.814 51.1836 116.854 52.0332 115.558 52.0332ZM124.414 56.0322C126.568 56.0322 127.93 54.9043 127.93 53.1392V45.1045H126.729V46.3569H126.612C126.158 45.5073 125.183 44.9653 124.078 44.9653C122.049 44.9653 120.767 46.5693 120.767 48.9351C120.767 51.3008 122.034 52.8828 124.078 52.8828C125.162 52.8828 126.055 52.3921 126.553 51.5205H126.67V53.0732C126.67 54.2378 125.828 54.9336 124.414 54.9336C123.279 54.9336 122.576 54.5161 122.437 53.8716H121.104C121.294 55.1753 122.51 56.0322 124.414 56.0322ZM124.356 51.7695C122.891 51.7695 122.071 50.6562 122.071 48.9351C122.071 47.2139 122.891 46.1006 124.356 46.1006C125.813 46.1006 126.7 47.2139 126.7 48.9351C126.7 50.6562 125.821 51.7695 124.356 51.7695ZM135.293 50.9565C134.963 51.6523 134.275 52.0259 133.256 52.0259C131.916 52.0259 131.045 51.0371 130.979 49.4771V49.4185H136.655V48.9351C136.655 46.4814 135.359 44.9653 133.227 44.9653C131.059 44.9653 129.668 46.5767 129.668 49.0596C129.668 51.5571 131.037 53.1392 133.227 53.1392C134.956 53.1392 136.186 52.3042 136.552 50.9565H135.293ZM133.213 46.0786C134.465 46.0786 135.3 47.0015 135.329 48.4004H130.979C131.074 47.0015 131.953 46.0786 133.213 46.0786ZM138.209 47.2651C138.209 48.4077 138.883 49.0449 140.363 49.4038L141.718 49.7334C142.56 49.9385 142.97 50.3047 142.97 50.8467C142.97 51.5718 142.208 52.0771 141.146 52.0771C140.136 52.0771 139.506 51.6523 139.293 50.9858H137.997C138.136 52.2969 139.345 53.1392 141.102 53.1392C142.897 53.1392 144.266 52.165 144.266 50.7515C144.266 49.6162 143.549 48.9717 142.062 48.6128L140.846 48.3198C139.916 48.0928 139.476 47.7559 139.476 47.2139C139.476 46.5107 140.209 46.0347 141.146 46.0347C142.099 46.0347 142.714 46.4521 142.882 47.082H144.127C143.959 45.7856 142.809 44.9653 141.154 44.9653C139.476 44.9653 138.209 45.9541 138.209 47.2651ZM153.242 53.1392C155.491 53.1392 156.882 51.5864 156.882 49.0522C156.882 46.5107 155.491 44.9653 153.242 44.9653C150.994 44.9653 149.602 46.5107 149.602 49.0522C149.602 51.5864 150.994 53.1392 153.242 53.1392ZM153.242 52.0039C151.748 52.0039 150.906 50.9199 150.906 49.0522C150.906 47.1772 151.748 46.1006 153.242 46.1006C154.736 46.1006 155.578 47.1772 155.578 49.0522C155.578 50.9199 154.736 52.0039 153.242 52.0039ZM159.147 53H160.407V46.1592H162.216V45.1045H160.407V44.2622C160.407 43.3979 160.788 42.9585 161.696 42.9585C161.923 42.9585 162.135 42.9658 162.289 42.9951V41.9697C162.025 41.9185 161.747 41.8965 161.44 41.8965C159.938 41.8965 159.147 42.6509 159.147 44.2256V45.1045H157.836V46.1592H159.147V53ZM168.335 43.061V45.1045H167.061V46.1592H168.335V50.9492C168.335 52.458 168.987 53.0586 170.613 53.0586C170.862 53.0586 171.104 53.0293 171.353 52.9854V51.9233C171.118 51.9453 170.994 51.9526 170.767 51.9526C169.946 51.9526 169.595 51.5571 169.595 50.627V46.1592H171.353V45.1045H169.595V43.061H168.335ZM173.09 53H174.35V48.3271C174.35 46.9941 175.126 46.1006 176.54 46.1006C177.734 46.1006 178.364 46.7964 178.364 48.1953V53H179.623V47.8877C179.623 46.0347 178.569 44.9653 176.899 44.9653C175.69 44.9653 174.863 45.478 174.467 46.3496H174.35V41.9697H173.09V53ZM186.913 50.9565C186.583 51.6523 185.895 52.0259 184.877 52.0259C183.536 52.0259 182.665 51.0371 182.599 49.4771V49.4185H188.275V48.9351C188.275 46.4814 186.979 44.9653 184.847 44.9653C182.679 44.9653 181.288 46.5767 181.288 49.0596C181.288 51.5571 182.657 53.1392 184.847 53.1392C186.576 53.1392 187.806 52.3042 188.172 50.9565H186.913ZM184.833 46.0786C186.085 46.0786 186.92 47.0015 186.949 48.4004H182.599C182.694 47.0015 183.573 46.0786 184.833 46.0786ZM197.932 53.1392C199.931 53.1392 201.242 51.5205 201.242 49.0522C201.242 46.5693 199.939 44.9653 197.932 44.9653C196.848 44.9653 195.888 45.5 195.456 46.3496H195.339V41.9697H194.079V53H195.28V51.7402H195.398C195.896 52.6191 196.833 53.1392 197.932 53.1392ZM197.639 46.1006C199.082 46.1006 199.939 47.2065 199.939 49.0522C199.939 50.8979 199.082 52.0039 197.639 52.0039C196.203 52.0039 195.31 50.876 195.31 49.0522C195.31 47.2285 196.203 46.1006 197.639 46.1006ZM206.224 53.1392C208.473 53.1392 209.865 51.5864 209.865 49.0522C209.865 46.5107 208.473 44.9653 206.224 44.9653C203.976 44.9653 202.584 46.5107 202.584 49.0522C202.584 51.5864 203.976 53.1392 206.224 53.1392ZM206.224 52.0039C204.73 52.0039 203.888 50.9199 203.888 49.0522C203.888 47.1772 204.73 46.1006 206.224 46.1006C207.719 46.1006 208.561 47.1772 208.561 49.0522C208.561 50.9199 207.719 52.0039 206.224 52.0039ZM214.847 53.1392C217.095 53.1392 218.487 51.5864 218.487 49.0522C218.487 46.5107 217.095 44.9653 214.847 44.9653C212.598 44.9653 211.207 46.5107 211.207 49.0522C211.207 51.5864 212.598 53.1392 214.847 53.1392ZM214.847 52.0039C213.353 52.0039 212.51 50.9199 212.51 49.0522C212.51 47.1772 213.353 46.1006 214.847 46.1006C216.341 46.1006 217.183 47.1772 217.183 49.0522C217.183 50.9199 216.341 52.0039 214.847 52.0039ZM221.675 48.5542H221.557V41.9697H220.298V53H221.557V50.0044L222.312 49.3013L225.271 53H226.875L223.249 48.4883L226.648 45.1045H225.102L221.675 48.5542Z" fill="#9E9CAC"/>
<path d="M42 48.459H227.182V49.3379H42V48.459Z" fill="#9E9CAC"/>
<rect x="243" y="34" width="28" height="28" rx="14" fill="#FFCBAD"/>
<path d="M252.477 46.572C252.043 46.2298 251.415 46.3037 251.072 46.7372C250.73 47.1707 250.804 47.7995 251.238 48.1417L252.477 46.572ZM255.929 50.5711L255.309 51.356L256.059 51.9479L256.684 51.2261L255.929 50.5711ZM262.256 44.7975C262.617 44.3802 262.572 43.7486 262.155 43.3869C261.738 43.0252 261.106 43.0703 260.744 43.4876L262.256 44.7975ZM251.238 48.1417L255.309 51.356L256.548 49.7863L252.477 46.572L251.238 48.1417ZM256.684 51.2261L262.256 44.7975L260.744 43.4876L255.173 49.9162L256.684 51.2261Z" fill="#0C0748"/>
</g>
<g filter="url(#filter1_dd_31_1213)">
<rect x="24" y="84" width="265" height="52" rx="16" fill="white"/>
<path d="M43.3477 104.431V115H46.9731C50.1152 115 51.9609 113.044 51.9609 109.712C51.9609 106.387 50.1079 104.431 46.9731 104.431H43.3477ZM44.666 105.618H46.8853C49.229 105.618 50.6133 107.141 50.6133 109.727C50.6133 112.305 49.2437 113.813 46.8853 113.813H44.666V105.618ZM57.0896 115.139C59.3381 115.139 60.7297 113.586 60.7297 111.052C60.7297 108.511 59.3381 106.965 57.0896 106.965C54.8411 106.965 53.4495 108.511 53.4495 111.052C53.4495 113.586 54.8411 115.139 57.0896 115.139ZM57.0896 114.004C55.5954 114.004 54.7532 112.92 54.7532 111.052C54.7532 109.177 55.5954 108.101 57.0896 108.101C58.5837 108.101 59.426 109.177 59.426 111.052C59.426 112.92 58.5837 114.004 57.0896 114.004ZM67.1345 117.856C68.5334 117.856 69.1633 117.314 69.8371 115.483L72.9206 107.104H71.5803L69.4196 113.601H69.3025L67.1345 107.104H65.7722L68.6946 115.007L68.5481 115.476C68.2185 116.428 67.823 116.772 67.0979 116.772C66.9221 116.772 66.7243 116.765 66.5705 116.736V117.812C66.7463 117.842 66.966 117.856 67.1345 117.856ZM77.3169 115.139C79.5654 115.139 80.957 113.586 80.957 111.052C80.957 108.511 79.5654 106.965 77.3169 106.965C75.0683 106.965 73.6767 108.511 73.6767 111.052C73.6767 113.586 75.0683 115.139 77.3169 115.139ZM77.3169 114.004C75.8227 114.004 74.9804 112.92 74.9804 111.052C74.9804 109.177 75.8227 108.101 77.3169 108.101C78.811 108.101 79.6533 109.177 79.6533 111.052C79.6533 112.92 78.811 114.004 77.3169 114.004ZM85.9465 118.032C88.0998 118.032 89.4621 116.904 89.4621 115.139V107.104H88.2609V108.357H88.1437C87.6896 107.507 86.7155 106.965 85.6096 106.965C83.5808 106.965 82.299 108.569 82.299 110.935C82.299 113.301 83.5661 114.883 85.6096 114.883C86.6936 114.883 87.5871 114.392 88.0852 113.521H88.2023V115.073C88.2023 116.238 87.3601 116.934 85.9465 116.934C84.8112 116.934 84.1081 116.516 83.9689 115.872H82.6359C82.8264 117.175 84.0422 118.032 85.9465 118.032ZM85.8879 113.77C84.423 113.77 83.6027 112.656 83.6027 110.935C83.6027 109.214 84.423 108.101 85.8879 108.101C87.3454 108.101 88.2316 109.214 88.2316 110.935C88.2316 112.656 87.3527 113.77 85.8879 113.77ZM93.7924 115.139C94.8471 115.139 95.7114 114.678 96.2241 113.835H96.3413V115H97.5424V109.595C97.5424 107.954 96.4658 106.965 94.5395 106.965C92.8549 106.965 91.6098 107.8 91.4413 109.067H92.7158C92.8915 108.445 93.5507 108.086 94.4955 108.086C95.6747 108.086 96.2827 108.621 96.2827 109.595V110.312L94.0048 110.452C92.1664 110.562 91.1264 111.375 91.1264 112.788C91.1264 114.231 92.2617 115.139 93.7924 115.139ZM94.0268 114.033C93.1113 114.033 92.4301 113.564 92.4301 112.759C92.4301 111.968 92.9575 111.55 94.1586 111.47L96.2827 111.331V112.056C96.2827 113.184 95.3232 114.033 94.0268 114.033ZM108.854 112.957C108.525 113.652 107.836 114.026 106.818 114.026C105.478 114.026 104.606 113.037 104.54 111.477V111.418H110.217V110.935C110.217 108.481 108.92 106.965 106.789 106.965C104.621 106.965 103.229 108.577 103.229 111.06C103.229 113.557 104.599 115.139 106.789 115.139C108.518 115.139 109.748 114.304 110.114 112.957H108.854ZM106.774 108.079C108.027 108.079 108.862 109.001 108.891 110.4H104.54C104.636 109.001 105.515 108.079 106.774 108.079ZM114.452 112.041L116.319 115.022H117.814L115.096 111.023L117.777 107.126H116.349L114.496 110.063H114.379L112.504 107.126H111.002L113.734 111.074L111.031 115.022H112.46L114.335 112.041H114.452ZM124.151 112.957C123.821 113.652 123.133 114.026 122.115 114.026C120.774 114.026 119.903 113.037 119.837 111.477V111.418H125.513V110.935C125.513 108.481 124.217 106.965 122.085 106.965C119.917 106.965 118.526 108.577 118.526 111.06C118.526 113.557 119.895 115.139 122.085 115.139C123.814 115.139 125.044 114.304 125.411 112.957H124.151ZM122.071 108.079C123.323 108.079 124.158 109.001 124.187 110.4H119.837C119.932 109.001 120.811 108.079 122.071 108.079ZM127.251 115H128.51V110.107C128.51 108.994 129.382 108.188 130.583 108.188C130.832 108.188 131.286 108.232 131.389 108.262V107.002C131.228 106.98 130.964 106.965 130.759 106.965C129.712 106.965 128.803 107.507 128.569 108.276H128.452V107.104H127.251V115ZM139.037 109.521C138.817 108.115 137.645 106.965 135.726 106.965C133.515 106.965 132.108 108.562 132.108 111.023C132.108 113.535 133.522 115.139 135.734 115.139C137.631 115.139 138.81 114.07 139.037 112.62H137.763C137.528 113.513 136.788 114.004 135.726 114.004C134.32 114.004 133.412 112.847 133.412 111.023C133.412 109.236 134.306 108.101 135.726 108.101C136.862 108.101 137.558 108.738 137.763 109.521H139.037ZM141.317 105.581C141.8 105.581 142.195 105.186 142.195 104.702C142.195 104.219 141.8 103.823 141.317 103.823C140.833 103.823 140.438 104.219 140.438 104.702C140.438 105.186 140.833 105.581 141.317 105.581ZM140.687 115H141.946V107.104H140.687V115ZM143.926 109.265C143.926 110.408 144.599 111.045 146.079 111.404L147.434 111.733C148.276 111.938 148.686 112.305 148.686 112.847C148.686 113.572 147.925 114.077 146.863 114.077C145.852 114.077 145.222 113.652 145.01 112.986H143.713C143.852 114.297 145.061 115.139 146.819 115.139C148.613 115.139 149.983 114.165 149.983 112.751C149.983 111.616 149.265 110.972 147.778 110.613L146.562 110.32C145.632 110.093 145.193 109.756 145.193 109.214C145.193 108.511 145.925 108.035 146.863 108.035C147.815 108.035 148.43 108.452 148.598 109.082H149.844C149.675 107.786 148.525 106.965 146.87 106.965C145.193 106.965 143.926 107.954 143.926 109.265ZM156.95 112.957C156.62 113.652 155.932 114.026 154.914 114.026C153.573 114.026 152.702 113.037 152.636 111.477V111.418H158.312V110.935C158.312 108.481 157.016 106.965 154.884 106.965C152.716 106.965 151.325 108.577 151.325 111.06C151.325 113.557 152.694 115.139 154.884 115.139C156.613 115.139 157.843 114.304 158.21 112.957H156.95ZM154.87 108.079C156.122 108.079 156.957 109.001 156.986 110.4H152.636C152.731 109.001 153.61 108.079 154.87 108.079ZM159.867 109.265C159.867 110.408 160.54 111.045 162.02 111.404L163.375 111.733C164.217 111.938 164.627 112.305 164.627 112.847C164.627 113.572 163.866 114.077 162.804 114.077C161.793 114.077 161.163 113.652 160.951 112.986H159.654C159.793 114.297 161.002 115.139 162.76 115.139C164.554 115.139 165.924 114.165 165.924 112.751C165.924 111.616 165.206 110.972 163.719 110.613L162.503 110.32C161.573 110.093 161.134 109.756 161.134 109.214C161.134 108.511 161.866 108.035 162.804 108.035C163.756 108.035 164.371 108.452 164.539 109.082H165.785C165.616 107.786 164.466 106.965 162.811 106.965C161.134 106.965 159.867 107.954 159.867 109.265Z" fill="#9E9CAC"/>
<path d="M42 110.459H166.715V111.338H42V110.459Z" fill="#9E9CAC"/>
<rect x="243" y="96" width="28" height="28" rx="14" fill="#FFCBAD"/>
<path d="M252.477 108.572C252.043 108.23 251.415 108.304 251.072 108.737C250.73 109.171 250.804 109.8 251.238 110.142L252.477 108.572ZM255.929 112.571L255.309 113.356L256.059 113.948L256.684 113.226L255.929 112.571ZM262.256 106.798C262.617 106.38 262.572 105.749 262.155 105.387C261.738 105.025 261.106 105.07 260.744 105.488L262.256 106.798ZM251.238 110.142L255.309 113.356L256.548 111.786L252.477 108.572L251.238 110.142ZM256.684 113.226L262.256 106.798L260.744 105.488L255.173 111.916L256.684 113.226Z" fill="#0C0748"/>
</g>
<defs>
<filter id="filter0_dd_31_1213" x="0" y="0" width="313" height="100" filterUnits="userSpaceOnUse" color-interpolation-filters="sRGB">
<feFlood flood-opacity="0" result="BackgroundImageFix"/>
<feColorMatrix in="SourceAlpha" type="matrix" values="0 0 0 0 0 0 0 0 0 0 0 0 0 0 0 0 0 0 127 0" result="hardAlpha"/>
<feOffset dy="2"/>
<feGaussianBlur stdDeviation="12"/>
<feColorMatrix type="matrix" values="0 0 0 0 0 0 0 0 0 0 0 0 0 0 0 0 0 0 0.08 0"/>
<feBlend mode="normal" in2="BackgroundImageFix" result="effect1_dropShadow_31_1213"/>
<feColorMatrix in="SourceAlpha" type="matrix" values="0 0 0 0 0 0 0 0 0 0 0 0 0 0 0 0 0 0 127 0" result="hardAlpha"/>
<feOffset/>
<feGaussianBlur stdDeviation="1"/>
<feColorMatrix type="matrix" values="0 0 0 0 0 0 0 0 0 0 0 0 0 0 0 0 0 0 0.08 0"/>
<feBlend mode="normal" in2="effect1_dropShadow_31_1213" result="effect2_dropShadow_31_1213"/>
<feBlend mode="normal" in="SourceGraphic" in2="effect2_dropShadow_31_1213" result="shape"/>
</filter>
<filter id="filter1_dd_31_1213" x="0" y="62" width="313" height="100" filterUnits="userSpaceOnUse" color-interpolation-filters="sRGB">
<feFlood flood-opacity="0" result="BackgroundImageFix"/>
<feColorMatrix in="SourceAlpha" type="matrix" values="0 0 0 0 0 0 0 0 0 0 0 0 0 0 0 0 0 0 127 0" result="hardAlpha"/>
<feOffset dy="2"/>
<feGaussianBlur stdDeviation="12"/>
<feColorMatrix type="matrix" values="0 0 0 0 0 0 0 0 0 0 0 0 0 0 0 0 0 0 0.08 0"/>
<feBlend mode="normal" in2="BackgroundImageFix" result="effect1_dropShadow_31_1213"/>
<feColorMatrix in="SourceAlpha" type="matrix" values="0 0 0 0 0 0 0 0 0 0 0 0 0 0 0 0 0 0 127 0" result="hardAlpha"/>
<feOffset/>
<feGaussianBlur stdDeviation="1"/>
<feColorMatrix type="matrix" values="0 0 0 0 0 0 0 0 0 0 0 0 0 0 0 0 0 0 0.08 0"/>
<feBlend mode="normal" in2="effect1_dropShadow_31_1213" result="effect2_dropShadow_31_1213"/>
<feBlend mode="normal" in="SourceGraphic" in2="effect2_dropShadow_31_1213" result="shape"/>
</filter>
</defs>
</svg>
