<svg width="150" height="39" fill="none" xmlns="http://www.w3.org/2000/svg"><path fill-rule="evenodd" clip-rule="evenodd" d="M19.342 0a7.168 7.168 0 01-1.637 5.13 6.016 6.016 0 01-4.75 2.248 6.82 6.82 0 011.679-4.939A7.273 7.273 0 0119.342 0zm5.832 10.916a7.274 7.274 0 00-3.46 6.101h.002A7.027 7.027 0 0026 23.482a16.102 16.102 0 01-2.228 4.545c-1.313 1.966-2.69 3.886-4.874 3.922-1.038.023-1.74-.276-2.47-.587-.762-.325-1.556-.664-2.8-.664-1.318 0-2.148.35-2.948.687-.691.29-1.36.573-2.304.612-2.081.078-3.67-2.098-5.03-4.045-2.719-3.978-4.837-11.21-1.998-16.13a7.798 7.798 0 016.564-4.008c1.18-.024 2.311.431 3.304.83.759.305 1.437.578 1.991.578.488 0 1.147-.262 1.915-.567 1.209-.48 2.688-1.068 4.195-.91a7.433 7.433 0 015.857 3.171z" fill="#0C0748"/><path d="M43.408 16.756H46.6l6.6 17.136h-3.216l-1.608-4.536h-6.84l-1.608 4.536h-3.096l6.576-17.136zm-1.056 10.32h5.232l-2.568-7.368h-.072l-2.592 7.368zm12.408-5.592h2.592v1.68h.048c.384-.72.92-1.232 1.608-1.536a5.227 5.227 0 012.232-.48c.976 0 1.824.176 2.544.528a4.849 4.849 0 011.824 1.416c.48.592.84 1.288 1.08 2.088.24.8.36 1.656.36 2.568a8.78 8.78 0 01-.336 2.424 6.132 6.132 0 01-.984 2.088 4.977 4.977 0 01-1.656 1.44c-.672.352-1.464.528-2.376.528-.4 0-.8-.04-1.2-.12a4.766 4.766 0 01-1.152-.336 5.11 5.11 0 01-1.032-.6 3.7 3.7 0 01-.768-.888h-.048v6.192H54.76V21.484zm9.552 6.216c0-.56-.072-1.104-.216-1.632a4.29 4.29 0 00-.648-1.392 3.176 3.176 0 00-1.08-.984c-.432-.256-.928-.384-1.488-.384-1.152 0-2.024.4-2.616 1.2-.576.8-.864 1.864-.864 3.192 0 .624.072 1.208.216 1.752.16.528.392.984.696 1.368a3.46 3.46 0 001.08.912c.432.224.928.336 1.488.336.624 0 1.152-.128 1.584-.384a3.279 3.279 0 001.056-.984c.288-.416.488-.88.6-1.392a6.801 6.801 0 00.192-1.608zm5.36-6.216h2.592v1.68h.048c.384-.72.92-1.232 1.608-1.536a5.227 5.227 0 012.232-.48c.976 0 1.824.176 2.544.528a4.849 4.849 0 011.824 1.416c.48.592.84 1.288 1.08 2.088.24.8.36 1.656.36 2.568a8.78 8.78 0 01-.336 2.424 6.132 6.132 0 01-.984 2.088 4.977 4.977 0 01-1.656 1.44c-.672.352-1.464.528-2.376.528-.4 0-.8-.04-1.2-.12a4.766 4.766 0 01-1.152-.336 5.11 5.11 0 01-1.032-.6 3.7 3.7 0 01-.768-.888h-.048v6.192h-2.736V21.484zm9.552 6.216c0-.56-.072-1.104-.216-1.632a4.29 4.29 0 00-.648-1.392 3.176 3.176 0 00-1.08-.984c-.432-.256-.928-.384-1.488-.384-1.152 0-2.024.4-2.616 1.2-.576.8-.864 1.864-.864 3.192 0 .624.072 1.208.216 1.752.16.528.392.984.696 1.368a3.46 3.46 0 001.08.912c.432.224.928.336 1.488.336.624 0 1.152-.128 1.584-.384a3.279 3.279 0 001.056-.984c.288-.416.488-.88.6-1.392a6.801 6.801 0 00.192-1.608zm14.559.48c0 .656.112 1.216.336 1.68.224.464.536.848.936 1.152.4.288.856.504 1.368.648a7.219 7.219 0 001.704.192c.656 0 1.216-.072 1.68-.216.464-.16.84-.36 1.128-.6.288-.24.496-.512.624-.816.128-.32.192-.64.192-.96 0-.656-.152-1.136-.456-1.44a2.393 2.393 0 00-.96-.672 18.454 18.454 0 00-2.136-.624c-.8-.208-1.792-.472-2.976-.792-.736-.192-1.352-.44-1.848-.744a4.625 4.625 0 01-1.152-1.056 3.858 3.858 0 01-.624-1.224 5.239 5.239 0 01-.168-1.32c0-.864.176-1.608.528-2.232a4.887 4.887 0 011.44-1.584 6.092 6.092 0 012.016-.912 8.516 8.516 0 012.28-.312c.896 0 1.736.12 2.52.36.8.224 1.496.568 2.088 1.032a5.023 5.023 0 011.44 1.728c.352.672.528 1.456.528 2.352h-3c-.08-1.104-.456-1.88-1.128-2.328-.672-.464-1.528-.696-2.568-.696-.352 0-.712.04-1.08.12a3.03 3.03 0 00-1.008.36c-.304.16-.56.384-.768.672-.192.288-.288.648-.288 1.08 0 .608.184 1.088.552 1.44.384.336.88.592 1.488.768.064.016.312.088.744.216a112.24 112.24 0 013.072.816c.528.128.904.224 1.128.288a5 5 0 011.464.72c.416.304.76.656 1.032 1.056.288.384.496.8.624 1.248.144.448.216.896.216 1.344 0 .96-.2 1.784-.6 2.472a4.912 4.912 0 01-1.536 1.656 6.543 6.543 0 01-2.184.936c-.816.208-1.648.312-2.496.312-.976 0-1.896-.12-2.76-.36-.864-.24-1.616-.608-2.256-1.104a5.43 5.43 0 01-1.536-1.896c-.384-.784-.584-1.704-.6-2.76h3zm12.203-6.696h2.064v-3.72h2.736v3.72h2.472v2.04h-2.472v6.624c0 .288.008.536.024.744.032.208.088.384.168.528a.947.947 0 00.408.336c.176.064.416.096.72.096h.576c.192-.016.384-.048.576-.096v2.112l-.888.096a8.038 8.038 0 01-.888.048c-.72 0-1.304-.064-1.752-.192-.432-.144-.776-.344-1.032-.6a2.308 2.308 0 01-.504-1.008c-.08-.4-.128-.856-.144-1.368v-7.32h-2.064v-2.04zm15.168 12.744c-.992 0-1.88-.16-2.664-.48a5.953 5.953 0 01-1.968-1.368 6.043 6.043 0 01-1.224-2.064c-.272-.8-.408-1.68-.408-2.64 0-.944.136-1.816.408-2.616.288-.8.696-1.488 1.224-2.064a5.668 5.668 0 011.968-1.344c.784-.336 1.672-.504 2.664-.504.992 0 1.872.168 2.64.504.784.32 1.44.768 1.968 1.344a5.576 5.576 0 011.224 2.064c.288.8.432 1.672.432 2.616 0 .96-.144 1.84-.432 2.64-.272.8-.68 1.488-1.224 2.064a5.641 5.641 0 01-1.968 1.368c-.768.32-1.648.48-2.64.48zm0-2.16c.608 0 1.136-.128 1.584-.384a3.338 3.338 0 001.104-1.008c.288-.416.496-.88.624-1.392a5.997 5.997 0 000-3.192 3.945 3.945 0 00-.624-1.392 3.338 3.338 0 00-1.104-1.008c-.448-.256-.976-.384-1.584-.384-.608 0-1.136.128-1.584.384a3.338 3.338 0 00-1.104 1.008 4.29 4.29 0 00-.648 1.392 6.702 6.702 0 000 3.192c.144.512.36.976.648 1.392.288.416.656.752 1.104 1.008.448.256.976.384 1.584.384zm8.779-10.584h2.568v2.4h.048c.08-.336.232-.664.456-.984.24-.32.52-.608.84-.864a4.259 4.259 0 011.104-.648c.4-.16.808-.24 1.224-.24.32 0 .536.008.648.024l.384.048v2.64a6.843 6.843 0 00-.6-.072 3.498 3.498 0 00-.576-.048c-.464 0-.904.096-1.32.288-.4.176-.752.448-1.056.816-.304.352-.544.792-.72 1.32-.176.528-.264 1.136-.264 1.824v5.904h-2.736V21.484zm16.775 5.112a4.17 4.17 0 00-.288-1.248 2.925 2.925 0 00-.624-1.032 2.712 2.712 0 00-.96-.72 2.657 2.657 0 00-1.248-.288c-.48 0-.92.088-1.32.264-.384.16-.72.392-1.008.696a3.595 3.595 0 00-.672 1.032c-.16.4-.248.832-.264 1.296h6.384zm-6.384 1.8c0 .48.064.944.192 1.392.144.448.352.84.624 1.176.272.336.616.608 1.032.816.416.192.912.288 1.488.288.8 0 1.44-.168 1.92-.504.496-.352.864-.872 1.104-1.56h2.592a5.159 5.159 0 01-.744 1.8 5.36 5.36 0 01-1.272 1.344 5.418 5.418 0 01-1.68.792 6.338 6.338 0 01-1.92.288c-.976 0-1.84-.16-2.592-.48a5.477 5.477 0 01-1.92-1.344 5.945 5.945 0 01-1.176-2.064c-.256-.8-.384-1.68-.384-2.64 0-.88.136-1.712.408-2.496.288-.8.688-1.496 1.2-2.088a5.793 5.793 0 011.896-1.44c.736-.352 1.568-.528 2.496-.528.976 0 1.848.208 2.616.624.784.4 1.432.936 1.944 1.608s.88 1.448 1.104 2.328c.24.864.304 1.76.192 2.688h-9.12zM41 .354V7.54h2.578c2.128 0 3.36-1.32 3.36-3.615 0-2.262-1.242-3.571-3.36-3.571H41zm1.108 1.016h1.346c1.48 0 2.356.946 2.356 2.57 0 1.648-.861 2.584-2.356 2.584h-1.346V1.37zm8.603 6.275c1.574 0 2.539-1.06 2.539-2.819 0-1.748-.97-2.814-2.539-2.814-1.573 0-2.543 1.066-2.543 2.814 0 1.758.965 2.819 2.543 2.819zm0-.951c-.925 0-1.445-.683-1.445-1.868 0-1.175.52-1.863 1.445-1.863.92 0 1.445.688 1.445 1.863 0 1.18-.524 1.868-1.445 1.868zm10.756-4.577h-1.064l-.96 4.138h-.084L58.25 2.117h-1.019l-1.108 4.138h-.08l-.964-4.138h-1.08l1.485 5.423h1.094l1.108-3.994h.084l1.114 3.994h1.103l1.48-5.423zm1.225 5.423h1.064V4.368c0-.847.5-1.375 1.286-1.375.787 0 1.163.434 1.163 1.305V7.54h1.064V4.03c0-1.29-.663-2.018-1.866-2.018-.811 0-1.345.364-1.608.966h-.079v-.861h-1.024V7.54zm6.252 0h1.064V0h-1.064v7.54zm5.066.105c1.573 0 2.538-1.06 2.538-2.819 0-1.748-.97-2.814-2.539-2.814-1.573 0-2.543 1.066-2.543 2.814 0 1.758.965 2.819 2.543 2.819zm0-.951c-.926 0-1.446-.683-1.446-1.868 0-1.175.52-1.863 1.445-1.863.92 0 1.445.688 1.445 1.863 0 1.18-.524 1.868-1.445 1.868zm5.708.035c-.58 0-1-.284-1-.772 0-.478.337-.732 1.079-.782l1.316-.085v.453c0 .673-.594 1.186-1.395 1.186zm-.273.901c.708 0 1.297-.309 1.619-.852h.084v.762h1.024V3.835c0-1.146-.762-1.823-2.113-1.823-1.222 0-2.093.598-2.202 1.53h1.03c.118-.384.529-.604 1.123-.604.727 0 1.103.324 1.103.897v.468l-1.46.085c-1.281.08-2.004.642-2.004 1.618 0 .992.757 1.624 1.796 1.624zm6.337 0c.742 0 1.37-.354 1.692-.946h.084v.856h1.02V0h-1.064v2.978h-.08c-.291-.597-.915-.951-1.652-.951-1.36 0-2.236 1.086-2.236 2.8 0 1.717.865 2.803 2.236 2.803zm.302-4.642c.89 0 1.45.712 1.45 1.843 0 1.136-.555 1.838-1.45 1.838-.9 0-1.44-.692-1.44-1.843 0-1.14.544-1.838 1.44-1.838zm9.393 4.657c1.573 0 2.538-1.06 2.538-2.819 0-1.748-.97-2.814-2.538-2.814-1.574 0-2.544 1.066-2.544 2.814 0 1.758.965 2.819 2.544 2.819zm0-.951c-.926 0-1.445-.683-1.445-1.868 0-1.175.52-1.863 1.445-1.863.92 0 1.444.688 1.444 1.863 0 1.18-.524 1.868-1.444 1.868zm3.946.846h1.064V4.368c0-.847.5-1.375 1.287-1.375.786 0 1.162.434 1.162 1.305V7.54H104V4.03c0-1.29-.663-2.018-1.865-2.018-.812 0-1.346.364-1.608.966h-.079v-.861h-1.025V7.54zM108.9.767v1.375h-.856v.901h.856v3.063c0 1.046.47 1.464 1.653 1.464.208 0 .405-.025.579-.054v-.892c-.149.015-.243.025-.406.025-.53 0-.762-.25-.762-.817V3.043h1.168v-.901h-1.168V.767H108.9zm3.66 6.773h1.064V4.373c0-.822.484-1.375 1.355-1.375.752 0 1.153.439 1.153 1.305V7.54h1.064v-3.5c0-1.29-.707-2.023-1.855-2.023-.812 0-1.381.364-1.643.971h-.084V0h-1.054v7.54zm8.474-4.616c.787 0 1.301.552 1.326 1.404h-2.721c.059-.847.608-1.404 1.395-1.404zm1.321 3.152c-.198.424-.638.658-1.281.658-.852 0-1.401-.603-1.435-1.554v-.06h3.805v-.374c0-1.703-.906-2.734-2.405-2.734-1.519 0-2.484 1.1-2.484 2.834 0 1.733.945 2.799 2.489 2.799 1.232 0 2.093-.598 2.335-1.569h-1.024z" fill="#0C0748"/></svg>