<svg width="30" height="30" fill="none" xmlns="http://www.w3.org/2000/svg"><path d="M15 .6C7.048.6.6 7.048.6 15c0 7.953 6.448 14.4 14.4 14.4 7.953 0 14.4-6.447 14.4-14.4C29.4 7.048 22.953.6 15 .6zm7.757 11.442c.007.16.01.318.01.476 0 4.882-3.713 10.508-10.506 10.508a10.43 10.43 0 01-5.66-1.66c.288.035.582.05.881.05a7.389 7.389 0 004.585-1.581 3.697 3.697 0 01-3.45-2.565 3.686 3.686 0 001.668-.063 3.694 3.694 0 01-2.963-3.62v-.047a3.67 3.67 0 001.673.462 3.692 3.692 0 01-1.642-3.074c0-.678.18-1.312.499-1.856a10.485 10.485 0 007.611 3.86 3.694 3.694 0 016.293-3.368 7.423 7.423 0 002.346-.898 3.708 3.708 0 01-1.625 2.044 7.38 7.38 0 002.122-.58 7.445 7.445 0 01-1.842 1.912z" fill="#0C0748"/></svg>