<svg width="418" height="348" fill="none" xmlns="http://www.w3.org/2000/svg"><g filter="url(#filter0_dd_412_2857)"><g clip-path="url(#clip0_412_2857)"><rect x="24" y="22" width="370" height="300" rx="23.68" fill="#fff"/><path d="M42.879 206.051h7.619l.213-.213v-1.172l-.213-.214h-.853c-.533 0-1.065-.532-1.065-1.065v-13.32c0-.533.532-1.066 1.065-1.066h.853l.213-.213v-1.172l-.213-.213h-7.62l-.212.213v1.172l.213.213h.852c.533 0 1.066.533 1.066 1.066v13.32c0 .533-.533 1.065-1.066 1.065h-.852l-.213.214v1.172l.213.213zm14.948.373c2.397 0 3.33-1.545 3.756-2.851l-.106-.213-.533-.213-.213.08c-.373.719-.906 1.172-1.732 1.172-.852 0-1.519-.533-1.519-1.625v-8.178h3.357l.213-.214v-1.278l-.213-.213H57.48v-3.464l-.213-.213h-.453l-5.035 4.582v.586l.214.214h1.971v7.938c0 2.771 1.838 3.89 3.863 3.89zm6.248-12.761h1.812l.266-.266.533-5.728-.266-.266h-2.878l-.266.266.533 5.728.266.266zm8.986 12.761c2.61 0 5.008-1.386 5.008-4.289 0-2.265-1.572-3.17-3.383-3.916-1.918-.8-2.824-1.492-2.824-2.611 0-1.039.826-1.625 1.732-1.625 1.465 0 2.05 1.092 2.184 2.531l.213.213h1.012l.214-.213-.134-2.984-.186-.266c-.906-.48-1.945-.746-3.277-.746-2.744 0-4.848 1.598-4.848 4.076 0 1.838 1.225 3.09 3.89 4.102 1.518.586 2.157 1.119 2.157 2.398 0 .906-.506 1.891-1.918 1.891-1.545 0-2.451-1.119-2.451-2.93l-.213-.213h-.906l-.213.213-.72 2.93.134.267c1.012.639 2.557 1.172 4.529 1.172zm21.771 0c2.957 0 6.234-2.078 6.234-6.953 0-4.369-3.117-6.953-6.34-6.953-1.918 0-3.33.905-3.996 1.758v-4.689l.266-2.504-.213-.213h-.853l-4.102 1.572-.213.213v.719l.213.213h.32c.532 0 1.065.533 1.065 1.066v12.734c0 .533-.533 1.065-1.065 1.065h-.32l-.213.214v1.172l.213.213h4.848l.213-.213v-1.039c.96.959 2.238 1.625 3.943 1.625zm-.772-1.758c-2.371 0-3.33-2.345-3.33-5.195 0-2.851.959-5.195 3.33-5.195 2.37 0 3.33 2.344 3.33 5.195 0 2.85-.96 5.195-3.33 5.195zm15.839 1.758c3.223 0 5.647-1.918 6.5-4.902l-.08-.213-.4-.16-.213.107c-1.145 1.731-2.797 2.664-5.035 2.664-2.717 0-4.475-1.812-4.475-4.156h9.91l.213-.213c0-3.73-2.051-7.033-6.5-7.033-3.916 0-6.953 2.93-6.953 6.846 0 3.996 2.877 7.06 7.033 7.06zm-3.49-8.365l-.213-.213c.133-1.972 1.545-3.623 3.649-3.623 1.785 0 2.984 1.119 2.984 2.85 0 .48-.24.986-1.066.986h-5.354zm18.839 8.365c3.223 0 5.648-1.918 6.5-4.902l-.08-.213-.399-.16-.214.107c-1.145 1.731-2.797 2.664-5.035 2.664-2.717 0-4.475-1.812-4.475-4.156h9.91l.213-.213c0-3.73-2.051-7.033-6.5-7.033-3.916 0-6.953 2.93-6.953 6.846 0 3.996 2.877 7.06 7.033 7.06zm-3.49-8.365l-.213-.213c.133-1.972 1.545-3.623 3.65-3.623 1.784 0 2.983 1.119 2.983 2.85 0 .48-.239.986-1.065.986h-5.355zm12.019 7.992h6.287l.213-.213v-1.172l-.213-.214h-.319c-.533 0-1.066-.532-1.066-1.065v-5.248c0-2.185 1.305-3.49 2.984-3.49 1.438 0 2.504.799 2.504 2.557v6.181c0 .533-.533 1.065-1.066 1.065h-.319l-.214.214v1.172l.214.213h6.287l.213-.213v-1.172l-.213-.214h-.32c-.533 0-1.066-.532-1.066-1.065v-6.314c0-3.063-1.918-4.555-4.688-4.555-2.052 0-3.623.959-4.582 2.371l.266-1.785-.213-.213h-.853l-3.889 1.571-.16.214v.719l.213.213h.32c.533 0 1.066.533 1.066 1.066v6.713c0 .533-.533 1.065-1.066 1.065h-.32l-.213.214v1.172l.213.213zm29.306.373c1.971 0 3.224-.826 4.209-2.105v1.785l.213.213h.853l3.676-1.572.213-.213v-.719l-.213-.213h-.32c-.532 0-1.065-.533-1.065-1.066v-9.43l-.213-.213h-1.092l-1.306 1.705h-.133c-.746-.906-2.025-2.078-4.396-2.078-3.436 0-6.713 2.504-6.713 7.086 0 4.289 2.824 6.82 6.287 6.82zm.693-1.758c-2.371 0-3.357-2.345-3.357-5.195 0-2.851.986-5.195 3.357-5.195 2.371 0 3.356 2.344 3.356 5.195 0 2.85-.985 5.195-3.356 5.195zm28.965-10.204v-1.332l-.24-.239h-4.502a6.93 6.93 0 00-2.318-.373c-3.303 0-5.727 2.211-5.727 4.981 0 1.705.932 3.091 2.211 3.943l-2.531 3.144v1.465l.213.16h1.705c-1.172.692-1.705 1.758-1.705 2.744 0 1.918 1.678 3.489 5.435 3.489 3.783 0 7.299-1.998 7.299-5.141 0-2.238-1.332-3.81-4.662-3.81h-5.035l.986-1.278c.559.186 1.012.266 1.811.266 3.277 0 5.728-2.238 5.728-4.982 0-1.065-.373-1.998-.959-2.797h2.051l.24-.24zm-7.06 6.367c-1.492 0-2.451-1.252-2.451-3.33 0-2.078.959-3.33 2.451-3.33 1.466 0 2.425 1.252 2.425 3.33 0 2.078-.959 3.33-2.425 3.33zm-1.811 5.382h2.983c1.785 0 2.398.905 2.398 1.918 0 1.278-1.225 2.584-3.436 2.584-2.078 0-3.251-.933-3.251-2.318 0-.932.533-1.785 1.306-2.184zm10.524-.16h6.287l.213-.213v-1.172l-.213-.214h-.32c-.533 0-1.066-.532-1.066-1.065v-4.742c0-1.865.666-3.383 1.705-4.023a1.975 1.975 0 001.998 1.892c1.146 0 1.998-.879 1.998-1.972 0-1.145-.905-2.024-2.211-2.024-1.731 0-3.063 1.119-3.756 2.61l.266-2.024-.213-.213h-.852l-3.89 1.571-.159.214v.719l.213.213h.319c.533 0 1.066.533 1.066 1.066v6.713c0 .533-.533 1.065-1.066 1.065h-.319l-.213.214v1.172l.213.213zm18.344.373c3.224 0 5.648-1.918 6.501-4.902l-.08-.213-.4-.16-.213.107c-1.146 1.731-2.797 2.664-5.035 2.664-2.717 0-4.476-1.812-4.476-4.156h9.911l.213-.213c0-3.73-2.052-7.033-6.501-7.033-3.916 0-6.953 2.93-6.953 6.846 0 3.996 2.878 7.06 7.033 7.06zm-3.489-8.365l-.214-.213c.134-1.972 1.546-3.623 3.65-3.623 1.785 0 2.984 1.119 2.984 2.85 0 .48-.24.986-1.066.986h-5.354zm18.093 8.365c1.971 0 3.223-.826 4.209-2.105v1.785l.213.213h.852l3.677-1.572.213-.213v-.719l-.213-.213h-.32c-.533 0-1.066-.533-1.066-1.066v-9.43l-.213-.213h-1.092l-1.305 1.705h-.133c-.746-.906-2.025-2.078-4.396-2.078-3.437 0-6.713 2.504-6.713 7.086 0 4.289 2.823 6.82 6.287 6.82zm.692-1.758c-2.371 0-3.356-2.345-3.356-5.195 0-2.851.985-5.195 3.356-5.195s3.357 2.344 3.357 5.195c0 2.85-.986 5.195-3.357 5.195zm15.154 1.758c2.398 0 3.33-1.545 3.756-2.851l-.106-.213-.533-.213-.213.08c-.373.719-.906 1.172-1.732 1.172-.852 0-1.518-.533-1.518-1.625v-8.178h3.356l.214-.214v-1.278l-.214-.213h-3.356v-3.464l-.213-.213h-.453l-5.035 4.582v.586l.213.214h1.971v7.938c0 2.771 1.838 3.89 3.863 3.89zM48.819 238.051h.56l.293-.267 3.25-7.725 3.25 7.725.266.267h.533l.267-.267 4.662-10.496c.186-.453.532-.799 1.065-.799h.72l.213-.213v-1.172l-.214-.213h-5.008l-.213.213v1.172l.213.213h.853c.452 0 .666.266.666.639 0 .134-.027.267-.08.427l-2.398 5.381-2.264-5.381a.71.71 0 01-.08-.32c0-.4.32-.746.746-.746h.532l.214-.213v-1.172l-.214-.213h-5.54l-.107.213v1.172l.106.213h.533c.426 0 .72.346.72.746 0 .107 0 .213-.054.32l-2.158 5.141-2.184-5.141c-.08-.16-.08-.32-.08-.453 0-.373.213-.613.693-.613h.852l.213-.213v-1.172l-.213-.213h-7.14l-.213.213v1.172l.214.213h.586c.426 0 .772.16 1.065.799l4.636 10.496.24.267zm22.42.373c3.224 0 5.648-1.918 6.5-4.902l-.08-.213-.399-.16-.213.107c-1.146 1.731-2.797 2.664-5.035 2.664-2.717 0-4.475-1.812-4.475-4.156h9.91l.213-.213c0-3.73-2.052-7.033-6.5-7.033-3.917 0-6.953 2.93-6.953 6.846 0 3.996 2.877 7.06 7.032 7.06zm-3.49-8.365l-.212-.213c.133-1.972 1.545-3.623 3.65-3.623 1.784 0 2.983 1.119 2.983 2.85 0 .48-.24.986-1.066.986H67.75zm18.84 8.365c3.223 0 5.647-1.918 6.5-4.902l-.08-.213-.4-.16-.213.107c-1.145 1.731-2.797 2.664-5.035 2.664-2.717 0-4.475-1.812-4.475-4.156h9.91l.213-.213c0-3.73-2.051-7.033-6.5-7.033-3.916 0-6.953 2.93-6.953 6.846 0 3.996 2.877 7.06 7.033 7.06zm-3.49-8.365l-.213-.213c.133-1.972 1.545-3.623 3.65-3.623 1.784 0 2.983 1.119 2.983 2.85 0 .48-.24.986-1.066.986H83.1zm11.496 7.992h6.287l.213-.213v-1.172l-.213-.214h-.319c-.533 0-1.066-.532-1.066-1.065v-1.785l1.199-1.146 3.436 5.382.347.213h4.315l.213-.213v-1.172l-.213-.214h-.772c-.4 0-.666-.159-.959-.612l-3.836-5.781 3.09-2.771c.613-.559.826-.799 1.358-.799h.48l.213-.213v-1.172l-.213-.213h-4.875l-.213.213v1.172l.213.213h.533c.319 0 .453.16.453.346 0 .16-.08.32-.24.453l-4.529 4.076v-9.777l.266-2.504-.213-.213h-.852l-4.156 1.572-.16.213v.719l.213.213h.32c.533 0 1.066.533 1.066 1.066v12.734c0 .533-.533 1.065-1.066 1.065h-.32l-.213.214v1.172l.213.213zm17.305-5.861h1.492l.266-.266.959-12.255-.266-.266h-3.41l-.266.266.959 12.255.266.266zm.719 6.234c1.146 0 2.078-.906 2.078-2.025a2.08 2.08 0 00-2.078-2.078c-1.118 0-2.024.933-2.024 2.078 0 1.119.906 2.025 2.024 2.025zm-69.262 38.52h1.366l4.64-9.221v-1.207H42.46v1.163h5.579v.102l-4.683 9.163zm11.058.246c2.342 0 3.686-1.981 3.686-5.442 0-3.454-1.366-5.478-3.686-5.478-2.334 0-3.7 2.016-3.7 5.456 0 3.469 1.351 5.464 3.7 5.464zm0-1.135c-1.54 0-2.392-1.539-2.392-4.329 0-2.753.867-4.314 2.392-4.314s2.378 1.546 2.378 4.314c0 2.797-.839 4.329-2.378 4.329zm7.149-4.82c1.41 0 2.262-.918 2.262-2.457 0-1.518-.86-2.45-2.262-2.45-1.402 0-2.27.932-2.27 2.45 0 1.532.854 2.457 2.27 2.457zm.47 5.709l7.205-10.428H68.06l-7.205 10.428h1.178zm-.47-6.656c-.73 0-1.15-.549-1.15-1.503 0-.947.42-1.503 1.15-1.503.723 0 1.142.556 1.142 1.503 0 .947-.412 1.503-1.142 1.503zm6.973 6.757c1.41 0 2.262-.918 2.262-2.457 0-1.518-.86-2.45-2.262-2.45-1.401 0-2.269.932-2.269 2.45 0 1.532.86 2.457 2.27 2.457zm0-.947c-.73 0-1.141-.549-1.141-1.503 0-.946.412-1.503 1.141-1.503.73 0 1.142.557 1.142 1.503 0 .947-.412 1.503-1.142 1.503zm10.8.983c2.219 0 3.592-1.532 3.592-4.032 0-2.508-1.373-4.033-3.592-4.033-2.218 0-3.591 1.525-3.591 4.033 0 2.5 1.373 4.032 3.591 4.032zm0-1.12c-1.474 0-2.305-1.069-2.305-2.912 0-1.85.831-2.913 2.305-2.913 1.475 0 2.306 1.063 2.306 2.913 0 1.843-.831 2.912-2.306 2.912zm5.827.983h1.243v-6.75h1.785v-1.04h-1.785v-.831c0-.853.375-1.287 1.272-1.287.224 0 .433.007.585.036v-1.011a4.329 4.329 0 00-.838-.073c-1.482 0-2.262.745-2.262 2.298v.868H83.87v1.04h1.294v6.75zm9.065-9.807v2.017h-1.257v1.04h1.257v4.726c0 1.489.643 2.082 2.248 2.082.245 0 .484-.029.73-.073v-1.047a5.418 5.418 0 01-.579.028c-.809 0-1.156-.39-1.156-1.308v-4.408h1.735v-1.04h-1.735v-2.017H94.23zm4.692 9.807h1.243v-4.611c0-1.315.766-2.197 2.161-2.197 1.177 0 1.799.687 1.799 2.067v4.741h1.243V271.9c0-1.829-1.041-2.884-2.688-2.884-1.193 0-2.009.506-2.4 1.366h-.115v-4.321h-1.243v10.883zm13.638-2.016c-.325.686-1.004 1.055-2.009 1.055-1.322 0-2.182-.976-2.247-2.515v-.058h5.6v-.477c0-2.421-1.279-3.917-3.382-3.917-2.139 0-3.512 1.59-3.512 4.04 0 2.464 1.351 4.025 3.512 4.025 1.706 0 2.92-.824 3.281-2.153h-1.243zm-2.052-4.813c1.235 0 2.059.91 2.088 2.291h-4.292c.094-1.381.961-2.291 2.204-2.291zm14.21 4.813c-.325.686-1.004 1.055-2.009 1.055-1.322 0-2.182-.976-2.247-2.515v-.058h5.601v-.477c0-2.421-1.279-3.917-3.382-3.917-2.139 0-3.513 1.59-3.513 4.04 0 2.464 1.352 4.025 3.513 4.025 1.705 0 2.919-.824 3.28-2.153h-1.243zm-2.052-4.813c1.236 0 2.06.91 2.089 2.291h-4.293c.094-1.381.961-2.291 2.204-2.291zm5.111 6.829h1.243v-4.827c0-1.099.788-1.981 1.807-1.981.982 0 1.626.593 1.626 1.518v5.29h1.243v-5.008c0-.99.722-1.8 1.806-1.8 1.099 0 1.641.564 1.641 1.713v5.095h1.243v-5.384c0-1.633-.889-2.544-2.479-2.544-1.077 0-1.966.542-2.385 1.366h-.116c-.361-.809-1.098-1.366-2.153-1.366-1.041 0-1.821.499-2.175 1.366h-.116v-1.228h-1.185v7.79zm15.842.137c2.219 0 3.592-1.532 3.592-4.032 0-2.508-1.373-4.033-3.592-4.033-2.218 0-3.591 1.525-3.591 4.033 0 2.5 1.373 4.032 3.591 4.032zm0-1.12c-1.474 0-2.305-1.069-2.305-2.912 0-1.85.831-2.913 2.305-2.913 1.474 0 2.306 1.063 2.306 2.913 0 1.843-.832 2.912-2.306 2.912zm5.827-8.824v2.017h-1.258v1.04h1.258v4.726c0 1.489.643 2.082 2.247 2.082.246 0 .484-.029.73-.073v-1.047a5.412 5.412 0 01-.578.028c-.81 0-1.156-.39-1.156-1.308v-4.408h1.734v-1.04h-1.734v-2.017h-1.243zm5.269.513a.87.87 0 00.868-.867.87.87 0 00-.868-.867.87.87 0 00-.867.867c0 .477.39.867.867.867zm-.621 9.294h1.243v-7.79h-1.243v7.79zm6.578.137c2.218 0 3.591-1.532 3.591-4.032 0-2.508-1.373-4.033-3.591-4.033-2.219 0-3.592 1.525-3.592 4.033 0 2.5 1.373 4.032 3.592 4.032zm0-1.12c-1.474 0-2.306-1.069-2.306-2.912 0-1.85.832-2.913 2.306-2.913 1.474 0 2.305 1.063 2.305 2.913 0 1.843-.831 2.912-2.305 2.912zm5.306.983h1.243v-4.611c0-1.366.802-2.197 2.045-2.197 1.243 0 1.835.665 1.835 2.067v4.741h1.243V271.9c0-1.85-.975-2.884-2.724-2.884-1.192 0-1.951.506-2.341 1.366h-.116v-1.228h-1.185v7.79zm8.225-5.659c0 1.128.665 1.757 2.125 2.111l1.337.325c.831.202 1.236.563 1.236 1.098 0 .716-.752 1.214-1.8 1.214-.997 0-1.619-.419-1.828-1.076h-1.279c.137 1.293 1.329 2.124 3.064 2.124 1.77 0 3.122-.961 3.122-2.356 0-1.12-.709-1.756-2.176-2.11l-1.199-.289c-.918-.224-1.352-.556-1.352-1.091 0-.694.723-1.164 1.648-1.164.94 0 1.547.412 1.713 1.034h1.228c-.166-1.279-1.3-2.089-2.934-2.089-1.655 0-2.905.976-2.905 2.269zm12.296 8.477c1.38 0 2.002-.535 2.667-2.341l3.042-8.267h-1.323l-2.131 6.41h-.116l-2.139-6.41h-1.344l2.883 7.797-.144.463c-.325.939-.716 1.279-1.431 1.279a3.07 3.07 0 01-.52-.036v1.062c.173.029.39.043.556.043zm10.047-2.681c2.218 0 3.591-1.532 3.591-4.032 0-2.508-1.373-4.033-3.591-4.033-2.219 0-3.592 1.525-3.592 4.033 0 2.5 1.373 4.032 3.592 4.032zm0-1.12c-1.475 0-2.306-1.069-2.306-2.912 0-1.85.831-2.913 2.306-2.913 1.474 0 2.305 1.063 2.305 2.913 0 1.843-.831 2.912-2.305 2.912zm11.607-6.807h-1.243v4.61c0 1.366-.751 2.183-2.124 2.183-1.243 0-1.764-.651-1.764-2.053v-4.74h-1.243v5.044c0 1.843.911 2.883 2.66 2.883 1.192 0 2.023-.491 2.413-1.358h.116v1.221h1.185v-7.79zm6.565-2.017v2.017h-1.257v1.04h1.257v4.726c0 1.489.643 2.082 2.248 2.082.245 0 .484-.029.73-.073v-1.047a5.443 5.443 0 01-.579.028c-.809 0-1.156-.39-1.156-1.308v-4.408h1.735v-1.04h-1.735v-2.017h-1.243zm4.62 9.807h1.243v-4.827c0-1.099.86-1.894 2.045-1.894.245 0 .693.044.795.072v-1.243a5.508 5.508 0 00-.622-.036c-1.033 0-1.929.535-2.161 1.294h-.115v-1.156h-1.185v7.79zm7.568.137c1.04 0 1.893-.455 2.399-1.286h.115v1.149h1.186v-5.333c0-1.619-1.063-2.595-2.963-2.595-1.662 0-2.891.824-3.057 2.074h1.257c.174-.614.824-.968 1.756-.968 1.164 0 1.764.528 1.764 1.489v.708l-2.248.137c-1.814.109-2.84.911-2.84 2.305 0 1.424 1.12 2.32 2.631 2.32zm.231-1.091c-.904 0-1.576-.463-1.576-1.257 0-.781.521-1.193 1.706-1.272l2.096-.138v.716c0 1.113-.947 1.951-2.226 1.951zm11.976-4.452c-.217-1.387-1.373-2.522-3.267-2.522-2.182 0-3.569 1.576-3.569 4.004 0 2.479 1.394 4.061 3.577 4.061 1.871 0 3.035-1.055 3.259-2.486h-1.258c-.231.882-.961 1.366-2.009 1.366-1.387 0-2.283-1.142-2.283-2.941 0-1.763.882-2.884 2.283-2.884 1.121 0 1.807.629 2.009 1.402h1.258zm3.029 1.019h-.115v-6.496h-1.243v10.883h1.243v-2.956l.744-.694 2.92 3.65h1.582l-3.577-4.452 3.353-3.338h-1.525l-3.382 3.403zm11.167 2.371c-.325.686-1.004 1.055-2.009 1.055-1.322 0-2.182-.976-2.247-2.515v-.058h5.6v-.477c0-2.421-1.279-3.917-3.382-3.917-2.139 0-3.512 1.59-3.512 4.04 0 2.464 1.352 4.025 3.512 4.025 1.706 0 2.92-.824 3.281-2.153h-1.243zm-2.052-4.813c1.236 0 2.059.91 2.088 2.291h-4.292c.094-1.381.961-2.291 2.204-2.291zm7.994 6.966c1.077 0 2.002-.513 2.493-1.38h.116v1.243h1.185v-10.883h-1.243v4.321h-.108c-.441-.853-1.359-1.366-2.443-1.366-1.98 0-3.274 1.59-3.274 4.033 0 2.45 1.28 4.032 3.274 4.032zm.289-6.945c1.409 0 2.291 1.128 2.291 2.913 0 1.799-.874 2.912-2.291 2.912-1.423 0-2.276-1.091-2.276-2.912 0-1.814.86-2.913 2.276-2.913zm19.421-.982h-1.25l-1.532 6.229h-.116l-1.741-6.229h-1.193l-1.741 6.229h-.116l-1.532-6.229h-1.257l2.182 7.79h1.258l1.734-6.027h.116l1.741 6.027h1.265l2.182-7.79zm6.296 5.774c-.325.686-1.004 1.055-2.009 1.055-1.322 0-2.182-.976-2.247-2.515v-.058h5.6v-.477c0-2.421-1.279-3.917-3.382-3.917-2.139 0-3.512 1.59-3.512 4.04 0 2.464 1.352 4.025 3.512 4.025 1.706 0 2.92-.824 3.281-2.153h-1.243zm-2.052-4.813c1.236 0 2.06.91 2.088 2.291H281c.094-1.381.961-2.291 2.204-2.291zm5.111 6.829h1.243v-4.827c0-1.099.86-1.894 2.045-1.894a5.1 5.1 0 01.795.072v-1.243a5.494 5.494 0 00-.622-.036c-1.033 0-1.929.535-2.16 1.294h-.116v-1.156h-1.185v7.79zm10.343-2.016c-.326.686-1.005 1.055-2.009 1.055-1.323 0-2.183-.976-2.248-2.515v-.058h5.601v-.477c0-2.421-1.279-3.917-3.382-3.917-2.139 0-3.512 1.59-3.512 4.04 0 2.464 1.351 4.025 3.512 4.025 1.705 0 2.919-.824 3.281-2.153h-1.243zm-2.053-4.813c1.236 0 2.06.91 2.089 2.291h-4.293c.094-1.381.961-2.291 2.204-2.291zm12.845-1.099c-1.062 0-1.994.542-2.493 1.438h-.115v-1.3h-1.186v10.391h1.243v-3.772h.116c.426.824 1.322 1.308 2.435 1.308 1.98 0 3.274-1.597 3.274-4.032 0-2.45-1.286-4.033-3.274-4.033zm-.296 6.945c-1.402 0-2.291-1.127-2.291-2.912 0-1.792.889-2.913 2.298-2.913 1.424 0 2.277 1.092 2.277 2.913 0 1.821-.853 2.912-2.284 2.912zm8.486 1.12c2.218 0 3.591-1.532 3.591-4.032 0-2.508-1.373-4.033-3.591-4.033-2.219 0-3.592 1.525-3.592 4.033 0 2.5 1.373 4.032 3.592 4.032zm0-1.12c-1.475 0-2.306-1.069-2.306-2.912 0-1.85.831-2.913 2.306-2.913 1.474 0 2.305 1.063 2.305 2.913 0 1.843-.831 2.912-2.305 2.912zm5.125-4.676c0 1.128.665 1.757 2.125 2.111l1.336.325c.832.202 1.236.563 1.236 1.098 0 .716-.751 1.214-1.799 1.214-.997 0-1.619-.419-1.828-1.076h-1.28c.138 1.293 1.33 2.124 3.064 2.124 1.771 0 3.122-.961 3.122-2.356 0-1.12-.708-1.756-2.175-2.11l-1.199-.289c-.918-.224-1.352-.556-1.352-1.091 0-.694.723-1.164 1.648-1.164.939 0 1.546.412 1.713 1.034h1.228c-.166-1.279-1.301-2.089-2.934-2.089-1.655 0-2.905.976-2.905 2.269zm8.341-3.635a.87.87 0 00.867-.867.87.87 0 00-.867-.867.87.87 0 00-.867.867c0 .477.39.867.867.867zm-.621 9.294h1.243v-7.79h-1.243v7.79zm3.896-9.807v2.017h-1.257v1.04h1.257v4.726c0 1.489.644 2.082 2.248 2.082.246 0 .484-.029.73-.073v-1.047a5.412 5.412 0 01-.578.028c-.81 0-1.157-.39-1.157-1.308v-4.408h1.735v-1.04h-1.735v-2.017h-1.243zm5.27.513a.87.87 0 00.867-.867.87.87 0 00-.867-.867.87.87 0 00-.867.867c0 .477.39.867.867.867zm-.621 9.294h1.243v-7.79h-1.243v7.79zm9.736-7.79h-1.33l-2.132 6.417h-.116l-2.131-6.417h-1.33l2.883 7.79h1.272l2.884-7.79zm6.296 5.774c-.326.686-1.005 1.055-2.009 1.055-1.323 0-2.183-.976-2.248-2.515v-.058h5.601v-.477c0-2.421-1.279-3.917-3.382-3.917-2.139 0-3.512 1.59-3.512 4.04 0 2.464 1.351 4.025 3.512 4.025 1.705 0 2.919-.824 3.281-2.153h-1.243zm-2.053-4.813c1.236 0 2.06.91 2.089 2.291h-4.293c.094-1.381.961-2.291 2.204-2.291z" fill="#0C0748"/><rect x="41.76" y="124.813" width="236.6" height="32.76" rx="16.38" fill="#E5DFF4"/><path d="M62.902 143.578H58.9v-2.596h3.787v-1.075H58.9v-2.44h4v-1.116h-5.295v8.343h5.296v-1.116zm1.728 1.116h1.243v-3.856c0-.821.572-1.463 1.33-1.463.74 0 1.214.445 1.214 1.162v4.157h1.22v-3.972c0-.757.526-1.347 1.33-1.347.815 0 1.22.422 1.22 1.289v4.03h1.242v-4.331c0-1.306-.74-2.069-2.012-2.069-.873 0-1.595.445-1.913 1.121h-.099c-.277-.676-.873-1.121-1.734-1.121-.838 0-1.474.416-1.752 1.121h-.092v-1H64.63v6.279zm13.205.121c1.838 0 2.965-1.231 2.965-3.261 0-2.029-1.133-3.26-2.965-3.26-1.839 0-2.972 1.237-2.972 3.26 0 2.03 1.127 3.261 2.972 3.261zm0-1.058c-1.081 0-1.689-.804-1.689-2.203 0-1.399.608-2.208 1.689-2.208 1.075 0 1.688.809 1.688 2.208 0 1.394-.613 2.203-1.688 2.203zm4.902-6.926v1.602h-1v.994h1v3.613c0 1.208.55 1.694 1.931 1.694.243 0 .474-.029.676-.064v-.988c-.173.017-.283.029-.474.029-.618 0-.89-.295-.89-.971v-3.313h1.364v-.994H83.98v-1.602h-1.243zm4.712.463a.786.786 0 00.786-.781.787.787 0 00-1.573 0c0 .428.353.781.787.781zm-.619 7.4h1.237v-6.279H86.83v6.279zm5.724.121c1.838 0 2.965-1.231 2.965-3.261 0-2.029-1.133-3.26-2.965-3.26-1.839 0-2.972 1.237-2.972 3.26 0 2.03 1.127 3.261 2.972 3.261zm0-1.058c-1.082 0-1.689-.804-1.689-2.203 0-1.399.608-2.208 1.689-2.208 1.075 0 1.688.809 1.688 2.208 0 1.394-.613 2.203-1.688 2.203zm4.463.937h1.243v-3.683c0-1.012.584-1.636 1.503-1.636.919 0 1.358.509 1.358 1.549v3.77h1.243v-4.065c0-1.497-.774-2.335-2.179-2.335-.948 0-1.573.422-1.879 1.116h-.093v-.995h-1.196v6.279zm8.839.104c.827 0 1.515-.359 1.891-.995h.098v.891h1.197v-4.296c0-1.318-.891-2.104-2.469-2.104-1.428 0-2.445.688-2.572 1.746h1.202c.139-.457.619-.717 1.312-.717.85 0 1.29.387 1.29 1.075v.549l-1.706.104c-1.497.093-2.341.746-2.341 1.874 0 1.144.884 1.873 2.098 1.873zm.318-1c-.676 0-1.168-.342-1.168-.925 0-.573.394-.879 1.261-.937l1.538-.104v.543c0 .81-.694 1.423-1.631 1.423zm4.695.896h1.243v-8.742h-1.243v8.742zm14.545-6.279h-1.243l-1.121 4.845h-.099l-1.295-4.845h-1.19l-1.295 4.845h-.093l-1.127-4.845h-1.261l1.735 6.279h1.277l1.295-4.683h.099l1.3 4.683h1.29l1.728-6.279zm1.925-1.121a.787.787 0 00.787-.781.788.788 0 00-1.573 0c0 .428.353.781.786.781zm-.618 7.4h1.237v-6.279h-1.237v6.279zm3.064 0h1.243v-3.683c0-1.012.584-1.636 1.503-1.636.919 0 1.359.509 1.359 1.549v3.77h1.243v-4.065c0-1.497-.775-2.335-2.18-2.335-.948 0-1.572.422-1.879 1.116h-.092v-.995h-1.197v6.279zm9.4.104c.867 0 1.602-.411 1.977-1.099h.099v.995h1.191v-8.742h-1.243v3.458h-.093c-.341-.688-1.069-1.105-1.931-1.105-1.59 0-2.613 1.266-2.613 3.244 0 1.988 1.012 3.249 2.613 3.249zm.353-5.429c1.04 0 1.694.844 1.694 2.185 0 1.353-.648 2.18-1.694 2.18-1.052 0-1.682-.815-1.682-2.18 0-1.358.635-2.185 1.682-2.185zm7.44 5.446c1.839 0 2.966-1.231 2.966-3.261 0-2.029-1.133-3.26-2.966-3.26-1.838 0-2.971 1.237-2.971 3.26 0 2.03 1.127 3.261 2.971 3.261zm0-1.058c-1.081 0-1.688-.804-1.688-2.203 0-1.399.607-2.208 1.688-2.208 1.076 0 1.688.809 1.688 2.208 0 1.394-.612 2.203-1.688 2.203zm12.418-5.342h-1.243l-1.121 4.845h-.098l-1.295-4.845h-1.191l-1.295 4.845h-.093l-1.127-4.845h-1.26l1.734 6.279h1.278l1.295-4.683h.098l1.301 4.683h1.289l1.728-6.279zm.966 1.758c0 .93.555 1.462 1.752 1.74l1.098.26c.63.15.925.405.925.798 0 .514-.549.873-1.324.873-.751 0-1.214-.307-1.37-.798H160.2c.11 1.093 1.087 1.769 2.584 1.769 1.503 0 2.608-.792 2.608-1.96 0-.913-.561-1.428-1.758-1.705l-1.046-.243c-.682-.162-1-.405-1-.792 0-.509.526-.85 1.219-.85.706 0 1.157.306 1.272.775h1.191c-.121-1.087-1.046-1.746-2.463-1.746-1.422 0-2.445.786-2.445 1.879zm7.325 6.689l.959-3.394h-1.3l-.538 3.394h.879zm14.372-8.447h-1.243l-1.122 4.845h-.098l-1.295-4.845h-1.191l-1.295 4.845h-.092l-1.128-4.845h-1.26l1.734 6.279h1.278l1.295-4.683h.098l1.301 4.683h1.289l1.729-6.279zm5.168 4.596c-.231.509-.745.787-1.497.787-.994 0-1.636-.717-1.677-1.856v-.058h4.446v-.428c0-1.966-1.058-3.162-2.809-3.162-1.775 0-2.903 1.277-2.903 3.272 0 2.006 1.105 3.249 2.908 3.249 1.44 0 2.457-.694 2.729-1.804h-1.197zm-1.543-3.706c.919 0 1.52.665 1.549 1.683h-3.18c.07-1.012.712-1.683 1.631-1.683zm8.435 3.706c-.232.509-.746.787-1.498.787-.994 0-1.636-.717-1.676-1.856v-.058h4.446v-.428c0-1.966-1.058-3.162-2.81-3.162-1.775 0-2.902 1.277-2.902 3.272 0 2.006 1.104 3.249 2.908 3.249 1.439 0 2.457-.694 2.728-1.804h-1.196zm-1.544-3.706c.919 0 1.521.665 1.549 1.683h-3.179c.069-1.012.711-1.683 1.63-1.683zm5.706 1.758h-.098v-5.111h-1.243v8.742h1.243v-2.284l.549-.526 2.162 2.81h1.527l-2.764-3.591 2.59-2.688h-1.468l-2.498 2.648zm18.286-.74c1.197 0 2.116-.792 2.116-2.047 0-1.254-.919-2.04-2.116-2.04-1.173 0-2.075.786-2.075 2.04 0 1.255.902 2.047 2.075 2.047zm-8.359 4.371v-6.088h.092l4.111 6.088h1.167v-8.343h-1.26v6.094h-.092l-4.111-6.094h-1.168v8.343h1.261zm8.359-5.232c-.618 0-1.023-.469-1.023-1.186 0-.734.405-1.185 1.023-1.185.654 0 1.058.451 1.058 1.185 0 .717-.422 1.186-1.058 1.186zm1.943 2.561v-1.081h-3.827v1.081h3.827zm3.44 2.671h1.295v-8.343h-1.29l-2.197 1.561v1.272l2.093-1.497h.099v7.007zm8.4-3.209h1.827l1.699 3.209h1.498l-1.873-3.411c1.017-.341 1.618-1.255 1.618-2.382 0-1.555-1.081-2.55-2.763-2.55h-3.301v8.343h1.295v-3.209zm0-4.047h1.827c1 0 1.613.561 1.613 1.492 0 .954-.579 1.491-1.579 1.491h-1.861v-2.983zm10.412 5.573c-.231.509-.746.787-1.498.787-.994 0-1.636-.717-1.676-1.856v-.058h4.446v-.428c0-1.966-1.058-3.162-2.81-3.162-1.775 0-2.902 1.277-2.902 3.272 0 2.006 1.104 3.249 2.908 3.249 1.439 0 2.457-.694 2.728-1.804h-1.196zm-1.544-3.706c.919 0 1.521.665 1.55 1.683h-3.18c.069-1.012.711-1.683 1.63-1.683zm9.638 1.128c-.162-1.22-1.116-2.139-2.695-2.139-1.832 0-2.948 1.243-2.948 3.237 0 2.035 1.122 3.284 2.954 3.284 1.555 0 2.527-.873 2.689-2.11h-1.209c-.162.682-.699 1.052-1.486 1.052-1.034 0-1.676-.838-1.676-2.226 0-1.358.636-2.179 1.676-2.179.833 0 1.342.468 1.486 1.081h1.209zm3.162 4.365c.827 0 1.515-.359 1.89-.995h.099v.891h1.196v-4.296c0-1.318-.89-2.104-2.468-2.104-1.428 0-2.446.688-2.573 1.746h1.203c.138-.457.618-.717 1.312-.717.85 0 1.289.387 1.289 1.075v.549l-1.705.104c-1.498.093-2.342.746-2.342 1.874 0 1.144.885 1.873 2.099 1.873zm.318-1c-.677 0-1.168-.342-1.168-.925 0-.573.393-.879 1.26-.937l1.538-.104v.543c0 .81-.694 1.423-1.63 1.423zm7.903-5.493c-.856 0-1.596.434-1.977 1.151h-.093v-1.041h-1.197v8.371h1.243v-3.041h.099c.329.665 1.04 1.053 1.936 1.053 1.59 0 2.602-1.261 2.602-3.244 0-1.994-1.012-3.249-2.613-3.249zm-.353 5.429c-1.04 0-1.694-.838-1.694-2.18 0-1.347.654-2.185 1.7-2.185 1.052 0 1.682.821 1.682 2.185 0 1.365-.63 2.18-1.688 2.18z" fill="#0C0748"/><rect x="41.76" y="50.813" width="50.813" height="2.96" rx="1.48" fill="#8377D1"/><rect x="98.493" y="50.813" width="50.813" height="2.96" rx="1.48" fill="#8377D1"/><rect x="155.227" y="50.813" width="50.813" height="2.96" rx="1.48" fill="#8377D1"/><rect x="211.959" y="50.813" width="50.813" height="2.96" rx="1.48" fill="#000" fill-opacity=".1"/><rect x="268.693" y="50.813" width="50.813" height="2.96" rx="1.48" fill="#000" fill-opacity=".1"/><rect x="325.426" y="50.813" width="50.813" height="2.96" rx="1.48" fill="#000" fill-opacity=".1"/><path clip-rule="evenodd" d="M367.36 86.333L356.506 75.48l10.854 10.853z" stroke="#0C0748" stroke-width="1.973" stroke-linecap="round" stroke-linejoin="round"/><path d="M367.36 75.48l-10.854 10.853" stroke="#0C0748" stroke-width="1.973" stroke-linecap="round" stroke-linejoin="round"/></g></g><defs><clipPath id="clip0_412_2857"><rect x="24" y="22" width="370" height="300" rx="23.68" fill="#fff"/></clipPath><filter id="filter0_dd_412_2857" x="0" y="0" width="418" height="348" filterUnits="userSpaceOnUse" color-interpolation-filters="sRGB"><feFlood flood-opacity="0" result="BackgroundImageFix"/><feColorMatrix in="SourceAlpha" values="0 0 0 0 0 0 0 0 0 0 0 0 0 0 0 0 0 0 127 0" result="hardAlpha"/><feOffset dy="2"/><feGaussianBlur stdDeviation="12"/><feColorMatrix values="0 0 0 0 0 0 0 0 0 0 0 0 0 0 0 0 0 0 0.08 0"/><feBlend in2="BackgroundImageFix" result="effect1_dropShadow_412_2857"/><feColorMatrix in="SourceAlpha" values="0 0 0 0 0 0 0 0 0 0 0 0 0 0 0 0 0 0 127 0" result="hardAlpha"/><feOffset/><feGaussianBlur stdDeviation="1"/><feColorMatrix values="0 0 0 0 0 0 0 0 0 0 0 0 0 0 0 0 0 0 0.08 0"/><feBlend in2="effect1_dropShadow_412_2857" result="effect2_dropShadow_412_2857"/><feBlend in="SourceGraphic" in2="effect2_dropShadow_412_2857" result="shape"/></filter></defs></svg>