<svg width="313" height="162" fill="none" xmlns="http://www.w3.org/2000/svg"><g filter="url(#filter0_dd_31_1213)"><rect x="24" y="22" width="265" height="52" rx="16" fill="#fff"/><path d="M44.666 48.818h2.6L49.53 53h1.546l-2.447-4.387c1.326-.418 2.124-1.56 2.124-3.032 0-1.905-1.333-3.15-3.369-3.15h-4.035V53h1.318v-4.182zm0-5.215h2.542c1.362 0 2.182.754 2.182 2.021 0 1.297-.769 2.022-2.124 2.022h-2.6v-4.043zm13.09 7.353c-.33.696-1.018 1.07-2.036 1.07-1.34 0-2.212-.989-2.278-2.549v-.058h5.676v-.484c0-2.454-1.296-3.97-3.427-3.97-2.168 0-3.56 1.612-3.56 4.095 0 2.497 1.37 4.08 3.56 4.08 1.728 0 2.959-.836 3.325-2.184h-1.26zm-2.08-4.877c1.252 0 2.087.922 2.117 2.321h-4.35c.094-1.398.973-2.321 2.233-2.321zm7.377 7.06c1.055 0 1.92-.461 2.432-1.304h.117V53h1.201v-5.405c0-1.64-1.076-2.63-3.003-2.63-1.684 0-2.93.835-3.098 2.102h1.275c.175-.622.835-.981 1.78-.981 1.179 0 1.786.535 1.786 1.509v.718l-2.277.139c-1.839.11-2.879.922-2.879 2.336 0 1.443 1.135 2.351 2.666 2.351zm.235-1.106c-.916 0-1.597-.468-1.597-1.274 0-.791.527-1.209 1.728-1.29l2.124-.138v.725c0 1.128-.959 1.977-2.255 1.977zm8.527 1.106c1.091 0 2.029-.52 2.526-1.399h.118V53h1.2V41.97H74.4v4.38h-.11c-.447-.865-1.377-1.385-2.475-1.385-2.007 0-3.318 1.612-3.318 4.087 0 2.483 1.296 4.087 3.318 4.087zm.293-7.038c1.428 0 2.321 1.142 2.321 2.951 0 1.824-.886 2.952-2.321 2.952-1.443 0-2.308-1.106-2.308-2.952 0-1.838.872-2.951 2.308-2.951zm11.963 2.028h1.311c1.487 0 2.403.762 2.403 1.985 0 1.187-.989 1.985-2.38 1.985-1.363 0-2.315-.71-2.432-1.824h-1.275c.096 1.795 1.575 2.974 3.721 2.974 2.102 0 3.72-1.326 3.72-3.098 0-1.472-.907-2.403-2.277-2.622v-.117c1.084-.315 1.875-1.158 1.882-2.432.008-1.48-1.194-2.798-3.28-2.798-2.14 0-3.45 1.267-3.582 2.988h1.281c.11-1.186.938-1.838 2.212-1.838 1.275 0 2.029.806 2.029 1.794 0 1.1-.864 1.876-2.08 1.876h-1.252v1.127zm10.498 5.12c2.373 0 3.735-2.007 3.735-5.515 0-3.501-1.384-5.552-3.735-5.552-2.366 0-3.75 2.044-3.75 5.53 0 3.515 1.37 5.537 3.75 5.537zm0-1.15c-1.56 0-2.425-1.56-2.425-4.387 0-2.79.88-4.373 2.425-4.373s2.41 1.568 2.41 4.373c0 2.834-.85 4.387-2.41 4.387zm13.502-7.134c-1.077 0-2.022.55-2.527 1.458h-.117v-1.319h-1.201v10.533h1.259v-3.824h.117c.433.835 1.341 1.326 2.469 1.326 2.007 0 3.318-1.619 3.318-4.087 0-2.483-1.304-4.087-3.318-4.087zm-.301 7.039c-1.42 0-2.321-1.143-2.321-2.952 0-1.816.901-2.951 2.329-2.951 1.443 0 2.307 1.105 2.307 2.951s-.864 2.952-2.315 2.952zm7.553 1.135c1.055 0 1.919-.461 2.432-1.304h.117V53h1.201v-5.405c0-1.64-1.076-2.63-3.003-2.63-1.684 0-2.929.835-3.098 2.102h1.275c.176-.622.835-.981 1.78-.981 1.179 0 1.787.535 1.787 1.509v.718l-2.278.139c-1.839.11-2.879.922-2.879 2.336 0 1.443 1.136 2.351 2.666 2.351zm.235-1.106c-.916 0-1.597-.468-1.597-1.274 0-.791.527-1.209 1.729-1.29l2.124-.138v.725c0 1.128-.96 1.977-2.256 1.977zm8.856 4c2.154 0 3.516-1.129 3.516-2.894v-8.035h-1.201v1.253h-.117c-.454-.85-1.429-1.392-2.534-1.392-2.029 0-3.311 1.604-3.311 3.97s1.267 3.948 3.311 3.948c1.084 0 1.977-.49 2.475-1.363h.117v1.553c0 1.165-.842 1.86-2.256 1.86-1.135 0-1.838-.417-1.977-1.061h-1.333c.19 1.303 1.406 2.16 3.31 2.16zm-.058-4.264c-1.465 0-2.285-1.113-2.285-2.834s.82-2.834 2.285-2.834c1.457 0 2.344 1.113 2.344 2.834s-.879 2.834-2.344 2.834zm10.937-.813c-.33.696-1.018 1.07-2.037 1.07-1.34 0-2.211-.989-2.277-2.549v-.058h5.676v-.484c0-2.454-1.296-3.97-3.428-3.97-2.168 0-3.559 1.612-3.559 4.095 0 2.497 1.369 4.08 3.559 4.08 1.729 0 2.959-.836 3.325-2.184h-1.259zm-2.08-4.877c1.252 0 2.087.922 2.116 2.321h-4.35c.095-1.398.974-2.321 2.234-2.321zm4.996 1.186c0 1.143.674 1.78 2.154 2.139l1.355.33c.842.204 1.252.57 1.252 1.113 0 .725-.762 1.23-1.824 1.23-1.01 0-1.64-.425-1.853-1.091h-1.296c.139 1.31 1.348 2.153 3.105 2.153 1.795 0 3.164-.974 3.164-2.388 0-1.135-.717-1.78-2.204-2.138l-1.216-.293c-.93-.227-1.37-.564-1.37-1.106 0-.703.733-1.18 1.67-1.18.953 0 1.568.418 1.736 1.048h1.245c-.168-1.296-1.318-2.117-2.973-2.117-1.678 0-2.945.99-2.945 2.3zm15.033 5.874c2.249 0 3.64-1.553 3.64-4.087 0-2.541-1.391-4.087-3.64-4.087-2.248 0-3.64 1.546-3.64 4.087 0 2.534 1.392 4.087 3.64 4.087zm0-1.135c-1.494 0-2.336-1.084-2.336-2.952 0-1.875.842-2.951 2.336-2.951 1.494 0 2.336 1.076 2.336 2.951 0 1.868-.842 2.952-2.336 2.952zm5.905.996h1.26v-6.84h1.809v-1.055h-1.809v-.843c0-.864.381-1.303 1.289-1.303.227 0 .439.007.593.036V41.97a4.43 4.43 0 00-.849-.073c-1.502 0-2.293.754-2.293 2.329v.879h-1.311v1.054h1.311V53zm9.188-9.939v2.044h-1.274v1.054h1.274v4.79c0 1.509.652 2.11 2.278 2.11.249 0 .491-.03.74-.074v-1.062c-.235.022-.359.03-.586.03-.821 0-1.172-.396-1.172-1.326v-4.468h1.758v-1.054h-1.758V43.06h-1.26zM173.09 53h1.26v-4.673c0-1.333.776-2.226 2.19-2.226 1.194 0 1.824.695 1.824 2.094V53h1.259v-5.112c0-1.853-1.054-2.923-2.724-2.923-1.209 0-2.036.513-2.432 1.385h-.117v-4.38h-1.26V53zm13.823-2.044c-.33.696-1.018 1.07-2.036 1.07-1.341 0-2.212-.989-2.278-2.549v-.058h5.676v-.484c0-2.454-1.296-3.97-3.428-3.97-2.168 0-3.559 1.612-3.559 4.095 0 2.497 1.369 4.08 3.559 4.08 1.729 0 2.959-.836 3.325-2.184h-1.259zm-2.08-4.877c1.252 0 2.087.922 2.116 2.321h-4.35c.095-1.398.974-2.321 2.234-2.321zm13.099 7.06c1.999 0 3.31-1.619 3.31-4.087 0-2.483-1.303-4.087-3.31-4.087-1.084 0-2.044.535-2.476 1.385h-.117v-4.38h-1.26V53h1.201v-1.26h.118c.498.88 1.435 1.4 2.534 1.4zm-.293-7.038c1.443 0 2.3 1.105 2.3 2.951s-.857 2.952-2.3 2.952c-1.436 0-2.329-1.128-2.329-2.952s.893-2.951 2.329-2.951zm8.585 7.038c2.249 0 3.641-1.553 3.641-4.087 0-2.541-1.392-4.087-3.641-4.087-2.248 0-3.64 1.546-3.64 4.087 0 2.534 1.392 4.087 3.64 4.087zm0-1.135c-1.494 0-2.336-1.084-2.336-2.952 0-1.875.842-2.951 2.336-2.951 1.495 0 2.337 1.076 2.337 2.951 0 1.868-.842 2.952-2.337 2.952zm8.623 1.135c2.248 0 3.64-1.553 3.64-4.087 0-2.541-1.392-4.087-3.64-4.087-2.249 0-3.64 1.546-3.64 4.087 0 2.534 1.391 4.087 3.64 4.087zm0-1.135c-1.494 0-2.337-1.084-2.337-2.952 0-1.875.843-2.951 2.337-2.951 1.494 0 2.336 1.076 2.336 2.951 0 1.868-.842 2.952-2.336 2.952zm6.828-3.45h-.118V41.97h-1.259V53h1.259v-2.996l.755-.703L225.271 53h1.604l-3.626-4.512 3.399-3.383h-1.546l-3.427 3.45z" fill="#9E9CAC"/><path d="M42 48.459h185.182v.879H42v-.879z" fill="#9E9CAC"/><rect x="243" y="34" width="28" height="28" rx="14" fill="#FFCBAD"/><path d="M252.477 46.572a1 1 0 00-1.239 1.57l1.239-1.57zm3.452 4l-.62.784.75.592.625-.722-.755-.655zm6.327-5.775a1.001 1.001 0 00-1.512-1.31l1.512 1.31zm-11.018 3.345l4.071 3.214 1.239-1.57-4.071-3.214-1.239 1.57zm5.446 3.084l5.572-6.428-1.512-1.31-5.571 6.428 1.511 1.31z" fill="#0C0748"/></g><g filter="url(#filter1_dd_31_1213)"><rect x="24" y="84" width="265" height="52" rx="16" fill="#fff"/><path d="M43.348 104.431V115h3.625c3.142 0 4.988-1.956 4.988-5.288 0-3.325-1.853-5.281-4.988-5.281h-3.625zm1.318 1.187h2.22c2.343 0 3.727 1.523 3.727 4.109 0 2.578-1.37 4.086-3.728 4.086h-2.219v-8.195zm12.424 9.521c2.248 0 3.64-1.553 3.64-4.087 0-2.541-1.392-4.087-3.64-4.087-2.249 0-3.64 1.546-3.64 4.087 0 2.534 1.391 4.087 3.64 4.087zm0-1.135c-1.495 0-2.337-1.084-2.337-2.952 0-1.875.842-2.951 2.337-2.951 1.494 0 2.336 1.076 2.336 2.951 0 1.868-.842 2.952-2.336 2.952zm10.044 3.852c1.4 0 2.03-.542 2.703-2.373l3.084-8.379h-1.34l-2.161 6.497h-.118l-2.168-6.497h-1.362l2.923 7.903-.147.469c-.33.952-.725 1.296-1.45 1.296-.176 0-.374-.007-.528-.036v1.076c.176.03.396.044.565.044zm10.183-2.717c2.248 0 3.64-1.553 3.64-4.087 0-2.541-1.392-4.087-3.64-4.087-2.249 0-3.64 1.546-3.64 4.087 0 2.534 1.391 4.087 3.64 4.087zm0-1.135c-1.494 0-2.337-1.084-2.337-2.952 0-1.875.843-2.951 2.337-2.951 1.494 0 2.336 1.076 2.336 2.951 0 1.868-.842 2.952-2.336 2.952zm8.63 4.028c2.153 0 3.515-1.128 3.515-2.893v-8.035h-1.201v1.253h-.117c-.454-.85-1.428-1.392-2.534-1.392-2.03 0-3.311 1.604-3.311 3.97s1.267 3.948 3.31 3.948c1.085 0 1.978-.491 2.476-1.362h.117v1.552c0 1.165-.842 1.861-2.255 1.861-1.136 0-1.839-.418-1.978-1.062h-1.333c.19 1.303 1.406 2.16 3.31 2.16zm-.06-4.262c-1.464 0-2.284-1.114-2.284-2.835 0-1.721.82-2.834 2.285-2.834 1.457 0 2.344 1.113 2.344 2.834s-.88 2.835-2.344 2.835zm7.905 1.369c1.055 0 1.92-.461 2.432-1.304h.117V115h1.201v-5.405c0-1.641-1.076-2.63-3.002-2.63-1.685 0-2.93.835-3.099 2.102h1.275c.175-.622.835-.981 1.78-.981 1.179 0 1.787.535 1.787 1.509v.717l-2.278.14c-1.839.11-2.879.923-2.879 2.336 0 1.443 1.136 2.351 2.666 2.351zm.235-1.106c-.916 0-1.597-.469-1.597-1.274 0-.791.527-1.209 1.729-1.289l2.124-.139v.725c0 1.128-.96 1.977-2.256 1.977zm14.827-1.076c-.329.695-1.018 1.069-2.036 1.069-1.34 0-2.212-.989-2.278-2.549v-.059h5.677v-.483c0-2.454-1.297-3.97-3.428-3.97-2.168 0-3.56 1.612-3.56 4.095 0 2.497 1.37 4.079 3.56 4.079 1.729 0 2.959-.835 3.325-2.182h-1.26zm-2.08-4.878c1.253 0 2.088.922 2.117 2.321h-4.351c.096-1.399.975-2.321 2.234-2.321zm7.678 3.962l1.867 2.981h1.495l-2.718-3.999 2.681-3.897h-1.428l-1.853 2.937h-.117l-1.875-2.937h-1.502l2.732 3.948-2.703 3.948h1.429l1.875-2.981h.117zm9.699.916c-.33.695-1.018 1.069-2.036 1.069-1.341 0-2.212-.989-2.278-2.549v-.059h5.676v-.483c0-2.454-1.296-3.97-3.428-3.97-2.168 0-3.559 1.612-3.559 4.095 0 2.497 1.369 4.079 3.559 4.079 1.729 0 2.959-.835 3.326-2.182h-1.26zm-2.08-4.878c1.252 0 2.087.922 2.116 2.321h-4.35c.095-1.399.974-2.321 2.234-2.321zm5.18 6.921h1.259v-4.893c0-1.113.872-1.919 2.073-1.919.249 0 .703.044.806.074v-1.26a5.4 5.4 0 00-.63-.037c-1.047 0-1.956.542-2.19 1.311h-.117v-1.172h-1.201V115zm11.786-5.479c-.22-1.406-1.392-2.556-3.311-2.556-2.211 0-3.618 1.597-3.618 4.058 0 2.512 1.414 4.116 3.626 4.116 1.897 0 3.076-1.069 3.303-2.519h-1.274c-.235.893-.975 1.384-2.037 1.384-1.406 0-2.314-1.157-2.314-2.981 0-1.787.894-2.922 2.314-2.922 1.136 0 1.832.637 2.037 1.42h1.274zm2.28-3.94a.88.88 0 00.878-.879.881.881 0 00-.878-.879.882.882 0 00-.879.879.88.88 0 00.879.879zm-.63 9.419h1.259v-7.896h-1.259V115zm3.239-5.735c0 1.143.673 1.78 2.153 2.139l1.355.329c.842.205 1.252.572 1.252 1.114 0 .725-.761 1.23-1.823 1.23-1.011 0-1.641-.425-1.853-1.091h-1.297c.139 1.311 1.348 2.153 3.106 2.153 1.794 0 3.164-.974 3.164-2.388 0-1.135-.718-1.779-2.205-2.138l-1.216-.293c-.93-.227-1.369-.564-1.369-1.106 0-.703.732-1.179 1.67-1.179.952 0 1.567.417 1.735 1.047h1.246c-.169-1.296-1.319-2.117-2.974-2.117-1.677 0-2.944.989-2.944 2.3zm13.024 3.692c-.33.695-1.018 1.069-2.036 1.069-1.341 0-2.212-.989-2.278-2.549v-.059h5.676v-.483c0-2.454-1.296-3.97-3.428-3.97-2.168 0-3.559 1.612-3.559 4.095 0 2.497 1.369 4.079 3.559 4.079 1.729 0 2.959-.835 3.326-2.182h-1.26zm-2.08-4.878c1.252 0 2.087.922 2.116 2.321h-4.35c.095-1.399.974-2.321 2.234-2.321zm4.997 1.186c0 1.143.673 1.78 2.153 2.139l1.355.329c.842.205 1.252.572 1.252 1.114 0 .725-.761 1.23-1.823 1.23-1.011 0-1.641-.425-1.853-1.091h-1.297c.139 1.311 1.348 2.153 3.106 2.153 1.794 0 3.164-.974 3.164-2.388 0-1.135-.718-1.779-2.205-2.138l-1.216-.293c-.93-.227-1.369-.564-1.369-1.106 0-.703.732-1.179 1.67-1.179.952 0 1.567.417 1.735 1.047h1.246c-.169-1.296-1.319-2.117-2.974-2.117-1.677 0-2.944.989-2.944 2.3z" fill="#9E9CAC"/><path d="M42 110.459h124.715v.879H42v-.879z" fill="#9E9CAC"/><rect x="243" y="96" width="28" height="28" rx="14" fill="#FFCBAD"/><path d="M252.477 108.572a1.001 1.001 0 00-1.239 1.57l1.239-1.57zm3.452 3.999l-.62.785.75.592.625-.722-.755-.655zm6.327-5.773a1.001 1.001 0 00-1.512-1.31l1.512 1.31zm-11.018 3.344l4.071 3.214 1.239-1.57-4.071-3.214-1.239 1.57zm5.446 3.084l5.572-6.428-1.512-1.31-5.571 6.428 1.511 1.31z" fill="#0C0748"/></g><defs><filter id="filter0_dd_31_1213" x="0" y="0" width="313" height="100" filterUnits="userSpaceOnUse" color-interpolation-filters="sRGB"><feFlood flood-opacity="0" result="BackgroundImageFix"/><feColorMatrix in="SourceAlpha" values="0 0 0 0 0 0 0 0 0 0 0 0 0 0 0 0 0 0 127 0" result="hardAlpha"/><feOffset dy="2"/><feGaussianBlur stdDeviation="12"/><feColorMatrix values="0 0 0 0 0 0 0 0 0 0 0 0 0 0 0 0 0 0 0.08 0"/><feBlend in2="BackgroundImageFix" result="effect1_dropShadow_31_1213"/><feColorMatrix in="SourceAlpha" values="0 0 0 0 0 0 0 0 0 0 0 0 0 0 0 0 0 0 127 0" result="hardAlpha"/><feOffset/><feGaussianBlur stdDeviation="1"/><feColorMatrix values="0 0 0 0 0 0 0 0 0 0 0 0 0 0 0 0 0 0 0.08 0"/><feBlend in2="effect1_dropShadow_31_1213" result="effect2_dropShadow_31_1213"/><feBlend in="SourceGraphic" in2="effect2_dropShadow_31_1213" result="shape"/></filter><filter id="filter1_dd_31_1213" x="0" y="62" width="313" height="100" filterUnits="userSpaceOnUse" color-interpolation-filters="sRGB"><feFlood flood-opacity="0" result="BackgroundImageFix"/><feColorMatrix in="SourceAlpha" values="0 0 0 0 0 0 0 0 0 0 0 0 0 0 0 0 0 0 127 0" result="hardAlpha"/><feOffset dy="2"/><feGaussianBlur stdDeviation="12"/><feColorMatrix values="0 0 0 0 0 0 0 0 0 0 0 0 0 0 0 0 0 0 0.08 0"/><feBlend in2="BackgroundImageFix" result="effect1_dropShadow_31_1213"/><feColorMatrix in="SourceAlpha" values="0 0 0 0 0 0 0 0 0 0 0 0 0 0 0 0 0 0 127 0" result="hardAlpha"/><feOffset/><feGaussianBlur stdDeviation="1"/><feColorMatrix values="0 0 0 0 0 0 0 0 0 0 0 0 0 0 0 0 0 0 0.08 0"/><feBlend in2="effect1_dropShadow_31_1213" result="effect2_dropShadow_31_1213"/><feBlend in="SourceGraphic" in2="effect2_dropShadow_31_1213" result="shape"/></filter></defs></svg>