<svg width="394" height="260" fill="none" xmlns="http://www.w3.org/2000/svg"><g filter="url(#filter0_d_32_1297)"><rect x="15" y="6" width="370" height="236" rx="24" fill="#fff" shape-rendering="crispEdges"/><path d="M73.022 49.832v-.924l.168-.168h.672c.21 0 .4-.084.567-.252.182-.182.273-.378.273-.588V37.4c0-.21-.09-.399-.273-.567-.168-.182-.357-.273-.567-.273h-.672l-.168-.168v-.924l.168-.168h6.006l.168.168v.924l-.168.168h-.672c-.21 0-.406.091-.588.273a.783.783 0 00-.252.567v10.5c0 .21.084.406.252.588.182.168.378.252.588.252h.672l.168.168v.924l-.168.168H73.19l-.168-.168zm11.952.462c-.868 0-1.596-.252-2.184-.756-.574-.518-.861-1.288-.861-2.31V40.97h-1.554l-.168-.168v-.462l3.969-3.612h.357l.168.168v2.73h2.646l.168.168v1.008l-.168.168H84.7v6.447c0 .42.112.742.336.966.224.21.51.315.86.315.589 0 1.044-.308 1.366-.924l.168-.063.42.168.084.168c-.49 1.498-1.477 2.247-2.961 2.247zm4.715-10.269l-.42-4.515.21-.21h2.268l.21.21-.42 4.515-.21.21H89.9l-.21-.21zm7.293 10.269c-.728 0-1.4-.084-2.016-.252a5.656 5.656 0 01-1.554-.672l-.105-.21.567-2.31.168-.168h.714l.168.168c0 .714.168 1.281.504 1.701.35.406.826.609 1.428.609.518 0 .896-.147 1.134-.441a1.56 1.56 0 00.378-1.05c0-.49-.126-.868-.378-1.134-.252-.266-.693-.518-1.323-.756-1.05-.406-1.827-.868-2.33-1.386a2.597 2.597 0 01-.736-1.848c0-.966.357-1.743 1.071-2.331.728-.588 1.645-.882 2.751-.882.98 0 1.841.196 2.583.588l.147.21.105 2.352-.168.168h-.798l-.168-.168c-.126-1.33-.7-1.995-1.722-1.995-.378 0-.7.119-.966.357-.266.224-.399.532-.399.924 0 .42.175.791.525 1.113.35.308.917.623 1.701.945.854.35 1.512.749 1.974 1.197.462.448.693 1.078.693 1.89 0 1.092-.385 1.932-1.155 2.52-.756.574-1.687.861-2.793.861zm14.16 0c-.868 0-1.596-.252-2.184-.756-.574-.518-.861-1.288-.861-2.31V40.97h-1.554l-.168-.168v-.462l3.969-3.612h.357l.168.168v2.73h2.646l.168.168v1.008l-.168.168h-2.646v6.447c0 .42.112.742.336.966.224.21.511.315.861.315.588 0 1.043-.308 1.365-.924l.168-.063.42.168.084.168c-.49 1.498-1.477 2.247-2.961 2.247zm6.752-12.096a1.73 1.73 0 01-1.239-.504 1.73 1.73 0 01-.504-1.239c0-.49.168-.903.504-1.239a1.73 1.73 0 011.239-.504c.49 0 .903.168 1.239.504.336.336.504.749.504 1.239 0 .476-.168.889-.504 1.239a1.684 1.684 0 01-1.239.504zm-2.667 11.634v-.924l.168-.168h.252c.21 0 .399-.084.567-.252.182-.182.273-.378.273-.588v-5.292c0-.21-.091-.399-.273-.567-.168-.182-.357-.273-.567-.273h-.252l-.168-.168v-.567l.126-.168 3.276-1.239h.63l.21.21-.21 1.932V47.9c0 .21.084.406.252.588.182.168.378.252.588.252h.252l.168.168v.924l-.168.168h-4.956l-.168-.168zm6.727 0v-.924l.168-.168h.252c.21 0 .399-.084.567-.252.182-.182.273-.378.273-.588v-5.292c0-.21-.091-.399-.273-.567-.168-.182-.357-.273-.567-.273h-.252l-.168-.168v-.567l.126-.168 3.066-1.239h.672l.168.168-.21 1.407c.35-.56.847-1.008 1.491-1.344a4.127 4.127 0 011.995-.525c.756 0 1.421.147 1.995.441.574.28.973.721 1.197 1.323.784-1.176 1.925-1.764 3.423-1.764 1.008 0 1.813.294 2.415.882.616.588.924 1.393.924 2.415V47.9c0 .21.084.406.252.588.182.168.378.252.588.252h.252l.168.168v.924l-.168.168h-4.956l-.168-.168v-.924l.168-.168h.252c.21 0 .399-.084.567-.252.182-.182.273-.378.273-.588v-4.872c0-.658-.14-1.162-.42-1.512-.266-.35-.672-.525-1.218-.525-.63 0-1.155.252-1.575.756-.42.49-.63 1.155-.63 1.995V47.9c0 .21.084.406.252.588.182.168.378.252.588.252h.252l.168.168v.924l-.168.168h-4.956l-.168-.168v-.924l.168-.168h.252c.21 0 .399-.084.567-.252.182-.182.273-.378.273-.588v-4.872c0-1.358-.539-2.037-1.617-2.037-.63 0-1.162.252-1.596.756-.42.49-.63 1.155-.63 1.995V47.9c0 .21.084.406.252.588.182.168.378.252.588.252h.252l.168.168v.924l-.168.168h-4.956l-.168-.168zm25.375.462c-1.078 0-2.037-.245-2.877-.735a5.295 5.295 0 01-1.974-1.995c-.462-.854-.693-1.799-.693-2.835 0-1.008.238-1.925.714-2.751a5.229 5.229 0 011.974-1.932c.84-.476 1.771-.714 2.793-.714 1.12 0 2.065.252 2.835.756a4.635 4.635 0 011.722 2.016c.378.826.567 1.75.567 2.772l-.168.168h-7.812c0 .616.147 1.176.441 1.68.294.49.707.882 1.239 1.176.532.28 1.148.42 1.848.42 1.722 0 3.045-.7 3.969-2.1l.168-.084.315.126.063.168c-.336 1.19-.959 2.135-1.869 2.835-.91.686-1.995 1.029-3.255 1.029zm1.47-6.594c.294 0 .504-.07.63-.21a.812.812 0 00.21-.567c0-.686-.217-1.232-.651-1.638-.434-.406-1.001-.609-1.701-.609-.812 0-1.484.28-2.016.84-.518.546-.805 1.218-.861 2.016l.168.168h4.221zm13.879 6.594c-.868 0-1.596-.252-2.184-.756-.574-.518-.861-1.288-.861-2.31V40.97h-1.554l-.168-.168v-.462l3.969-3.612h.357l.168.168v2.73h2.646l.168.168v1.008l-.168.168h-2.646v6.447c0 .42.112.742.336.966.224.21.511.315.861.315.588 0 1.043-.308 1.365-.924l.168-.063.42.168.084.168c-.49 1.498-1.477 2.247-2.961 2.247zm9.571 0c-1.064 0-2.03-.231-2.898-.693a5.414 5.414 0 01-2.058-1.953c-.49-.84-.735-1.785-.735-2.835s.245-1.988.735-2.814a5.212 5.212 0 012.058-1.953c.868-.476 1.834-.714 2.898-.714s2.03.238 2.898.714a5.067 5.067 0 012.037 1.953c.504.826.756 1.764.756 2.814s-.252 1.995-.756 2.835a5.258 5.258 0 01-2.037 1.953c-.868.462-1.834.693-2.898.693zm0-1.344c.924 0 1.617-.378 2.079-1.134.476-.77.714-1.771.714-3.003 0-1.232-.238-2.226-.714-2.982-.462-.77-1.155-1.155-2.079-1.155-.924 0-1.624.385-2.1 1.155-.462.756-.693 1.75-.693 2.982 0 1.232.231 2.233.693 3.003.476.756 1.176 1.134 2.1 1.134zm17.012 1.344a5.484 5.484 0 01-2.625-.651 5.26 5.26 0 01-1.932-1.869c-.476-.812-.714-1.743-.714-2.793 0-1.162.266-2.17.798-3.024a5.42 5.42 0 012.142-1.953 6.217 6.217 0 012.856-.672c1.26 0 2.324.245 3.192.735l.147.21.105 2.751-.168.168h-1.029l-.168-.168v-.378c0-.616-.189-1.106-.567-1.47-.378-.364-.889-.546-1.533-.546-.952 0-1.68.385-2.184 1.155-.49.756-.735 1.673-.735 2.751 0 .714.133 1.372.399 1.974a3.422 3.422 0 001.134 1.407c.49.35 1.057.525 1.701.525 1.344 0 2.359-.637 3.045-1.911l.189-.084.315.105.084.168c-.308 1.05-.826 1.911-1.554 2.583-.714.658-1.68.987-2.898.987zm11.535 0c-1.064 0-2.03-.231-2.898-.693a5.414 5.414 0 01-2.058-1.953c-.49-.84-.735-1.785-.735-2.835s.245-1.988.735-2.814a5.212 5.212 0 012.058-1.953c.868-.476 1.834-.714 2.898-.714s2.03.238 2.898.714a5.067 5.067 0 012.037 1.953c.504.826.756 1.764.756 2.814s-.252 1.995-.756 2.835a5.258 5.258 0 01-2.037 1.953c-.868.462-1.834.693-2.898.693zm0-1.344c.924 0 1.617-.378 2.079-1.134.476-.77.714-1.771.714-3.003 0-1.232-.238-2.226-.714-2.982-.462-.77-1.155-1.155-2.079-1.155-.924 0-1.624.385-2.1 1.155-.462.756-.693 1.75-.693 2.982 0 1.232.231 2.233.693 3.003.476.756 1.176 1.134 2.1 1.134zm7.126.882v-.924l.168-.168h.252c.21 0 .399-.084.567-.252.182-.182.273-.378.273-.588v-5.292c0-.21-.091-.399-.273-.567-.168-.182-.357-.273-.567-.273h-.252l-.168-.168v-.567l.126-.168 3.066-1.239h.672l.168.168-.21 1.407a4.294 4.294 0 011.512-1.365c.616-.336 1.316-.504 2.1-.504 1.134 0 2.03.308 2.688.924.672.602 1.008 1.491 1.008 2.667V47.9c0 .21.084.406.252.588.182.168.378.252.588.252h.252l.168.168v.924l-.168.168h-4.956l-.168-.168v-.924l.168-.168h.252c.21 0 .399-.084.567-.252.182-.182.273-.378.273-.588v-4.872c0-.672-.182-1.176-.546-1.512-.35-.336-.826-.504-1.428-.504-.686 0-1.253.252-1.701.756-.434.49-.651 1.155-.651 1.995V47.9c0 .21.084.406.252.588.182.168.378.252.588.252h.252l.168.168v.924l-.168.168h-4.956l-.168-.168zm13.616 0v-.924l.168-.168h.252c.21 0 .399-.084.567-.252.182-.182.273-.378.273-.588v-6.174a.806.806 0 00-.252-.588.806.806 0 00-.588-.252h-.252l-.168-.168v-.924l.168-.168h1.092v-.987c0-.84.168-1.526.504-2.058.336-.546.756-.945 1.26-1.197a3.437 3.437 0 011.554-.378c.546 0 .994.154 1.344.462.364.294.546.686.546 1.176 0 .448-.147.826-.441 1.134-.294.308-.679.462-1.155.462-.462 0-.84-.161-1.134-.483-.28-.322-.42-.728-.42-1.218-.546.308-.819.91-.819 1.806l.168.231 1.197.483.168.189v.378h1.512l.168.168v.924l-.168.168h-1.512V47.9c0 .21.084.406.252.588.182.168.378.252.588.252h.252l.168.168v.924l-.168.168h-4.956l-.168-.168zm7.138 0v-.924l.168-.168h.252c.21 0 .399-.084.567-.252.182-.182.273-.378.273-.588v-5.292c0-.21-.091-.399-.273-.567-.168-.182-.357-.273-.567-.273h-.252l-.168-.168v-.567l.126-.168 3.066-1.239h.672l.168.168-.21 1.596a3.704 3.704 0 011.197-1.491 2.917 2.917 0 011.764-.567c.504 0 .917.154 1.239.462.336.294.504.672.504 1.134 0 .434-.154.805-.462 1.113-.294.294-.665.441-1.113.441-.434 0-.798-.14-1.092-.42a1.619 1.619 0 01-.483-1.071c-.406.252-.735.665-.987 1.239-.238.56-.357 1.204-.357 1.932V47.9c0 .21.084.406.252.588.182.168.378.252.588.252h.252l.168.168v.924L233.8 50h-4.956l-.168-.168zm14.776.462c-1.064 0-2.03-.231-2.898-.693a5.414 5.414 0 01-2.058-1.953c-.49-.84-.735-1.785-.735-2.835s.245-1.988.735-2.814a5.212 5.212 0 012.058-1.953c.868-.476 1.834-.714 2.898-.714s2.03.238 2.898.714a5.067 5.067 0 012.037 1.953c.504.826.756 1.764.756 2.814s-.252 1.995-.756 2.835a5.258 5.258 0 01-2.037 1.953c-.868.462-1.834.693-2.898.693zm0-1.344c.924 0 1.617-.378 2.079-1.134.476-.77.714-1.771.714-3.003 0-1.232-.238-2.226-.714-2.982-.462-.77-1.155-1.155-2.079-1.155-.924 0-1.624.385-2.1 1.155-.462.756-.693 1.75-.693 2.982 0 1.232.231 2.233.693 3.003.476.756 1.176 1.134 2.1 1.134zm7.127.882v-.924l.168-.168h.252c.21 0 .399-.084.567-.252.182-.182.273-.378.273-.588v-5.292c0-.21-.091-.399-.273-.567-.168-.182-.357-.273-.567-.273h-.252l-.168-.168v-.567l.126-.168 3.066-1.239h.672l.168.168-.21 1.407a4.294 4.294 0 011.512-1.365c.616-.336 1.316-.504 2.1-.504 1.134 0 2.03.308 2.688.924.672.602 1.008 1.491 1.008 2.667V47.9c0 .21.084.406.252.588.182.168.378.252.588.252h.252l.168.168v.924l-.168.168h-4.956l-.168-.168v-.924l.168-.168h.252c.21 0 .399-.084.567-.252.182-.182.273-.378.273-.588v-4.872c0-.672-.182-1.176-.546-1.512-.35-.336-.826-.504-1.428-.504-.686 0-1.253.252-1.701.756-.434.49-.651 1.155-.651 1.995V47.9c0 .21.084.406.252.588.182.168.378.252.588.252h.252l.168.168v.924l-.168.168h-4.956l-.168-.168zm17.509.462c-.868 0-1.596-.252-2.184-.756-.574-.518-.861-1.288-.861-2.31V40.97h-1.554l-.168-.168v-.462l3.969-3.612h.357l.168.168v2.73h2.646l.168.168v1.008l-.168.168h-2.646v6.447c0 .42.112.742.336.966.224.21.511.315.861.315.588 0 1.043-.308 1.365-.924l.168-.063.42.168.084.168c-.49 1.498-1.477 2.247-2.961 2.247zm10.779 4.242l-.441-.714v-.252l3.045-4.347-3.885-7.917a.835.835 0 00-.252-.315c-.084-.07-.203-.105-.357-.105h-.483l-.168-.168v-.924l.168-.168h5.229l.168.168v.924l-.168.168h-.42c-.322 0-.483.14-.483.42 0 .14.042.294.126.462l2.079 4.368 2.1-4.368c.084-.168.126-.322.126-.462a.362.362 0 00-.126-.294c-.084-.084-.203-.126-.357-.126h-.42l-.168-.168v-.924l.168-.168h3.444l.168.168v.924l-.168.168h-.357a.645.645 0 00-.441.147 1.203 1.203 0 00-.315.399l-6.195 13.062-.252.252-.882.021-.483-.231zm15.076-4.242c-1.064 0-2.03-.231-2.898-.693a5.414 5.414 0 01-2.058-1.953c-.49-.84-.735-1.785-.735-2.835s.245-1.988.735-2.814a5.212 5.212 0 012.058-1.953c.868-.476 1.834-.714 2.898-.714s2.03.238 2.898.714a5.067 5.067 0 012.037 1.953c.504.826.756 1.764.756 2.814s-.252 1.995-.756 2.835a5.258 5.258 0 01-2.037 1.953c-.868.462-1.834.693-2.898.693zm0-1.344c.924 0 1.617-.378 2.079-1.134.476-.77.714-1.771.714-3.003 0-1.232-.238-2.226-.714-2.982-.462-.77-1.155-1.155-2.079-1.155-.924 0-1.624.385-2.1 1.155-.462.756-.693 1.75-.693 2.982 0 1.232.231 2.233.693 3.003.476.756 1.176 1.134 2.1 1.134zm11.749 1.344c-1.134 0-2.037-.301-2.709-.903-.658-.616-.987-1.512-.987-2.688v-4.305c0-.21-.091-.399-.273-.567-.168-.182-.357-.273-.567-.273h-.252l-.168-.168v-.567l.126-.168 3.276-1.155h.672l.168.168-.21 1.974v4.977c0 .672.175 1.176.525 1.512.364.336.847.504 1.449.504.686 0 1.246-.245 1.68-.735.448-.504.672-1.176.672-2.016v-3.486c0-.21-.091-.399-.273-.567-.168-.182-.357-.273-.567-.273h-.252l-.168-.168v-.567l.126-.168 3.276-1.155h.672l.168.168-.21 1.974v5.586c0 .21.084.406.252.588.182.168.378.252.588.252h.252l.168.168v.567l-.168.168-3.024 1.239h-.672l-.168-.168v-1.323c-.378.476-.875.861-1.491 1.155-.602.28-1.239.42-1.911.42zm8.646-.462v-.924l.168-.168h.252c.21 0 .399-.084.567-.252.182-.182.273-.378.273-.588v-5.292c0-.21-.091-.399-.273-.567-.168-.182-.357-.273-.567-.273h-.252l-.168-.168v-.567l.126-.168 3.066-1.239h.672l.168.168-.21 1.596a3.704 3.704 0 011.197-1.491 2.917 2.917 0 011.764-.567c.504 0 .917.154 1.239.462.336.294.504.672.504 1.134 0 .434-.154.805-.462 1.113-.294.294-.665.441-1.113.441-.434 0-.798-.14-1.092-.42a1.619 1.619 0 01-.483-1.071c-.406.252-.735.665-.987 1.239-.238.56-.357 1.204-.357 1.932V47.9c0 .21.084.406.252.588.182.168.378.252.588.252h.252l.168.168v.924l-.168.168h-4.956l-.168-.168zM122.539 63.198a1.73 1.73 0 01-1.239-.504 1.73 1.73 0 01-.504-1.239c0-.49.168-.903.504-1.239a1.73 1.73 0 011.239-.504c.49 0 .903.168 1.239.504.336.336.504.749.504 1.239 0 .476-.168.889-.504 1.239a1.684 1.684 0 01-1.239.504zm-2.667 11.634v-.924l.168-.168h.252c.21 0 .399-.084.567-.252.182-.182.273-.378.273-.588v-5.292c0-.21-.091-.399-.273-.567-.168-.182-.357-.273-.567-.273h-.252l-.168-.168v-.567l.126-.168 3.276-1.239h.63l.21.21-.21 1.932V72.9c0 .21.084.406.252.588.182.168.378.252.588.252h.252l.168.168v.924l-.168.168h-4.956l-.168-.168zm6.727 0v-.924l.168-.168h.252c.21 0 .399-.084.567-.252.182-.182.273-.378.273-.588v-5.292c0-.21-.091-.399-.273-.567-.168-.182-.357-.273-.567-.273h-.252l-.168-.168v-.567l.126-.168 3.066-1.239h.672l.168.168-.21 1.596a3.704 3.704 0 011.197-1.491 2.917 2.917 0 011.764-.567c.504 0 .917.154 1.239.462.336.294.504.672.504 1.134 0 .434-.154.805-.462 1.113-.294.294-.665.441-1.113.441-.434 0-.798-.14-1.092-.42a1.619 1.619 0 01-.483-1.071c-.406.252-.735.665-.987 1.239-.238.56-.357 1.204-.357 1.932V72.9c0 .21.084.406.252.588.182.168.378.252.588.252h.252l.168.168v.924l-.168.168h-4.956l-.168-.168zm9.454 0v-.924l.168-.168h.252c.21 0 .399-.084.567-.252.182-.182.273-.378.273-.588v-5.292c0-.21-.091-.399-.273-.567-.168-.182-.357-.273-.567-.273h-.252l-.168-.168v-.567l.126-.168 3.066-1.239h.672l.168.168-.21 1.596a3.704 3.704 0 011.197-1.491 2.917 2.917 0 011.764-.567c.504 0 .917.154 1.239.462.336.294.504.672.504 1.134 0 .434-.154.805-.462 1.113-.294.294-.665.441-1.113.441-.434 0-.798-.14-1.092-.42a1.619 1.619 0 01-.483-1.071c-.406.252-.735.665-.987 1.239-.238.56-.357 1.204-.357 1.932V72.9c0 .21.084.406.252.588.182.168.378.252.588.252h.252l.168.168v.924l-.168.168h-4.956l-.168-.168zm14.041.462c-.924 0-1.764-.217-2.52-.651-.742-.434-1.337-1.057-1.785-1.869-.434-.812-.651-1.764-.651-2.856 0-1.162.245-2.163.735-3.003.49-.84 1.141-1.477 1.953-1.911a5.307 5.307 0 012.604-.672c1.414 0 2.569.546 3.465 1.638H154l1.029-1.344h.861l.168.168v7.434c0 .21.084.406.252.588.182.168.378.252.588.252h.252l.168.168v.567l-.168.168-2.898 1.239h-.672l-.168-.168v-1.407a4.75 4.75 0 01-1.428 1.239c-.518.28-1.148.42-1.89.42zm.546-1.386c.882 0 1.54-.378 1.974-1.134.448-.77.672-1.757.672-2.961s-.224-2.184-.672-2.94c-.434-.77-1.092-1.155-1.974-1.155-.882 0-1.547.385-1.995 1.155-.434.756-.651 1.736-.651 2.94s.217 2.191.651 2.961c.448.756 1.113 1.134 1.995 1.134zm11.945 1.386c-.868 0-1.596-.252-2.184-.756-.574-.518-.861-1.288-.861-2.31V65.97h-1.554l-.168-.168v-.462l3.969-3.612h.357l.168.168v2.73h2.646l.168.168v1.008l-.168.168h-2.646v6.447c0 .42.112.742.336.966.224.21.511.315.861.315.588 0 1.043-.308 1.365-.924l.168-.063.42.168.084.168c-.49 1.498-1.477 2.247-2.961 2.247zm6.753-12.096a1.73 1.73 0 01-1.239-.504 1.73 1.73 0 01-.504-1.239c0-.49.168-.903.504-1.239a1.73 1.73 0 011.239-.504c.49 0 .903.168 1.239.504.336.336.504.749.504 1.239 0 .476-.168.889-.504 1.239a1.684 1.684 0 01-1.239.504zm-2.667 11.634v-.924l.168-.168h.252c.21 0 .399-.084.567-.252.182-.182.273-.378.273-.588v-5.292c0-.21-.091-.399-.273-.567-.168-.182-.357-.273-.567-.273h-.252l-.168-.168v-.567l.126-.168 3.276-1.239h.63l.21.21-.21 1.932V72.9c0 .21.084.406.252.588.182.168.378.252.588.252h.252l.168.168v.924l-.168.168h-4.956l-.168-.168zm12.172.462c-1.064 0-2.03-.231-2.898-.693a5.414 5.414 0 01-2.058-1.953c-.49-.84-.735-1.785-.735-2.835s.245-1.988.735-2.814a5.212 5.212 0 012.058-1.953c.868-.476 1.834-.714 2.898-.714s2.03.238 2.898.714a5.067 5.067 0 012.037 1.953c.504.826.756 1.764.756 2.814s-.252 1.995-.756 2.835a5.258 5.258 0 01-2.037 1.953c-.868.462-1.834.693-2.898.693zm0-1.344c.924 0 1.617-.378 2.079-1.134.476-.77.714-1.771.714-3.003 0-1.232-.238-2.226-.714-2.982-.462-.77-1.155-1.155-2.079-1.155-.924 0-1.624.385-2.1 1.155-.462.756-.693 1.75-.693 2.982 0 1.232.231 2.233.693 3.003.476.756 1.176 1.134 2.1 1.134zm7.126.882v-.924l.168-.168h.252c.21 0 .399-.084.567-.252.182-.182.273-.378.273-.588v-5.292c0-.21-.091-.399-.273-.567-.168-.182-.357-.273-.567-.273h-.252l-.168-.168v-.567l.126-.168 3.066-1.239h.672l.168.168-.21 1.407a4.294 4.294 0 011.512-1.365c.616-.336 1.316-.504 2.1-.504 1.134 0 2.03.308 2.688.924.672.602 1.008 1.491 1.008 2.667V72.9c0 .21.084.406.252.588.182.168.378.252.588.252h.252l.168.168v.924l-.168.168h-4.956l-.168-.168v-.924l.168-.168h.252c.21 0 .399-.084.567-.252.182-.182.273-.378.273-.588v-4.872c0-.672-.182-1.176-.546-1.512-.35-.336-.826-.504-1.428-.504-.686 0-1.253.252-1.701.756-.434.49-.651 1.155-.651 1.995V72.9c0 .21.084.406.252.588.182.168.378.252.588.252h.252l.168.168v.924l-.168.168h-4.956l-.168-.168zm18.655.462c-.924 0-1.764-.217-2.52-.651-.742-.434-1.337-1.057-1.785-1.869-.434-.812-.651-1.764-.651-2.856 0-1.162.245-2.163.735-3.003.49-.84 1.141-1.477 1.953-1.911a5.307 5.307 0 012.604-.672c1.414 0 2.569.546 3.465 1.638h.105l1.029-1.344h.861l.168.168v7.434c0 .21.084.406.252.588.182.168.378.252.588.252h.252l.168.168v.567l-.168.168-2.898 1.239h-.672l-.168-.168v-1.407a4.75 4.75 0 01-1.428 1.239c-.518.28-1.148.42-1.89.42zm.546-1.386c.882 0 1.54-.378 1.974-1.134.448-.77.672-1.757.672-2.961s-.224-2.184-.672-2.94c-.434-.77-1.092-1.155-1.974-1.155-.882 0-1.547.385-1.995 1.155-.434.756-.651 1.736-.651 2.94s.217 2.191.651 2.961c.448.756 1.113 1.134 1.995 1.134zm7.929.924v-.924l.168-.168h.252c.21 0 .399-.084.567-.252.182-.182.273-.378.273-.588V62.862c0-.21-.091-.399-.273-.567-.168-.182-.357-.273-.567-.273h-.252l-.168-.168v-.567l.126-.168 3.276-1.239h.672l.168.168-.21 1.974V72.9c0 .21.084.406.252.588.182.168.378.252.588.252h.252l.168.168v.924l-.168.168h-4.956l-.168-.168zm18.299.462c-1.218 0-2.254-.427-3.108-1.281v.819l-.168.168H224.3l-.168-.168v-.924l.168-.168h.252c.21 0 .399-.084.567-.252.182-.182.273-.378.273-.588V62.862c0-.21-.091-.399-.273-.567-.168-.182-.357-.273-.567-.273h-.252l-.168-.168v-.567l.168-.168 3.234-1.239h.672l.168.168-.21 1.974v3.696c.294-.378.714-.7 1.26-.966.56-.28 1.19-.42 1.89-.42.868 0 1.68.224 2.436.672.77.434 1.386 1.071 1.848 1.911.476.826.714 1.792.714 2.898 0 1.218-.238 2.24-.714 3.066-.476.812-1.092 1.421-1.848 1.827a4.965 4.965 0 01-2.352.588zm-.609-1.386c.882 0 1.54-.378 1.974-1.134.434-.77.651-1.757.651-2.961s-.217-2.184-.651-2.94c-.434-.77-1.092-1.155-1.974-1.155-.882 0-1.54.385-1.974 1.155-.434.756-.651 1.736-.651 2.94s.217 2.191.651 2.961c.434.756 1.092 1.134 1.974 1.134zm12.486 1.386c-1.078 0-2.037-.245-2.877-.735a5.295 5.295 0 01-1.974-1.995c-.462-.854-.693-1.799-.693-2.835 0-1.008.238-1.925.714-2.751a5.229 5.229 0 011.974-1.932c.84-.476 1.771-.714 2.793-.714 1.12 0 2.065.252 2.835.756a4.635 4.635 0 011.722 2.016c.378.826.567 1.75.567 2.772l-.168.168h-7.812c0 .616.147 1.176.441 1.68.294.49.707.882 1.239 1.176.532.28 1.148.42 1.848.42 1.722 0 3.045-.7 3.969-2.1l.168-.084.315.126.063.168c-.336 1.19-.959 2.135-1.869 2.835-.91.686-1.995 1.029-3.255 1.029zm1.47-6.594c.294 0 .504-.07.63-.21a.812.812 0 00.21-.567c0-.686-.217-1.232-.651-1.638-.434-.406-1.001-.609-1.701-.609-.812 0-1.484.28-2.016.84-.518.546-.805 1.218-.861 2.016l.168.168h4.221zm4.673 6.132v-.924l.168-.168h.252c.21 0 .399-.084.567-.252.182-.182.273-.378.273-.588V62.862c0-.21-.091-.399-.273-.567-.168-.182-.357-.273-.567-.273h-.252l-.168-.168v-.567l.126-.168 3.276-1.239h.672l.168.168-.21 1.974V72.9c0 .21.084.406.252.588.182.168.378.252.588.252h.252l.168.168v.924l-.168.168h-4.956l-.168-.168zm9.17-11.634a1.73 1.73 0 01-1.239-.504 1.73 1.73 0 01-.504-1.239c0-.49.168-.903.504-1.239a1.73 1.73 0 011.239-.504c.49 0 .903.168 1.239.504.336.336.504.749.504 1.239 0 .476-.168.889-.504 1.239a1.684 1.684 0 01-1.239.504zm-2.667 11.634v-.924l.168-.168h.252c.21 0 .399-.084.567-.252.182-.182.273-.378.273-.588v-5.292c0-.21-.091-.399-.273-.567-.168-.182-.357-.273-.567-.273h-.252l-.168-.168v-.567l.126-.168 3.276-1.239h.63l.21.21-.21 1.932V72.9c0 .21.084.406.252.588.182.168.378.252.588.252h.252l.168.168v.924l-.168.168h-4.956l-.168-.168zm12.025.462c-1.078 0-2.037-.245-2.877-.735a5.295 5.295 0 01-1.974-1.995c-.462-.854-.693-1.799-.693-2.835 0-1.008.238-1.925.714-2.751a5.229 5.229 0 011.974-1.932c.84-.476 1.771-.714 2.793-.714 1.12 0 2.065.252 2.835.756a4.635 4.635 0 011.722 2.016c.378.826.567 1.75.567 2.772l-.168.168h-7.812c0 .616.147 1.176.441 1.68.294.49.707.882 1.239 1.176.532.28 1.148.42 1.848.42 1.722 0 3.045-.7 3.969-2.1l.168-.084.315.126.063.168c-.336 1.19-.959 2.135-1.869 2.835-.91.686-1.995 1.029-3.255 1.029zm1.47-6.594c.294 0 .504-.07.63-.21a.812.812 0 00.21-.567c0-.686-.217-1.232-.651-1.638-.434-.406-1.001-.609-1.701-.609-.812 0-1.484.28-2.016.84-.518.546-.805 1.218-.861 2.016l.168.168h4.221zm5.001 6.132v-.924l.168-.168h.252c.21 0 .399-.084.567-.252.182-.182.273-.378.273-.588v-6.174a.806.806 0 00-.252-.588.806.806 0 00-.588-.252h-.252l-.168-.168v-.924l.168-.168h1.092v-.987c0-.84.168-1.526.504-2.058.336-.546.756-.945 1.26-1.197a3.437 3.437 0 011.554-.378c.546 0 .994.154 1.344.462.364.294.546.686.546 1.176 0 .448-.147.826-.441 1.134-.294.308-.679.462-1.155.462-.462 0-.84-.161-1.134-.483-.28-.322-.42-.728-.42-1.218-.546.308-.819.91-.819 1.806l.168.231 1.197.483.168.189v.378h1.512l.168.168v.924l-.168.168h-1.512V72.9c0 .21.084.406.252.588.182.168.378.252.588.252h.252l.168.168v.924l-.168.168h-4.956l-.168-.168z" fill="#0C0748"/><g clip-path="url(#clip0_32_1297)"><rect x="33.5" y="104" width="333" height="114" rx="16" fill="#F3F3F3" fill-opacity=".6"/><path fill="#FFF2ED" d="M33 104h333v114H33z"/><path d="M85.699 146H84.38v-10.569h1.32V146zm6.287 0v-7.896h1.201v1.246h.118c.18-.44.461-.779.842-1.018.38-.245.835-.367 1.362-.367.518 0 .962.125 1.333.374.376.249.66.586.85 1.011h.117c.215-.425.537-.762.967-1.011a2.84 2.84 0 011.45-.374c.806 0 1.426.225 1.86.674.435.444.652 1.079.652 1.904V146h-1.26v-5.164c0-1.157-.554-1.735-1.662-1.735-.537 0-.977.175-1.319.527a1.788 1.788 0 00-.512 1.296V146h-1.26v-5.361c0-.469-.151-.843-.454-1.121-.298-.278-.696-.417-1.194-.417-.513 0-.947.195-1.304.586-.351.39-.527.864-.527 1.42V146h-1.26zm19.199-7.896V146h-1.201v-1.238h-.118c-.2.445-.507.786-.923 1.026-.415.234-.922.351-1.523.351-.879 0-1.548-.251-2.007-.754-.459-.503-.688-1.226-.688-2.168v-5.113h1.26v4.805c0 .718.141 1.245.424 1.582.284.332.738.498 1.363.498.688 0 1.218-.193 1.589-.578.376-.391.564-.935.564-1.634v-4.673h1.26zm1.95 2.161c0-.654.28-1.201.842-1.64.561-.44 1.262-.66 2.102-.66.825 0 1.506.191 2.043.572.538.38.848.896.931 1.545h-1.245a1.267 1.267 0 00-.586-.762c-.298-.19-.682-.285-1.15-.285-.474 0-.872.11-1.194.329-.318.22-.476.503-.476.85 0 .268.11.493.329.674.225.175.572.32 1.04.432l1.216.293c.752.18 1.306.442 1.663.783.361.342.542.794.542 1.355 0 .699-.301 1.272-.901 1.722-.601.444-1.355.666-2.263.666-.879 0-1.599-.195-2.161-.586-.561-.39-.876-.913-.945-1.567h1.297c.107.342.319.61.637.806.317.19.722.285 1.216.285.532 0 .969-.115 1.311-.344.341-.23.512-.525.512-.886 0-.537-.417-.909-1.252-1.114l-1.355-.329c-.747-.181-1.294-.44-1.641-.777-.341-.341-.512-.795-.512-1.362zm8.248-4.204h1.26v2.043h1.758v1.055h-1.758v4.468c0 .464.093.801.279 1.011.185.21.483.315.893.315a6.2 6.2 0 00.586-.03v1.062a4.327 4.327 0 01-.74.074c-.815 0-1.399-.164-1.75-.491-.352-.327-.528-.867-.528-1.619v-4.79h-1.274v-1.055h1.274v-2.043zm12.601 10.078a3.083 3.083 0 01-1.494-.366 2.675 2.675 0 01-1.04-1.033h-.117V146h-1.201v-11.03h1.26v4.38h.117c.215-.425.544-.762.989-1.011a3.012 3.012 0 011.486-.374c1.006 0 1.81.371 2.41 1.114.601.742.901 1.733.901 2.973 0 1.236-.303 2.227-.908 2.974-.601.742-1.402 1.113-2.403 1.113zm-.292-7.038c-.718 0-1.287.263-1.707.791-.415.527-.623 1.247-.623 2.16s.208 1.634.623 2.161c.42.527.989.791 1.707.791.722 0 1.286-.261 1.691-.784.406-.522.608-1.245.608-2.168s-.202-1.645-.608-2.168c-.405-.522-.969-.783-1.691-.783zm8.49-.022c-.63 0-1.147.212-1.553.637-.405.425-.632.986-.681 1.684h4.351c-.015-.698-.215-1.259-.601-1.684-.386-.425-.891-.637-1.516-.637zm2.08 4.878h1.26a2.744 2.744 0 01-1.165 1.604c-.581.385-1.301.578-2.16.578-1.094 0-1.961-.366-2.6-1.098-.64-.738-.96-1.731-.96-2.981 0-1.246.322-2.239.967-2.981.644-.743 1.509-1.114 2.593-1.114 1.064 0 1.901.354 2.512 1.062.61.708.915 1.678.915 2.908v.483h-5.676v.059c.034.781.254 1.401.659 1.86.41.459.95.689 1.619.689 1.02 0 1.699-.357 2.036-1.069zm13.626-3.436h-1.274a1.793 1.793 0 00-.696-1.018c-.351-.268-.798-.402-1.34-.402-.708 0-1.272.263-1.692.791-.415.527-.623 1.237-.623 2.131 0 .908.21 1.633.63 2.175.42.537.982.806 1.685.806.532 0 .974-.12 1.326-.359.356-.239.593-.581.71-1.025h1.274a2.823 2.823 0 01-1.047 1.823c-.581.464-1.333.696-2.256.696-1.108 0-1.989-.371-2.644-1.113-.654-.747-.981-1.748-.981-3.003 0-1.231.327-2.214.981-2.952.655-.737 1.533-1.106 2.637-1.106.923 0 1.675.242 2.256.725a2.893 2.893 0 011.054 1.831zm7.524 4.527c-.649.727-1.535 1.091-2.659 1.091-1.123 0-2.011-.364-2.666-1.091-.649-.733-.974-1.731-.974-2.996 0-1.269.325-2.268.974-2.995.65-.728 1.539-1.092 2.666-1.092 1.128 0 2.017.364 2.666 1.092.65.727.975 1.726.975 2.995 0 1.265-.328 2.263-.982 2.996zm-4.387-.813c.405.513.981.769 1.728.769.748 0 1.324-.256 1.729-.769.405-.518.608-1.245.608-2.183 0-.937-.203-1.662-.608-2.175-.405-.518-.981-.776-1.729-.776-.747 0-1.323.258-1.728.776-.405.513-.608 1.238-.608 2.175 0 .938.203 1.665.608 2.183zm7.106 1.765v-7.896h1.201v1.246h.118c.18-.44.461-.779.842-1.018.381-.245.835-.367 1.362-.367.518 0 .962.125 1.333.374.376.249.659.586.85 1.011h.117c.215-.425.537-.762.967-1.011a2.837 2.837 0 011.45-.374c.806 0 1.426.225 1.86.674.435.444.652 1.079.652 1.904V146h-1.26v-5.164c0-1.157-.554-1.735-1.662-1.735-.537 0-.977.175-1.319.527a1.79 1.79 0 00-.512 1.296V146h-1.26v-5.361c0-.469-.151-.843-.454-1.121-.298-.278-.696-.417-1.194-.417-.513 0-.947.195-1.304.586-.351.39-.527.864-.527 1.42V146h-1.26zm16.657-8.035c1.006 0 1.809.371 2.41 1.114.605.742.908 1.733.908 2.973 0 1.236-.303 2.227-.908 2.974-.606.742-1.409 1.113-2.41 1.113-.561 0-1.059-.115-1.494-.344a2.274 2.274 0 01-.974-.982h-.117v3.824h-1.26v-10.533h1.201v1.319h.117a2.782 2.782 0 011.048-1.069 2.908 2.908 0 011.479-.389zm-.3 7.039c.722 0 1.289-.261 1.699-.784.41-.522.615-1.245.615-2.168s-.205-1.645-.615-2.168c-.405-.522-.969-.783-1.692-.783-.713 0-1.279.266-1.699.798-.42.527-.63 1.245-.63 2.153 0 .904.208 1.621.623 2.154.42.532.986.798 1.699.798zm8.505-5.925c-.63 0-1.148.212-1.553.637-.405.425-.632.986-.681 1.684h4.351c-.015-.698-.215-1.259-.601-1.684-.386-.425-.891-.637-1.516-.637zm2.08 4.878h1.26a2.744 2.744 0 01-1.165 1.604c-.581.385-1.301.578-2.16.578-1.094 0-1.961-.366-2.6-1.098-.64-.738-.96-1.731-.96-2.981 0-1.246.322-2.239.967-2.981.644-.743 1.509-1.114 2.593-1.114 1.064 0 1.901.354 2.512 1.062.61.708.915 1.678.915 2.908v.483h-5.676v.059c.034.781.254 1.401.659 1.86.41.459.95.689 1.619.689 1.02 0 1.699-.357 2.036-1.069zm3.627-7.896h1.26v2.043h1.758v1.055h-1.758v4.468c0 .464.093.801.278 1.011.186.21.484.315.894.315a6.2 6.2 0 00.586-.03v1.062a4.336 4.336 0 01-.74.074c-.815 0-1.399-.164-1.75-.491-.352-.327-.528-.867-.528-1.619v-4.79h-1.274v-1.055h1.274v-2.043zm7.714 3.018c-.63 0-1.147.212-1.552.637-.406.425-.633.986-.682 1.684h4.351c-.015-.698-.215-1.259-.601-1.684-.385-.425-.891-.637-1.516-.637zm2.08 4.878h1.26a2.738 2.738 0 01-1.164 1.604c-.581.385-1.302.578-2.161.578-1.094 0-1.96-.366-2.6-1.098-.64-.738-.96-1.731-.96-2.981 0-1.246.323-2.239.967-2.981.645-.743 1.509-1.114 2.593-1.114 1.064 0 1.902.354 2.512 1.062.611.708.916 1.678.916 2.908v.483h-5.677v.059c.035.781.254 1.401.66 1.86.41.459.949.689 1.618.689 1.021 0 1.699-.357 2.036-1.069zm3.1 2.043v-7.896h1.201v1.246h.118c.42-.923 1.211-1.385 2.373-1.385.883 0 1.565.254 2.043.762.479.503.718 1.223.718 2.161V146h-1.26v-4.805c0-.708-.154-1.233-.461-1.574-.303-.347-.769-.52-1.399-.52-.635 0-1.14.2-1.516.6-.371.396-.557.938-.557 1.626V146h-1.26zm9.047-9.939h1.26v2.043h1.758v1.055h-1.758v4.468c0 .464.093.801.278 1.011.186.21.484.315.894.315a6.2 6.2 0 00.586-.03v1.062a4.327 4.327 0 01-.74.074c-.815 0-1.399-.164-1.75-.491-.352-.327-.528-.867-.528-1.619v-4.79h-1.274v-1.055h1.274v-2.043zm5.481 12.627h-.945l.696-4.167h1.398l-1.149 4.167zM233.53 146v-7.896h1.201v1.172h.117c.117-.385.381-.7.791-.944.41-.245.877-.367 1.399-.367.239 0 .449.013.63.037v1.26c-.171-.049-.44-.074-.806-.074-.6 0-1.096.181-1.487.542-.39.362-.585.821-.585 1.377V146h-1.26zm7.904-.967c.65 0 1.187-.188 1.612-.564.429-.376.644-.847.644-1.413v-.725l-2.124.139c-.596.039-1.033.163-1.311.373s-.417.515-.417.916c0 .395.149.708.446.937.298.225.682.337 1.15.337zm-.234 1.106c-.776 0-1.416-.212-1.919-.637-.498-.43-.747-1.001-.747-1.714 0-.703.249-1.255.747-1.655.498-.401 1.208-.628 2.131-.681l2.278-.14v-.717c0-.489-.151-.862-.454-1.121-.303-.259-.747-.388-1.333-.388-.474 0-.867.085-1.179.256-.313.171-.513.413-.601.725h-1.274c.083-.629.408-1.137.974-1.523.571-.386 1.279-.579 2.124-.579.957 0 1.697.232 2.219.696.523.464.784 1.109.784 1.934V146h-1.201v-1.165h-.117c-.254.42-.591.743-1.011.967-.42.225-.894.337-1.421.337zm6.366-10.078h1.26v2.043h1.758v1.055h-1.758v4.468c0 .464.093.801.278 1.011.186.21.484.315.894.315a6.2 6.2 0 00.586-.03v1.062a4.327 4.327 0 01-.74.074c-.815 0-1.399-.164-1.75-.491-.352-.327-.528-.867-.528-1.619v-4.79h-1.274v-1.055h1.274v-2.043zm4.712 9.939v-7.896h1.259V146h-1.259zm1.252-9.756a.847.847 0 01-.623.256.846.846 0 01-.622-.256.862.862 0 01-.256-.622c0-.24.085-.445.256-.616a.837.837 0 01.622-.263c.245 0 .452.088.623.263a.839.839 0 01.256.616.862.862 0 01-.256.622zm8.073 8.804c-.649.727-1.536 1.091-2.659 1.091-1.123 0-2.011-.364-2.666-1.091-.649-.733-.974-1.731-.974-2.996 0-1.269.325-2.268.974-2.995.65-.728 1.538-1.092 2.666-1.092s2.017.364 2.666 1.092c.65.727.974 1.726.974 2.995 0 1.265-.327 2.263-.981 2.996zm-4.387-.813c.405.513.981.769 1.728.769s1.324-.256 1.729-.769c.405-.518.608-1.245.608-2.183 0-.937-.203-1.662-.608-2.175-.405-.518-.982-.776-1.729-.776-.747 0-1.323.258-1.728.776-.406.513-.608 1.238-.608 2.175 0 .938.202 1.665.608 2.183zm7.106 1.765v-7.896h1.201v1.246h.117c.42-.923 1.211-1.385 2.373-1.385.884 0 1.565.254 2.044.762.478.503.718 1.223.718 2.161V146h-1.26v-4.805c0-.708-.154-1.233-.462-1.574-.302-.347-.769-.52-1.399-.52-.634 0-1.14.2-1.516.6-.371.396-.556.938-.556 1.626V146h-1.26zm10.951-.967c.65 0 1.187-.188 1.612-.564.429-.376.644-.847.644-1.413v-.725l-2.124.139c-.596.039-1.033.163-1.311.373s-.417.515-.417.916c0 .395.149.708.446.937.298.225.682.337 1.15.337zm-.234 1.106c-.776 0-1.416-.212-1.919-.637-.498-.43-.747-1.001-.747-1.714 0-.703.249-1.255.747-1.655.498-.401 1.209-.628 2.131-.681l2.278-.14v-.717c0-.489-.151-.862-.454-1.121-.303-.259-.747-.388-1.333-.388-.474 0-.867.085-1.179.256-.313.171-.513.413-.601.725h-1.274c.083-.629.408-1.137.974-1.523.571-.386 1.279-.579 2.124-.579.957 0 1.697.232 2.219.696.523.464.784 1.109.784 1.934V146h-1.201v-1.165h-.117c-.254.42-.591.743-1.011.967-.42.225-.894.337-1.421.337zm5.912-.139v-11.03h1.26V146h-1.26zm4.265 2.688h-.945l.696-4.167h1.399l-1.15 4.167zm9.84-3.655c.649 0 1.186-.188 1.611-.564.43-.376.644-.847.644-1.413v-.725l-2.124.139c-.595.039-1.032.163-1.311.373-.278.21-.417.515-.417.916 0 .395.149.708.447.937.297.225.681.337 1.15.337zm-.235 1.106c-.776 0-1.416-.212-1.919-.637-.498-.43-.747-1.001-.747-1.714 0-.703.249-1.255.747-1.655.498-.401 1.209-.628 2.132-.681l2.277-.14v-.717c0-.489-.151-.862-.454-1.121-.302-.259-.747-.388-1.333-.388-.473 0-.866.085-1.179.256-.312.171-.513.413-.601.725h-1.274c.083-.629.408-1.137.974-1.523.571-.386 1.279-.579 2.124-.579.957 0 1.697.232 2.219.696.523.464.784 1.109.784 1.934V146h-1.201v-1.165h-.117c-.254.42-.591.743-1.011.967-.42.225-.894.337-1.421.337zm5.839-.139v-7.896h1.201v1.246h.118c.42-.923 1.211-1.385 2.373-1.385.883 0 1.565.254 2.043.762.479.503.718 1.223.718 2.161V146h-1.26v-4.805c0-.708-.154-1.233-.461-1.574-.303-.347-.769-.52-1.399-.52-.635 0-1.14.2-1.516.6-.371.396-.557.938-.557 1.626V146h-1.26zm11.442.139c-1.01 0-1.816-.371-2.417-1.113-.6-.742-.9-1.734-.9-2.974 0-1.235.3-2.224.9-2.966.606-.747 1.412-1.121 2.417-1.121.552 0 1.045.125 1.48.374.439.244.771.581.996 1.011h.11v-4.38h1.26V146h-1.202v-1.26h-.117c-.249.44-.595.784-1.04 1.033-.444.244-.94.366-1.487.366zm.293-7.038c-.717 0-1.281.263-1.692.791-.41.522-.615 1.242-.615 2.16 0 .923.203 1.646.608 2.168.41.523.977.784 1.699.784.718 0 1.285-.264 1.7-.791.415-.527.622-1.248.622-2.161 0-.903-.21-1.621-.63-2.153-.415-.532-.979-.798-1.692-.798zM82.662 160.265c0-.654.28-1.201.842-1.64.562-.44 1.262-.66 2.102-.66.825 0 1.507.191 2.044.572.537.38.847.896.93 1.545h-1.245a1.263 1.263 0 00-.586-.762c-.298-.19-.681-.285-1.15-.285-.474 0-.872.11-1.194.329-.317.22-.476.503-.476.85 0 .268.11.493.33.674.224.175.57.32 1.04.432l1.215.293c.752.18 1.307.442 1.663.783.361.342.542.794.542 1.355 0 .699-.3 1.272-.9 1.722-.601.444-1.356.666-2.264.666-.879 0-1.6-.195-2.16-.586-.562-.39-.877-.913-.945-1.567h1.296c.107.342.32.61.637.806.318.19.723.285 1.216.285.532 0 .97-.115 1.311-.344.342-.23.513-.525.513-.886 0-.537-.418-.909-1.253-1.114l-1.355-.329c-.747-.181-1.294-.44-1.64-.777-.342-.341-.513-.795-.513-1.362zm14.181-2.161V166h-1.2v-1.238h-.118c-.2.445-.508.786-.923 1.026-.415.234-.923.351-1.523.351-.88 0-1.548-.251-2.007-.754-.46-.503-.689-1.226-.689-2.168v-5.113h1.26v4.805c0 .718.142 1.245.425 1.582.283.332.737.498 1.362.498.689 0 1.218-.193 1.59-.578.376-.391.564-.935.564-1.634v-4.673h1.26zm8.667 2.417h-1.275a1.793 1.793 0 00-.696-1.018c-.351-.268-.798-.402-1.34-.402-.708 0-1.272.263-1.692.791-.415.527-.623 1.237-.623 2.131 0 .908.211 1.633.63 2.175.42.537.982.806 1.685.806.532 0 .974-.12 1.326-.359.356-.239.593-.581.71-1.025h1.275a2.828 2.828 0 01-1.048 1.823c-.581.464-1.333.696-2.256.696-1.108 0-1.989-.371-2.644-1.113-.654-.747-.981-1.748-.981-3.003 0-1.231.327-2.214.981-2.952.655-.737 1.533-1.106 2.637-1.106.923 0 1.675.242 2.256.725a2.899 2.899 0 011.055 1.831zm8.153 0h-1.274a1.803 1.803 0 00-.696-1.018c-.352-.268-.798-.402-1.34-.402-.708 0-1.272.263-1.692.791-.415.527-.623 1.237-.623 2.131 0 .908.21 1.633.63 2.175.42.537.981.806 1.685.806.532 0 .974-.12 1.325-.359.357-.239.593-.581.711-1.025h1.274a2.823 2.823 0 01-1.047 1.823c-.581.464-1.333.696-2.256.696-1.109 0-1.99-.371-2.644-1.113-.654-.747-.982-1.748-.982-3.003 0-1.231.328-2.214.982-2.952.654-.737 1.533-1.106 2.637-1.106.922 0 1.674.242 2.255.725a2.894 2.894 0 011.055 1.831zm4.77-1.442c-.63 0-1.148.212-1.553.637-.405.425-.632.986-.681 1.684h4.351c-.015-.698-.215-1.259-.601-1.684-.386-.425-.891-.637-1.516-.637zm2.08 4.878h1.26a2.744 2.744 0 01-1.165 1.604c-.581.385-1.301.578-2.16.578-1.094 0-1.961-.366-2.601-1.098-.639-.738-.959-1.731-.959-2.981 0-1.246.322-2.239.967-2.981.644-.743 1.509-1.114 2.593-1.114 1.064 0 1.901.354 2.512 1.062.61.708.915 1.678.915 2.908v.483h-5.676v.059c.034.781.254 1.401.659 1.86.41.459.95.689 1.619.689 1.02 0 1.699-.357 2.036-1.069zm2.917-3.692c0-.654.28-1.201.842-1.64.561-.44 1.262-.66 2.102-.66.825 0 1.506.191 2.043.572.538.38.848.896.931 1.545h-1.245a1.267 1.267 0 00-.586-.762c-.298-.19-.682-.285-1.15-.285-.474 0-.872.11-1.194.329-.318.22-.476.503-.476.85 0 .268.11.493.329.674.225.175.572.32 1.04.432l1.216.293c.752.18 1.306.442 1.663.783.361.342.542.794.542 1.355 0 .699-.3 1.272-.901 1.722-.601.444-1.355.666-2.263.666-.879 0-1.599-.195-2.161-.586-.561-.39-.876-.913-.945-1.567h1.297c.107.342.319.61.637.806.317.19.723.285 1.216.285.532 0 .969-.115 1.311-.344.342-.23.512-.525.512-.886 0-.537-.417-.909-1.252-1.114l-1.355-.329c-.747-.181-1.294-.44-1.641-.777-.341-.341-.512-.795-.512-1.362zm7.465 0c0-.654.281-1.201.842-1.64.562-.44 1.262-.66 2.102-.66.825 0 1.506.191 2.044.572.537.38.847.896.93 1.545h-1.245a1.267 1.267 0 00-.586-.762c-.298-.19-.681-.285-1.15-.285-.474 0-.872.11-1.194.329-.317.22-.476.503-.476.85 0 .268.11.493.329.674.225.175.572.32 1.04.432l1.216.293c.752.18 1.306.442 1.663.783.361.342.542.794.542 1.355 0 .699-.3 1.272-.901 1.722-.601.444-1.355.666-2.263.666-.879 0-1.599-.195-2.161-.586-.561-.39-.876-.913-.945-1.567h1.297c.107.342.32.61.637.806.317.19.723.285 1.216.285.532 0 .969-.115 1.311-.344.342-.23.513-.525.513-.886 0-.537-.418-.909-1.253-1.114l-1.355-.329c-.747-.181-1.294-.44-1.641-.777-.341-.341-.512-.795-.512-1.362zm8.322 5.735v-6.841h-1.311v-1.055h1.311v-.878c0-1.553.764-2.33 2.292-2.33.318 0 .601.025.85.074v1.025a3.49 3.49 0 00-.593-.037c-.45 0-.777.108-.982.323-.205.215-.307.542-.307.981v.842h1.809v1.055h-1.809V166h-1.26zm11.054-7.896V166h-1.201v-1.238h-.118c-.2.445-.507.786-.922 1.026-.416.234-.923.351-1.524.351-.879 0-1.548-.251-2.007-.754-.459-.503-.688-1.226-.688-2.168v-5.113h1.26v4.805c0 .718.141 1.245.424 1.582.284.332.738.498 1.363.498.688 0 1.218-.193 1.589-.578.376-.391.564-.935.564-1.634v-4.673h1.26zm2.206 7.896v-11.03h1.26V166h-1.26zm7.489 0v-7.896h1.26V166h-1.26zm1.252-9.756a.846.846 0 01-.622.256.848.848 0 01-.623-.256.862.862 0 01-.256-.622c0-.24.085-.445.256-.616a.84.84 0 01.623-.263c.244 0 .451.088.622.263a.84.84 0 01.257.616.863.863 0 01-.257.622zm2.17 9.756v-7.896h1.201v1.246h.117c.42-.923 1.211-1.385 2.373-1.385.884 0 1.565.254 2.044.762.478.503.718 1.223.718 2.161V166h-1.26v-4.805c0-.708-.154-1.233-.462-1.574-.302-.347-.769-.52-1.399-.52-.634 0-1.14.2-1.516.6-.371.396-.556.938-.556 1.626V166h-1.26zm14.945-.967c.649 0 1.186-.188 1.611-.564.43-.376.645-.847.645-1.413v-.725l-2.124.139c-.596.039-1.033.163-1.312.373-.278.21-.417.515-.417.916 0 .395.149.708.447.937.298.225.681.337 1.15.337zm-.235 1.106c-.776 0-1.416-.212-1.919-.637-.498-.43-.747-1.001-.747-1.714 0-.703.249-1.255.747-1.655.498-.401 1.209-.628 2.132-.681l2.278-.14v-.717c0-.489-.152-.862-.455-1.121-.302-.259-.747-.388-1.333-.388-.473 0-.866.085-1.179.256-.312.171-.512.413-.6.725h-1.275c.083-.629.408-1.137.974-1.523.572-.386 1.28-.579 2.124-.579.957 0 1.697.232 2.22.696.522.464.783 1.109.783 1.934V166h-1.201v-1.165h-.117c-.254.42-.591.743-1.011.967a2.96 2.96 0 01-1.421.337zm5.913-.139v-11.03h1.259V166h-1.259zm3.539 0v-11.03h1.26V166h-1.26zm11.305-8.035c1.005 0 1.809.371 2.409 1.114.606.742.908 1.733.908 2.973 0 1.236-.302 2.227-.908 2.974-.605.742-1.408 1.113-2.409 1.113-.562 0-1.06-.115-1.495-.344a2.28 2.28 0 01-.974-.982h-.117v3.824h-1.26v-10.533h1.202v1.319h.117a2.786 2.786 0 011.047-1.069 2.912 2.912 0 011.48-.389zm-.301 7.039c.723 0 1.289-.261 1.7-.784.41-.522.615-1.245.615-2.168s-.205-1.645-.615-2.168c-.406-.522-.97-.783-1.692-.783-.713 0-1.28.266-1.7.798-.419.527-.629 1.245-.629 2.153 0 .904.207 1.621.622 2.154.42.532.986.798 1.699.798zm11.259.044c-.649.727-1.535 1.091-2.658 1.091s-2.012-.364-2.666-1.091c-.65-.733-.974-1.731-.974-2.996 0-1.269.324-2.268.974-2.995.649-.728 1.538-1.092 2.666-1.092s2.016.364 2.666 1.092c.649.727.974 1.726.974 2.995 0 1.265-.327 2.263-.982 2.996zm-4.387-.813c.405.513.982.769 1.729.769.747 0 1.323-.256 1.728-.769.405-.518.608-1.245.608-2.183 0-.937-.203-1.662-.608-2.175-.405-.518-.981-.776-1.728-.776s-1.324.258-1.729.776c-.405.513-.608 1.238-.608 2.175 0 .938.203 1.665.608 2.183zm6.923-3.97c0-.654.281-1.201.842-1.64.562-.44 1.263-.66 2.103-.66.825 0 1.506.191 2.043.572.537.38.847.896.93 1.545h-1.245a1.263 1.263 0 00-.586-.762c-.298-.19-.681-.285-1.15-.285-.473 0-.871.11-1.194.329-.317.22-.476.503-.476.85 0 .268.11.493.33.674.225.175.571.32 1.04.432l1.216.293c.752.18 1.306.442 1.662.783.362.342.542.794.542 1.355 0 .699-.3 1.272-.901 1.722-.6.444-1.355.666-2.263.666-.879 0-1.599-.195-2.16-.586-.562-.39-.877-.913-.945-1.567h1.296c.108.342.32.61.637.806.318.19.723.285 1.216.285.532 0 .969-.115 1.311-.344.342-.23.513-.525.513-.886 0-.537-.418-.909-1.252-1.114l-1.355-.329c-.748-.181-1.294-.44-1.641-.777-.342-.341-.513-.795-.513-1.362zm7.465 0c0-.654.281-1.201.843-1.64.561-.44 1.262-.66 2.102-.66.825 0 1.506.191 2.043.572.537.38.847.896.93 1.545h-1.245a1.263 1.263 0 00-.586-.762c-.298-.19-.681-.285-1.15-.285-.473 0-.871.11-1.194.329-.317.22-.476.503-.476.85 0 .268.11.493.33.674.225.175.571.32 1.04.432l1.216.293c.752.18 1.306.442 1.662.783.362.342.542.794.542 1.355 0 .699-.3 1.272-.9 1.722-.601.444-1.355.666-2.264.666-.879 0-1.599-.195-2.16-.586-.562-.39-.877-.913-.945-1.567h1.296c.108.342.32.61.637.806.318.19.723.285 1.216.285.533 0 .97-.115 1.311-.344.342-.23.513-.525.513-.886 0-.537-.417-.909-1.252-1.114l-1.355-.329c-.747-.181-1.294-.44-1.641-.777-.342-.341-.513-.795-.513-1.362zm7.824 5.735v-7.896h1.26V166h-1.26zm1.253-9.756a.848.848 0 01-.623.256.844.844 0 01-.622-.256.863.863 0 01-.257-.622.84.84 0 01.257-.616.836.836 0 01.622-.263.84.84 0 01.623.263.839.839 0 01.256.616.862.862 0 01-.256.622zm6.095 9.895a3.078 3.078 0 01-1.494-.366 2.675 2.675 0 01-1.04-1.033h-.117V166h-1.201v-11.03h1.259v4.38h.118a2.37 2.37 0 01.988-1.011c.45-.249.945-.374 1.487-.374 1.006 0 1.809.371 2.41 1.114.6.742.901 1.733.901 2.973 0 1.236-.303 2.227-.909 2.974-.6.742-1.401 1.113-2.402 1.113zm-.293-7.038c-.718 0-1.286.263-1.706.791-.415.527-.623 1.247-.623 2.16s.208 1.634.623 2.161c.42.527.988.791 1.706.791.723 0 1.287-.261 1.692-.784.405-.522.608-1.245.608-2.168s-.203-1.645-.608-2.168c-.405-.522-.969-.783-1.692-.783zm5.414 6.899v-11.03h1.26V166h-1.26zm6.616-6.921c-.63 0-1.148.212-1.553.637-.405.425-.632.986-.681 1.684h4.351c-.015-.698-.215-1.259-.601-1.684-.386-.425-.891-.637-1.516-.637zm2.08 4.878h1.26a2.744 2.744 0 01-1.165 1.604c-.581.385-1.301.578-2.16.578-1.094 0-1.961-.366-2.601-1.098-.639-.738-.959-1.731-.959-2.981 0-1.246.322-2.239.967-2.981.644-.743 1.509-1.114 2.593-1.114 1.064 0 1.901.354 2.512 1.062.61.708.915 1.678.915 2.908v.483h-5.676v.059c.034.781.254 1.401.659 1.86.41.459.95.689 1.619.689 1.02 0 1.699-.357 2.036-1.069zm7.093 2.043v-7.896h1.201v1.172h.118c.117-.385.38-.7.791-.944.41-.245.876-.367 1.399-.367.239 0 .449.013.629.037v1.26c-.17-.049-.439-.074-.805-.074-.601 0-1.096.181-1.487.542-.391.362-.586.821-.586 1.377V166h-1.26zm8.403-6.921c-.63 0-1.148.212-1.553.637-.405.425-.632.986-.681 1.684h4.351c-.015-.698-.215-1.259-.601-1.684-.386-.425-.891-.637-1.516-.637zm2.08 4.878h1.26a2.744 2.744 0 01-1.165 1.604c-.581.385-1.301.578-2.161.578-1.093 0-1.96-.366-2.6-1.098-.639-.738-.959-1.731-.959-2.981 0-1.246.322-2.239.967-2.981.644-.743 1.509-1.114 2.592-1.114 1.065 0 1.902.354 2.513 1.062.61.708.915 1.678.915 2.908v.483h-5.676v.059c.034.781.254 1.401.659 1.86.41.459.95.689 1.619.689 1.02 0 1.699-.357 2.036-1.069zm2.917-3.692c0-.654.28-1.201.842-1.64.561-.44 1.262-.66 2.102-.66.825 0 1.506.191 2.043.572.538.38.848.896.931 1.545h-1.245a1.267 1.267 0 00-.586-.762c-.298-.19-.682-.285-1.15-.285-.474 0-.872.11-1.194.329-.318.22-.476.503-.476.85 0 .268.11.493.329.674.225.175.572.32 1.04.432l1.216.293c.752.18 1.306.442 1.663.783.361.342.542.794.542 1.355 0 .699-.301 1.272-.901 1.722-.601.444-1.355.666-2.263.666-.879 0-1.599-.195-2.161-.586-.561-.39-.876-.913-.945-1.567h1.297c.107.342.319.61.637.806.317.19.723.285 1.216.285.532 0 .969-.115 1.311-.344.341-.23.512-.525.512-.886 0-.537-.417-.909-1.252-1.114l-1.355-.329c-.747-.181-1.294-.44-1.641-.777-.341-.341-.512-.795-.512-1.362zm11.64-2.3c1.005 0 1.809.371 2.409 1.114.606.742.908 1.733.908 2.973 0 1.236-.302 2.227-.908 2.974-.605.742-1.408 1.113-2.409 1.113-.562 0-1.06-.115-1.495-.344a2.28 2.28 0 01-.974-.982h-.117v3.824h-1.26v-10.533h1.202v1.319h.117a2.786 2.786 0 011.047-1.069 2.909 2.909 0 011.48-.389zm-.301 7.039c.723 0 1.289-.261 1.699-.784.411-.522.616-1.245.616-2.168s-.205-1.645-.616-2.168c-.405-.522-.969-.783-1.691-.783-.713 0-1.28.266-1.7.798-.42.527-.63 1.245-.63 2.153 0 .904.208 1.621.623 2.154.42.532.986.798 1.699.798zm8.505-5.925c-.63 0-1.147.212-1.552.637-.406.425-.633.986-.682 1.684h4.351c-.015-.698-.215-1.259-.601-1.684-.385-.425-.891-.637-1.516-.637zm2.08 4.878h1.26a2.738 2.738 0 01-1.164 1.604c-.581.385-1.302.578-2.161.578-1.094 0-1.96-.366-2.6-1.098-.64-.738-.96-1.731-.96-2.981 0-1.246.323-2.239.967-2.981.645-.743 1.509-1.114 2.593-1.114 1.064 0 1.902.354 2.512 1.062.611.708.916 1.678.916 2.908v.483h-5.677v.059c.035.781.254 1.401.66 1.86.41.459.949.689 1.618.689 1.021 0 1.7-.357 2.036-1.069zm9.634-3.436h-1.275a1.793 1.793 0 00-.696-1.018c-.351-.268-.798-.402-1.34-.402-.708 0-1.272.263-1.692.791-.415.527-.622 1.237-.622 2.131 0 .908.209 1.633.629 2.175.42.537.982.806 1.685.806.532 0 .974-.12 1.326-.359.356-.239.593-.581.71-1.025h1.275a2.828 2.828 0 01-1.048 1.823c-.581.464-1.333.696-2.256.696-1.108 0-1.989-.371-2.644-1.113-.654-.747-.981-1.748-.981-3.003 0-1.231.327-2.214.981-2.952.655-.737 1.533-1.106 2.637-1.106.923 0 1.675.242 2.256.725a2.899 2.899 0 011.055 1.831zm2.294-4.46h1.259v2.043h1.758v1.055h-1.758v4.468c0 .464.093.801.279 1.011.185.21.483.315.893.315a6.2 6.2 0 00.586-.03v1.062a4.326 4.326 0 01-.739.074c-.816 0-1.399-.164-1.751-.491-.352-.327-.527-.867-.527-1.619v-4.79h-1.275v-1.055h1.275v-2.043zm4.352 4.204c0-.654.281-1.201.842-1.64.562-.44 1.262-.66 2.102-.66.825 0 1.507.191 2.044.572.537.38.847.896.93 1.545h-1.245a1.263 1.263 0 00-.586-.762c-.298-.19-.681-.285-1.15-.285-.474 0-.872.11-1.194.329-.317.22-.476.503-.476.85 0 .268.11.493.33.674.224.175.571.32 1.04.432l1.215.293c.752.18 1.307.442 1.663.783.361.342.542.794.542 1.355 0 .699-.3 1.272-.901 1.722-.6.444-1.355.666-2.263.666-.879 0-1.599-.195-2.161-.586-.561-.39-.876-.913-.944-1.567h1.296c.107.342.32.61.637.806.318.19.723.285 1.216.285.532 0 .969-.115 1.311-.344.342-.23.513-.525.513-.886 0-.537-.418-.909-1.253-1.114l-1.355-.329c-.747-.181-1.294-.44-1.64-.777-.342-.341-.513-.795-.513-1.362zm-195.87 15.796h1.26v2.043h1.758v1.055h-1.758v4.468c0 .464.093.801.278 1.011.186.21.484.315.894.315a6.2 6.2 0 00.586-.03v1.062a4.327 4.327 0 01-.74.074c-.815 0-1.399-.164-1.75-.491-.352-.327-.528-.867-.528-1.619v-4.79h-1.274v-1.055h1.274v-2.043zm10.468 8.987c-.649.727-1.535 1.091-2.658 1.091s-2.012-.364-2.666-1.091c-.65-.733-.974-1.731-.974-2.996 0-1.269.324-2.268.974-2.995.649-.728 1.538-1.092 2.666-1.092s2.016.364 2.666 1.092c.649.727.974 1.726.974 2.995 0 1.265-.327 2.263-.982 2.996zm-4.387-.813c.405.513.982.769 1.729.769.747 0 1.323-.256 1.728-.769.405-.518.608-1.245.608-2.183 0-.937-.203-1.662-.608-2.175-.405-.518-.981-.776-1.728-.776s-1.324.258-1.729.776c-.405.513-.608 1.238-.608 2.175 0 .938.203 1.665.608 2.183zm17.633-3.714h-1.274a1.803 1.803 0 00-.696-1.018c-.352-.268-.799-.402-1.341-.402-.708 0-1.272.263-1.691.791-.416.527-.623 1.237-.623 2.131 0 .908.21 1.633.63 2.175.42.537.981.806 1.684.806.533 0 .975-.12 1.326-.359.357-.239.593-.581.711-1.025h1.274a2.823 2.823 0 01-1.047 1.823c-.581.464-1.333.696-2.256.696-1.109 0-1.99-.371-2.644-1.113-.655-.747-.982-1.748-.982-3.003 0-1.231.327-2.214.982-2.952.654-.737 1.533-1.106 2.636-1.106.923 0 1.675.242 2.256.725a2.894 2.894 0 011.055 1.831zm7.524 4.527c-.65.727-1.536 1.091-2.659 1.091-1.123 0-2.012-.364-2.666-1.091-.649-.733-.974-1.731-.974-2.996 0-1.269.325-2.268.974-2.995.649-.728 1.538-1.092 2.666-1.092s2.017.364 2.666 1.092c.649.727.974 1.726.974 2.995 0 1.265-.327 2.263-.981 2.996zm-4.388-.813c.406.513.982.769 1.729.769.747 0 1.323-.256 1.728-.769.406-.518.608-1.245.608-2.183 0-.937-.202-1.662-.608-2.175-.405-.518-.981-.776-1.728-.776s-1.323.258-1.729.776c-.405.513-.607 1.238-.607 2.175 0 .938.202 1.665.607 2.183zm7.107 1.765v-7.896h1.201v1.246h.117c.42-.923 1.211-1.385 2.373-1.385.884 0 1.565.254 2.043.762.479.503.718 1.223.718 2.161V186h-1.26v-4.805c0-.708-.153-1.233-.461-1.574-.303-.347-.769-.52-1.399-.52-.635 0-1.14.2-1.516.6-.371.396-.557.938-.557 1.626V186h-1.259zm8.336-5.735c0-.654.281-1.201.843-1.64.561-.44 1.262-.66 2.102-.66.825 0 1.506.191 2.043.572.537.38.847.896.93 1.545h-1.245a1.263 1.263 0 00-.586-.762c-.298-.19-.681-.285-1.15-.285-.473 0-.871.11-1.194.329-.317.22-.476.503-.476.85 0 .268.11.493.33.674.225.175.571.32 1.04.432l1.216.293c.752.18 1.306.442 1.662.783.362.342.542.794.542 1.355 0 .699-.3 1.272-.9 1.722-.601.444-1.355.666-2.264.666-.879 0-1.599-.195-2.16-.586-.562-.39-.877-.913-.945-1.567h1.296c.108.342.32.61.637.806.318.19.723.285 1.216.285.533 0 .97-.115 1.311-.344.342-.23.513-.525.513-.886 0-.537-.417-.909-1.252-1.114l-1.355-.329c-.747-.181-1.294-.44-1.641-.777-.342-.341-.513-.795-.513-1.362zm7.824 5.735v-7.896h1.26V186h-1.26zm1.253-9.756a.848.848 0 01-.623.256.844.844 0 01-.622-.256.863.863 0 01-.257-.622.84.84 0 01.257-.616.836.836 0 01.622-.263.84.84 0 01.623.263.839.839 0 01.256.616.862.862 0 01-.256.622zm5.092 9.895c-1.011 0-1.817-.371-2.417-1.113-.601-.742-.901-1.734-.901-2.974 0-1.235.3-2.224.901-2.966.605-.747 1.411-1.121 2.417-1.121.551 0 1.045.125 1.479.374.44.244.772.581.996 1.011h.11v-4.38h1.26V186h-1.201v-1.26h-.117c-.249.44-.596.784-1.04 1.033a3.04 3.04 0 01-1.487.366zm.293-7.038c-.718 0-1.282.263-1.692.791-.41.522-.615 1.242-.615 2.16 0 .923.202 1.646.607 2.168.411.523.977.784 1.7.784.717 0 1.284-.264 1.699-.791.415-.527.622-1.248.622-2.161 0-.903-.209-1.621-.629-2.153-.415-.532-.979-.798-1.692-.798zm8.908-.022c-.63 0-1.148.212-1.553.637-.405.425-.632.986-.681 1.684h4.35c-.014-.698-.215-1.259-.6-1.684-.386-.425-.891-.637-1.516-.637zm2.08 4.878h1.259a2.738 2.738 0 01-1.164 1.604c-.581.385-1.301.578-2.161.578-1.093 0-1.96-.366-2.6-1.098-.639-.738-.959-1.731-.959-2.981 0-1.246.322-2.239.967-2.981.644-.743 1.508-1.114 2.592-1.114 1.065 0 1.902.354 2.512 1.062.611.708.916 1.678.916 2.908v.483h-5.676v.059c.034.781.254 1.401.659 1.86.41.459.95.689 1.619.689 1.02 0 1.699-.357 2.036-1.069zm3.1 2.043v-7.896h1.201v1.172h.117c.117-.385.381-.7.791-.944.41-.245.876-.367 1.399-.367.239 0 .449.013.63.037v1.26c-.171-.049-.44-.074-.806-.074-.601 0-1.096.181-1.487.542-.39.362-.586.821-.586 1.377V186h-1.259zm9.466 0v-7.896h1.201v1.246h.117a2.12 2.12 0 01.842-1.018c.381-.245.835-.367 1.363-.367.517 0 .962.125 1.333.374.376.249.659.586.849 1.011h.118c.214-.425.537-.762.966-1.011a2.84 2.84 0 011.451-.374c.805 0 1.425.225 1.86.674.435.444.652 1.079.652 1.904V186h-1.26v-5.164c0-1.157-.554-1.735-1.663-1.735-.537 0-.976.175-1.318.527a1.787 1.787 0 00-.513 1.296V186h-1.259v-5.361c0-.469-.152-.843-.454-1.121-.298-.278-.696-.417-1.194-.417-.513 0-.948.195-1.304.586-.352.39-.527.864-.527 1.42V186h-1.26zm13.192 2.856c-.2 0-.388-.014-.563-.044v-1.076c.126.024.302.036.527.036.366 0 .657-.097.871-.293.22-.195.413-.529.579-1.003l.147-.469-2.923-7.903h1.362l2.168 6.497h.118l2.16-6.497h1.341l-3.084 8.379c-.337.913-.696 1.536-1.077 1.868-.38.337-.922.505-1.626.505zm6.828-8.591c0-.654.281-1.201.843-1.64.561-.44 1.262-.66 2.102-.66.825 0 1.506.191 2.043.572.537.38.847.896.93 1.545h-1.245a1.263 1.263 0 00-.586-.762c-.298-.19-.681-.285-1.15-.285-.473 0-.871.11-1.194.329-.317.22-.476.503-.476.85 0 .268.11.493.33.674.225.175.571.32 1.04.432l1.216.293c.752.18 1.306.442 1.662.783.362.342.542.794.542 1.355 0 .699-.3 1.272-.9 1.722-.601.444-1.355.666-2.264.666-.879 0-1.599-.195-2.16-.586-.562-.39-.877-.913-.945-1.567h1.296c.108.342.32.61.638.806.317.19.722.285 1.215.285.533 0 .97-.115 1.311-.344.342-.23.513-.525.513-.886 0-.537-.417-.909-1.252-1.114l-1.355-.329c-.747-.181-1.294-.44-1.641-.777-.342-.341-.513-.795-.513-1.362zm10.944-1.186c-.629 0-1.147.212-1.552.637-.406.425-.633.986-.681 1.684h4.35c-.015-.698-.215-1.259-.6-1.684-.386-.425-.892-.637-1.517-.637zm2.08 4.878h1.26a2.738 2.738 0 01-1.164 1.604c-.581.385-1.302.578-2.161.578-1.094 0-1.96-.366-2.6-1.098-.64-.738-.96-1.731-.96-2.981 0-1.246.323-2.239.967-2.981.645-.743 1.509-1.114 2.593-1.114 1.065 0 1.902.354 2.512 1.062.611.708.916 1.678.916 2.908v.483h-5.676v.059c.034.781.253 1.401.659 1.86.41.459.949.689 1.618.689 1.021 0 1.7-.357 2.036-1.069zm3.174 2.043v-11.03h1.259V186h-1.259zm3.993 0v-6.841h-1.311v-1.055h1.311v-.878c0-1.553.764-2.33 2.292-2.33.318 0 .601.025.85.074v1.025a3.49 3.49 0 00-.593-.037c-.449 0-.777.108-.982.323-.205.215-.307.542-.307.981v.842h1.809v1.055h-1.809V186h-1.26zm18.592-7.896L248.53 186h-1.281l-1.766-6.108h-.117L243.608 186h-1.274l-2.212-7.896h1.275l1.552 6.314h.117l1.766-6.314h1.208l1.765 6.314h.117l1.553-6.314h1.267zm7.055 6.944c-.649.727-1.535 1.091-2.659 1.091-1.123 0-2.011-.364-2.666-1.091-.649-.733-.974-1.731-.974-2.996 0-1.269.325-2.268.974-2.995.65-.728 1.539-1.092 2.666-1.092 1.128 0 2.017.364 2.666 1.092.65.727.975 1.726.975 2.995 0 1.265-.328 2.263-.982 2.996zm-4.387-.813c.405.513.981.769 1.728.769.748 0 1.324-.256 1.729-.769.405-.518.608-1.245.608-2.183 0-.937-.203-1.662-.608-2.175-.405-.518-.981-.776-1.729-.776-.747 0-1.323.258-1.728.776-.405.513-.608 1.238-.608 2.175 0 .938.203 1.665.608 2.183zm7.106 1.765v-7.896h1.201v1.172h.118c.117-.385.38-.7.791-.944.41-.245.876-.367 1.398-.367.24 0 .45.013.63.037v1.26c-.171-.049-.439-.074-.805-.074-.601 0-1.097.181-1.487.542-.391.362-.586.821-.586 1.377V186h-1.26zm6.44-9.939h1.26v2.043h1.757v1.055h-1.757v4.468c0 .464.092.801.278 1.011.185.21.483.315.893.315a6.2 6.2 0 00.586-.03v1.062a4.316 4.316 0 01-.739.074c-.816 0-1.399-.164-1.751-.491-.351-.327-.527-.867-.527-1.619v-4.79h-1.275v-1.055h1.275v-2.043zm4.755 9.939v-11.03h1.26v4.38h.117c.2-.445.505-.787.915-1.026.415-.239.921-.359 1.517-.359.839 0 1.503.259 1.992.777.488.512.732 1.228.732 2.146V186h-1.26v-4.805c0-1.396-.608-2.094-1.823-2.094-.694 0-1.233.202-1.619.607-.381.401-.571.94-.571 1.619V186h-1.26zm8.974 2.856c-.2 0-.388-.014-.564-.044v-1.076c.127.024.303.036.527.036.366 0 .657-.097.872-.293.22-.195.412-.529.578-1.003l.147-.469-2.922-7.903h1.362l2.168 6.497h.117l2.161-6.497h1.34l-3.084 8.379c-.336.913-.695 1.536-1.076 1.868-.381.337-.923.505-1.626.505zm7.172-2.783a.937.937 0 01-.674-.278.937.937 0 01-.278-.674.92.92 0 01.278-.674.937.937 0 01.674-.278.92.92 0 01.674.278.92.92 0 01.278.674.937.937 0 01-.278.674.92.92 0 01-.674.278z" fill="#0C0748"/></g></g><defs><clipPath id="clip0_32_1297"><rect x="33.5" y="104" width="333" height="114" rx="16" fill="#fff"/></clipPath><filter id="filter0_d_32_1297" x="0" y="0" width="394" height="260" filterUnits="userSpaceOnUse" color-interpolation-filters="sRGB"><feFlood flood-opacity="0" result="BackgroundImageFix"/><feColorMatrix in="SourceAlpha" values="0 0 0 0 0 0 0 0 0 0 0 0 0 0 0 0 0 0 127 0" result="hardAlpha"/><feOffset dx="-3" dy="6"/><feGaussianBlur stdDeviation="6"/><feComposite in2="hardAlpha" operator="out"/><feColorMatrix values="0 0 0 0 0 0 0 0 0 0 0 0 0 0 0 0 0 0 0.04 0"/><feBlend in2="BackgroundImageFix" result="effect1_dropShadow_32_1297"/><feBlend in="SourceGraphic" in2="effect1_dropShadow_32_1297" result="shape"/></filter></defs></svg>