<svg width="322" height="132" fill="none" xmlns="http://www.w3.org/2000/svg"><g filter="url(#filter0_d_405_1519)"><rect x="24" y="22" width="274" height="84" rx="16" fill="#fff"/><path d="M48.681 59.856v-.792l.144-.144h.576c.18 0 .342-.072.486-.216.156-.156.234-.324.234-.504v-9c0-.18-.078-.342-.234-.486-.144-.156-.306-.234-.486-.234h-.576l-.144-.144v-.792l.144-.144h5.148l.144.144v.792l-.144.144h-.576c-.18 0-.348.078-.504.234a.671.671 0 00-.216.486v9c0 .18.072.348.216.504a.732.732 0 00.504.216h.576l.144.144v.792l-.144.144h-5.148l-.144-.144zm9.92.396c-.624 0-1.2-.072-1.728-.216a4.848 4.848 0 01-1.332-.576l-.09-.18.486-1.98.144-.144h.612l.144.144c0 .612.144 1.098.432 1.458.3.348.708.522 1.224.522.444 0 .768-.126.972-.378.216-.252.324-.552.324-.9 0-.42-.108-.744-.324-.972-.216-.228-.594-.444-1.134-.648-.9-.348-1.566-.744-1.998-1.188a2.226 2.226 0 01-.63-1.584c0-.828.306-1.494.918-1.998.624-.504 1.41-.756 2.358-.756.84 0 1.578.168 2.214.504l.126.18.09 2.016-.144.144h-.684l-.144-.144c-.108-1.14-.6-1.71-1.476-1.71-.324 0-.6.102-.828.306-.228.192-.342.456-.342.792 0 .36.15.678.45.954.3.264.786.534 1.458.81.732.3 1.296.642 1.692 1.026.396.384.594.924.594 1.62 0 .936-.33 1.656-.99 2.16-.648.492-1.446.738-2.394.738zm12.137 0c-.744 0-1.368-.216-1.872-.648-.492-.444-.738-1.104-.738-1.98V52.26h-1.332l-.144-.144v-.396l3.402-3.096h.306l.144.144v2.34h2.268l.144.144v.864l-.144.144h-2.268v5.526c0 .36.096.636.288.828.192.18.438.27.738.27.504 0 .894-.264 1.17-.792l.144-.054.36.144.072.144c-.42 1.284-1.266 1.926-2.538 1.926zm3.43-.396v-.792l.144-.144h.216c.18 0 .342-.072.486-.216.156-.156.234-.324.234-.504v-8.604c0-.18-.078-.342-.234-.486-.144-.156-.306-.234-.486-.234h-.216l-.144-.144v-.486l.108-.144 2.808-1.062h.576l.144.144-.18 1.692v3.348a3.663 3.663 0 011.26-1.008 3.727 3.727 0 011.656-.36c.972 0 1.74.264 2.304.792.576.516.864 1.278.864 2.286V58.2c0 .18.072.348.216.504a.732.732 0 00.504.216h.216l.144.144v.792l-.144.144h-4.248l-.144-.144v-.792l.144-.144h.216c.18 0 .342-.072.486-.216.156-.156.234-.324.234-.504v-4.194c0-.576-.156-1.008-.468-1.296-.3-.288-.708-.432-1.224-.432-.588 0-1.074.216-1.458.648-.372.42-.558.99-.558 1.71V58.2c0 .18.072.348.216.504a.732.732 0 00.504.216h.216l.144.144v.792L78.56 60h-4.248l-.144-.144zm16.496.396c-.924 0-1.746-.21-2.466-.63a4.538 4.538 0 01-1.692-1.71 5.024 5.024 0 01-.594-2.43c0-.864.204-1.65.612-2.358.42-.708.984-1.26 1.692-1.656a4.77 4.77 0 012.394-.612c.96 0 1.77.216 2.43.648a3.973 3.973 0 011.476 1.728c.324.708.486 1.5.486 2.376l-.144.144h-6.696c0 .528.126 1.008.378 1.44.252.42.606.756 1.062 1.008.456.24.984.36 1.584.36 1.476 0 2.61-.6 3.402-1.8l.144-.072.27.108.054.144c-.288 1.02-.822 1.83-1.602 2.43-.78.588-1.71.882-2.79.882zm1.26-5.652c.252 0 .432-.06.54-.18a.696.696 0 00.18-.486c0-.588-.186-1.056-.558-1.404-.372-.348-.858-.522-1.458-.522-.696 0-1.272.24-1.728.72-.444.468-.69 1.044-.738 1.728l.144.144h3.618zm4.359 5.256v-.792l.144-.144h.216c.18 0 .342-.072.486-.216.156-.156.234-.324.234-.504v-4.536c0-.18-.078-.342-.234-.486-.144-.156-.306-.234-.486-.234h-.216l-.144-.144v-.486l.108-.144 2.628-1.062h.576l.144.144-.18 1.368c.24-.528.582-.954 1.026-1.278a2.5 2.5 0 011.512-.486c.432 0 .786.132 1.062.396.288.252.432.576.432.972a1.3 1.3 0 01-.396.954c-.252.252-.57.378-.954.378-.372 0-.684-.12-.936-.36a1.387 1.387 0 01-.414-.918c-.348.216-.63.57-.846 1.062-.204.48-.306 1.032-.306 1.656V58.2c0 .18.072.348.216.504a.732.732 0 00.504.216h.216l.144.144v.792l-.144.144h-4.248l-.144-.144zm12.539.396c-.924 0-1.746-.21-2.466-.63a4.538 4.538 0 01-1.692-1.71 5.024 5.024 0 01-.594-2.43c0-.864.204-1.65.612-2.358.42-.708.984-1.26 1.692-1.656a4.77 4.77 0 012.394-.612c.96 0 1.77.216 2.43.648a3.973 3.973 0 011.476 1.728c.324.708.486 1.5.486 2.376l-.144.144h-6.696c0 .528.126 1.008.378 1.44.252.42.606.756 1.062 1.008.456.24.984.36 1.584.36 1.476 0 2.61-.6 3.402-1.8l.144-.072.27.108.054.144c-.288 1.02-.822 1.83-1.602 2.43-.78.588-1.71.882-2.79.882zm1.26-5.652c.252 0 .432-.06.54-.18a.696.696 0 00.18-.486c0-.588-.186-1.056-.558-1.404-.372-.348-.858-.522-1.458-.522-.696 0-1.272.24-1.728.72-.444.468-.69 1.044-.738 1.728l.144.144h3.618zm12.562 5.652a4.26 4.26 0 01-2.16-.558c-.636-.372-1.146-.906-1.53-1.602-.372-.696-.558-1.512-.558-2.448 0-.996.21-1.854.63-2.574a4.22 4.22 0 011.674-1.638 4.55 4.55 0 012.232-.576c1.212 0 2.202.468 2.97 1.404h.09l.882-1.152h.738l.144.144v6.372c0 .18.072.348.216.504a.732.732 0 00.504.216h.216l.144.144v.486l-.144.144-2.484 1.062h-.576l-.144-.144V58.83c-.36.456-.768.81-1.224 1.062-.444.24-.984.36-1.62.36zm.468-1.188c.756 0 1.32-.324 1.692-.972.384-.66.576-1.506.576-2.538 0-1.032-.192-1.872-.576-2.52-.372-.66-.936-.99-1.692-.99-.756 0-1.326.33-1.71.99-.372.648-.558 1.488-.558 2.52s.186 1.878.558 2.538c.384.648.954.972 1.71.972zm6.868.792v-.792l.144-.144h.216c.18 0 .342-.072.486-.216.156-.156.234-.324.234-.504v-4.536c0-.18-.078-.342-.234-.486-.144-.156-.306-.234-.486-.234h-.216l-.144-.144v-.486l.108-.144 2.628-1.062h.576l.144.144-.18 1.206a3.68 3.68 0 011.296-1.17c.528-.288 1.128-.432 1.8-.432.972 0 1.74.264 2.304.792.576.516.864 1.278.864 2.286V58.2c0 .18.072.348.216.504a.732.732 0 00.504.216h.216l.144.144v.792l-.144.144h-4.248l-.144-.144v-.792l.144-.144h.216c.18 0 .342-.072.486-.216.156-.156.234-.324.234-.504v-4.176c0-.576-.156-1.008-.468-1.296-.3-.288-.708-.432-1.224-.432-.588 0-1.074.216-1.458.648-.372.42-.558.99-.558 1.71V58.2c0 .18.072.348.216.504a.732.732 0 00.504.216h.216l.144.144v.792l-.144.144h-4.248l-.144-.144zm12.979 4.032l-.378-.612v-.216l2.61-3.726-3.33-6.786a.716.716 0 00-.216-.27.465.465 0 00-.306-.09h-.414l-.144-.144v-.792l.144-.144h4.482l.144.144v.792l-.144.144h-.36c-.276 0-.414.12-.414.36 0 .12.036.252.108.396l1.782 3.744 1.8-3.744a.896.896 0 00.108-.396.31.31 0 00-.108-.252c-.072-.072-.174-.108-.306-.108h-.36l-.144-.144v-.792l.144-.144h2.952l.144.144v.792l-.144.144h-.306a.553.553 0 00-.378.126 1.03 1.03 0 00-.27.342l-5.31 11.196-.216.216-.756.018-.414-.198zm12.364.036v-.792l.144-.144h.216c.18 0 .342-.078.486-.234.156-.144.234-.306.234-.486v-8.604c0-.18-.078-.342-.234-.486-.144-.156-.306-.234-.486-.234h-.216l-.144-.144v-.486l.144-.144 2.772-1.062h.576l.144.144-.09.846a2.986 2.986 0 011.116-.9c.48-.228.996-.342 1.548-.342.732 0 1.422.192 2.07.576.648.372 1.17.918 1.566 1.638.396.708.594 1.536.594 2.484 0 1.044-.204 1.92-.612 2.628-.408.696-.93 1.218-1.566 1.566a4.22 4.22 0 01-1.998.504c-.636 0-1.194-.114-1.674-.342a2.934 2.934 0 01-1.134-.954v3.312c0 .18.072.342.216.486.156.156.324.234.504.234h.216l.144.144v.792l-.144.144h-4.248l-.144-.144zm5.706-4.86c.756 0 1.32-.324 1.692-.972.372-.66.558-1.506.558-2.538 0-1.032-.186-1.872-.558-2.52-.372-.66-.936-.99-1.692-.99-.756 0-1.32.33-1.692.99-.372.648-.558 1.488-.558 2.52s.186 1.878.558 2.538c.372.648.936.972 1.692.972zm5.953.792v-.792l.144-.144h.216c.18 0 .342-.072.486-.216.156-.156.234-.324.234-.504v-4.536c0-.18-.078-.342-.234-.486-.144-.156-.306-.234-.486-.234h-.216l-.144-.144v-.486l.108-.144 2.628-1.062h.576l.144.144-.18 1.368c.24-.528.582-.954 1.026-1.278a2.5 2.5 0 011.512-.486c.432 0 .786.132 1.062.396.288.252.432.576.432.972a1.3 1.3 0 01-.396.954c-.252.252-.57.378-.954.378-.372 0-.684-.12-.936-.36a1.387 1.387 0 01-.414-.918c-.348.216-.63.57-.846 1.062-.204.48-.306 1.032-.306 1.656V58.2c0 .18.072.348.216.504a.732.732 0 00.504.216h.216l.144.144v.792l-.144.144h-4.248l-.144-.144zm12.665.396c-.912 0-1.74-.198-2.484-.594a4.64 4.64 0 01-1.764-1.674c-.42-.72-.63-1.53-.63-2.43 0-.9.21-1.704.63-2.412a4.467 4.467 0 011.764-1.674c.744-.408 1.572-.612 2.484-.612.912 0 1.74.204 2.484.612a4.343 4.343 0 011.746 1.674c.432.708.648 1.512.648 2.412 0 .9-.216 1.71-.648 2.43a4.507 4.507 0 01-1.746 1.674c-.744.396-1.572.594-2.484.594zm0-1.152c.792 0 1.386-.324 1.782-.972.408-.66.612-1.518.612-2.574 0-1.056-.204-1.908-.612-2.556-.396-.66-.99-.99-1.782-.99s-1.392.33-1.8.99c-.396.648-.594 1.5-.594 2.556s.198 1.914.594 2.574c.408.648 1.008.972 1.8.972zm10.987 1.152c-.912 0-1.74-.198-2.484-.594a4.64 4.64 0 01-1.764-1.674c-.42-.72-.63-1.53-.63-2.43 0-.9.21-1.704.63-2.412a4.467 4.467 0 011.764-1.674c.744-.408 1.572-.612 2.484-.612.912 0 1.74.204 2.484.612a4.343 4.343 0 011.746 1.674c.432.708.648 1.512.648 2.412 0 .9-.216 1.71-.648 2.43a4.507 4.507 0 01-1.746 1.674c-.744.396-1.572.594-2.484.594zm0-1.152c.792 0 1.386-.324 1.782-.972.408-.66.612-1.518.612-2.574 0-1.056-.204-1.908-.612-2.556-.396-.66-.99-.99-1.782-.99s-1.392.33-1.8.99c-.396.648-.594 1.5-.594 2.556s.198 1.914.594 2.574c.408.648 1.008.972 1.8.972zm5.807.756v-.792l.144-.144h.216c.18 0 .342-.072.486-.216.156-.156.234-.324.234-.504v-5.292a.69.69 0 00-.216-.504.69.69 0 00-.504-.216h-.216l-.144-.144v-.792l.144-.144h.936v-.846c0-.72.144-1.308.432-1.764.288-.468.648-.81 1.08-1.026a2.946 2.946 0 011.332-.324c.468 0 .852.132 1.152.396.312.252.468.588.468 1.008 0 .384-.126.708-.378.972s-.582.396-.99.396c-.396 0-.72-.138-.972-.414-.24-.276-.36-.624-.36-1.044-.468.264-.702.78-.702 1.548l.144.198 1.026.414.144.162v.324h1.296l.144.144v.792l-.144.144h-1.296V58.2c0 .18.072.348.216.504a.732.732 0 00.504.216h.216l.144.144v.792l-.144.144h-4.248l-.144-.144zm13.656.396c-.744 0-1.368-.216-1.872-.648-.492-.444-.738-1.104-.738-1.98V52.26h-1.332l-.144-.144v-.396l3.402-3.096h.306l.144.144v2.34h2.268l.144.144v.864l-.144.144h-2.268v5.526c0 .36.096.636.288.828.192.18.438.27.738.27.504 0 .894-.264 1.17-.792l.144-.054.36.144.072.144c-.42 1.284-1.266 1.926-2.538 1.926zm3.43-.396v-.792l.144-.144h.216c.18 0 .342-.072.486-.216.156-.156.234-.324.234-.504v-8.604c0-.18-.078-.342-.234-.486-.144-.156-.306-.234-.486-.234h-.216l-.144-.144v-.486l.108-.144 2.808-1.062h.576l.144.144-.18 1.692v3.348a3.663 3.663 0 011.26-1.008 3.727 3.727 0 011.656-.36c.972 0 1.74.264 2.304.792.576.516.864 1.278.864 2.286V58.2c0 .18.072.348.216.504a.732.732 0 00.504.216h.216l.144.144v.792l-.144.144h-4.248l-.144-.144v-.792l.144-.144h.216c.18 0 .342-.072.486-.216.156-.156.234-.324.234-.504v-4.194c0-.576-.156-1.008-.468-1.296-.3-.288-.708-.432-1.224-.432-.588 0-1.074.216-1.458.648-.372.42-.558.99-.558 1.71V58.2c0 .18.072.348.216.504a.732.732 0 00.504.216h.216l.144.144v.792l-.144.144h-4.248l-.144-.144zm15.992.396a4.26 4.26 0 01-2.16-.558c-.636-.372-1.146-.906-1.53-1.602-.372-.696-.558-1.512-.558-2.448 0-.996.21-1.854.63-2.574a4.22 4.22 0 011.674-1.638 4.55 4.55 0 012.232-.576c1.212 0 2.202.468 2.97 1.404h.09l.882-1.152h.738l.144.144v6.372c0 .18.072.348.216.504a.732.732 0 00.504.216h.216l.144.144v.486l-.144.144-2.484 1.062h-.576l-.144-.144V58.83c-.36.456-.768.81-1.224 1.062-.444.24-.984.36-1.62.36zm.468-1.188c.756 0 1.32-.324 1.692-.972.384-.66.576-1.506.576-2.538 0-1.032-.192-1.872-.576-2.52-.372-.66-.936-.99-1.692-.99-.756 0-1.326.33-1.71.99-.372.648-.558 1.488-.558 2.52s.186 1.878.558 2.538c.384.648.954.972 1.71.972zm10.239 1.188c-.744 0-1.368-.216-1.872-.648-.492-.444-.738-1.104-.738-1.98V52.26h-1.332l-.144-.144v-.396l3.402-3.096h.306l.144.144v2.34h2.268l.144.144v.864l-.144.144h-2.268v5.526c0 .36.096.636.288.828.192.18.438.27.738.27.504 0 .894-.264 1.17-.792l.144-.054.36.144.072.144c-.42 1.284-1.266 1.926-2.538 1.926zm7.457-.396v-.792l.144-.144h.216c.18 0 .342-.072.486-.216.156-.156.234-.324.234-.504v-4.536c0-.18-.078-.342-.234-.486-.144-.156-.306-.234-.486-.234h-.216l-.144-.144v-.486l.108-.144 2.628-1.062h.576l.144.144-.18 1.206c.3-.48.726-.864 1.278-1.152.552-.3 1.122-.45 1.71-.45.648 0 1.218.126 1.71.378.492.24.834.618 1.026 1.134.672-1.008 1.65-1.512 2.934-1.512.864 0 1.554.252 2.07.756.528.504.792 1.194.792 2.07V58.2c0 .18.072.348.216.504a.732.732 0 00.504.216h.216l.144.144v.792l-.144.144h-4.248l-.144-.144v-.792l.144-.144h.216c.18 0 .342-.072.486-.216.156-.156.234-.324.234-.504v-4.176c0-.564-.12-.996-.36-1.296-.228-.3-.576-.45-1.044-.45-.54 0-.99.216-1.35.648-.36.42-.54.99-.54 1.71V58.2c0 .18.072.348.216.504a.732.732 0 00.504.216h.216l.144.144v.792l-.144.144h-4.248l-.144-.144v-.792l.144-.144h.216c.18 0 .342-.072.486-.216.156-.156.234-.324.234-.504v-4.176c0-1.164-.462-1.746-1.386-1.746-.54 0-.996.216-1.368.648-.36.42-.54.99-.54 1.71V58.2c0 .18.072.348.216.504a.732.732 0 00.504.216h.216l.144.144v.792l-.144.144h-4.248l-.144-.144zm18.235 4.032l-.378-.612v-.216l2.61-3.726-3.33-6.786a.716.716 0 00-.216-.27.465.465 0 00-.306-.09h-.414l-.144-.144v-.792l.144-.144h4.482l.144.144v.792l-.144.144h-.36c-.276 0-.414.12-.414.36 0 .12.036.252.108.396l1.782 3.744 1.8-3.744a.896.896 0 00.108-.396.31.31 0 00-.108-.252c-.072-.072-.174-.108-.306-.108h-.36l-.144-.144v-.792l.144-.144h2.952l.144.144v.792l-.144.144h-.306a.553.553 0 00-.378.126 1.03 1.03 0 00-.27.342l-5.31 11.196-.216.216-.756.018-.414-.198zM96.41 82.252c-1.044 0-1.932-.366-2.664-1.098v.702l-.144.144h-3.276l-.144-.144v-.792l.144-.144h.216c.18 0 .342-.072.486-.216.156-.156.234-.324.234-.504v-8.604c0-.18-.078-.342-.234-.486-.144-.156-.306-.234-.486-.234h-.216l-.144-.144v-.486l.144-.144 2.772-1.062h.576l.144.144-.18 1.692v3.168c.252-.324.612-.6 1.08-.828.48-.24 1.02-.36 1.62-.36.744 0 1.44.192 2.088.576.66.372 1.188.918 1.584 1.638.408.708.612 1.536.612 2.484 0 1.044-.204 1.92-.612 2.628-.408.696-.936 1.218-1.584 1.566a4.256 4.256 0 01-2.016.504zm-.522-1.188c.756 0 1.32-.324 1.692-.972.372-.66.558-1.506.558-2.538 0-1.032-.186-1.872-.558-2.52-.372-.66-.936-.99-1.692-.99-.756 0-1.32.33-1.692.99-.372.648-.558 1.488-.558 2.52s.186 1.878.558 2.538c.372.648.936.972 1.692.972zm10.702 1.188c-.924 0-1.746-.21-2.466-.63a4.538 4.538 0 01-1.692-1.71 5.024 5.024 0 01-.594-2.43c0-.864.204-1.65.612-2.358.42-.708.984-1.26 1.692-1.656a4.77 4.77 0 012.394-.612c.96 0 1.77.216 2.43.648a3.973 3.973 0 011.476 1.728c.324.708.486 1.5.486 2.376l-.144.144h-6.696c0 .528.126 1.008.378 1.44.252.42.606.756 1.062 1.008.456.24.984.36 1.584.36 1.476 0 2.61-.6 3.402-1.8l.144-.072.27.108.054.144c-.288 1.02-.822 1.83-1.602 2.43-.78.588-1.71.882-2.79.882zm1.26-5.652c.252 0 .432-.06.54-.18a.696.696 0 00.18-.486c0-.588-.186-1.056-.558-1.404-.372-.348-.858-.522-1.458-.522-.696 0-1.272.24-1.728.72-.444.468-.69 1.044-.738 1.728l.144.144h3.618zm4.005 5.256v-.792l.144-.144h.216c.18 0 .342-.072.486-.216.156-.156.234-.324.234-.504v-8.604c0-.18-.078-.342-.234-.486-.144-.156-.306-.234-.486-.234h-.216l-.144-.144v-.486l.108-.144 2.808-1.062h.576l.144.144-.18 1.692V80.2c0 .18.072.348.216.504a.732.732 0 00.504.216h.216l.144.144v.792l-.144.144h-4.248l-.144-.144zm7.86-9.972c-.408 0-.762-.144-1.062-.432a1.483 1.483 0 01-.432-1.062c0-.42.144-.774.432-1.062.3-.288.654-.432 1.062-.432.42 0 .774.144 1.062.432.288.288.432.642.432 1.062 0 .408-.144.762-.432 1.062a1.444 1.444 0 01-1.062.432zm-2.286 9.972v-.792l.144-.144h.216c.18 0 .342-.072.486-.216.156-.156.234-.324.234-.504v-4.536c0-.18-.078-.342-.234-.486-.144-.156-.306-.234-.486-.234h-.216l-.144-.144v-.486l.108-.144 2.808-1.062h.54l.18.18-.18 1.656V80.2c0 .18.072.348.216.504a.732.732 0 00.504.216h.216l.144.144v.792l-.144.144h-4.248l-.144-.144zm10.307.396c-.924 0-1.746-.21-2.466-.63a4.538 4.538 0 01-1.692-1.71 5.024 5.024 0 01-.594-2.43c0-.864.204-1.65.612-2.358.42-.708.984-1.26 1.692-1.656a4.77 4.77 0 012.394-.612c.96 0 1.77.216 2.43.648a3.973 3.973 0 011.476 1.728c.324.708.486 1.5.486 2.376l-.144.144h-6.696c0 .528.126 1.008.378 1.44.252.42.606.756 1.062 1.008.456.24.984.36 1.584.36 1.476 0 2.61-.6 3.402-1.8l.144-.072.27.108.054.144c-.288 1.02-.822 1.83-1.602 2.43-.78.588-1.71.882-2.79.882zm1.26-5.652c.252 0 .432-.06.54-.18a.696.696 0 00.18-.486c0-.588-.186-1.056-.558-1.404-.372-.348-.858-.522-1.458-.522-.696 0-1.272.24-1.728.72-.444.468-.69 1.044-.738 1.728l.144.144h3.618zm4.287 5.256v-.792l.144-.144h.216c.18 0 .342-.072.486-.216.156-.156.234-.324.234-.504v-5.292a.69.69 0 00-.216-.504.69.69 0 00-.504-.216h-.216l-.144-.144v-.792l.144-.144h.936v-.846c0-.72.144-1.308.432-1.764.288-.468.648-.81 1.08-1.026a2.946 2.946 0 011.332-.324c.468 0 .852.132 1.152.396.312.252.468.588.468 1.008 0 .384-.126.708-.378.972s-.582.396-.99.396c-.396 0-.72-.138-.972-.414-.24-.276-.36-.624-.36-1.044-.468.264-.702.78-.702 1.548l.144.198 1.026.414.144.162v.324h1.296l.144.144v.792l-.144.144h-1.296V80.2c0 .18.072.348.216.504a.732.732 0 00.504.216h.216l.144.144v.792l-.144.144h-4.248l-.144-.144zm12.36-9.972c-.408 0-.762-.144-1.062-.432a1.483 1.483 0 01-.432-1.062c0-.42.144-.774.432-1.062.3-.288.654-.432 1.062-.432.42 0 .774.144 1.062.432.288.288.432.642.432 1.062 0 .408-.144.762-.432 1.062a1.444 1.444 0 01-1.062.432zm-2.286 9.972v-.792l.144-.144h.216c.18 0 .342-.072.486-.216.156-.156.234-.324.234-.504v-4.536c0-.18-.078-.342-.234-.486-.144-.156-.306-.234-.486-.234h-.216l-.144-.144v-.486l.108-.144 2.808-1.062h.54l.18.18-.18 1.656V80.2c0 .18.072.348.216.504a.732.732 0 00.504.216h.216l.144.144v.792l-.144.144h-4.248l-.144-.144zm9.024.396c-.624 0-1.2-.072-1.728-.216a4.848 4.848 0 01-1.332-.576l-.09-.18.486-1.98.144-.144h.612l.144.144c0 .612.144 1.098.432 1.458.3.348.708.522 1.224.522.444 0 .768-.126.972-.378.216-.252.324-.552.324-.9 0-.42-.108-.744-.324-.972-.216-.228-.594-.444-1.134-.648-.9-.348-1.566-.744-1.998-1.188a2.226 2.226 0 01-.63-1.584c0-.828.306-1.494.918-1.998.624-.504 1.41-.756 2.358-.756.84 0 1.578.168 2.214.504l.126.18.09 2.016-.144.144h-.684l-.144-.144c-.108-1.14-.6-1.71-1.476-1.71-.324 0-.6.102-.828.306-.228.192-.342.456-.342.792 0 .36.15.678.45.954.3.264.786.534 1.458.81.732.3 1.296.642 1.692 1.026.396.384.594.924.594 1.62 0 .936-.33 1.656-.99 2.16-.648.492-1.446.738-2.394.738zm13.072 0a4.7 4.7 0 01-2.25-.558 4.508 4.508 0 01-1.656-1.602c-.408-.696-.612-1.494-.612-2.394 0-.996.228-1.86.684-2.592a4.645 4.645 0 011.836-1.674 5.328 5.328 0 012.448-.576c1.08 0 1.992.21 2.736.63l.126.18.09 2.358-.144.144h-.882l-.144-.144V75.7c0-.528-.162-.948-.486-1.26-.324-.312-.762-.468-1.314-.468-.816 0-1.44.33-1.872.99-.42.648-.63 1.434-.63 2.358 0 .612.114 1.176.342 1.692.228.504.552.906.972 1.206.42.3.906.45 1.458.45 1.152 0 2.022-.546 2.61-1.638l.162-.072.27.09.072.144c-.264.9-.708 1.638-1.332 2.214-.612.564-1.44.846-2.484.846zm9.888 0c-.912 0-1.74-.198-2.484-.594a4.64 4.64 0 01-1.764-1.674c-.42-.72-.63-1.53-.63-2.43 0-.9.21-1.704.63-2.412a4.467 4.467 0 011.764-1.674c.744-.408 1.572-.612 2.484-.612.912 0 1.74.204 2.484.612a4.343 4.343 0 011.746 1.674c.432.708.648 1.512.648 2.412 0 .9-.216 1.71-.648 2.43a4.507 4.507 0 01-1.746 1.674c-.744.396-1.572.594-2.484.594zm0-1.152c.792 0 1.386-.324 1.782-.972.408-.66.612-1.518.612-2.574 0-1.056-.204-1.908-.612-2.556-.396-.66-.99-.99-1.782-.99s-1.392.33-1.8.99c-.396.648-.594 1.5-.594 2.556s.198 1.914.594 2.574c.408.648 1.008.972 1.8.972zm6.108.756v-.792l.144-.144h.216c.18 0 .342-.072.486-.216.156-.156.234-.324.234-.504v-4.536c0-.18-.078-.342-.234-.486-.144-.156-.306-.234-.486-.234h-.216l-.144-.144v-.486l.108-.144 2.628-1.062h.576l.144.144-.18 1.368c.24-.528.582-.954 1.026-1.278a2.5 2.5 0 011.512-.486c.432 0 .786.132 1.062.396.288.252.432.576.432.972a1.3 1.3 0 01-.396.954c-.252.252-.57.378-.954.378-.372 0-.684-.12-.936-.36a1.387 1.387 0 01-.414-.918c-.348.216-.63.57-.846 1.062-.204.48-.306 1.032-.306 1.656V80.2c0 .18.072.348.216.504a.732.732 0 00.504.216h.216l.144.144v.792l-.144.144h-4.248l-.144-.144zm8.103 0v-.792l.144-.144h.216c.18 0 .342-.072.486-.216.156-.156.234-.324.234-.504v-4.536c0-.18-.078-.342-.234-.486-.144-.156-.306-.234-.486-.234h-.216l-.144-.144v-.486l.108-.144 2.628-1.062h.576l.144.144-.18 1.368c.24-.528.582-.954 1.026-1.278a2.5 2.5 0 011.512-.486c.432 0 .786.132 1.062.396.288.252.432.576.432.972a1.3 1.3 0 01-.396.954c-.252.252-.57.378-.954.378-.372 0-.684-.12-.936-.36a1.387 1.387 0 01-.414-.918c-.348.216-.63.57-.846 1.062-.204.48-.306 1.032-.306 1.656V80.2c0 .18.072.348.216.504a.732.732 0 00.504.216h.216l.144.144v.792l-.144.144h-4.248l-.144-.144zm12.54.396c-.924 0-1.746-.21-2.466-.63a4.538 4.538 0 01-1.692-1.71 5.024 5.024 0 01-.594-2.43c0-.864.204-1.65.612-2.358.42-.708.984-1.26 1.692-1.656a4.77 4.77 0 012.394-.612c.96 0 1.77.216 2.43.648a3.973 3.973 0 011.476 1.728c.324.708.486 1.5.486 2.376l-.144.144h-6.696c0 .528.126 1.008.378 1.44.252.42.606.756 1.062 1.008.456.24.984.36 1.584.36 1.476 0 2.61-.6 3.402-1.8l.144-.072.27.108.054.144c-.288 1.02-.822 1.83-1.602 2.43-.78.588-1.71.882-2.79.882zm1.26-5.652c.252 0 .432-.06.54-.18a.696.696 0 00.18-.486c0-.588-.186-1.056-.558-1.404-.372-.348-.858-.522-1.458-.522-.696 0-1.272.24-1.728.72-.444.468-.69 1.044-.738 1.728l.144.144h3.618zm8.877 5.652a4.7 4.7 0 01-2.25-.558 4.508 4.508 0 01-1.656-1.602c-.408-.696-.612-1.494-.612-2.394 0-.996.228-1.86.684-2.592a4.645 4.645 0 011.836-1.674 5.328 5.328 0 012.448-.576c1.08 0 1.992.21 2.736.63l.126.18.09 2.358-.144.144h-.882l-.144-.144V75.7c0-.528-.162-.948-.486-1.26-.324-.312-.762-.468-1.314-.468-.816 0-1.44.33-1.872.99-.42.648-.63 1.434-.63 2.358 0 .612.114 1.176.342 1.692.228.504.552.906.972 1.206.42.3.906.45 1.458.45 1.152 0 2.022-.546 2.61-1.638l.162-.072.27.09.072.144c-.264.9-.708 1.638-1.332 2.214-.612.564-1.44.846-2.484.846zm8.591 0c-.744 0-1.368-.216-1.872-.648-.492-.444-.738-1.104-.738-1.98V74.26h-1.332l-.144-.144v-.396l3.402-3.096h.306l.144.144v2.34h2.268l.144.144v.864l-.144.144h-2.268v5.526c0 .36.096.636.288.828.192.18.438.27.738.27.504 0 .894-.264 1.17-.792l.144-.054.36.144.072.144c-.42 1.284-1.266 1.926-2.538 1.926zm6.328-4.392v-.27c0-.768.096-1.368.288-1.8.192-.444.474-.9.846-1.368.3-.396.522-.744.666-1.044.144-.3.216-.684.216-1.152 0-.528-.174-.954-.522-1.278-.336-.336-.78-.504-1.332-.504-.564 0-1.062.192-1.494.576-.42.372-.714.936-.882 1.692l-.144.162h-.306l-.144-.162c.084-1.14.468-2.016 1.152-2.628.684-.624 1.512-.936 2.484-.936.66 0 1.26.12 1.8.36s.966.594 1.278 1.062c.324.456.486 1.014.486 1.674 0 .456-.078.852-.234 1.188-.144.324-.33.6-.558.828-.216.216-.51.474-.882.774-.36.288-.642.54-.846.756a2.723 2.723 0 00-.522.756c-.132.288-.198.636-.198 1.044v.27l-.18.18h-.792l-.18-.18zm.468 4.392a1.36 1.36 0 01-.972-.396 1.36 1.36 0 01-.396-.972c0-.384.132-.714.396-.99.276-.276.6-.414.972-.414.384 0 .714.138.99.414.276.276.414.606.414.99 0 .372-.138.696-.414.972a1.382 1.382 0 01-.99.396z" fill="#0C0748"/></g><defs><filter id="filter0_d_405_1519" x="0" y="0" width="322" height="132" filterUnits="userSpaceOnUse" color-interpolation-filters="sRGB"><feFlood flood-opacity="0" result="BackgroundImageFix"/><feColorMatrix in="SourceAlpha" values="0 0 0 0 0 0 0 0 0 0 0 0 0 0 0 0 0 0 127 0" result="hardAlpha"/><feOffset dy="2"/><feGaussianBlur stdDeviation="12"/><feColorMatrix values="0 0 0 0 0 0 0 0 0 0 0 0 0 0 0 0 0 0 0.08 0"/><feBlend in2="BackgroundImageFix" result="effect1_dropShadow_405_1519"/><feBlend in="SourceGraphic" in2="effect1_dropShadow_405_1519" result="shape"/></filter></defs></svg>