<svg width="150" height="39" viewBox="0 0 150 39" fill="none" xmlns="http://www.w3.org/2000/svg">
<path fill-rule="evenodd" clip-rule="evenodd" d="M19.3417 0C19.4826 1.85889 18.897 3.69867 17.7054 5.12994C16.5489 6.56856 14.7981 7.39734 12.9548 7.37824C12.8374 5.57519 13.4421 3.79713 14.6337 2.43933C15.8415 1.06243 17.5219 0.191032 19.3417 0ZM25.1738 10.9162C23.0516 12.2225 21.747 14.5252 21.7147 17.0174H21.7162C21.7191 19.8373 23.4053 22.3825 26 23.4816C25.501 25.1054 24.7496 26.6395 23.7722 28.0267C22.4587 29.9929 21.0822 31.9135 18.8984 31.9488C17.86 31.9725 17.1589 31.6735 16.4283 31.362C15.666 31.037 14.8716 30.6982 13.6283 30.6982C12.3102 30.6982 11.4805 31.0477 10.6801 31.3847C9.98875 31.6758 9.31929 31.9578 8.3759 31.9973C6.29488 32.0751 4.7055 29.8988 3.34505 27.9518C0.627106 23.9739 -1.4906 16.7426 1.34769 11.8228C2.68024 9.42464 5.17218 7.90226 7.91215 7.8141C9.09123 7.78995 10.2232 8.24509 11.2157 8.64415C11.9749 8.94941 12.6525 9.22185 13.2072 9.22185C13.6951 9.22185 14.3539 8.96005 15.1217 8.65497C16.3306 8.17457 17.8097 7.58685 19.3167 7.74503C21.6589 7.8185 23.8295 8.99409 25.1738 10.9162Z" fill="#0C0748"/>
<path d="M43.408 16.7557H46.6L53.2 33.8917H49.984L48.376 29.3557H41.536L39.928 33.8917H36.832L43.408 16.7557ZM42.352 27.0757H47.584L45.016 19.7077H44.944L42.352 27.0757Z" fill="#0C0748"/>
<path d="M54.7598 21.4837H57.3518V23.1637H57.3998C57.7838 22.4437 58.3198 21.9317 59.0078 21.6277C59.6958 21.3077 60.4398 21.1477 61.2398 21.1477C62.2158 21.1477 63.0638 21.3237 63.7838 21.6757C64.5198 22.0117 65.1278 22.4837 65.6078 23.0917C66.0878 23.6837 66.4478 24.3797 66.6878 25.1797C66.9278 25.9797 67.0478 26.8357 67.0478 27.7477C67.0478 28.5797 66.9358 29.3877 66.7118 30.1717C66.5038 30.9557 66.1758 31.6517 65.7278 32.2597C65.2958 32.8517 64.7438 33.3317 64.0718 33.6997C63.3998 34.0517 62.6078 34.2277 61.6958 34.2277C61.2958 34.2277 60.8958 34.1877 60.4958 34.1077C60.0958 34.0437 59.7118 33.9317 59.3438 33.7717C58.9758 33.6117 58.6318 33.4117 58.3118 33.1717C58.0078 32.9157 57.7518 32.6197 57.5438 32.2837H57.4958V38.4757H54.7598V21.4837ZM64.3118 27.6997C64.3118 27.1397 64.2398 26.5957 64.0958 26.0677C63.9518 25.5397 63.7358 25.0757 63.4478 24.6757C63.1598 24.2597 62.7998 23.9317 62.3678 23.6917C61.9358 23.4357 61.4398 23.3077 60.8798 23.3077C59.7278 23.3077 58.8558 23.7077 58.2638 24.5077C57.6878 25.3077 57.3998 26.3717 57.3998 27.6997C57.3998 28.3237 57.4718 28.9077 57.6158 29.4517C57.7758 29.9797 58.0078 30.4357 58.3118 30.8197C58.6158 31.2037 58.9758 31.5077 59.3918 31.7317C59.8238 31.9557 60.3198 32.0677 60.8798 32.0677C61.5038 32.0677 62.0318 31.9397 62.4638 31.6837C62.8958 31.4277 63.2478 31.0997 63.5198 30.6997C63.8078 30.2837 64.0078 29.8197 64.1198 29.3077C64.2478 28.7797 64.3118 28.2437 64.3118 27.6997Z" fill="#0C0748"/>
<path d="M69.6717 21.4837H72.2637V23.1637H72.3117C72.6957 22.4437 73.2317 21.9317 73.9197 21.6277C74.6077 21.3077 75.3517 21.1477 76.1517 21.1477C77.1277 21.1477 77.9757 21.3237 78.6957 21.6757C79.4317 22.0117 80.0397 22.4837 80.5197 23.0917C80.9997 23.6837 81.3597 24.3797 81.5997 25.1797C81.8397 25.9797 81.9597 26.8357 81.9597 27.7477C81.9597 28.5797 81.8477 29.3877 81.6237 30.1717C81.4157 30.9557 81.0877 31.6517 80.6397 32.2597C80.2077 32.8517 79.6557 33.3317 78.9837 33.6997C78.3117 34.0517 77.5197 34.2277 76.6077 34.2277C76.2077 34.2277 75.8077 34.1877 75.4077 34.1077C75.0077 34.0437 74.6237 33.9317 74.2557 33.7717C73.8877 33.6117 73.5437 33.4117 73.2237 33.1717C72.9197 32.9157 72.6637 32.6197 72.4557 32.2837H72.4077V38.4757H69.6717V21.4837ZM79.2237 27.6997C79.2237 27.1397 79.1517 26.5957 79.0077 26.0677C78.8637 25.5397 78.6477 25.0757 78.3597 24.6757C78.0717 24.2597 77.7117 23.9317 77.2797 23.6917C76.8477 23.4357 76.3517 23.3077 75.7917 23.3077C74.6397 23.3077 73.7677 23.7077 73.1757 24.5077C72.5997 25.3077 72.3117 26.3717 72.3117 27.6997C72.3117 28.3237 72.3837 28.9077 72.5277 29.4517C72.6877 29.9797 72.9197 30.4357 73.2237 30.8197C73.5277 31.2037 73.8877 31.5077 74.3037 31.7317C74.7357 31.9557 75.2317 32.0677 75.7917 32.0677C76.4157 32.0677 76.9437 31.9397 77.3757 31.6837C77.8077 31.4277 78.1597 31.0997 78.4317 30.6997C78.7197 30.2837 78.9197 29.8197 79.0317 29.3077C79.1597 28.7797 79.2237 28.2437 79.2237 27.6997Z" fill="#0C0748"/>
<path d="M93.7833 28.1797C93.7833 28.8357 93.8953 29.3957 94.1193 29.8597C94.3433 30.3237 94.6553 30.7077 95.0553 31.0117C95.4553 31.2997 95.9113 31.5157 96.4233 31.6597C96.9513 31.7877 97.5193 31.8517 98.1273 31.8517C98.7833 31.8517 99.3433 31.7797 99.8073 31.6357C100.271 31.4757 100.647 31.2757 100.935 31.0357C101.223 30.7957 101.431 30.5237 101.559 30.2197C101.687 29.8997 101.751 29.5797 101.751 29.2597C101.751 28.6037 101.599 28.1237 101.295 27.8197C101.007 27.4997 100.687 27.2757 100.335 27.1477C99.7273 26.9237 99.0153 26.7157 98.1993 26.5237C97.3993 26.3157 96.4073 26.0517 95.2233 25.7317C94.4873 25.5397 93.8713 25.2917 93.3753 24.9877C92.8953 24.6677 92.5113 24.3157 92.2233 23.9317C91.9353 23.5477 91.7273 23.1397 91.5993 22.7077C91.4873 22.2757 91.4313 21.8357 91.4313 21.3877C91.4313 20.5237 91.6073 19.7797 91.9593 19.1557C92.3273 18.5157 92.8073 17.9877 93.3993 17.5717C93.9913 17.1557 94.6633 16.8517 95.4153 16.6597C96.1673 16.4517 96.9273 16.3477 97.6953 16.3477C98.5913 16.3477 99.4313 16.4677 100.215 16.7077C101.015 16.9317 101.711 17.2757 102.303 17.7397C102.911 18.2037 103.391 18.7797 103.743 19.4677C104.095 20.1397 104.271 20.9237 104.271 21.8197H101.271C101.191 20.7157 100.815 19.9397 100.143 19.4917C99.4713 19.0277 98.6153 18.7957 97.5753 18.7957C97.2233 18.7957 96.8633 18.8357 96.4953 18.9157C96.1273 18.9797 95.7913 19.0997 95.4873 19.2757C95.1833 19.4357 94.9273 19.6597 94.7193 19.9477C94.5273 20.2357 94.4313 20.5957 94.4313 21.0277C94.4313 21.6357 94.6153 22.1157 94.9833 22.4677C95.3673 22.8037 95.8633 23.0597 96.4713 23.2357C96.5353 23.2517 96.7833 23.3237 97.2153 23.4517C97.6633 23.5637 98.1593 23.6917 98.7033 23.8357C99.2473 23.9797 99.7753 24.1237 100.287 24.2677C100.815 24.3957 101.191 24.4917 101.415 24.5557C101.975 24.7317 102.463 24.9717 102.879 25.2757C103.295 25.5797 103.639 25.9317 103.911 26.3317C104.199 26.7157 104.407 27.1317 104.535 27.5797C104.679 28.0277 104.751 28.4757 104.751 28.9237C104.751 29.8837 104.551 30.7077 104.151 31.3957C103.767 32.0677 103.255 32.6197 102.615 33.0517C101.975 33.4837 101.247 33.7957 100.431 33.9877C99.6153 34.1957 98.7833 34.2997 97.9353 34.2997C96.9593 34.2997 96.0393 34.1797 95.1753 33.9397C94.3113 33.6997 93.5593 33.3317 92.9193 32.8357C92.2793 32.3397 91.7673 31.7077 91.3833 30.9397C90.9993 30.1557 90.7993 29.2357 90.7833 28.1797H93.7833Z" fill="#0C0748"/>
<path d="M105.986 21.4837H108.05V17.7637H110.786V21.4837H113.258V23.5237H110.786V30.1477C110.786 30.4357 110.794 30.6837 110.81 30.8917C110.842 31.0997 110.898 31.2757 110.978 31.4197C111.074 31.5637 111.21 31.6757 111.386 31.7557C111.562 31.8197 111.802 31.8517 112.106 31.8517C112.298 31.8517 112.49 31.8517 112.682 31.8517C112.874 31.8357 113.066 31.8037 113.258 31.7557V33.8677C112.954 33.8997 112.658 33.9317 112.37 33.9637C112.082 33.9957 111.786 34.0117 111.482 34.0117C110.762 34.0117 110.178 33.9477 109.73 33.8197C109.298 33.6757 108.954 33.4757 108.698 33.2197C108.458 32.9477 108.29 32.6117 108.194 32.2117C108.114 31.8117 108.066 31.3557 108.05 30.8437V23.5237H105.986V21.4837Z" fill="#0C0748"/>
<path d="M121.154 34.2277C120.162 34.2277 119.274 34.0677 118.49 33.7477C117.722 33.4117 117.066 32.9557 116.522 32.3797C115.994 31.8037 115.586 31.1157 115.298 30.3157C115.026 29.5157 114.89 28.6357 114.89 27.6757C114.89 26.7317 115.026 25.8597 115.298 25.0597C115.586 24.2597 115.994 23.5717 116.522 22.9957C117.066 22.4197 117.722 21.9717 118.49 21.6517C119.274 21.3157 120.162 21.1477 121.154 21.1477C122.146 21.1477 123.026 21.3157 123.794 21.6517C124.578 21.9717 125.234 22.4197 125.762 22.9957C126.306 23.5717 126.714 24.2597 126.986 25.0597C127.274 25.8597 127.418 26.7317 127.418 27.6757C127.418 28.6357 127.274 29.5157 126.986 30.3157C126.714 31.1157 126.306 31.8037 125.762 32.3797C125.234 32.9557 124.578 33.4117 123.794 33.7477C123.026 34.0677 122.146 34.2277 121.154 34.2277ZM121.154 32.0677C121.762 32.0677 122.29 31.9397 122.738 31.6837C123.186 31.4277 123.554 31.0917 123.842 30.6757C124.13 30.2597 124.338 29.7957 124.466 29.2837C124.61 28.7557 124.682 28.2197 124.682 27.6757C124.682 27.1477 124.61 26.6197 124.466 26.0917C124.338 25.5637 124.13 25.0997 123.842 24.6997C123.554 24.2837 123.186 23.9477 122.738 23.6917C122.29 23.4357 121.762 23.3077 121.154 23.3077C120.546 23.3077 120.018 23.4357 119.57 23.6917C119.122 23.9477 118.754 24.2837 118.466 24.6997C118.178 25.0997 117.962 25.5637 117.818 26.0917C117.69 26.6197 117.626 27.1477 117.626 27.6757C117.626 28.2197 117.69 28.7557 117.818 29.2837C117.962 29.7957 118.178 30.2597 118.466 30.6757C118.754 31.0917 119.122 31.4277 119.57 31.6837C120.018 31.9397 120.546 32.0677 121.154 32.0677Z" fill="#0C0748"/>
<path d="M129.933 21.4837H132.501V23.8837H132.549C132.629 23.5477 132.781 23.2197 133.005 22.8997C133.245 22.5797 133.525 22.2917 133.845 22.0357C134.181 21.7637 134.549 21.5477 134.949 21.3877C135.349 21.2277 135.757 21.1477 136.173 21.1477C136.493 21.1477 136.709 21.1557 136.821 21.1717C136.949 21.1877 137.077 21.2037 137.205 21.2197V23.8597C137.013 23.8277 136.813 23.8037 136.605 23.7877C136.413 23.7557 136.221 23.7397 136.029 23.7397C135.565 23.7397 135.125 23.8357 134.709 24.0277C134.309 24.2037 133.957 24.4757 133.653 24.8437C133.349 25.1957 133.109 25.6357 132.933 26.1637C132.757 26.6917 132.669 27.2997 132.669 27.9877V33.8917H129.933V21.4837Z" fill="#0C0748"/>
<path d="M146.708 26.5957C146.676 26.1637 146.58 25.7477 146.42 25.3477C146.276 24.9477 146.068 24.6037 145.796 24.3157C145.54 24.0117 145.22 23.7717 144.836 23.5957C144.468 23.4037 144.052 23.3077 143.588 23.3077C143.108 23.3077 142.668 23.3957 142.268 23.5717C141.884 23.7317 141.548 23.9637 141.26 24.2677C140.988 24.5557 140.764 24.8997 140.588 25.2997C140.428 25.6997 140.34 26.1317 140.324 26.5957H146.708ZM140.324 28.3957C140.324 28.8757 140.388 29.3397 140.516 29.7877C140.66 30.2357 140.868 30.6277 141.14 30.9637C141.412 31.2997 141.756 31.5717 142.172 31.7797C142.588 31.9717 143.084 32.0677 143.66 32.0677C144.46 32.0677 145.1 31.8997 145.58 31.5637C146.076 31.2117 146.444 30.6917 146.684 30.0037H149.276C149.132 30.6757 148.884 31.2757 148.532 31.8037C148.18 32.3317 147.756 32.7797 147.26 33.1477C146.764 33.4997 146.204 33.7637 145.58 33.9397C144.972 34.1317 144.332 34.2277 143.66 34.2277C142.684 34.2277 141.82 34.0677 141.068 33.7477C140.316 33.4277 139.676 32.9797 139.148 32.4037C138.636 31.8277 138.244 31.1397 137.972 30.3397C137.716 29.5397 137.588 28.6597 137.588 27.6997C137.588 26.8197 137.724 25.9877 137.996 25.2037C138.284 24.4037 138.684 23.7077 139.196 23.1157C139.724 22.5077 140.356 22.0277 141.092 21.6757C141.828 21.3237 142.66 21.1477 143.588 21.1477C144.564 21.1477 145.436 21.3557 146.204 21.7717C146.988 22.1717 147.636 22.7077 148.148 23.3797C148.66 24.0517 149.028 24.8277 149.252 25.7077C149.492 26.5717 149.556 27.4677 149.444 28.3957H140.324Z" fill="#0C0748"/>
<path d="M41 0.353613V7.54043H43.578C45.7057 7.54043 46.9378 6.22061 46.9378 3.92461C46.9378 1.66348 45.6958 0.353613 43.578 0.353613H41ZM42.1084 1.36963H43.4543C44.9338 1.36963 45.8096 2.31592 45.8096 3.93955C45.8096 5.58809 44.9487 6.52441 43.4543 6.52441H42.1084V1.36963Z" fill="#0C0748"/>
<path d="M50.7113 7.64502C52.2848 7.64502 53.2497 6.58418 53.2497 4.82607C53.2497 3.07793 52.2799 2.01211 50.7113 2.01211C49.1378 2.01211 48.1679 3.07793 48.1679 4.82607C48.1679 6.58418 49.1328 7.64502 50.7113 7.64502ZM50.7113 6.69375C49.786 6.69375 49.2664 6.01143 49.2664 4.82607C49.2664 3.65068 49.786 2.96338 50.7113 2.96338C51.6317 2.96338 52.1562 3.65068 52.1562 4.82607C52.1562 6.00645 51.6317 6.69375 50.7113 6.69375Z" fill="#0C0748"/>
<path d="M61.4667 2.1167H60.4028L59.4429 6.25547H59.3588L58.2504 2.1167H57.231L56.1227 6.25547H56.0435L55.0786 2.1167H53.9999L55.4843 7.54043H56.5779L57.6863 3.54609H57.7704L58.8837 7.54043H59.9872L61.4667 2.1167Z" fill="#0C0748"/>
<path d="M62.6919 7.54043H63.7557V4.36787C63.7557 3.52119 64.2555 2.99326 65.0423 2.99326C65.829 2.99326 66.2051 3.42656 66.2051 4.29814V7.54043H67.2689V4.0292C67.2689 2.73926 66.6059 2.01211 65.4035 2.01211C64.592 2.01211 64.0576 2.37568 63.7953 2.97832H63.7161V2.1167H62.6919V7.54043Z" fill="#0C0748"/>
<path d="M68.9444 7.54043H70.0083V0H68.9444V7.54043Z" fill="#0C0748"/>
<path d="M74.0094 7.64502C75.5829 7.64502 76.5478 6.58418 76.5478 4.82607C76.5478 3.07793 75.5779 2.01211 74.0094 2.01211C72.4358 2.01211 71.466 3.07793 71.466 4.82607C71.466 6.58418 72.4309 7.64502 74.0094 7.64502ZM74.0094 6.69375C73.084 6.69375 72.5645 6.01143 72.5645 4.82607C72.5645 3.65068 73.084 2.96338 74.0094 2.96338C74.9297 2.96338 75.4542 3.65068 75.4542 4.82607C75.4542 6.00645 74.9297 6.69375 74.0094 6.69375Z" fill="#0C0748"/>
<path d="M79.7176 6.72861C79.1386 6.72861 78.7181 6.44473 78.7181 5.95664C78.7181 5.47852 79.0545 5.22451 79.7968 5.17471L81.113 5.09004V5.54326C81.113 6.21563 80.5192 6.72861 79.7176 6.72861ZM79.4454 7.63008C80.153 7.63008 80.7419 7.32129 81.0635 6.77842H81.1476V7.54043H82.1719V3.83496C82.1719 2.68945 81.4099 2.01211 80.059 2.01211C78.8368 2.01211 77.9659 2.60977 77.8571 3.54111H78.8863C79.005 3.15762 79.4157 2.93848 80.0095 2.93848C80.7369 2.93848 81.113 3.26221 81.113 3.83496V4.30313L79.6533 4.38779C78.3717 4.46748 77.6492 5.03027 77.6492 6.00645C77.6492 6.99756 78.4063 7.63008 79.4454 7.63008Z" fill="#0C0748"/>
<path d="M85.7821 7.63008C86.5243 7.63008 87.1527 7.27646 87.4744 6.68379H87.5585V7.54043H88.5778V0H87.514V2.97832H87.4348C87.1428 2.38066 86.5194 2.02705 85.7821 2.02705C84.4213 2.02705 83.5455 3.11279 83.5455 4.82607C83.5455 6.54434 84.4114 7.63008 85.7821 7.63008ZM86.0839 2.98828C86.9746 2.98828 87.5337 3.70049 87.5337 4.83105C87.5337 5.9666 86.9795 6.66885 86.0839 6.66885C85.1834 6.66885 84.644 5.97656 84.644 4.82607C84.644 3.68555 85.1883 2.98828 86.0839 2.98828Z" fill="#0C0748"/>
<path d="M95.4766 7.64502C97.0501 7.64502 98.015 6.58418 98.015 4.82607C98.015 3.07793 97.0452 2.01211 95.4766 2.01211C93.903 2.01211 92.9332 3.07793 92.9332 4.82607C92.9332 6.58418 93.8981 7.64502 95.4766 7.64502ZM95.4766 6.69375C94.5513 6.69375 94.0317 6.01143 94.0317 4.82607C94.0317 3.65068 94.5513 2.96338 95.4766 2.96338C96.3969 2.96338 96.9214 3.65068 96.9214 4.82607C96.9214 6.00645 96.3969 6.69375 95.4766 6.69375Z" fill="#0C0748"/>
<path d="M99.4232 7.54043H100.487V4.36787C100.487 3.52119 100.987 2.99326 101.774 2.99326C102.56 2.99326 102.936 3.42656 102.936 4.29814V7.54043H104V4.0292C104 2.73926 103.337 2.01211 102.135 2.01211C101.323 2.01211 100.789 2.37568 100.527 2.97832H100.448V2.1167H99.4232V7.54043Z" fill="#0C0748"/>
<path d="M108.9 0.766992V2.1416H108.044V3.04307H108.9V6.10605C108.9 7.15195 109.37 7.57031 110.553 7.57031C110.761 7.57031 110.958 7.54541 111.132 7.51553V6.62402C110.983 6.63897 110.889 6.64893 110.726 6.64893C110.196 6.64893 109.964 6.3999 109.964 5.83213V3.04307H111.132V2.1416H109.964V0.766992H108.9Z" fill="#0C0748"/>
<path d="M112.56 7.54043H113.624V4.37285C113.624 3.55107 114.108 2.99824 114.979 2.99824C115.731 2.99824 116.132 3.43652 116.132 4.30313V7.54043H117.196V4.03916C117.196 2.74922 116.489 2.01709 115.341 2.01709C114.529 2.01709 113.96 2.38066 113.698 2.98828H113.614V0H112.56V7.54043Z" fill="#0C0748"/>
<path d="M121.034 2.92354C121.821 2.92354 122.335 3.47637 122.36 4.32803H119.639C119.698 3.48135 120.247 2.92354 121.034 2.92354ZM122.355 6.07617C122.157 6.49951 121.717 6.73359 121.074 6.73359C120.222 6.73359 119.673 6.13096 119.639 5.17969V5.11992H123.444V4.74639C123.444 3.04307 122.538 2.01211 121.039 2.01211C119.52 2.01211 118.555 3.11279 118.555 4.846C118.555 6.5792 119.5 7.64502 121.044 7.64502C122.276 7.64502 123.137 7.04736 123.379 6.07617H122.355Z" fill="#0C0748"/>
</svg>
