<svg width="30" height="30" viewBox="0 0 30 30" fill="none" xmlns="http://www.w3.org/2000/svg">
<path d="M8.99775 0.600098C4.36695 0.600098 0.600098 4.37044 0.600098 9.00244V21.0024C0.600098 25.6332 4.37044 29.4001 9.00244 29.4001H21.0024C25.6332 29.4001 29.4001 25.6298 29.4001 20.9978V8.99775C29.4001 4.36695 25.6298 0.600098 20.9978 0.600098H8.99775ZM23.4001 5.4001C24.0625 5.4001 24.6001 5.9377 24.6001 6.6001C24.6001 7.2625 24.0625 7.8001 23.4001 7.8001C22.7377 7.8001 22.2001 7.2625 22.2001 6.6001C22.2001 5.9377 22.7377 5.4001 23.4001 5.4001ZM15.0001 7.8001C18.9709 7.8001 22.2001 11.0293 22.2001 15.0001C22.2001 18.9709 18.9709 22.2001 15.0001 22.2001C11.0293 22.2001 7.8001 18.9709 7.8001 15.0001C7.8001 11.0293 11.0293 7.8001 15.0001 7.8001ZM15.0001 10.2001C13.7271 10.2001 12.5062 10.7058 11.606 11.606C10.7058 12.5062 10.2001 13.7271 10.2001 15.0001C10.2001 16.2731 10.7058 17.494 11.606 18.3942C12.5062 19.2944 13.7271 19.8001 15.0001 19.8001C16.2731 19.8001 17.494 19.2944 18.3942 18.3942C19.2944 17.494 19.8001 16.2731 19.8001 15.0001C19.8001 13.7271 19.2944 12.5062 18.3942 11.606C17.494 10.7058 16.2731 10.2001 15.0001 10.2001Z" fill="#0C0748"/>
</svg>
