<svg width="30" height="30" viewBox="0 0 30 30" fill="none" xmlns="http://www.w3.org/2000/svg">
<path d="M15.0001 0.600098C7.0477 0.600098 0.600098 7.0477 0.600098 15.0001C0.600098 22.9525 7.0477 29.4001 15.0001 29.4001C22.9525 29.4001 29.4001 22.9525 29.4001 15.0001C29.4001 7.0477 22.9525 0.600098 15.0001 0.600098ZM22.7569 12.0421C22.7641 12.2017 22.7677 12.3601 22.7677 12.5185C22.7677 17.4001 19.0537 23.0257 12.2605 23.0257C10.1737 23.0257 8.2333 22.4149 6.6001 21.3661C6.8893 21.4009 7.1833 21.4165 7.4821 21.4165C9.2137 21.4165 10.8049 20.8273 12.0673 19.8349C10.4509 19.8049 9.0865 18.7369 8.6173 17.2705C8.8429 17.3137 9.0745 17.3365 9.3121 17.3365C9.6493 17.3365 9.9769 17.2909 10.2853 17.2069C8.5957 16.8685 7.3225 15.3757 7.3225 13.5865C7.3225 13.5709 7.3225 13.5553 7.3225 13.5397C7.8205 13.8169 8.3893 13.9825 8.9953 14.0017C8.0053 13.3405 7.3525 12.2089 7.3525 10.9285C7.3525 10.2505 7.5337 9.6157 7.8517 9.0721C9.6733 11.3065 12.3949 12.7777 15.4633 12.9313C15.4009 12.6613 15.3685 12.3793 15.3685 12.0901C15.3685 10.0513 17.0221 8.3965 19.0609 8.3965C20.1229 8.3965 21.0829 8.8453 21.7561 9.5629C22.5973 9.3961 23.3881 9.0901 24.1021 8.6665C23.8261 9.5293 23.2405 10.2517 22.4773 10.7101C23.2237 10.6213 23.9353 10.4233 24.5989 10.1293C24.1057 10.8709 23.4805 11.5201 22.7569 12.0421Z" fill="#0C0748"/>
</svg>
