<svg width="24" height="24" viewBox="0 0 24 24" fill="none" xmlns="http://www.w3.org/2000/svg">
<path d="M15.5431 1C15.5873 1 15.6315 1 15.6782 1C15.7867 2.33992 15.2752 3.34111 14.6537 4.06613C14.0438 4.78615 13.2086 5.48448 11.8579 5.37852C11.7678 4.05779 12.28 3.13086 12.9008 2.4075C13.4764 1.73337 14.5319 1.13349 15.5431 1Z" fill="white"/>
<path d="M19.6321 14.9466C19.6321 14.96 19.6321 14.9717 19.6321 14.9842C19.2525 16.1339 18.711 17.1192 18.0502 18.0336C17.447 18.8638 16.7078 19.9809 15.3879 19.9809C14.2474 19.9809 13.4898 19.2476 12.3209 19.2275C11.0845 19.2075 10.4045 19.8408 9.274 20.0001C9.14468 20.0001 9.01536 20.0001 8.88854 20.0001C8.05839 19.88 7.38843 19.2225 6.90036 18.6302C5.46115 16.8798 4.349 14.6187 4.14209 11.7253C4.14209 11.4416 4.14209 11.1588 4.14209 10.8751C4.22969 8.80436 5.23589 7.12069 6.5733 6.30473C7.27914 5.87088 8.24945 5.50128 9.3299 5.66647C9.79295 5.73822 10.266 5.89675 10.6807 6.0536C11.0736 6.20461 11.565 6.47243 12.0306 6.45824C12.346 6.44907 12.6597 6.2847 12.9776 6.16873C13.9087 5.8325 14.8214 5.44705 16.0245 5.62809C17.4704 5.84669 18.4966 6.48911 19.1307 7.48029C17.9076 8.25871 16.9406 9.43176 17.1058 11.435C17.2526 13.2546 18.3105 14.3192 19.6321 14.9466Z" fill="white"/>
</svg>
