<svg width="58" height="37" viewBox="0 0 58 37" fill="none" xmlns="http://www.w3.org/2000/svg">
<path fill-rule="evenodd" clip-rule="evenodd" d="M29.5466 10.3907C33.1255 11.5176 35.7219 14.8715 35.7219 18.8208C35.7219 21.1289 34.835 23.2337 33.3835 24.8094C33.0312 28.5208 29.9354 31.4328 26.1465 31.4949C24.6024 32.3522 22.8251 32.8404 20.9337 32.8404C17.0328 32.8404 13.6169 30.7636 11.7315 27.6552H8.8176C3.94777 27.6552 0 23.6906 0 18.8208C0 14.1126 3.69007 10.2505 8.33587 9.99936C9.52771 6.54056 12.8109 4.05566 16.6745 4.05566H21.0833C25.0911 4.05566 28.4744 6.72955 29.5466 10.3907Z" fill="#D4704B"/>
<path fill-rule="evenodd" clip-rule="evenodd" d="M25.1589 16.708C25.1589 9.70748 30.8339 4.03247 37.8344 4.03247H45.3245C52.325 4.03247 58 9.70748 58 16.708C58 23.7085 52.325 29.3835 45.3245 29.3835C45.3245 29.3835 39.1513 29.4354 38.9571 29.4973C38.7629 29.5592 38.4292 29.8514 38.1523 30.0127L27.7577 36.0696C26.6054 36.741 25.159 35.9098 25.159 34.5762L25.159 22.4623C25.159 21.8451 25.4688 21.3355 25.9159 21.0327C25.426 19.6831 25.1589 18.2267 25.1589 16.708Z" fill="#080748"/>
<circle cx="28.9041" cy="14.6918" r="14.6921" fill="#F5D1C4"/>
<path d="M24.5829 16.9004C24.5829 16.9004 25.9741 19.3971 29.1218 19.3971C32.2695 19.3971 33.4173 16.9004 33.4173 16.9004" stroke="#D4704B" stroke-width="1.34437" stroke-linecap="round"/>
</svg>
