<svg width="205" height="37" viewBox="0 0 205 37" fill="none" xmlns="http://www.w3.org/2000/svg">
<path fill-rule="evenodd" clip-rule="evenodd" d="M29.5466 10.3907C33.1255 11.5176 35.7219 14.8715 35.7219 18.8208C35.7219 21.1289 34.835 23.2337 33.3835 24.8094C33.0312 28.5208 29.9354 31.4328 26.1465 31.495C24.6024 32.3522 22.8251 32.8404 20.9337 32.8404C17.0328 32.8404 13.6169 30.7636 11.7315 27.6553H8.8176C3.94777 27.6553 0 23.6906 0 18.8208C0 14.1126 3.69007 10.2505 8.33587 9.99938C9.52771 6.54058 12.8109 4.05568 16.6745 4.05568H21.0833C25.0911 4.05568 28.4744 6.72956 29.5466 10.3907Z" fill="#D4704B"/>
<path fill-rule="evenodd" clip-rule="evenodd" d="M25.1589 16.708C25.1589 9.70748 30.8339 4.03247 37.8344 4.03247H45.3245C52.325 4.03247 58 9.70748 58 16.708C58 23.7085 52.325 29.3835 45.3245 29.3835C45.3245 29.3835 39.1513 29.4354 38.9571 29.4973C38.7629 29.5592 38.4292 29.8514 38.1523 30.0127L27.7577 36.0696C26.6054 36.741 25.159 35.9098 25.159 34.5762L25.159 22.4623C25.159 21.8451 25.4688 21.3355 25.9159 21.0327C25.426 19.6831 25.1589 18.2267 25.1589 16.708Z" fill="#080748"/>
<circle cx="28.9041" cy="14.6918" r="14.6921" fill="#F5D1C4"/>
<path d="M24.5829 16.9004C24.5829 16.9004 25.9741 19.3971 29.1218 19.3971C32.2695 19.3971 33.4173 16.9004 33.4173 16.9004" stroke="#D4704B" stroke-width="1.34437" stroke-linecap="round"/>
<path d="M74.816 26.308V25.252L75.008 25.06H75.776C76.016 25.06 76.232 24.964 76.424 24.772C76.632 24.564 76.736 24.34 76.736 24.1V12.1C76.736 11.86 76.632 11.644 76.424 11.452C76.232 11.244 76.016 11.14 75.776 11.14H75.008L74.816 10.948V9.892L75.008 9.7H81.872L82.064 9.892V10.948L81.872 11.14H81.104C80.864 11.14 80.64 11.244 80.432 11.452C80.24 11.644 80.144 11.86 80.144 12.1V24.1C80.144 24.34 80.24 24.564 80.432 24.772C80.64 24.964 80.864 25.06 81.104 25.06H81.872L82.064 25.252V26.308L81.872 26.5H75.008L74.816 26.308ZM83.6988 26.308V25.252L83.8908 25.06H84.1788C84.4188 25.06 84.6348 24.964 84.8268 24.772C85.0348 24.564 85.1388 24.34 85.1388 24.1V18.052C85.1388 17.812 85.0348 17.596 84.8268 17.404C84.6348 17.196 84.4188 17.092 84.1788 17.092H83.8908L83.6988 16.9V16.252L83.8428 16.06L87.3468 14.644H88.1148L88.3068 14.836L88.0668 16.444C88.5148 15.788 89.0908 15.268 89.7948 14.884C90.4988 14.5 91.2988 14.308 92.1948 14.308C93.4908 14.308 94.5148 14.66 95.2668 15.364C96.0348 16.052 96.4188 17.068 96.4188 18.412V24.1C96.4188 24.34 96.5148 24.564 96.7068 24.772C96.9148 24.964 97.1388 25.06 97.3788 25.06H97.6668L97.8588 25.252V26.308L97.6668 26.5H92.0028L91.8108 26.308V25.252L92.0028 25.06H92.2908C92.5308 25.06 92.7468 24.964 92.9388 24.772C93.1468 24.564 93.2508 24.34 93.2508 24.1V18.532C93.2508 17.764 93.0428 17.188 92.6268 16.804C92.2268 16.42 91.6828 16.228 90.9948 16.228C90.2108 16.228 89.5628 16.516 89.0508 17.092C88.5548 17.652 88.3068 18.412 88.3068 19.372V24.1C88.3068 24.34 88.4028 24.564 88.5948 24.772C88.8028 24.964 89.0268 25.06 89.2668 25.06H89.5548L89.7468 25.252V26.308L89.5548 26.5H83.8908L83.6988 26.308ZM99.3551 26.308V25.252L99.5471 25.06H99.8351C100.075 25.06 100.291 24.964 100.483 24.772C100.691 24.564 100.795 24.34 100.795 24.1V18.052C100.795 17.812 100.691 17.596 100.483 17.404C100.291 17.196 100.075 17.092 99.8351 17.092H99.5471L99.3551 16.9V16.252L99.4991 16.06L103.003 14.644H103.771L103.963 14.836L103.723 16.444C104.171 15.788 104.747 15.268 105.451 14.884C106.155 14.5 106.955 14.308 107.851 14.308C109.147 14.308 110.171 14.66 110.923 15.364C111.691 16.052 112.075 17.068 112.075 18.412V24.1C112.075 24.34 112.171 24.564 112.363 24.772C112.571 24.964 112.795 25.06 113.035 25.06H113.323L113.515 25.252V26.308L113.323 26.5H107.659L107.467 26.308V25.252L107.659 25.06H107.947C108.187 25.06 108.403 24.964 108.595 24.772C108.803 24.564 108.907 24.34 108.907 24.1V18.532C108.907 17.764 108.699 17.188 108.283 16.804C107.883 16.42 107.339 16.228 106.651 16.228C105.867 16.228 105.219 16.516 104.707 17.092C104.211 17.652 103.963 18.412 103.963 19.372V24.1C103.963 24.34 104.059 24.564 104.251 24.772C104.459 24.964 104.683 25.06 104.923 25.06H105.211L105.403 25.252V26.308L105.211 26.5H99.5471L99.3551 26.308ZM121.347 26.836C120.115 26.836 119.019 26.556 118.059 25.996C117.099 25.436 116.347 24.676 115.803 23.716C115.275 22.74 115.011 21.66 115.011 20.476C115.011 19.324 115.283 18.276 115.827 17.332C116.387 16.388 117.139 15.652 118.083 15.124C119.043 14.58 120.107 14.308 121.275 14.308C122.555 14.308 123.635 14.596 124.515 15.172C125.395 15.748 126.051 16.516 126.483 17.476C126.915 18.42 127.131 19.476 127.131 20.644L126.939 20.836H118.011C118.011 21.54 118.179 22.18 118.515 22.756C118.851 23.316 119.323 23.764 119.931 24.1C120.539 24.42 121.243 24.58 122.043 24.58C124.011 24.58 125.523 23.78 126.579 22.18L126.771 22.084L127.131 22.228L127.203 22.42C126.819 23.78 126.107 24.86 125.067 25.66C124.027 26.444 122.787 26.836 121.347 26.836ZM123.027 19.3C123.363 19.3 123.603 19.22 123.747 19.06C123.907 18.884 123.987 18.668 123.987 18.412C123.987 17.628 123.739 17.004 123.243 16.54C122.747 16.076 122.099 15.844 121.299 15.844C120.371 15.844 119.603 16.164 118.995 16.804C118.403 17.428 118.075 18.196 118.011 19.108L118.203 19.3H123.027ZM128.839 26.308V25.252L129.031 25.06H129.319C129.559 25.06 129.775 24.964 129.967 24.772C130.175 24.564 130.279 24.34 130.279 24.1V18.052C130.279 17.812 130.175 17.596 129.967 17.404C129.775 17.196 129.559 17.092 129.319 17.092H129.031L128.839 16.9V16.252L128.983 16.06L132.487 14.644H133.255L133.447 14.836L133.207 16.66C133.527 15.956 133.983 15.388 134.575 14.956C135.167 14.524 135.839 14.308 136.591 14.308C137.167 14.308 137.639 14.484 138.007 14.836C138.391 15.172 138.583 15.604 138.583 16.132C138.583 16.628 138.407 17.052 138.055 17.404C137.719 17.74 137.295 17.908 136.783 17.908C136.287 17.908 135.871 17.748 135.535 17.428C135.199 17.092 135.015 16.684 134.983 16.204C134.519 16.492 134.143 16.964 133.855 17.62C133.583 18.26 133.447 18.996 133.447 19.828V24.1C133.447 24.34 133.543 24.564 133.735 24.772C133.943 24.964 134.167 25.06 134.407 25.06H134.695L134.887 25.252V26.308L134.695 26.5H129.031L128.839 26.308ZM144.732 26.836C143.772 26.836 142.876 26.7 142.044 26.428C141.228 26.156 140.532 25.796 139.956 25.348L139.788 25.036L139.98 21.676L140.22 21.436H141.18L141.42 21.676C141.532 22.876 141.884 23.796 142.476 24.436C143.068 25.076 143.772 25.396 144.588 25.396C145.34 25.396 145.924 25.14 146.34 24.628C146.756 24.1 146.964 23.492 146.964 22.804C146.964 22.148 146.852 21.604 146.628 21.172C146.404 20.724 146.084 20.34 145.668 20.02C145.252 19.7 144.684 19.364 143.964 19.012C142.652 18.356 141.66 17.628 140.988 16.828C140.316 16.012 139.98 15.06 139.98 13.972C139.98 13.028 140.22 12.204 140.7 11.5C141.196 10.796 141.844 10.268 142.644 9.916C143.444 9.548 144.292 9.364 145.188 9.364C146.804 9.364 148.092 9.748 149.052 10.516L149.196 10.756L149.316 13.972L149.076 14.212H148.212L147.972 13.972C147.86 12.916 147.58 12.124 147.132 11.596C146.7 11.068 146.108 10.804 145.356 10.804C144.684 10.804 144.14 11.02 143.724 11.452C143.324 11.884 143.124 12.428 143.124 13.084C143.124 13.74 143.348 14.316 143.796 14.812C144.244 15.292 144.996 15.788 146.052 16.3C147.492 17.02 148.548 17.796 149.22 18.628C149.892 19.444 150.228 20.508 150.228 21.82C150.228 22.7 150.004 23.524 149.556 24.292C149.108 25.06 148.468 25.676 147.636 26.14C146.804 26.604 145.836 26.836 144.732 26.836ZM158.191 26.836C156.959 26.836 155.863 26.556 154.903 25.996C153.943 25.436 153.191 24.676 152.647 23.716C152.119 22.74 151.855 21.66 151.855 20.476C151.855 19.324 152.127 18.276 152.671 17.332C153.231 16.388 153.983 15.652 154.927 15.124C155.887 14.58 156.951 14.308 158.119 14.308C159.399 14.308 160.479 14.596 161.359 15.172C162.239 15.748 162.895 16.516 163.327 17.476C163.759 18.42 163.975 19.476 163.975 20.644L163.783 20.836H154.855C154.855 21.54 155.023 22.18 155.359 22.756C155.695 23.316 156.167 23.764 156.775 24.1C157.383 24.42 158.087 24.58 158.887 24.58C160.855 24.58 162.367 23.78 163.423 22.18L163.615 22.084L163.975 22.228L164.047 22.42C163.663 23.78 162.951 24.86 161.911 25.66C160.871 26.444 159.631 26.836 158.191 26.836ZM159.871 19.3C160.207 19.3 160.447 19.22 160.591 19.06C160.751 18.884 160.831 18.668 160.831 18.412C160.831 17.628 160.583 17.004 160.087 16.54C159.591 16.076 158.943 15.844 158.143 15.844C157.215 15.844 156.447 16.164 155.839 16.804C155.247 17.428 154.919 18.196 154.855 19.108L155.047 19.3H159.871ZM165.683 26.308V25.252L165.875 25.06H166.163C166.403 25.06 166.619 24.964 166.811 24.772C167.019 24.564 167.123 24.34 167.123 24.1V18.052C167.123 17.812 167.019 17.596 166.811 17.404C166.619 17.196 166.403 17.092 166.163 17.092H165.875L165.683 16.9V16.252L165.827 16.06L169.331 14.644H170.099L170.291 14.836L170.051 16.444C170.499 15.788 171.075 15.268 171.779 14.884C172.483 14.5 173.283 14.308 174.179 14.308C175.475 14.308 176.499 14.66 177.251 15.364C178.019 16.052 178.403 17.068 178.403 18.412V24.1C178.403 24.34 178.499 24.564 178.691 24.772C178.899 24.964 179.123 25.06 179.363 25.06H179.651L179.843 25.252V26.308L179.651 26.5H173.987L173.795 26.308V25.252L173.987 25.06H174.275C174.515 25.06 174.731 24.964 174.923 24.772C175.131 24.564 175.235 24.34 175.235 24.1V18.532C175.235 17.764 175.027 17.188 174.611 16.804C174.211 16.42 173.667 16.228 172.979 16.228C172.195 16.228 171.547 16.516 171.035 17.092C170.539 17.652 170.291 18.412 170.291 19.372V24.1C170.291 24.34 170.387 24.564 170.579 24.772C170.787 24.964 171.011 25.06 171.251 25.06H171.539L171.731 25.252V26.308L171.539 26.5H165.875L165.683 26.308ZM185.683 26.836C184.851 26.836 184.083 26.74 183.379 26.548C182.691 26.356 182.099 26.1 181.603 25.78L181.483 25.54L182.131 22.9L182.323 22.708H183.139L183.331 22.9C183.331 23.716 183.523 24.364 183.907 24.844C184.307 25.308 184.851 25.54 185.539 25.54C186.131 25.54 186.563 25.372 186.835 25.036C187.123 24.7 187.267 24.3 187.267 23.836C187.267 23.276 187.123 22.844 186.835 22.54C186.547 22.236 186.043 21.948 185.323 21.676C184.123 21.212 183.235 20.684 182.659 20.092C182.099 19.5 181.819 18.796 181.819 17.98C181.819 16.876 182.227 15.988 183.043 15.316C183.875 14.644 184.923 14.308 186.187 14.308C187.307 14.308 188.291 14.532 189.139 14.98L189.307 15.22L189.427 17.908L189.235 18.1H188.323L188.131 17.908C187.987 16.388 187.331 15.628 186.163 15.628C185.731 15.628 185.363 15.764 185.059 16.036C184.755 16.292 184.603 16.644 184.603 17.092C184.603 17.572 184.803 17.996 185.203 18.364C185.603 18.716 186.251 19.076 187.147 19.444C188.123 19.844 188.875 20.3 189.403 20.812C189.931 21.324 190.195 22.044 190.195 22.972C190.195 24.22 189.755 25.18 188.875 25.852C188.011 26.508 186.947 26.836 185.683 26.836ZM198.152 26.836C196.92 26.836 195.824 26.556 194.864 25.996C193.904 25.436 193.152 24.676 192.608 23.716C192.08 22.74 191.816 21.66 191.816 20.476C191.816 19.324 192.088 18.276 192.632 17.332C193.192 16.388 193.944 15.652 194.888 15.124C195.848 14.58 196.912 14.308 198.08 14.308C199.36 14.308 200.44 14.596 201.32 15.172C202.2 15.748 202.856 16.516 203.288 17.476C203.72 18.42 203.936 19.476 203.936 20.644L203.744 20.836H194.816C194.816 21.54 194.984 22.18 195.32 22.756C195.656 23.316 196.128 23.764 196.736 24.1C197.344 24.42 198.048 24.58 198.848 24.58C200.816 24.58 202.328 23.78 203.384 22.18L203.576 22.084L203.936 22.228L204.008 22.42C203.624 23.78 202.912 24.86 201.872 25.66C200.832 26.444 199.592 26.836 198.152 26.836ZM199.832 19.3C200.168 19.3 200.408 19.22 200.552 19.06C200.712 18.884 200.792 18.668 200.792 18.412C200.792 17.628 200.544 17.004 200.048 16.54C199.552 16.076 198.904 15.844 198.104 15.844C197.176 15.844 196.408 16.164 195.8 16.804C195.208 17.428 194.88 18.196 194.816 19.108L195.008 19.3H199.832Z" fill="#0C0748"/>
</svg>
